<?xml version="1.0" encoding="UTF-8"?>
<svg width="70px" height="70px" viewBox="0 0 70 70" version="1.1" xmlns="http://www.w3.org/2000/svg" xmlns:xlink="http://www.w3.org/1999/xlink">
    <!-- Generator: Sketch 51 (57462) - http://www.bohemiancoding.com/sketch -->
    <title>icon</title>
    <desc>Created with Sketch.</desc>
    <defs></defs>
    <g id="Explorer-final" stroke="none" stroke-width="1" fill="none" fill-rule="evenodd">
        <g id="bch---tx" transform="translate(-879.000000, -2101.000000)">
            <rect fill="#FFFFFF" x="0" y="0" width="1440" height="3067"></rect>
            <g id="products" transform="translate(0.000000, 1726.000000)" fill-rule="nonzero">
                <g id="bucket-2" transform="translate(760.000000, 282.000000)">
                    <g id="markets" transform="translate(24.000000, 61.000000)">
                        <g id="icon" transform="translate(95.000000, 32.000000)">
                            <circle id="Oval" fill="#84DBFF" cx="34.9392871" cy="34.9392871" r="34.9392871"></circle>
                            <circle id="Oval" fill="#324A5E" cx="16.7053267" cy="39.2519802" r="4.09437624"></circle>
                            <circle id="Oval" fill="#E6E9EE" cx="16.7053267" cy="39.2519802" r="3.43928713"></circle>
                            <path d="M16.596099,42.0363168 L16.596099,41.5449307 C15.9956238,41.4903168 15.4496238,41.2173861 14.9583762,40.8352277 L15.4497624,40.2347525 C15.8319208,40.562297 16.2140792,40.7261386 16.5962376,40.8352277 L16.5962376,39.5250495 C16.1048515,39.4158218 15.7226931,39.2521188 15.5043762,39.0336634 C15.2860594,38.8153465 15.1768317,38.5422772 15.1768317,38.1601188 C15.1768317,37.7779604 15.2860594,37.4504158 15.5589901,37.232099 C15.8319208,37.0137822 16.1594653,36.8499406 16.5962376,36.8499406 L16.5962376,36.522396 L17.0330099,36.522396 L17.0330099,36.8499406 C17.524396,36.9045545 17.9610297,37.0682574 18.397802,37.3413267 L17.9610297,37.941802 C17.688099,37.7234851 17.3605545,37.6142574 17.0330099,37.5596436 L17.0330099,38.8152079 C17.524396,38.9244356 17.9065545,39.0881386 18.1794851,39.3065941 C18.397802,39.5249109 18.5616436,39.7979802 18.5616436,40.1801386 C18.5616436,40.562297 18.397802,40.8898416 18.1248713,41.1081584 C17.8519406,41.3264752 17.4697822,41.4903168 17.0330099,41.4903168 L17.0330099,42.0361782 L16.596099,42.0361782 L16.596099,42.0363168 Z M16.1048515,37.7234851 C15.9956238,37.8327129 15.9410099,37.941802 15.9410099,38.1056436 C15.9410099,38.2694851 15.9956238,38.3785743 16.0502376,38.4331881 C16.1594653,38.5424158 16.3231683,38.5970297 16.5416238,38.7061188 L16.5416238,37.5596436 C16.3777822,37.5596436 16.2139406,37.6142574 16.1048515,37.7234851 Z M17.5242574,40.6169109 C17.6334851,40.5076832 17.688099,40.3985941 17.688099,40.2347525 C17.688099,40.0709109 17.6334851,39.9618218 17.5242574,39.8525941 C17.4150297,39.7433663 17.2513267,39.6887525 16.978396,39.5796634 L16.978396,40.7807525 C17.1967129,40.7806139 17.3604158,40.726 17.5242574,40.6169109 Z" id="Shape" fill="#324A5E"></path>
                            <path d="M16.7053267,24.1845149 L9.17152475,42.3638614 L9.17152475,42.5821782 C9.17152475,46.7311683 12.556198,50.1159802 16.7053267,50.1159802 C20.8544554,50.1159802 24.2391287,46.7313069 24.2391287,42.5821782 L24.2391287,42.3092475 L16.7053267,24.1845149 Z M10.2633861,42.3638614 L16.7053267,27.4054851 L23.1472673,42.3638614 L10.2633861,42.3638614 Z" id="Shape" fill="#F9B54C"></path>
                            <circle id="Oval" fill="#F1543F" cx="53.7191089" cy="31.3361584" r="4.09437624"></circle>
                            <circle id="Oval" fill="#FF7058" cx="53.7191089" cy="31.3361584" r="3.38467327"></circle>
                            <path d="M53.5552673,34.1749703 L53.5552673,33.6835842 C52.9547921,33.6289703 52.3541782,33.3560396 51.8629307,32.9192673 L52.3543168,32.3187921 C52.7364752,32.6463366 53.1186337,32.8646535 53.5554059,32.9192673 L53.5554059,31.6090891 C53.0640198,31.4998614 52.6818614,31.3361584 52.4089307,31.117703 C52.1906139,30.8993861 52.0267723,30.6263168 52.0267723,30.2441584 C52.0267723,29.862 52.1906139,29.5344554 52.4635446,29.2615248 C52.7364752,28.9885941 53.1186337,28.8793663 53.5554059,28.8793663 L53.5554059,28.5518218 L53.9921782,28.5518218 L53.9921782,28.8793663 C54.4835644,28.9339802 54.9748119,29.0976832 55.4115842,29.3707525 L54.9748119,29.9712277 C54.7018812,29.7529109 54.3743366,29.6436832 53.9921782,29.5890693 L53.9921782,30.8446337 C54.5380396,30.9538614 54.920198,31.1175644 55.1386535,31.3360198 C55.3569703,31.5543366 55.5208119,31.8274059 55.5208119,32.2640396 C55.5208119,32.646198 55.3569703,32.9737426 55.0840396,33.2466733 C54.8111089,33.519604 54.4289505,33.6288317 53.9921782,33.6288317 L53.9921782,34.1202178 L53.5554059,34.1202178 L53.5554059,34.1749703 L53.5552673,34.1749703 Z M53.0638812,29.7529109 C52.9546535,29.8621386 52.9000396,29.9712277 52.9000396,30.1350693 C52.9000396,30.2989109 52.9546535,30.408 53.0638812,30.5172277 C53.1731089,30.6264554 53.3368119,30.6810693 53.5552673,30.7901584 L53.5552673,29.5890693 C53.3369505,29.5892079 53.1731089,29.6436832 53.0638812,29.7529109 Z M54.4832871,32.7555644 C54.5925149,32.6463366 54.6471287,32.5372475 54.6471287,32.3734059 C54.6471287,32.2095644 54.5925149,32.1004752 54.4832871,31.9912475 C54.3740594,31.8820198 54.2103564,31.8274059 53.9374257,31.7183168 L53.9374257,32.9194059 C54.2103564,32.9192673 54.374198,32.8646535 54.4832871,32.7555644 Z" id="Shape" fill="#FFFFFF"></path>
                            <path d="M53.7191089,16.2685545 L46.1853069,34.447901 L46.1853069,34.7208317 C46.1853069,38.8698218 49.5699802,42.2546337 53.7191089,42.2546337 C57.8682376,42.2546337 61.2529109,38.8699604 61.2529109,34.7208317 L61.2529109,34.447901 L53.7191089,16.2685545 Z M47.2771683,34.447901 L53.7191089,19.4895248 L60.1610495,34.447901 L47.2771683,34.447901 Z" id="Shape" fill="#F9B54C"></path>
                            <rect id="Rectangle-path" fill="#324A5E" x="33.1377228" y="19.7624554" width="3.76683168" height="33.192198"></rect>
                            <g id="Group" transform="translate(13.861386, 13.861386)" fill="#2B3B4E">
                                <path d="M0.114356436,10.3231287 C0.332673267,11.3057624 1.26083168,11.9063762 2.24346535,11.6879208 L40.7312673,3.55364356 C41.713901,3.33532673 42.3145149,2.40716832 42.0960594,1.42453465 C41.8777426,0.44190099 40.9495842,-0.158712871 39.9669505,0.0597425743 L1.47914851,8.1940198 C0.496514851,8.41233663 -0.10409901,9.34049505 0.114356436,10.3231287 Z" id="Shape"></path>
                                <path d="M12.6159406,42.0959208 L29.7034257,42.0959208 C29.7034257,39.748495 27.7926337,37.8923168 25.4452079,37.8923168 L16.8741584,37.8923168 C14.5267327,37.8923168 12.6159406,39.8031089 12.6159406,42.0959208 Z" id="Shape"></path>
                            </g>
                        </g>
                    </g>
                </g>
            </g>
        </g>
    </g>
</svg>