<?xml version="1.0" encoding="UTF-8"?>
<svg width="70px" height="70px" viewBox="0 0 70 70" version="1.1" xmlns="http://www.w3.org/2000/svg" xmlns:xlink="http://www.w3.org/1999/xlink">
    <!-- Generator: Sketch 51 (57462) - http://www.bohemiancoding.com/sketch -->
    <title>icon</title>
    <desc>Created with Sketch.</desc>
    <defs></defs>
    <g id="Explorer-final" stroke="none" stroke-width="1" fill="none" fill-rule="evenodd">
        <g id="bch---tx" transform="translate(-217.000000, -2101.000000)">
            <rect fill="#FFFFFF" x="0" y="0" width="1440" height="3067"></rect>
            <g id="products" transform="translate(0.000000, 1726.000000)" fill-rule="nonzero">
                <g id="bucket-1" transform="translate(98.000000, 282.000000)">
                    <g id="wallet" transform="translate(24.000000, 61.000000)">
                        <g id="icon" transform="translate(95.000000, 32.000000)">
                            <circle id="Oval" fill="#EFAA9A" cx="35" cy="35" r="35"></circle>
                            <path d="M19.6875242,22.8846154 L48.293245,22.8846154 C49.8665938,22.8846154 51.1538462,24.2097169 51.1538462,25.8293269 L51.1538462,29.3629808 C51.1538462,30.9825908 49.8665938,32.3076923 48.293245,32.3076923 L19.6875242,32.3076923 C18.1141754,32.3075428 16.8269231,30.9824413 16.8269231,29.362906 L16.8269231,25.8292522 C16.8269231,24.2097169 18.1141754,22.8846154 19.6875242,22.8846154 Z" id="Shape" fill="#B77243"></path>
                            <path d="M26.245327,25.500342 L44.0646109,20.9060017 C44.6623983,20.7399454 45.2885899,21.0997457 45.459376,21.6809778 L48.4197645,32.3089298 C48.5905506,32.8901619 48.220502,33.4990114 47.6227146,33.6650677 L24.4235606,39.6709214 C23.8257731,39.8369777 23.1995816,39.4771774 23.0287955,38.8959453 L20.8653846,31.0910902 L26.245327,25.500342 Z" id="Shape" fill="#3DB39E"></path>
                            <path d="M44.6770477,32.3472 L40.8465998,33.371955 C40.53451,33.4573874 40.2223482,33.2865226 40.1656505,32.9734151 C40.0804958,32.6603075 40.2508051,32.3471277 40.5628949,32.290245 L43.8542459,31.407805 L42.0951029,24.8036352 L38.8037518,25.6860752 C38.4916621,25.7715076 38.1795003,25.6006429 38.1228025,25.2875353 C38.0376479,24.9744277 38.2079572,24.6612479 38.520047,24.6043653 L42.3504949,23.5796102 C42.6625846,23.4941778 42.9747464,23.6650426 43.0314442,23.9781501 L45.0743641,31.6640299 C45.1593747,31.9771375 44.9891374,32.290245 44.6770477,32.3472 Z M28.7877023,36.6456347 L24.9572544,37.6703898 C24.6451646,37.7558222 24.3330028,37.5849574 24.2763051,37.2718499 L22.2333851,29.5859701 C22.1482304,29.2728625 22.3185398,28.9596827 22.6306295,28.9028 L26.4610774,27.878045 C26.7731672,27.7926126 27.085329,27.9634774 27.1420267,28.2765849 C27.2271814,28.5896925 27.0568721,28.9028723 26.7447823,28.959755 L23.4534313,29.842195 L25.2125743,36.4463648 L28.5039254,35.5639248 C28.8160151,35.4784924 29.1281769,35.6493571 29.1848747,35.9624647 C29.2700293,36.2470948 29.099792,36.5602024 28.7877023,36.6456347 Z" id="Shape" fill="#78CABB"></path>
                            <path d="M16.8548289,29.7028379 C21.8075041,26.8522673 35.1632099,18.9993436 35.1632099,18.9993436 C35.6918654,18.6919563 36.3874611,18.8596285 36.6935769,19.3906026 L42.2584131,29.0041207 C42.5644582,29.5350947 42.369683,30.2057838 41.8410274,30.5132421 L21.4736238,42.2506564 C20.9449683,42.5580437 20.2493726,42.3903715 19.9432568,41.8593974 C19.9432568,41.8593974 18.3851252,38.6735532 16.8269231,35.9906548 C16.8269937,29.7028379 16.8548289,31.7708197 16.8548289,29.7028379 Z" id="Shape" fill="#5ABEAC"></path>
                            <path d="M40.3033986,29.3453973 L36.3182049,22.4967555 C36.147415,22.2137876 35.8058352,22.1288541 35.5496143,22.2986492 L32.1052673,24.2796399 C31.8206416,24.449435 31.7352105,24.7890252 31.9060004,25.0437538 C32.0767902,25.3267217 32.41837,25.4116552 32.674591,25.2418601 L35.6350454,23.5438372 L39.0509876,29.430259 L36.0905332,31.1282818 C35.8059075,31.2980769 35.7204764,31.6376671 35.8912663,31.8923957 C36.0620562,32.1753636 36.403636,32.2602971 36.659857,32.090502 L40.104204,30.1095112 C40.3603527,29.9680273 40.4741885,29.6284371 40.3033986,29.3453973 Z M25.216501,37.3543656 L22.2560466,39.0523885 L18.8401043,33.1658949 L21.8005587,31.467872 C22.0851844,31.2980769 22.1706155,30.9584867 21.9998256,30.7037581 C21.8290357,30.4207903 21.487456,30.3358568 21.231235,30.5056519 L17.786888,32.4866426 C17.5022623,32.6564377 17.4168312,32.9960279 17.5876211,33.2507565 L21.5728148,40.0993984 C21.7436047,40.3823663 22.0851844,40.4672998 22.3414054,40.2975047 L25.7857524,38.3165139 C26.0703781,38.1467188 26.1558092,37.8071286 25.9850193,37.5524 C25.8427065,37.2977433 25.5011267,37.1844987 25.216501,37.3543656 Z M26.6682511,27.3644066 C24.4763874,28.6095946 23.7362738,31.3830104 24.988757,33.5621074 C26.2697173,35.7412044 29.0309048,36.4770071 31.2227685,35.2318191 C33.4146323,33.9866311 34.1547459,31.2132153 32.9022626,29.0341183 C31.6213024,26.8832606 28.8601149,26.1192186 26.6682511,27.3644066 Z M40.3033986,29.3453973 L36.3182049,22.4967555 C36.147415,22.2137876 35.8058352,22.1288541 35.5496143,22.2986492 L32.1052673,24.2796399 C31.8206416,24.449435 31.7352105,24.7890252 31.9060004,25.0437538 C32.0767902,25.3267217 32.41837,25.4116552 32.674591,25.2418601 L35.6350454,23.5438372 L39.0509876,29.430259 L36.0905332,31.1282818 C35.8059075,31.2980769 35.7204764,31.6376671 35.8912663,31.8923957 C36.0620562,32.1753636 36.403636,32.2602971 36.659857,32.090502 L40.104204,30.1095112 C40.3603527,29.9680273 40.4741885,29.6284371 40.3033986,29.3453973 Z M25.216501,37.3543656 L22.2560466,39.0523885 L18.8401043,33.1658949 L21.8005587,31.467872 C22.0851844,31.2980769 22.1706155,30.9584867 21.9998256,30.7037581 C21.8290357,30.4207903 21.487456,30.3358568 21.231235,30.5056519 L17.786888,32.4866426 C17.5022623,32.6564377 17.4168312,32.9960279 17.5876211,33.2507565 L21.5728148,40.0993984 C21.7436047,40.3823663 22.0851844,40.4672998 22.3414054,40.2975047 L25.7857524,38.3165139 C26.0703781,38.1467188 26.1558092,37.8071286 25.9850193,37.5524 C25.8427065,37.2977433 25.5011267,37.1844987 25.216501,37.3543656 Z M26.6682511,27.3644066 C24.4763874,28.6095946 23.7362738,31.3830104 24.988757,33.5621074 C26.2697173,35.7412044 29.0309048,36.4770071 31.2227685,35.2318191 C33.4146323,33.9866311 34.1547459,31.2132153 32.9022626,29.0341183 C31.6213024,26.8832606 28.8601149,26.1192186 26.6682511,27.3644066 Z" id="Shape" fill="#8CD2C5"></path>
                            <path d="M49.0043193,51.1538462 L19.6495268,51.1538462 C18.0970769,51.1538462 16.8269231,49.9086609 16.8269231,48.3867287 L16.8269231,28.4636939 L49.0043193,28.4636939 C50.5567693,28.4636939 51.8269231,29.7088792 51.8269231,31.2308114 L51.8269231,48.386799 C51.8268514,49.9086609 50.5566976,51.1538462 49.0043193,51.1538462 Z M19.0850061,28.4636939 L16.8269231,28.4636939 L16.8269231,26.25 C16.8269231,27.4675036 17.8430174,28.4636939 19.0850061,28.4636939 Z" id="Shape" fill="#B77243"></path>
                            <path d="M52.0644631,43.0769231 L47.6300781,43.0769231 C45.4960281,43.0769231 43.75,41.4110644 43.75,39.375 C43.75,37.3389356 45.4960281,35.6730769 47.6300781,35.6730769 L52.0644631,35.6730769 C52.6742218,35.6730769 53.1730769,36.149027 53.1730769,36.7307884 L53.1730769,42.0192787 C53.1730769,42.600973 52.6742218,43.0769231 52.0644631,43.0769231 Z" id="Shape" fill="#B77243"></path>
                            <path d="M49.0043193,50 L19.6495268,50 C18.0970769,50 16.8269231,48.7019414 16.8269231,47.1153846 L16.8269231,48.2692308 C16.8269231,49.8557875 18.0970769,51.1538462 19.6495268,51.1538462 L49.0043193,51.1538462 C50.5567693,51.1538462 51.8269231,49.8557875 51.8269231,48.2692308 L51.8269231,47.1153846 C51.8268514,48.7019414 50.5566976,50 49.0043193,50 Z" id="Shape" fill="#B27245"></path>
                            <path d="M49.0043193,28.4527972 L19.0850061,28.4527972 C17.8430174,28.4527972 16.8269231,27.4615105 16.8269231,26.25 L16.8269231,27.3513986 C16.8269231,28.5629091 17.8430174,29.5541958 19.0850061,29.5541958 L49.0043193,29.5541958 C50.5567693,29.5541958 51.8269231,30.7932518 51.8269231,32.3076923 L51.8269231,31.2062937 C51.8268514,29.6918532 50.5566976,28.4527972 49.0043193,28.4527972 Z" id="Shape" fill="#CA8B5F"></path>
                        </g>
                    </g>
                </g>
            </g>
        </g>
    </g>
</svg>