<?xml version="1.0" encoding="UTF-8"?>
<svg width="70px" height="70px" viewBox="0 0 70 70" version="1.1" xmlns="http://www.w3.org/2000/svg" xmlns:xlink="http://www.w3.org/1999/xlink">
    <!-- Generator: Sketch 51 (57462) - http://www.bohemiancoding.com/sketch -->
    <title>api icon</title>
    <desc>Created with Sketch.</desc>
    <defs></defs>
    <g id="Explorer-final" stroke="none" stroke-width="1" fill="none" fill-rule="evenodd">
        <g id="bch---tx" transform="translate(-501.000000, -2101.000000)">
            <rect fill="#FFFFFF" x="0" y="0" width="1440" height="3067"></rect>
            <g id="products" transform="translate(0.000000, 1726.000000)" fill-rule="nonzero">
                <g id="bucket-1" transform="translate(98.000000, 282.000000)">
                    <g id="API" transform="translate(308.000000, 61.000000)">
                        <g id="api-icon" transform="translate(95.000000, 32.000000)">
                            <circle id="Oval" fill="#FD8469" cx="35" cy="35" r="35"></circle>
                            <g id="Group" transform="translate(12.009901, 14.128713)">
                                <g id="Group-2">
                                    <polygon id="Shape" fill="#324A5E" points="29.5009901 32.9227723 16.4990099 32.9227723 15.2376238 41.2811881 30.7623762 41.2811881"></polygon>
                                    <polygon id="Shape" fill="#2B3B4E" points="30.0138614 36.3188119 29.5009901 32.9227723 16.4990099 32.9227723 15.9861386 36.3188119"></polygon>
                                    <path d="M44.5960396,34.1980198 L1.4039604,34.1980198 C1.14059406,34.1980198 0.932673267,33.990099 0.932673267,33.7267327 L0.932673267,1.33267327 C0.932673267,1.06930693 1.14059406,0.861386139 1.4039604,0.861386139 L44.5821782,0.861386139 C44.8455446,0.861386139 45.0534653,1.06930693 45.0534653,1.33267327 L45.0534653,33.7267327 C45.0673267,33.990099 44.8594059,34.1980198 44.5960396,34.1980198 Z" id="Shape" fill="#324A5E"></path>
                                    <rect id="Rectangle-path" fill="#FFFFFF" x="3.52475248" y="3.60594059" width="38.9366337" height="27.8613861"></rect>
                                    <rect id="Rectangle-path" fill="#FF7058" x="5.92277228" y="5.67128713" width="3.85346535" height="3.85346535"></rect>
                                    <rect id="Rectangle-path" fill="#E6E9EE" x="11.1069307" y="6.17029703" width="11.5049505" height="1"></rect>
                                    <rect id="Rectangle-path" fill="#E6E9EE" x="11.1069307" y="8.08316832" width="15.4415842" height="1"></rect>
                                    <rect id="Rectangle-path" fill="#E6E9EE" x="23.8732673" y="6.17029703" width="7.37425743" height="1"></rect>
                                </g>
                                <polygon id="Shape" fill="#ACB3BA" points="35.0217822 13.580198 35.0217822 14.8831683 34.2039604 13.8574257 25.8316832 20.5663366 15.3386139 14.1346535 9.48910891 22.3267327 3.43168317 17.5306931 3.43168317 20.8435644 8.94851485 25.2237624 9.75247525 24.1980198 10.819802 24.960396 16.0455446 17.6277228 26.0257426 23.7405941 35.4792079 16.1861386 42.4792079 16.1861386 42.4792079 13.580198"></polygon>
                            </g>
                            <circle id="Oval" fill="#FF7058" cx="47.0316832" cy="29.0118812" r="3.34059406"></circle>
                            <circle id="Oval" fill="#FFFFFF" cx="47.0316832" cy="29.0118812" r="1.28910891"></circle>
                            <circle id="Oval" fill="#4CDBC4" cx="37.9386139" cy="36.2891089" r="3.34059406"></circle>
                            <circle id="Oval" fill="#FFFFFF" cx="37.9386139" cy="36.2891089" r="1.28910891"></circle>
                            <circle id="Oval" fill="#FFD05B" cx="27.7089109" cy="30.009901" r="3.34059406"></circle>
                            <circle id="Oval" fill="#FFFFFF" cx="27.7089109" cy="30.009901" r="1.28910891"></circle>
                            <circle id="Oval" fill="#54C0EB" cx="21.7623762" cy="38.3267327" r="3.34059406"></circle>
                            <circle id="Oval" fill="#FFFFFF" cx="21.7623762" cy="38.3267327" r="1.28910891"></circle>
                            <path d="M45.1049505,56.1386139 L24.8950495,56.1386139 L24.8950495,53.3524752 C24.8950495,52.9782178 25.2,52.6732673 25.5742574,52.6732673 L44.4257426,52.6732673 C44.8,52.6732673 45.1049505,52.9782178 45.1049505,53.3524752 L45.1049505,56.1386139 Z" id="Shape" fill="#2B3B4E"></path>
                        </g>
                    </g>
                </g>
            </g>
        </g>
    </g>
</svg>