<?xml version="1.0" encoding="UTF-8"?>
<svg width="46px" height="46px" viewBox="0 0 46 46" version="1.1" xmlns="http://www.w3.org/2000/svg" xmlns:xlink="http://www.w3.org/1999/xlink">
    <!-- Generator: Sketch 51.2 (57519) - http://www.bohemiancoding.com/sketch -->
    <title>api</title>
    <desc>Created with Sketch.</desc>
    <defs></defs>
    <g id="Homepage" stroke="none" stroke-width="1" fill="none" fill-rule="evenodd">
        <g id="btc---block" transform="translate(-494.000000, -1939.000000)" fill-rule="nonzero">
            <g id="products" transform="translate(0.000000, 1726.000000)">
                <g id="buckets" transform="translate(190.000000, 211.000000)">
                    <g id="api" transform="translate(303.000000, 0.000000)">
                        <g>
                            <rect id="Rectangle-8" x="0" y="0" width="50" height="50"></rect>
                            <g id="api-icon" transform="translate(1.000000, 2.000000)">
                                <rect id="Rectangle-path" fill="#324A5E" x="0.63109571" y="0.63109571" width="20.8673003" height="20.8673003"></rect>
                                <rect id="Rectangle-path" fill="#4CDBC4" x="2.84334653" y="2.84334653" width="16.3829835" height="16.3829835"></rect>
                                <rect id="Rectangle-path" fill="#2C9984" x="24.368462" y="0.63109571" width="20.8673003" height="20.8673003"></rect>
                                <rect id="Rectangle-path" fill="#FFFFFF" x="26.6405281" y="2.84334653" width="16.3829835" height="16.3829835"></rect>
                                <rect id="Rectangle-path" fill="#54C0EB" x="0.63109571" y="24.368462" width="20.8673003" height="20.8673003"></rect>
                                <rect id="Rectangle-path" fill="#FFFFFF" x="2.84334653" y="26.6405281" width="16.3829835" height="16.3829835"></rect>
                                <rect id="Rectangle-path" fill="#F1543F" x="24.368462" y="24.368462" width="20.8673003" height="20.8673003"></rect>
                                <rect id="Rectangle-path" fill="#FFD05B" x="26.6405281" y="26.6405281" width="16.3829835" height="16.3829835"></rect>
                                <polygon id="Shape" fill="#FFFFFF" points="12.410132 6.19178218 9.65969637 6.19178218 9.65969637 9.65969637 6.19178218 9.65969637 6.19178218 12.410132 9.65969637 12.410132 9.65969637 15.8780462 12.410132 15.8780462 12.410132 12.410132 15.8780462 12.410132 15.8780462 9.65969637 12.410132 9.65969637"></polygon>
                                <g id="Group" transform="translate(6.528053, 9.564356)" fill="#324A5E">
                                    <polygon id="Shape" points="8.93143894 22.8161518 6.95829703 20.8430099 4.50678548 23.2945215 2.05527393 20.8430099 0.0822838284 22.8161518 2.53364356 25.2676634 0.0822838284 27.7191749 2.05527393 29.6923168 4.50678548 27.2408053 6.95829703 29.6923168 8.93143894 27.7191749 6.47992739 25.2676634"></polygon>
                                    <rect id="Rectangle-path" x="23.4607591" y="0.095339934" width="9.74607921" height="2.81025083"></rect>
                                </g>
                                <g id="Group" transform="translate(29.907591, 30.970297)" fill="#FFFFFF">
                                    <rect id="Rectangle-path" x="0.0812211221" y="4.81831023" width="9.74607921" height="2.81025083"></rect>
                                    <rect id="Rectangle-path" x="0.0812211221" y="0.0948844884" width="9.74607921" height="2.81025083"></rect>
                                </g>
                            </g>
                        </g>
                    </g>
                </g>
            </g>
        </g>
    </g>
</svg>