<?xml version="1.0" encoding="UTF-8"?>
<svg width="50px" height="48px" viewBox="0 0 50 48" version="1.1" xmlns="http://www.w3.org/2000/svg" xmlns:xlink="http://www.w3.org/1999/xlink">
    <!-- Generator: Sketch 51.2 (57519) - http://www.bohemiancoding.com/sketch -->
    <title>charts</title>
    <desc>Created with Sketch.</desc>
    <defs></defs>
    <g id="Homepage" stroke="none" stroke-width="1" fill="none" fill-rule="evenodd">
        <g id="btc---block" transform="translate(-1069.000000, -1938.000000)" fill-rule="nonzero">
            <g id="products" transform="translate(0.000000, 1726.000000)">
                <g id="buckets" transform="translate(190.000000, 211.000000)">
                    <g id="charts" transform="translate(879.000000, 0.000000)">
                        <g>
                            <rect id="Rectangle-3" x="0" y="0" width="50" height="50"></rect>
                            <g id="charts-icon" transform="translate(0.000000, 1.000000)">
                                <path d="M48.504973,40.4855086 L1.35688569,40.4855086 C0.674527453,40.4855086 0.116134113,39.9271152 0.116134113,39.244757 L0.116134113,1.46413141 C0.116134113,0.781773177 0.674527453,0.223379838 1.35688569,0.223379838 L48.504973,0.223379838 C49.1873312,0.223379838 49.7457246,0.781773177 49.7457246,1.46413141 L49.7457246,39.2445995 C49.7457246,39.9271152 49.1873312,40.4855086 48.504973,40.4855086 Z" id="Shape" fill="#324A5E"></path>
                                <rect id="Rectangle-path" fill="#FFFFFF" x="3.83838884" y="3.94563456" width="42.185081" height="32.8176193"></rect>
                                <path d="M36.6558506,43.1530378 L36.6558506,40.4855086 L13.2060081,40.4855086 L13.2060081,43.1530378 C13.2060081,44.269667 12.275405,45.1382088 11.1587759,45.1382088 C10.0421467,45.1382088 9.17360486,46.0688119 9.17360486,47.185441 C9.17360486,47.619712 9.54581458,47.9919217 9.98008551,47.9919217 L39.8819307,47.9919217 C40.3162016,47.9919217 40.6884113,47.619712 40.6884113,47.185441 C40.6884113,46.0688119 39.7578083,45.1382088 38.6411791,45.1382088 C37.5864536,45.1382088 36.6558506,44.269667 36.6558506,43.1530378 Z" id="Shape" fill="#F1543F"></path>
                                <rect id="Rectangle-path" fill="#2C9984" x="35.1049505" y="7.66788929" width="7.32038704" height="25.3731098"></rect>
                                <rect id="Rectangle-path" fill="#F9B54C" x="25.9235149" y="14.740189" width="7.32038704" height="18.3009676"></rect>
                                <rect id="Rectangle-path" fill="#54C0EB" x="16.680018" y="21.75027" width="7.32038704" height="11.2907291"></rect>
                                <rect id="Rectangle-path" fill="#4CDBC4" x="7.43652115" y="28.8225698" width="7.32038704" height="4.21858686"></rect>
                            </g>
                        </g>
                    </g>
                </g>
            </g>
        </g>
    </g>
</svg>