<?xml version="1.0" encoding="UTF-8"?>
<svg width="55px" height="45px" viewBox="0 0 55 45" version="1.1" xmlns="http://www.w3.org/2000/svg" xmlns:xlink="http://www.w3.org/1999/xlink">
    <!-- Generator: Sketch 51.2 (57519) - http://www.bohemiancoding.com/sketch -->
    <title>markets icon</title>
    <desc>Created with Sketch.</desc>
    <defs></defs>
    <g id="Assets" stroke="none" stroke-width="1" fill="none" fill-rule="evenodd">
        <g id="markets-icon" fill-rule="nonzero">
            <circle id="Oval" fill="#324A5E" cx="8.05556886" cy="27.445252" r="4.28048425"></circle>
            <circle id="Oval" fill="#E6E9EE" cx="8.05556886" cy="27.445252" r="3.59561836"></circle>
            <path d="M7.94137624,30.3561494 L7.94137624,29.8424275 C7.31360666,29.7853312 6.74278848,29.4999946 6.22921152,29.1004653 L6.74293339,28.4726958 C7.14246265,28.8151287 7.5419919,28.9864176 7.94152115,29.1004653 L7.94152115,27.7307336 C7.42779928,27.616541 7.02827003,27.4453969 6.8000297,27.2170117 C6.57178938,26.9887714 6.45759676,26.7032898 6.45759676,26.3037606 C6.45759676,25.9042313 6.57178938,25.5617984 6.85712601,25.3335581 C7.14246265,25.1053177 7.48489559,24.9340288 7.94152115,24.9340288 L7.94152115,24.5915959 L8.39814671,24.5915959 L8.39814671,24.9340288 C8.91186859,24.9911251 9.36834923,25.1622691 9.8249748,25.4477507 L9.36834923,26.0755203 C9.0830126,25.8472799 8.74057966,25.7330873 8.39814671,25.675991 L8.39814671,26.9886265 C8.91186859,27.1028191 9.31139784,27.2739631 9.59673447,27.5023483 C9.8249748,27.7305887 9.99626373,28.0160702 9.99626373,28.4155995 C9.99626373,28.8151287 9.8249748,29.1575617 9.53963816,29.385802 C9.25430153,29.6140423 8.85477228,29.7853312 8.39814671,29.7853312 L8.39814671,30.3560045 L7.94137624,30.3560045 L7.94137624,30.3561494 Z M7.42779928,25.8472799 C7.31360666,25.9614725 7.25651035,26.0755203 7.25651035,26.2468092 C7.25651035,26.4180981 7.31360666,26.5321458 7.37070297,26.5892421 C7.48489559,26.7034347 7.6560396,26.7605311 7.88442484,26.8745788 L7.88442484,25.675991 C7.71313591,25.675991 7.54184698,25.7330873 7.42779928,25.8472799 Z M8.91172367,28.872225 C9.02591629,28.7580324 9.0830126,28.6439847 9.0830126,28.4726958 C9.0830126,28.3014068 9.02591629,28.1873591 8.91172367,28.0731665 C8.79753105,27.9589739 8.62638704,27.9018776 8.34105041,27.7878299 L8.34105041,29.043514 C8.56929073,29.043369 8.74043474,28.9862727 8.91172367,28.872225 Z" id="Shape" fill="#324A5E"></path>
            <path d="M8.05556886,11.6929019 L0.179321332,30.6985824 L0.179321332,30.9268227 C0.179321332,35.2644032 3.71784338,38.8030702 8.05556886,38.8030702 C12.3932943,38.8030702 15.9318164,35.2645482 15.9318164,30.9268227 L15.9318164,30.641486 L8.05556886,11.6929019 Z M1.32081278,30.6985824 L8.05556886,15.0602799 L14.7903249,30.6985824 L1.32081278,30.6985824 Z" id="Shape" fill="#F9B54C"></path>
            <circle id="Oval" fill="#F1543F" cx="46.7517957" cy="19.1696202" r="4.28048425"></circle>
            <circle id="Oval" fill="#FF7058" cx="46.7517957" cy="19.1696202" r="3.53852205"></circle>
            <path d="M46.5805068,22.1374689 L46.5805068,21.6237471 C45.9527372,21.5666508 45.3248227,21.2813141 44.8112457,20.8246886 L45.3249676,20.196919 C45.7244968,20.5393519 46.1240261,20.7675923 46.5806517,20.8246886 L46.5806517,19.4549568 C46.0669298,19.3407642 45.6674005,19.1696202 45.3820639,18.9412349 C45.1538236,18.7129946 44.9825347,18.4275131 44.9825347,18.0279838 C44.9825347,17.6284545 45.1538236,17.2860216 45.4391602,17.000685 C45.7244968,16.7153483 46.1240261,16.6011557 46.5806517,16.6011557 L46.5806517,16.2587228 L47.0372772,16.2587228 L47.0372772,16.6011557 C47.5509991,16.658252 48.0645761,16.829396 48.5212016,17.1148776 L48.0645761,17.7426472 C47.7792394,17.5144068 47.4368065,17.4002142 47.0372772,17.3431179 L47.0372772,18.6557534 C47.6079505,18.769946 48.0074797,18.94109 48.235865,19.1694752 C48.4641053,19.3977156 48.6353942,19.6831971 48.6353942,20.1396778 C48.6353942,20.539207 48.4641053,20.88164 48.1787687,21.1669766 C47.893432,21.4523132 47.4939028,21.5665059 47.0372772,21.5665059 L47.0372772,22.0802277 L46.5806517,22.0802277 L46.5806517,22.1374689 L46.5805068,22.1374689 Z M46.0667849,17.5144068 C45.9525923,17.6285995 45.8954959,17.7426472 45.8954959,17.9139361 C45.8954959,18.085225 45.9525923,18.1992727 46.0667849,18.3134653 C46.1809775,18.427658 46.3521215,18.4847543 46.5805068,18.598802 L46.5805068,17.3431179 C46.3522664,17.3432628 46.1809775,17.4002142 46.0667849,17.5144068 Z M47.5507093,20.6535446 C47.6649019,20.5393519 47.7219982,20.4253042 47.7219982,20.2540153 C47.7219982,20.0827264 47.6649019,19.9686787 47.5507093,19.854486 C47.4365167,19.7402934 47.2653726,19.6831971 46.980036,19.5691494 L46.980036,20.8248335 C47.2653726,20.8246886 47.4366616,20.7675923 47.5507093,20.6535446 Z" id="Shape" fill="#FFFFFF"></path>
            <path d="M46.7517957,3.41712511 L38.8755482,22.4228056 L38.8755482,22.7081422 C38.8755482,27.0457228 42.4140702,30.5843897 46.7517957,30.5843897 C51.0895212,30.5843897 54.6280432,27.0458677 54.6280432,22.7081422 L54.6280432,22.4228056 L46.7517957,3.41712511 Z M40.0170396,22.4228056 L46.7517957,6.78450315 L53.4865518,22.4228056 L40.0170396,22.4228056 Z" id="Shape" fill="#F9B54C"></path>
            <rect id="Rectangle-path" fill="#324A5E" x="25.234892" y="7.06983978" width="3.93805131" height="34.7009343"></rect>
            <g id="Group" transform="translate(5.082358, 0.900540)" fill="#2B3B4E">
                <path d="M0.119554455,10.7923618 C0.347794779,11.8196607 1.31814221,12.4475752 2.34544104,12.2191899 L42.5826886,3.71517282 C43.6099874,3.48693249 44.2379019,2.51658506 44.0095167,1.48928623 C43.7812763,0.461987399 42.8109289,-0.165927093 41.7836301,0.0624581458 L1.54638254,8.56647525 C0.519083708,8.79471557 -0.108830783,9.76506301 0.119554455,10.7923618 Z" id="Shape"></path>
                <path d="M13.1893924,44.0093717 L31.0535815,44.0093717 C31.0535815,41.5552448 29.0559352,39.6146949 26.6018083,39.6146949 L17.6411656,39.6146949 C15.1870387,39.6146949 13.1893924,41.6123411 13.1893924,44.0093717 Z" id="Shape"></path>
            </g>
        </g>
    </g>
</svg>