<?xml version="1.0" encoding="UTF-8"?>
<svg width="50px" height="41px" viewBox="0 0 50 41" version="1.1" xmlns="http://www.w3.org/2000/svg" xmlns:xlink="http://www.w3.org/1999/xlink">
    <!-- Generator: Sketch 51.2 (57519) - http://www.bohemiancoding.com/sketch -->
    <title>markets</title>
    <desc>Created with Sketch.</desc>
    <defs></defs>
    <g id="Homepage" stroke="none" stroke-width="1" fill="none" fill-rule="evenodd">
        <g id="btc---block" transform="translate(-793.000000, -1941.000000)" fill-rule="nonzero">
            <g id="products" transform="translate(0.000000, 1726.000000)">
                <g id="buckets" transform="translate(190.000000, 211.000000)">
                    <g id="markets" transform="translate(603.000000, 0.000000)">
                        <g>
                            <rect id="Rectangle-7" x="0" y="0" width="50" height="50"></rect>
                            <g id="markets-icon" transform="translate(0.000000, 4.000000)">
                                <circle id="Oval" fill="#54C0EB" cx="7.33813922" cy="28.0277944" r="4.75193233"></circle>
                                <path d="M7.32044779,10.6258514 L0.162957139,27.8971446 L0.162957139,28.1045566 C0.162957139,32.0463058 3.37856691,35.2620473 7.32044779,35.2620473 C11.2623287,35.2620473 14.4779384,32.0464375 14.4779384,28.1045566 L14.4779384,27.8452587 L7.32044779,10.6258514 Z M1.20028035,27.8971446 L7.32044779,13.6859351 L13.4406152,27.8971446 L1.20028035,27.8971446 Z" id="Shape" fill="#F9B54C"></path>
                                <circle id="Oval" fill="#F1543F" cx="42.4854019" cy="20.8685483" r="4.75193233"></circle>
                                <path d="M42.4854018,3.10529106 L35.3279111,20.3765843 L35.3279111,20.6358821 C35.3279111,24.5776313 38.5435209,27.7933728 42.4854018,27.7933728 C46.4272827,27.7933728 49.6428924,24.577763 49.6428924,20.6358821 L49.6428924,20.3765843 L42.4854018,3.10529106 Z M36.3652343,20.3765843 L42.4854018,6.16537479 L48.6055692,20.3765843 L36.3652343,20.3765843 Z" id="Shape" fill="#F9B54C"></path>
                                <rect id="Rectangle-path" fill="#324A5E" x="22.9320502" y="6.42467267" width="3.57867948" height="31.5342569"></rect>
                                <g id="Group" transform="translate(4.618561, 0.818360)" fill="#2B3B4E">
                                    <path d="M0.108644363,9.80749129 C0.31605633,10.7410427 1.19785349,11.311656 2.13140487,11.1041124 L38.6967518,3.37614005 C39.6303032,3.16872808 40.2009165,2.28693093 39.9933729,1.35337954 C39.7859609,0.419828158 38.9041638,-0.150785207 37.9706124,0.0567584492 L1.40526546,7.78473078 C0.471714072,7.99214274 -0.0988992931,8.8739399 0.108644363,9.80749129 Z" id="Shape"></path>
                                    <path d="M11.9857778,39.9932412 L28.2197478,39.9932412 C28.2197478,37.7630687 26.4043993,35.9996061 24.1742268,35.9996061 L16.0312989,35.9996061 C13.8011264,35.9996061 11.9857778,37.8149546 11.9857778,39.9932412 Z" id="Shape"></path>
                                </g>
                            </g>
                        </g>
                    </g>
                </g>
            </g>
        </g>
    </g>
</svg>