<?xml version="1.0" encoding="UTF-8"?>
<svg width="50px" height="44px" viewBox="0 0 50 44" version="1.1" xmlns="http://www.w3.org/2000/svg" xmlns:xlink="http://www.w3.org/1999/xlink">
    <!-- Generator: Sketch 51.2 (57519) - http://www.bohemiancoding.com/sketch -->
    <title>icon</title>
    <desc>Created with Sketch.</desc>
    <defs></defs>
    <g id="Assets" stroke="none" stroke-width="1" fill="none" fill-rule="evenodd">
        <g id="icon" transform="translate(-1.000000, -1.000000)" fill-rule="nonzero">
            <path d="M5.04608576,6.60859729 L44.1907563,6.60859729 C46.3437599,6.60859729 48.1052632,8.40138167 48.1052632,10.5926188 L48.1052632,15.3734446 C48.1052632,17.5646817 46.3437599,19.3574661 44.1907563,19.3574661 L5.04608576,19.3574661 C2.89308217,19.3572638 1.13157895,17.5644794 1.13157895,15.3733434 L1.13157895,10.5925176 C1.13157895,8.40138167 2.89308217,6.60859729 5.04608576,6.60859729 Z" id="Shape" fill="#B77243"></path>
            <path d="M14.0199212,10.1475216 L38.4042044,3.93164934 C39.2222293,3.70698498 40.079123,4.1937736 40.3128303,4.98014637 L44.3638882,19.3591404 C44.5975955,20.1455131 44.0912133,20.9692507 43.2731884,21.1939151 L11.5269776,29.3194819 C10.7089527,29.5441462 9.852059,29.0573576 9.61835173,28.2709849 L6.65789474,17.711475 L14.0199212,10.1475216 Z" id="Shape" fill="#3DB39E"></path>
            <path d="M39.2422757,19.4109176 L34.0006102,20.7973509 C33.57354,20.9129359 33.1463712,20.6817659 33.0687848,20.2581498 C32.9522574,19.8345337 33.1853123,19.4108198 33.6123825,19.3338609 L38.1163365,18.1399715 L35.7090881,9.20491825 L31.2051341,10.3988077 C30.7780639,10.5143927 30.3508951,10.2832227 30.2733087,9.85960658 C30.1567813,9.43599047 30.3898362,9.01227658 30.8169064,8.9353177 L36.0585719,7.54888438 C36.4856421,7.43329938 36.9128109,7.66446939 36.9903973,8.08808549 L39.785972,18.4866287 C39.9023023,18.9102448 39.6693459,19.3338609 39.2422757,19.4109176 Z M17.498961,25.226447 L12.2572954,26.6128803 C11.8302252,26.7284653 11.4030565,26.4972953 11.3254701,26.0736792 L8.5298954,15.675136 C8.41336794,15.2515199 8.64642287,14.827806 9.07349306,14.7508471 L14.3151586,13.3644138 C14.7422288,13.2488288 15.1693976,13.4799988 15.246984,13.9036149 C15.3635114,14.327231 15.1304565,14.7509449 14.7033863,14.8279038 L10.1994323,16.0217932 L12.6066807,24.9568465 L17.1106347,23.762957 C17.5377049,23.647372 17.9648737,23.878542 18.0424601,24.3021581 C18.1589875,24.6872459 17.9260312,25.110862 17.498961,25.226447 Z" id="Shape" fill="#78CABB"></path>
            <path d="M1.1697658,15.8332513 C7.94711087,11.9765969 26.2233398,1.35205313 26.2233398,1.35205313 C26.9467632,0.936176128 27.898631,1.16302686 28.3175263,1.8814035 L35.9325653,14.887928 C36.3513639,15.6063046 36.0848293,16.5137075 35.3614059,16.9296805 L7.49022207,32.8097116 C6.76679868,33.2255886 5.81493089,32.9987378 5.39603559,32.2803612 C5.39603559,32.2803612 3.26385561,27.9701014 1.13157895,24.3402977 C1.13167562,15.8332513 1.1697658,18.631109 1.1697658,15.8332513 Z" id="Shape" fill="#5ABEAC"></path>
            <path d="M33.2572823,15.3496552 L27.8038593,6.08384561 C27.5701469,5.70100671 27.1027219,5.58609672 26.7521038,5.8158195 L22.0387868,8.49598344 C21.649299,8.72570622 21.5323933,9.18515179 21.7661058,9.52978457 C21.9998182,9.91262347 22.4672432,10.0275335 22.8178613,9.79781068 L26.8690094,7.50048564 L31.5434567,15.464468 L27.4923086,17.7617931 C27.1028208,17.9915158 26.9859151,18.4509614 27.2196276,18.7955942 C27.4533401,19.1784331 27.920765,19.2933431 28.2713832,19.0636203 L32.9847002,16.3834564 C33.3352194,16.1920369 33.4909948,15.7325913 33.2572823,15.3496552 Z M12.612054,26.1853182 L8.56090587,28.4826432 L3.88645857,20.5185637 L7.93760667,18.2212386 C8.32709449,17.9915158 8.44400018,17.5320703 8.21028771,17.1874375 C7.97657524,16.8045986 7.50915029,16.6896886 7.15853212,16.9194114 L2.44521516,19.5995753 C2.05572734,19.8292981 1.93882165,20.2887437 2.17253413,20.6333764 L7.62595707,29.8991861 C7.85966955,30.282025 8.32709449,30.396935 8.67771266,30.1672122 L13.3910296,27.4870482 C13.7805174,27.2573255 13.8974231,26.7978799 13.6637107,26.4532471 C13.4689667,26.1087115 13.0015418,25.9554982 12.612054,26.1853182 Z M14.5986595,12.6694913 C11.5992669,14.3541574 10.5864799,18.1064258 12.3004044,21.0546159 C14.0532974,24.0028059 17.8317644,24.9983037 20.831157,23.3136376 C23.8305495,21.6289715 24.8433365,17.8767031 23.129412,14.928513 C21.376519,12.0185291 17.598052,10.9848251 14.5986595,12.6694913 Z M33.2572823,15.3496552 L27.8038593,6.08384561 C27.5701469,5.70100671 27.1027219,5.58609672 26.7521038,5.8158195 L22.0387868,8.49598344 C21.649299,8.72570622 21.5323933,9.18515179 21.7661058,9.52978457 C21.9998182,9.91262347 22.4672432,10.0275335 22.8178613,9.79781068 L26.8690094,7.50048564 L31.5434567,15.464468 L27.4923086,17.7617931 C27.1028208,17.9915158 26.9859151,18.4509614 27.2196276,18.7955942 C27.4533401,19.1784331 27.920765,19.2933431 28.2713832,19.0636203 L32.9847002,16.3834564 C33.3352194,16.1920369 33.4909948,15.7325913 33.2572823,15.3496552 Z M12.612054,26.1853182 L8.56090587,28.4826432 L3.88645857,20.5185637 L7.93760667,18.2212386 C8.32709449,17.9915158 8.44400018,17.5320703 8.21028771,17.1874375 C7.97657524,16.8045986 7.50915029,16.6896886 7.15853212,16.9194114 L2.44521516,19.5995753 C2.05572734,19.8292981 1.93882165,20.2887437 2.17253413,20.6333764 L7.62595707,29.8991861 C7.85966955,30.282025 8.32709449,30.396935 8.67771266,30.1672122 L13.3910296,27.4870482 C13.7805174,27.2573255 13.8974231,26.7978799 13.6637107,26.4532471 C13.4689667,26.1087115 13.0015418,25.9554982 12.612054,26.1853182 Z M14.5986595,12.6694913 C11.5992669,14.3541574 10.5864799,18.1064258 12.3004044,21.0546159 C14.0532974,24.0028059 17.8317644,24.9983037 20.831157,23.3136376 C23.8305495,21.6289715 24.8433365,17.8767031 23.129412,14.928513 C21.376519,12.0185291 17.598052,10.9848251 14.5986595,12.6694913 Z" id="Shape" fill="#8CD2C5"></path>
            <path d="M45.1638054,44.8552036 L4.99408936,44.8552036 C2.86968412,44.8552036 1.13157895,43.1705412 1.13157895,41.1114565 L1.13157895,14.1567624 L45.1638054,14.1567624 C47.2882106,14.1567624 49.0263158,15.8414248 49.0263158,17.9005095 L49.0263158,41.1115516 C49.0262177,43.1705412 47.2881126,44.8552036 45.1638054,44.8552036 Z M4.22158728,14.1567624 L1.13157895,14.1567624 L1.13157895,11.1617647 C1.13157895,12.8089754 2.52202385,14.1567624 4.22158728,14.1567624 Z" id="Shape" fill="#B77243"></path>
            <path d="M49.3513705,33.9276018 L43.2832647,33.9276018 C40.3629858,33.9276018 37.9736842,31.673793 37.9736842,28.9191176 C37.9736842,26.1644423 40.3629858,23.9106335 43.2832647,23.9106335 L49.3513705,23.9106335 C50.1857772,23.9106335 50.8684211,24.5545659 50.8684211,25.3416549 L50.8684211,32.4966712 C50.8684211,33.2836694 50.1857772,33.9276018 49.3513705,33.9276018 Z" id="Shape" fill="#B77243"></path>
            <path d="M45.1638054,43.2941176 L4.99408936,43.2941176 C2.86968412,43.2941176 1.13157895,41.5379207 1.13157895,39.3914027 L1.13157895,40.9524887 C1.13157895,43.0990067 2.86968412,44.8552036 4.99408936,44.8552036 L45.1638054,44.8552036 C47.2882106,44.8552036 49.0263158,43.0990067 49.0263158,40.9524887 L49.0263158,39.3914027 C49.0262177,41.5379207 47.2881126,43.2941176 45.1638054,43.2941176 Z" id="Shape" fill="#B27245"></path>
            <path d="M45.1638054,14.1420197 L4.22158728,14.1420197 C2.52202385,14.1420197 1.13157895,12.8008671 1.13157895,11.1617647 L1.13157895,12.6518922 C1.13157895,14.2909947 2.52202385,15.6321473 4.22158728,15.6321473 L45.1638054,15.6321473 C47.2882106,15.6321473 49.0263158,17.3085171 49.0263158,19.3574661 L49.0263158,17.8673385 C49.0262177,15.8183896 47.2881126,14.1420197 45.1638054,14.1420197 Z" id="Shape" fill="#CA8B5F"></path>
        </g>
    </g>
</svg>