<?xml version="1.0" encoding="UTF-8"?>
<svg width="50px" height="44px" viewBox="0 0 50 44" version="1.1" xmlns="http://www.w3.org/2000/svg" xmlns:xlink="http://www.w3.org/1999/xlink">
    <!-- Generator: Sketch 51.2 (57519) - http://www.bohemiancoding.com/sketch -->
    <title>wallet</title>
    <desc>Created with Sketch.</desc>
    <defs></defs>
    <g id="Homepage" stroke="none" stroke-width="1" fill="none" fill-rule="evenodd">
        <g id="btc---block" transform="translate(-193.000000, -1940.000000)" fill-rule="nonzero">
            <g id="products" transform="translate(0.000000, 1726.000000)">
                <g id="buckets" transform="translate(190.000000, 211.000000)">
                    <g id="wallet">
                        <g transform="translate(3.000000, 0.000000)">
                            <rect id="Rectangle-9" x="0" y="0" width="50" height="50"></rect>
                            <g id="icon" transform="translate(0.000000, 3.000000)">
                                <path d="M4.04608576,5.60859729 L43.1907563,5.60859729 C45.3437599,5.60859729 47.1052632,7.40138167 47.1052632,9.59261878 L47.1052632,14.3734446 C47.1052632,16.5646817 45.3437599,18.3574661 43.1907563,18.3574661 L4.04608576,18.3574661 C1.89308217,18.3572638 0.131578947,16.5644794 0.131578947,14.3733434 L0.131578947,9.59251762 C0.131578947,7.40138167 1.89308217,5.60859729 4.04608576,5.60859729 Z" id="Shape" fill="#B77243"></path>
                                <path d="M13.0199212,9.14752158 L37.4042044,2.93164934 C38.2222293,2.70698498 39.079123,3.1937736 39.3128303,3.98014637 L43.3638882,18.3591404 C43.5975955,19.1455131 43.0912133,19.9692507 42.2731884,20.1939151 L10.5269776,28.3194819 C9.70895271,28.5441462 8.852059,28.0573576 8.61835173,27.2709849 L5.65789474,16.711475 L13.0199212,9.14752158 Z" id="Shape" fill="#2C9984"></path>
                                <path d="M38.2422757,18.4109176 L33.0006102,19.7973509 C32.57354,19.9129359 32.1463712,19.6817659 32.0687848,19.2581498 C31.9522574,18.8345337 32.1853123,18.4108198 32.6123825,18.3338609 L37.1163365,17.1399715 L34.7090881,8.20491825 L30.2051341,9.39880768 C29.7780639,9.51439269 29.3508951,9.28322268 29.2733087,8.85960658 C29.1567813,8.43599047 29.3898362,8.01227658 29.8169064,7.9353177 L35.0585719,6.54888438 C35.4856421,6.43329938 35.9128109,6.66446939 35.9903973,7.08808549 L38.785972,17.4866287 C38.9023023,17.9102448 38.6693459,18.3338609 38.2422757,18.4109176 Z M16.498961,24.226447 L11.2572954,25.6128803 C10.8302252,25.7284653 10.4030565,25.4972953 10.3254701,25.0736792 L7.5298954,14.675136 C7.41336794,14.2515199 7.64642287,13.827806 8.07349306,13.7508471 L13.3151586,12.3644138 C13.7422288,12.2488288 14.1693976,12.4799988 14.246984,12.9036149 C14.3635114,13.327231 14.1304565,13.7509449 13.7033863,13.8279038 L9.19943227,15.0217932 L11.6066807,23.9568465 L16.1106347,22.762957 C16.5377049,22.647372 16.9648737,22.878542 17.0424601,23.3021581 C17.1589875,23.6872459 16.9260312,24.110862 16.498961,24.226447 Z" id="Shape" fill="#4CDBC4"></path>
                                <path d="M0.169765803,14.8332513 C6.94711087,10.9765969 25.2233398,0.352053131 25.2233398,0.352053131 C25.9467632,-0.0638238721 26.898631,0.163026857 27.3175263,0.881403499 L34.9325653,13.887928 C35.3513639,14.6063046 35.0848293,15.5137075 34.3614059,15.9296805 L6.49022207,31.8097116 C5.76679868,32.2255886 4.81493089,31.9987378 4.39603559,31.2803612 C4.39603559,31.2803612 2.26385561,26.9701014 0.131578947,23.3402977 C0.131675623,14.8332513 0.169765803,17.631109 0.169765803,14.8332513 Z" id="Shape" fill="#2C9984"></path>
                                <path d="M32.2572823,14.3496552 L26.8038593,5.08384561 C26.5701469,4.70100671 26.1027219,4.58609672 25.7521038,4.8158195 L21.0387868,7.49598344 C20.649299,7.72570622 20.5323933,8.18515179 20.7661058,8.52978457 C20.9998182,8.91262347 21.4672432,9.02753347 21.8178613,8.79781068 L25.8690094,6.50048564 L30.5434567,14.464468 L26.4923086,16.7617931 C26.1028208,16.9915158 25.9859151,17.4509614 26.2196276,17.7955942 C26.4533401,18.1784331 26.920765,18.2933431 27.2713832,18.0636203 L31.9847002,15.3834564 C32.3352194,15.1920369 32.4909948,14.7325913 32.2572823,14.3496552 Z M11.612054,25.1853182 L7.56090587,27.4826432 L2.88645857,19.5185637 L6.93760667,17.2212386 C7.32709449,16.9915158 7.44400018,16.5320703 7.21028771,16.1874375 C6.97657524,15.8045986 6.50915029,15.6896886 6.15853212,15.9194114 L1.44521516,18.5995753 C1.05572734,18.8292981 0.938821651,19.2887437 1.17253413,19.6333764 L6.62595707,28.8991861 C6.85966955,29.282025 7.32709449,29.396935 7.67771266,29.1672122 L12.3910296,26.4870482 C12.7805174,26.2573255 12.8974231,25.7978799 12.6637107,25.4532471 C12.4689667,25.1087115 12.0015418,24.9554982 11.612054,25.1853182 Z M13.5986595,11.6694913 C10.5992669,13.3541574 9.58647992,17.1064258 11.3004044,20.0546159 C13.0532974,23.0028059 16.8317644,23.9983037 19.831157,22.3136376 C22.8305495,20.6289715 23.8433365,16.8767031 22.129412,13.928513 C20.376519,11.0185291 16.598052,9.98482515 13.5986595,11.6694913 Z M32.2572823,14.3496552 L26.8038593,5.08384561 C26.5701469,4.70100671 26.1027219,4.58609672 25.7521038,4.8158195 L21.0387868,7.49598344 C20.649299,7.72570622 20.5323933,8.18515179 20.7661058,8.52978457 C20.9998182,8.91262347 21.4672432,9.02753347 21.8178613,8.79781068 L25.8690094,6.50048564 L30.5434567,14.464468 L26.4923086,16.7617931 C26.1028208,16.9915158 25.9859151,17.4509614 26.2196276,17.7955942 C26.4533401,18.1784331 26.920765,18.2933431 27.2713832,18.0636203 L31.9847002,15.3834564 C32.3352194,15.1920369 32.4909948,14.7325913 32.2572823,14.3496552 Z M11.612054,25.1853182 L7.56090587,27.4826432 L2.88645857,19.5185637 L6.93760667,17.2212386 C7.32709449,16.9915158 7.44400018,16.5320703 7.21028771,16.1874375 C6.97657524,15.8045986 6.50915029,15.6896886 6.15853212,15.9194114 L1.44521516,18.5995753 C1.05572734,18.8292981 0.938821651,19.2887437 1.17253413,19.6333764 L6.62595707,28.8991861 C6.85966955,29.282025 7.32709449,29.396935 7.67771266,29.1672122 L12.3910296,26.4870482 C12.7805174,26.2573255 12.8974231,25.7978799 12.6637107,25.4532471 C12.4689667,25.1087115 12.0015418,24.9554982 11.612054,25.1853182 Z M13.5986595,11.6694913 C10.5992669,13.3541574 9.58647992,17.1064258 11.3004044,20.0546159 C13.0532974,23.0028059 16.8317644,23.9983037 19.831157,22.3136376 C22.8305495,20.6289715 23.8433365,16.8767031 22.129412,13.928513 C20.376519,11.0185291 16.598052,9.98482515 13.5986595,11.6694913 Z" id="Shape" fill="#4CDBC4"></path>
                                <path d="M44.1638054,43.8552036 L3.99408936,43.8552036 C1.86968412,43.8552036 0.131578947,42.1705412 0.131578947,40.1114565 L0.131578947,13.1567624 L44.1638054,13.1567624 C46.2882106,13.1567624 48.0263158,14.8414248 48.0263158,16.9005095 L48.0263158,40.1115516 C48.0262177,42.1705412 46.2881126,43.8552036 44.1638054,43.8552036 Z M3.22158728,13.1567624 L0.131578947,13.1567624 L0.131578947,10.1617647 C0.131578947,11.8089754 1.52202385,13.1567624 3.22158728,13.1567624 Z" id="Shape" fill="#B77243"></path>
                                <path d="M48.3513705,32.9276018 L42.2832647,32.9276018 C39.3629858,32.9276018 36.9736842,30.673793 36.9736842,27.9191176 C36.9736842,25.1644423 39.3629858,22.9106335 42.2832647,22.9106335 L48.3513705,22.9106335 C49.1857772,22.9106335 49.8684211,23.5545659 49.8684211,24.3416549 L49.8684211,31.4966712 C49.8684211,32.2836694 49.1857772,32.9276018 48.3513705,32.9276018 Z" id="Shape" fill="#B77243"></path>
                                <path d="M44.1638054,42.2941176 L3.99408936,42.2941176 C1.86968412,42.2941176 0.131578947,40.5379207 0.131578947,38.3914027 L0.131578947,39.9524887 C0.131578947,42.0990067 1.86968412,43.8552036 3.99408936,43.8552036 L44.1638054,43.8552036 C46.2882106,43.8552036 48.0263158,42.0990067 48.0263158,39.9524887 L48.0263158,38.3914027 C48.0262177,40.5379207 46.2881126,42.2941176 44.1638054,42.2941176 Z" id="Shape" fill="#B27245"></path>
                                <path d="M44.1638054,13.1420197 L3.22158728,13.1420197 C1.52202385,13.1420197 0.131578947,11.8008671 0.131578947,10.1617647 L0.131578947,11.6518922 C0.131578947,13.2909947 1.52202385,14.6321473 3.22158728,14.6321473 L44.1638054,14.6321473 C46.2882106,14.6321473 48.0263158,16.3085171 48.0263158,18.3574661 L48.0263158,16.8673385 C48.0262177,14.8183896 46.2881126,13.1420197 44.1638054,13.1420197 Z" id="Shape" fill="#CA8B5F"></path>
                            </g>
                        </g>
                    </g>
                </g>
            </g>
        </g>
    </g>
</svg>