<!-- Generated by IcoMoon.io -->
<svg version="1.1" xmlns="http://www.w3.org/2000/svg" width="32" height="32" viewBox="0 0 32 32">
<title>alert-filled</title>
<path d="M29.92 26.28l-12.64-21.768c-0.261-0.444-0.736-0.737-1.28-0.737s-1.019 0.293-1.276 0.73l-0.004 0.007-12.64 21.768c-0.042 0.135-0.067 0.289-0.067 0.45 0 0.726 0.501 1.335 1.176 1.5l0.011 0.002h25.6c0.686-0.167 1.187-0.776 1.187-1.502 0-0.16-0.024-0.315-0.070-0.461l0.003 0.011zM16 25.6c-0.002 0-0.004 0-0.006 0-0.884 0-1.6-0.716-1.6-1.6 0-0.048 0.002-0.095 0.006-0.142l-0 0.006c0-0.901 0.731-1.632 1.632-1.632s1.632 0.731 1.632 1.632v0c0.004 0.041 0.006 0.089 0.006 0.138 0 0.884-0.716 1.6-1.6 1.6-0.025 0-0.049-0.001-0.073-0.002l0.003 0zM17.6 13.024l-0.408 6.648c0 0.528-0.72 0.936-1.248 0.936-0.006 0-0.014 0-0.021 0-0.569 0-1.046-0.396-1.169-0.928l-0.002-0.008-0.352-6.616v-2.456c0.052-0.841 0.747-1.504 1.597-1.504 0.001 0 0.002 0 0.003 0h-0c0.001 0 0.002 0 0.003 0 0.85 0 1.545 0.663 1.597 1.499l0 0.005z"></path>
</svg>
