<!-- Generated by IcoMoon.io -->
<svg version="1.1" xmlns="http://www.w3.org/2000/svg" width="32" height="32" viewBox="0 0 32 32">
<title>alert</title>
<path d="M14.008 3.576l-13.32 23.064c-0.191 0.329-0.304 0.723-0.304 1.144 0 1.27 1.027 2.3 2.296 2.304h26.64c1.269-0.005 2.296-1.034 2.296-2.304 0-0.421-0.113-0.815-0.31-1.155l0.006 0.011-13.32-23.064c-0.407-0.69-1.146-1.146-1.992-1.146s-1.585 0.456-1.986 1.135l-0.006 0.011zM17.28 5.080l12.64 21.768c0.043 0.135 0.067 0.289 0.067 0.45 0 0.726-0.501 1.335-1.176 1.5l-0.011 0.002h-25.6c-0.666-0.181-1.148-0.78-1.148-1.492 0-0.161 0.025-0.317 0.071-0.463l-0.003 0.011 12.6-21.776c0.261-0.444 0.736-0.737 1.28-0.737s1.019 0.293 1.276 0.73l0.004 0.007z"></path>
<path d="M16 22.272v0c-0 0-0.001 0-0.002 0-0.385 0-0.7-0.299-0.726-0.678l-0-0.002-0.536-9.528c-0.002-0.029-0.004-0.062-0.004-0.096 0-0.689 0.559-1.248 1.248-1.248 0.007 0 0.014 0 0.021 0h-0.001c0.001 0 0.002 0 0.003 0 0.689 0 1.248 0.559 1.248 1.248 0 0.031-0.001 0.062-0.003 0.092l0-0.004-0.52 9.544c-0.030 0.377-0.343 0.672-0.726 0.672-0.001 0-0.002 0-0.002 0h0z"></path>
<path d="M16.792 24.384c0 0.437-0.355 0.792-0.792 0.792s-0.792-0.355-0.792-0.792c0-0.437 0.355-0.792 0.792-0.792s0.792 0.355 0.792 0.792z"></path>
</svg>
