<!-- Generated by IcoMoon.io -->
<svg version="1.1" xmlns="http://www.w3.org/2000/svg" width="32" height="32" viewBox="0 0 32 32">
<title>bank</title>
<path d="M30 29.464h-28c0-1.112 0-2.152 0-3.2 0-0.856 0.152-1.024 0.984-1.024h25.992c0.848 0 1 0.168 1 1.008 0 0.992 0 3.2 0 3.2zM1.344 31.008h29.264c0.442 0 0.8-0.358 0.8-0.8v0 0c0-0.442-0.358-0.8-0.8-0.8v0h-29.264c-0.442 0-0.8 0.358-0.8 0.8v0 0c0 0.442 0.358 0.8 0.8 0.8v0zM28.544 29.464v-2.784h-25.112v2.784z"></path>
<path d="M32 7.768c0 0.488-0.712 0.64-1.064 0.64q-14.936 0-29.872 0c-0.352 0.008-1.064-0.080-1.064-0.56s0.568-0.744 0.864-0.856c1.912-0.68 3.824-1.328 5.736-2l8.528-3.008c0.256-0.093 0.552-0.147 0.86-0.147s0.604 0.054 0.878 0.153l-0.018-0.006 14.352 5.032c0.288 0.096 0.8 0.24 0.8 0.752zM5.016 6.968v0.12h21.992c-0.056-0.080-0.072-0.136-0.104-0.152q-5.304-1.872-10.576-3.736c-0.092-0.030-0.198-0.048-0.308-0.048s-0.216 0.018-0.315 0.050l0.007-0.002q-5.352 1.856-10.696 3.736z"></path>
<path d="M22.992 16.8c0-1.968 0-3.928 0-5.896 0-0.904 0.184-1.080 1.096-1.088h3.432c0.864 0 1.072 0.2 1.080 1.040q0 5.968 0 11.936c0 0.8-0.232 1.008-1.024 1.016h-2.832c-1.744 0-1.744 0-1.744-1.784s-0.008-3.472-0.008-5.224zM24.44 11.2v11.2h2.76v-11.2z"></path>
<path d="M8.936 16.856c0 1.992 0 4 0 5.968 0 0.8-0.152 0.984-1.008 0.992h-3.504c-0.8 0-1.040-0.208-1.040-0.992 0-4 0-8 0-12 0-0.688 0.28-1.008 0.976-1 1.216 0 2.4 0 3.656 0 0.704 0 0.96 0.304 0.952 1-0.048 1.976-0.032 4.024-0.032 6.032zM4.8 22.4h2.752v-11.152h-2.752z"></path>
<path d="M18.944 16.856c0 1.992 0 4 0 5.968 0 0.8-0.152 0.984-1.008 0.992h-3.536c-0.8 0-1.040-0.208-1.040-0.992 0-4 0-8 0-12 0-0.688 0.28-1.008 0.976-1 1.216 0 2.4 0 3.656 0 0.704 0 0.96 0.304 0.952 1-0.016 1.976 0 4.024 0 6.032zM14.776 22.4h2.784v-11.152h-2.784z"></path>
</svg>
