<!-- Generated by IcoMoon.io -->
<svg version="1.1" xmlns="http://www.w3.org/2000/svg" width="32" height="32" viewBox="0 0 32 32">
<title>bank-filled</title>
<path d="M1.296 27.408c0.021-0.266 0.241-0.473 0.511-0.473 0.012 0 0.023 0 0.035 0.001l-0.002-0h28.496c0.010-0.001 0.021-0.001 0.033-0.001 0.272 0 0.494 0.212 0.511 0.48l0 0.001v1.816c-0.017 0.269-0.239 0.481-0.511 0.481-0.012 0-0.023-0-0.034-0.001l0.002 0h-28.504c-0.010 0.001-0.021 0.001-0.033 0.001-0.272 0-0.494-0.212-0.511-0.48l-0-0.001z"></path>
<path d="M5.96 11.728v0c0.759 0.050 1.355 0.678 1.355 1.445 0 0.032-0.001 0.064-0.003 0.095l0-0.004v10.576c0.002 0.027 0.003 0.059 0.003 0.091 0 0.767-0.596 1.395-1.351 1.445l-0.004 0c-0.755-0.054-1.347-0.68-1.347-1.444 0-0.032 0.001-0.064 0.003-0.096l-0 0.004v-10.576c-0.002-0.027-0.003-0.059-0.003-0.092 0-0.764 0.592-1.39 1.342-1.444l0.005-0z"></path>
<path d="M12.728 25.384v0c-0.755-0.055-1.346-0.68-1.346-1.444 0-0.029 0.001-0.059 0.003-0.088l-0 0.004v-10.6c-0.002-0.025-0.002-0.054-0.002-0.084 0-0.764 0.592-1.39 1.342-1.444l0.005-0c0.755 0.055 1.346 0.68 1.346 1.444 0 0.029-0.001 0.059-0.003 0.088l0-0.004v10.592c0.002 0.027 0.003 0.059 0.003 0.092 0 0.764-0.592 1.39-1.342 1.444l-0.005 0z"></path>
<path d="M19.496 11.728v0c0.737 0.074 1.307 0.691 1.307 1.441 0 0.031-0.001 0.061-0.003 0.091l0-0.004v10.592c0.002 0.025 0.002 0.054 0.002 0.084 0 0.764-0.592 1.39-1.342 1.444l-0.005 0c-0.755-0.055-1.346-0.68-1.346-1.444 0-0.029 0.001-0.059 0.003-0.088l-0 0.004v-10.592c-0.001-0.024-0.002-0.053-0.002-0.081 0-0.778 0.614-1.413 1.383-1.447l0.003-0z"></path>
<path d="M26.064 25.384v0c-0.759-0.050-1.355-0.678-1.355-1.445 0-0.032 0.001-0.064 0.003-0.095l-0 0.004v-10.584c-0.002-0.027-0.003-0.059-0.003-0.091 0-0.767 0.596-1.395 1.351-1.445l0.004-0c0.759 0.050 1.355 0.678 1.355 1.445 0 0.032-0.001 0.064-0.003 0.095l0-0.004v10.584c0.002 0.027 0.003 0.059 0.003 0.091 0 0.767-0.596 1.395-1.351 1.445l-0.004 0z"></path>
<path d="M14.232 2.696l-13.744 6.056c-0.274 0.114-0.462 0.379-0.462 0.689 0 0.411 0.333 0.744 0.744 0.744 0.011 0 0.021-0 0.032-0.001l-0.001 0h30.336c0.049 0.011 0.106 0.017 0.164 0.017 0.451 0 0.817-0.366 0.817-0.817 0-0.393-0.278-0.721-0.647-0.799l-0.005-0.001-13.416-5.888c-0.562-0.254-1.218-0.401-1.908-0.401s-1.346 0.148-1.938 0.413l0.030-0.012z"></path>
</svg>
