<!-- Generated by IcoMoon.io -->
<svg version="1.1" xmlns="http://www.w3.org/2000/svg" width="32" height="32" viewBox="0 0 32 32">
<title>bell</title>
<path d="M27.88 24.464c-0.946-0.766-1.637-1.815-1.944-3.017l-0.009-0.039c-0.321-1.364-0.504-2.929-0.504-4.538 0-0.044 0-0.089 0-0.133l-0 0.007c-0.034-1.359-0.14-2.657-0.316-3.932l0.020 0.18c-0.576-3.608-2.728-5.96-6.032-7.392-0.232-0.096-0.472-0.152-0.72-0.232 1.168-1.984 1.024-3.6-0.4-4.728-0.573-0.531-1.342-0.856-2.188-0.856-1.781 0-3.224 1.443-3.224 3.224 0 0.935 0.398 1.777 1.034 2.366l0.002 0.002c-0.033 0.027-0.069 0.050-0.108 0.070l-0.004 0.002c-2.71 0.819-4.87 2.728-6.007 5.204l-0.025 0.060c-0.543 1.178-0.859 2.556-0.859 4.009 0 0.214 0.007 0.426 0.020 0.636l-0.001-0.029c0.012 0.281 0.019 0.611 0.019 0.942 0 1.491-0.138 2.95-0.401 4.364l0.023-0.146c-0.225 1.566-0.98 2.925-2.074 3.915l-0.006 0.005c-0.501 0.414-0.818 1.035-0.818 1.731 0 0.101 0.007 0.199 0.019 0.296l-0.001-0.011c0.030 0.966 0.821 1.737 1.791 1.737 0.023 0 0.045-0 0.068-0.001l-0.003 0h6.4c0.274 2.208 2.14 3.9 4.4 3.9s4.125-1.692 4.398-3.879l0.002-0.022h6.4c0.033 0.002 0.072 0.004 0.112 0.004 0.641 0 1.198-0.357 1.484-0.883l0.004-0.009c0.159-0.306 0.252-0.668 0.252-1.052 0-0.7-0.31-1.328-0.801-1.754l-0.003-0.002zM16 1.352c1.013 0.005 1.832 0.827 1.832 1.84 0 0.003 0 0.006-0 0.008v-0c0 1.010-0.818 1.828-1.828 1.828s-1.828-0.818-1.828-1.828v0c0-0.002-0-0.005-0-0.008 0-1.011 0.815-1.831 1.823-1.84h0.001zM18.864 28.496c-0.404 1.227-1.54 2.097-2.878 2.097-0.023 0-0.046-0-0.069-0.001l0.003 0c-1.32-0.042-2.426-0.912-2.818-2.106l-0.006-0.022c-0.039-0.116-0.090-0.217-0.154-0.308l0.002 0.004h6.12c-0.093 0.089-0.16 0.203-0.191 0.331l-0.001 0.005zM27 26.44c-0.097 0.119-0.238 0.199-0.397 0.216l-0.003 0c-0.44 0-0.88 0-1.312 0h-19.688c-0.256 0-0.496 0-0.624-0.28-0.052-0.118-0.082-0.256-0.082-0.401 0-0.239 0.082-0.459 0.219-0.633l-0.002 0.002c1.888-1.544 2.584-3.664 2.8-5.968 0.152-1.6 0.192-3.2 0.208-4.8 0.005-3.775 2.625-6.938 6.146-7.773l0.054-0.011c0.5-0.113 1.075-0.178 1.664-0.178 3.752 0 6.891 2.622 7.686 6.133l0.010 0.053c0.211 1.331 0.332 2.865 0.332 4.428 0 0.297-0.004 0.593-0.013 0.887l0.001-0.043c0.008 1.227 0.16 2.415 0.438 3.553l-0.022-0.105c0.396 1.519 1.243 2.802 2.387 3.734l0.013 0.010c0.198 0.174 0.323 0.428 0.323 0.711 0 0.171-0.046 0.332-0.125 0.47l0.002-0.005z"></path>
</svg>
