<!-- Generated by IcoMoon.io -->
<svg version="1.1" xmlns="http://www.w3.org/2000/svg" width="32" height="32" viewBox="0 0 32 32">
<title>bell-filled</title>
<path d="M11.888 28.904c0.564 1.722 2.13 2.955 3.993 3.016l0.007 0c0.030 0.001 0.066 0.001 0.102 0.001 1.895 0 3.503-1.232 4.066-2.939l0.009-0.030c0.045-0.194 0.144-0.36 0.279-0.488l0.001-0h-8.68c0.092 0.126 0.168 0.272 0.221 0.429l0.003 0.011z"></path>
<path d="M16 5.776c0.010 0 0.021 0 0.032 0 1.555 0 2.816-1.261 2.816-2.816 0-0.014-0-0.028-0-0.042l0 0.002c0.003-0.045 0.004-0.098 0.004-0.151 0-1.569-1.271-2.84-2.84-2.84s-2.84 1.272-2.84 2.84c0 0.053 0.001 0.106 0.004 0.158l-0-0.007c-0 0.012-0 0.026-0 0.040 0 1.555 1.261 2.816 2.816 2.816 0.003 0 0.006 0 0.009 0h-0z"></path>
<path d="M5.072 25.664c-0.136 0.172-0.218 0.392-0.218 0.631 0 0.145 0.030 0.283 0.084 0.407l-0.003-0.007c0.12 0.304 0.368 0.28 0.624 0.28h19.728c0.44 0 0.88 0 1.312 0 0.162-0.017 0.303-0.097 0.399-0.215l0.001-0.001c0.075-0.132 0.119-0.291 0.119-0.459 0-0.278-0.12-0.527-0.311-0.7l-0.001-0.001c-1.157-0.942-2.004-2.225-2.389-3.695l-0.011-0.049c-0.255-1.037-0.403-2.228-0.408-3.453v-0.003c0.004-0.176 0.006-0.384 0.006-0.592 0-1.641-0.133-3.251-0.389-4.819l0.023 0.171c-0.793-3.579-3.94-6.216-7.702-6.216-0.587 0-1.159 0.064-1.71 0.186l0.052-0.010c-3.58 0.836-6.208 3.993-6.224 7.766v0.002c0 1.6-0.056 3.2-0.208 4.8-0.184 2.312-0.888 4.432-2.776 5.976z"></path>
</svg>
