<?xml version="1.0" encoding="UTF-8"?>
<svg width="12px" height="14px" viewBox="0 0 12 14" version="1.1" xmlns="http://www.w3.org/2000/svg" xmlns:xlink="http://www.w3.org/1999/xlink">
    <!-- Generator: Sketch 51.2 (57519) - http://www.bohemiancoding.com/sketch -->
    <title>bch</title>
    <desc>Created with Sketch.</desc>
    <defs></defs>
    <g id="Sidenav" stroke="none" stroke-width="1" fill="none" fill-rule="evenodd" opacity="0.75">
        <g id="bch-icon" transform="translate(-6.000000, -6.000000)" fill="#000000" fill-rule="nonzero">
            <g id="Sidenav">
                <g id="bch-icon">
                    <path d="M16.6127847,11.4341875 C16.4622051,12.4522541 15.8977316,12.9450832 15.1484157,13.1177883 C16.1773554,13.6534354 16.7009916,14.4748593 16.2021781,15.8988968 C15.5832128,17.6675016 14.1126065,17.8167747 12.1569677,17.4467104 L11.6823448,19.3485738 L10.5354868,19.062797 L11.0039146,17.1864306 C10.6984133,17.1106727 10.3937384,17.0316205 10.089943,16.9492877 L9.61991371,18.8345042 L8.47436223,18.5487274 L8.94898518,16.6432819 C8.68116163,16.574714 8.40903941,16.5018896 8.13139636,16.4323103 L6.63891745,16.0603073 L7.20827957,14.7476558 C7.20827957,14.7476558 8.05330398,14.9723663 8.04188302,14.9557196 C8.3665585,15.0360455 8.51060585,14.8243996 8.56745778,14.6833023 L9.31744801,11.6768512 C9.35959181,11.6869657 9.40042911,11.6974174 9.43865351,11.7068997 C9.39292751,11.6886093 9.35145801,11.6768512 9.31942881,11.6686753 L9.85448591,9.52250459 C9.86856191,9.27887155 9.78461151,8.97151715 9.32010311,8.85557969 C9.33805631,8.84352657 8.48713178,8.64852742 8.48713178,8.64852742 L8.79221042,7.42374564 L10.3738655,7.81863262 L10.372559,7.82453274 C10.6103341,7.88361829 10.8553157,7.93979591 11.1048911,7.99664783 L11.5749203,6.11341204 L12.7211462,6.39918884 L12.2605571,8.2455067 C12.5682486,8.3157182 12.8779209,8.38656185 13.1794174,8.46170416 L13.6367192,6.62743941 L14.7835772,6.9132162 L14.3138429,8.7971263 C15.7618602,9.29585548 16.8208484,10.0434857 16.6127847,11.4341875 Z M13.9924125,15.1082378 C14.362814,13.623134 11.8698423,13.2390359 11.0924587,13.0450482 L10.4626624,15.5694169 C11.2400882,15.7624353 13.6379835,16.5322752 13.9924125,15.1082378 Z M14.3471365,11.4136213 C14.6839072,10.0624083 12.5989293,9.7612911 11.9514748,9.59996481 L11.3805112,11.8895086 C12.0279236,12.0508349 14.0237675,12.7089517 14.3471365,11.4136213 Z" id="bch" transform="translate(11.638917, 12.730993) rotate(-30.000000) translate(-11.638917, -12.730993) "></path>
                </g>
            </g>
        </g>
    </g>
</svg>