<!-- Generated by IcoMoon.io -->
<svg version="1.1" xmlns="http://www.w3.org/2000/svg" width="32" height="32" viewBox="0 0 32 32">
<title>bitcoin-receipt</title>
<path d="M16.96 12.936c0.797 0.298 1.354 1.053 1.354 1.938 0 0.132-0.012 0.261-0.036 0.387l0.002-0.013c-0.28 1.416-1.368 1.848-2.704 1.832 0 0.352 0 0.672 0 1.008 0 0.112 0 0.312-0.224 0.312s-0.184-0.216-0.184-0.312v-1h-0.664c0 0.304 0 0.688 0 1 0 0.128 0 0.312-0.2 0.312s-0.216-0.192-0.216-0.312c0-0.248 0-0.448 0-0.696 0-0.096 0-0.2 0-0.32h-0.8c-0.272 0-0.376-0.096-0.376-0.352q0-3.4 0-6.808c0-0.256 0.096-0.352 0.352-0.352h0.8c0-0.368 0-0.576 0-0.912 0-0.088 0-0.408 0.208-0.408s0.192 0.32 0.2 0.408c0 0.288 0 0.608 0 0.912h0.664c0-0.32 0-0.656 0-0.968 0-0.192 0-0.352 0.192-0.352s0.224 0.152 0.224 0.352 0 0.632 0 0.976c0.076-0.011 0.163-0.017 0.252-0.017 1.043 0 1.888 0.845 1.888 1.888 0 0.612-0.291 1.157-0.743 1.502l-0.005 0.003zM13.36 13.264v3.392h2.264c0.019 0 0.042 0 0.065 0 0.259 0 0.514-0.018 0.764-0.052l-0.029 0.003c0.825-0.151 1.447-0.845 1.488-1.692l0-0.004c-0.025-0.838-0.669-1.518-1.489-1.599l-0.007-0.001zM13.36 12.856c0.856 0 1.84 0 2.672 0 0.009 0 0.019 0 0.029 0 0.256 0 0.491-0.088 0.677-0.234l-0.002 0.002c0.347-0.275 0.568-0.696 0.568-1.169 0-0.154-0.023-0.302-0.067-0.441l0.003 0.011c-0.193-0.594-0.741-1.016-1.388-1.016-0.004 0-0.008 0-0.013 0h-2.487z"></path>
<path d="M5.24 28.064v-1.504c0-8.256 0-16.52 0-24.8-0.003-0.062-0.005-0.134-0.005-0.206 0-0.341 0.043-0.673 0.123-0.989l-0.006 0.028c0.122-0.334 0.437-0.568 0.806-0.568 0.231 0 0.44 0.091 0.594 0.24l-0-0 2.248 2.184c0.088 0.092 0.211 0.149 0.348 0.149s0.26-0.057 0.348-0.149l0-0 1.912-2.168c0.157-0.167 0.379-0.271 0.625-0.271 0.218 0 0.417 0.081 0.568 0.216l-0.001-0.001 2.168 2.032c0.085 0.078 0.199 0.126 0.324 0.126s0.239-0.048 0.324-0.126l-0 0 2.256-1.968c0.152-0.14 0.356-0.226 0.58-0.226s0.428 0.086 0.581 0.227l-0.001-0.001c0.704 0.672 1.416 1.424 2.16 2.128 0.087 0.081 0.204 0.13 0.332 0.13s0.245-0.050 0.332-0.131l-0 0c0.8-0.736 1.496-1.536 2.232-2.232 0.152-0.143 0.358-0.23 0.584-0.23 0.469 0 0.85 0.378 0.856 0.846v31.201h-20.288zM24.232 30.696c0-8.712 0-28.096 0-28.8-0.618 0.583-1.195 1.183-1.742 1.81l-0.026 0.030c-0.728 0.8-1.168 0.688-2.144-0.288-0.624-0.624-1.288-1.336-1.992-1.96-0.744 0.656-1.352 1.304-1.968 1.952-0.736 0.8-1.352 0.704-2.064 0s-1.328-1.344-2.024-1.968c-0.352 0.4-1.040 1.072-1.272 1.352-1.68 2.056-2.312 1.216-4.464-0.952v28.8z"></path>
<path d="M19.040 22.472h-7.312c-0.264 0-0.48-0.112-0.48-0.344v0c0-0.232 0.216-0.344 0.48-0.344h7.312c0.264 0 0.48 0.112 0.48 0.344v0c0 0.232-0.216 0.344-0.48 0.344z"></path>
<path d="M19.040 25.056h-7.312c-0.264 0-0.48-0.112-0.48-0.344v0c0-0.232 0.216-0.344 0.48-0.344h7.312c0.264 0 0.48 0.112 0.48 0.344v0c0 0.232-0.216 0.344-0.48 0.344z"></path>
<path d="M19.040 27.64h-7.312c-0.264 0-0.48-0.112-0.48-0.344v0c0-0.232 0.216-0.344 0.48-0.344h7.312c0.264 0 0.48 0.112 0.48 0.344v0c0 0.232-0.216 0.344-0.48 0.344z"></path>
</svg>
