<!-- Generated by IcoMoon.io -->
<svg version="1.1" xmlns="http://www.w3.org/2000/svg" width="32" height="32" viewBox="0 0 32 32">
<title>bitcoin</title>
<path d="M20.184 14.8c3.616 1.672 4.656 4.696 4.144 7.28-0.872 4.464-4.304 5.816-8.504 5.76 0 1.096 0 2.12 0 3.2 0 0.352 0 0.992-0.712 0.992s-0.592-0.672-0.592-0.992v-3.168h-2.088c0 0.96 0 2.168 0 3.136 0 0.408 0 0.992-0.624 0.992s-0.688-0.616-0.688-0.992c0-0.8 0-1.4 0-2.192 0-0.312 0-0.616 0-1.008-0.8 0-1.696 0-2.4 0-0.856 0-1.168-0.296-1.168-1.12q0-10.704 0-21.4c0-0.8 0.312-1.096 1.096-1.112s1.648 0 2.48 0c0-1.16 0-1.808 0-2.872 0-0.28 0-1.288 0.656-1.288s0.616 1 0.616 1.288c0 0.92 0 1.904 0 2.88h2.088c0-1 0-2.064 0-3.056 0-0.592 0-1.12 0.592-1.12s0.712 0.48 0.712 1.112c0 0.992 0 1.984 0 3.064 3.128 0 5.376 1.080 6.4 3.912 0.912 2.624 0.056 4.832-2.008 6.704zM8.856 15.832v10.68c2.256 0 4.912 0 7.12 0 0.059 0.001 0.129 0.001 0.2 0.001 0.815 0 1.618-0.056 2.404-0.163l-0.091 0.010c2.592-0.477 4.548-2.661 4.672-5.323l0-0.013c0-2.512-2.16-5.136-4.72-5.136-2.976-0.008-6.488-0.056-9.584-0.056zM8.856 14.544c2.704 0 5.776 0.048 8.4 0 0.026 0.001 0.057 0.001 0.088 0.001 0.807 0 1.548-0.278 2.135-0.743l-0.007 0.005c1.11-0.864 1.817-2.201 1.817-3.702 0-0.503-0.079-0.988-0.227-1.443l0.009 0.033c-0.609-1.871-2.337-3.2-4.376-3.2-0.014 0-0.028 0-0.042 0h-7.854z"></path>
</svg>
