<!-- Generated by IcoMoon.io -->
<svg version="1.1" xmlns="http://www.w3.org/2000/svg" width="32" height="32" viewBox="0 0 32 32">
<title>bitcoin-cash</title>
<path d="M16 0c-8.837 0-16 7.163-16 16s7.163 16 16 16c8.837 0 16-7.163 16-16v0c0-8.837-7.163-16-16-16v0zM20.48 23.354l0.518 2.438-1.69 0.358-0.506-2.381-2.253 0.48 0.506 2.381-1.626 0.346-0.506-2.381-2.88 0.64-3.571-16.915 2.88-0.64-0.474-2.362 1.626-0.346 0.506 2.381 2.253-0.48-0.544-2.394 1.626-0.346 0.531 2.502c2.694-0.243 4.582 0.922 5.075 3.238 0.069 0.273 0.109 0.587 0.109 0.91 0 1.612-0.993 2.991-2.4 3.561l-0.026 0.009c2.522-0.141 4.294 1.114 4.787 3.43 0.538 2.586-0.915 4.614-3.942 5.568z"></path>
<path d="M17.434 15.955l-5.069 1.075 1.28 5.946 5.069-1.075c2.752-0.582 4.154-1.997 3.68-3.923s-2.208-2.618-4.96-2.022z"></path>
<path d="M20.090 10.618c-0.371-1.754-1.92-2.4-4.205-1.92l-5.069 1.075 1.158 5.446 5.069-1.075c2.317-0.493 3.437-1.837 3.046-3.526z"></path>
</svg>
