<!-- Generated by IcoMoon.io -->
<svg version="1.1" xmlns="http://www.w3.org/2000/svg" width="32" height="32" viewBox="0 0 32 32">
<title>bitcoin-receipt-filled</title>
<path d="M24.848 1.944c-0.618 0.582-1.195 1.183-1.742 1.81l-0.026 0.030c-0.728 0.8-1.176 0.688-2.144-0.288-0.624-0.624-1.288-1.336-1.992-1.96-0.744 0.656-1.352 1.304-1.968 1.952-0.736 0.8-1.352 0.704-2.064 0s-1.312-1.368-2.024-1.984c-0.352 0.4-1.040 1.072-1.272 1.352-1.68 2.056-2.312 1.216-4.464-0.952v28.8h17.696c0-8.696 0-28.088 0-28.76zM20.336 21.096h-8.672c-0.312 0-0.568-0.216-0.568-0.68s0.256-0.68 0.568-0.68h8.672c0.312 0 0.568 0.224 0.568 0.68s-0.256 0.68-0.568 0.68zM20.336 25.168h-8.672c-0.312 0-0.568-0.216-0.568-0.68s0.256-0.68 0.568-0.68h8.672c0.312 0 0.568 0.224 0.568 0.68s-0.256 0.688-0.568 0.688zM20.336 16.792h-8.672c-0.312 0-0.568-0.224-0.568-0.68s0.256-0.68 0.568-0.68h8.672c0.312 0 0.568 0.216 0.568 0.68s-0.256 0.688-0.568 0.688zM20.336 12.496h-8.672c-0.312 0-0.568-0.224-0.568-0.68s0.256-0.68 0.568-0.68h8.672c0.312 0 0.568 0.224 0.568 0.68s-0.256 0.688-0.568 0.688z"></path>
<path d="M5.856 32h20.288v-31.2c-0.026-0.451-0.399-0.807-0.855-0.807-0.227 0-0.433 0.088-0.586 0.232l0-0c-0.704 0.696-1.504 1.496-2.232 2.232-0.087 0.081-0.204 0.13-0.332 0.13s-0.245-0.050-0.332-0.131l0 0c-0.744-0.704-1.456-1.464-2.16-2.128-0.152-0.14-0.356-0.226-0.58-0.226s-0.428 0.086-0.581 0.227l0.001-0.001-2.232 1.952c-0.085 0.078-0.199 0.126-0.324 0.126s-0.239-0.048-0.324-0.126l0 0-2.168-2.040c-0.152-0.141-0.356-0.227-0.58-0.227-0.252 0-0.478 0.109-0.635 0.282l-0.001 0.001-1.912 2.104c-0.088 0.092-0.211 0.149-0.348 0.149s-0.26-0.057-0.348-0.149l-0-0-2.248-2.128c-0.153-0.147-0.362-0.238-0.592-0.238-0.372 0-0.688 0.237-0.806 0.568l-0.002 0.006c-0.064 0.267-0.1 0.574-0.1 0.889 0 0.109 0.004 0.218 0.013 0.325l-0.001-0.014c0 8.256 0 16.52 0 24.8v5.392zM7.152 1.904c2.16 2.168 2.792 3.008 4.464 0.952 0.232-0.28 0.92-0.952 1.272-1.352 0.704 0.624 1.4 1.336 2.024 1.968s1.328 0.8 2.064 0c0.616-0.64 1.224-1.288 1.968-1.952 0.704 0.616 1.368 1.336 1.992 1.96 0.976 0.976 1.416 1.096 2.144 0.288 0.573-0.657 1.15-1.258 1.755-1.828l0.013-0.012c0 0.68 0 20.064 0 28.8h-17.696z"></path>
</svg>
