<!-- Generated by IcoMoon.io -->
<svg version="1.1" xmlns="http://www.w3.org/2000/svg" width="32" height="32" viewBox="0 0 32 32">
<title>bitcoin-in-circle-filled</title>
<path d="M17.32 16.208c-1.896 0-2.336 0-4.304 0v5.6c1.44 0 1.856 0 3.264 0 0.039 0 0.085 0.001 0.131 0.001 0.518 0 1.028-0.035 1.527-0.103l-0.058 0.006c1.6-0.248 2.4-0.912 2.4-2.52 0.010-0.088 0.016-0.19 0.016-0.294 0-1.493-1.211-2.704-2.704-2.704-0.096 0-0.19 0.005-0.284 0.015l0.012-0.001z"></path>
<path d="M16.8 14.456c0.005 0 0.010 0 0.015 0 0.619 0 1.197-0.176 1.686-0.48l-0.014 0.008c0.586-0.413 0.965-1.087 0.965-1.85 0-0.305-0.061-0.596-0.17-0.861l0.005 0.015c-0.448-1.168-1.48-1.328-2.808-1.328h-3.48v4.52c1.72 0 2.128 0.032 3.8-0.024z"></path>
<path d="M16 1.296c-8.121 0-14.704 6.583-14.704 14.704s6.583 14.704 14.704 14.704c8.121 0 14.704-6.583 14.704-14.704v0c0-8.121-6.583-14.704-14.704-14.704v0zM22.112 19.84c-0.56 2.84-2.4 3.704-5.048 3.672 0 0.696 0 1.352 0 2.016 0 0.005 0 0.010 0 0.016 0 0.337-0.271 0.612-0.608 0.616h-0c-0.362-0.012-0.657-0.28-0.711-0.628l-0.001-0.004v-2h-0.96c0 0.608 0 1.384 0 2-0.025 0.347-0.307 0.62-0.655 0.632l-0.001 0c-0.351-0.004-0.635-0.283-0.648-0.631l-0-0.001c0-0.496 0-0.896 0-1.4 0-0.2 0-0.392 0-0.64h-1.32c-0.544 0-0.744-0.192-0.744-0.712q0-6.816 0-13.6c0-0.504 0.2-0.696 0.696-0.712s0.8 0 1.344 0c0-0.736 0-1.152 0-1.832 0-0.48 0.232-0.8 0.656-0.8s0.64 0.376 0.64 0.8c0 0.584 0 1.208 0 1.832h0.96c0-0.64 0-1.312 0-1.944-0.003-0.022-0.004-0.047-0.004-0.073 0-0.341 0.266-0.619 0.602-0.639l0.002-0c0.015-0.001 0.032-0.002 0.049-0.002 0.371 0 0.672 0.301 0.672 0.672 0 0.012-0 0.024-0.001 0.035l0-0.002c0 0.632 0 1.264 0 1.952 1.992 0 3.048 0.688 3.68 2.496 0.139 0.376 0.219 0.811 0.219 1.264 0 1.208-0.571 2.284-1.459 2.97l-0.009 0.006c2.312 1.064 2.936 2.992 2.648 4.64z"></path>
</svg>
