<!-- Generated by IcoMoon.io -->
<svg version="1.1" xmlns="http://www.w3.org/2000/svg" width="32" height="32" viewBox="0 0 32 32">
<title>bitcoin-in-circle</title>
<path d="M18.927 15.368c1.655 0.402 2.864 1.871 2.864 3.622 0 0.145-0.008 0.289-0.025 0.43l0.002-0.017c-0.507 2.568-1.889 3.442-4.308 3.411v1.819c-0.058 0.326-0.339 0.57-0.677 0.57-0.001 0-0.002 0-0.002 0h0c-0.029 0.004-0.063 0.006-0.098 0.006-0.358 0-0.66-0.241-0.752-0.57l-0.001-0.006v-1.803h-1.202v1.803c-0.047 0.329-0.326 0.58-0.665 0.58-0.041 0-0.081-0.004-0.12-0.011l0.004 0.001c-0.398 0-0.78-0.351-0.78-0.57v-1.218c0-0.18 0-0.359 0-0.585-0.46 0-0.203 0-0.609 0s-0.671-0.172-0.671-0.64v-12.355c0-0.46 0.179-0.632 0.632-0.64h0.648c0-0.671 0-1.038 0-1.655 0.049-0.401 0.374-0.713 0.778-0.741l0.003-0c0.401 0.020 0.721 0.34 0.741 0.74l0 0.002c0 0.531 0 1.093 0 1.655h1.202c0-0.578 0-1.061 0-1.631 0-0.001 0-0.002 0-0.003 0-0.431 0.349-0.78 0.78-0.78 0.025 0 0.049 0.001 0.073 0.003l-0.003-0c0.382 0.029 0.681 0.345 0.681 0.732 0 0.017-0.001 0.034-0.002 0.051l0-0.002v1.639c1.374 0 2.341 0.617 2.88 2.248 0.102 0.311 0.16 0.669 0.16 1.041 0 1.193-0.603 2.246-1.522 2.869l-0.012 0.008zM13.463 16.687v4.581c1.303 0 1.264 0 2.537 0 0.058 0.001 0.126 0.002 0.195 0.002 0.441 0 0.874-0.032 1.297-0.094l-0.048 0.006c1.459-0.226 2.693-0.835 2.693-2.287s-1.249-2.178-2.716-2.178c-1.725-0.008-2.185-0.031-3.973-0.031zM13.463 14.384c1.561 0 1.764 0 3.27 0 0.026 0.001 0.057 0.001 0.088 0.001 0.541 0 1.049-0.142 1.488-0.392l-0.015 0.008c0.78-0.562 0.929-1.147 0.617-2.201-0.273-0.874-1.358-1.085-2.521-1.085h-2.95z"></path>
<path stroke="#231f20" fill="#000" stroke-width="0.7805" stroke-miterlimit="10" stroke-linecap="butt" stroke-linejoin="miter" d="M16 0.39c-8.621 0-15.61 6.989-15.61 15.61s6.989 15.61 15.61 15.61c8.621 0 15.61-6.989 15.61-15.61v0c0-8.621-6.989-15.61-15.61-15.61v0zM16 30.345c-7.923 0-14.345-6.423-14.345-14.345s6.423-14.345 14.345-14.345c7.923 0 14.345 6.423 14.345 14.345v0c0 7.923-6.423 14.345-14.345 14.345v0z"></path>
</svg>
