<!-- Generated by IcoMoon.io -->
<svg version="1.1" xmlns="http://www.w3.org/2000/svg" width="32" height="32" viewBox="0 0 32 32">
<title>bitcoin-filled</title>
<path d="M8.72 27.808c0.704 0 1.264 0 2.064 0 0 0.392 0 0.696 0 1.008 0 0.8 0 1.408 0 2.192 0.018 0.549 0.465 0.988 1.016 0.992h0c0.536-0.032 0.964-0.457 1-0.989l0-0.003c0-0.968 0-2.176 0-3.136h1.512v3.136c0.087 0.559 0.561 0.983 1.135 0.992h0.001c0.529-0.013 0.952-0.445 0.952-0.976 0-0.006-0-0.011-0-0.017v0.001c0-1.048 0-2.072 0-3.2 4.2 0.056 7.048-1.296 7.928-5.76 0.504-2.584-0.528-5.6-4.144-7.28 2.064-1.872 2.912-4.080 1.992-6.712-0.984-2.832-2.64-3.912-5.776-3.912 0-1.080 0-2.072 0-3.064 0-0.005 0-0.011 0-0.017 0-0.588-0.476-1.064-1.064-1.064-0.020 0-0.039 0.001-0.059 0.002l0.003-0c-0.531 0.031-0.95 0.47-0.95 1.006 0 0.040 0.002 0.080 0.007 0.118l-0-0.005c0 0.992 0 2.056 0 3.056h-1.536c0-0.976 0-1.96 0-2.88 0-0.712-0.352-1.296-0.976-1.296s-1.032 0.536-1.032 1.288c0 1.072 0 1.72 0 2.872-0.8 0-1.376 0-2.112 0s-1.096 0.32-1.096 1.112q0 10.704 0 21.4c-0.032 0.832 0.28 1.12 1.136 1.136zM21.52 21.024c0 2.528-1.296 3.56-3.824 3.952-0.678 0.093-1.461 0.146-2.256 0.146-0.084 0-0.169-0.001-0.253-0.002l0.013 0c-2.208 0-2.864 0-5.12 0v-8.8c3.096 0 3.784 0.048 6.76 0.048 3.392 0.008 4.664 2.144 4.664 4.656zM10.040 6.624h5.448c2.088 0 3.696 0.248 4.408 2.080 0.168 0.398 0.266 0.861 0.266 1.346 0 1.19-0.587 2.244-1.487 2.886l-0.011 0.007c-0.71 0.415-1.563 0.66-2.474 0.66-0.067 0-0.134-0.001-0.2-0.004l0.010 0c-2.624 0.080-3.264 0-5.968 0z"></path>
</svg>
