<!-- Generated by IcoMoon.io -->
<svg version="1.1" xmlns="http://www.w3.org/2000/svg" width="32" height="32" viewBox="0 0 32 32">
<title>bitcoin-cart</title>
<path d="M31.696 0.296h-3.872c-0.011-0-0.024-0-0.038-0-1.148 0-2.115 0.775-2.406 1.831l-0.004 0.018c-0.152 0.512-0.312 1.016-0.432 1.536-0.072 0.312-0.216 0.392-0.528 0.392h-5.6v1.28h5.6c-0.272 0.952-0.528 1.88-0.8 2.808-0.856 3.128-1.76 6.24-2.648 9.44-0.018 0.188-0.175 0.334-0.366 0.334-0.023 0-0.046-0.002-0.068-0.006l0.002 0h-12.88c-0.046 0.003-0.099 0.005-0.153 0.005-1.085 0-2.002-0.72-2.299-1.708l-0.004-0.017q-1.944-5.304-3.872-10.608c0-0.064 0-0.136-0.064-0.24h6.512v-1.296h-6.352c-0.050-0.007-0.108-0.011-0.166-0.011-0.707 0-1.28 0.573-1.28 1.28 0 0.214 0.053 0.416 0.146 0.594l-0.003-0.007q1.936 5.328 3.88 10.656c0.497 1.504 1.89 2.57 3.532 2.57 0.046 0 0.093-0.001 0.139-0.003l-0.007 0h13.096c0.002 0 0.004-0 0.005-0 0.173 0 0.331 0.064 0.451 0.169l-0.001-0.001q1.256 1.36 2.48 2.744c0.213 0.222 0.345 0.525 0.345 0.858 0 0.542-0.348 1.003-0.832 1.171l-0.009 0.003c-0.192 0.057-0.413 0.090-0.641 0.090-0.033 0-0.067-0.001-0.1-0.002l0.005 0h-20.56v1.24h2.496c-0.803 0.223-1.475 0.695-1.945 1.326l-0.007 0.010c-0.362 0.491-0.579 1.109-0.579 1.777 0 0.195 0.018 0.386 0.054 0.57l-0.003-0.019c0.229 1.433 1.414 2.528 2.871 2.616l0.009 0c0.073 0.006 0.158 0.010 0.244 0.010 1.361 0 2.52-0.87 2.949-2.084l0.007-0.022c0.111-0.304 0.175-0.654 0.175-1.020 0-0.584-0.163-1.129-0.446-1.593l0.008 0.014c-0.464-0.755-1.19-1.311-2.048-1.546l-0.024-0.006h15.136c-2.048 0.888-2.848 2.104-2.512 3.776 0.313 1.433 1.57 2.49 3.075 2.49 1.447 0 2.665-0.977 3.032-2.308l0.005-0.022c0.069-0.243 0.109-0.522 0.109-0.811 0-0.631-0.19-1.217-0.516-1.705l0.007 0.011c-0.476-0.714-1.193-1.235-2.032-1.451l-0.024-0.005c0.448 0 0.896 0 1.32-0.048 0.914-0.146 1.643-0.803 1.892-1.663l0.004-0.017c0.090-0.243 0.143-0.523 0.143-0.815 0-0.659-0.265-1.255-0.695-1.689l0 0c-0.8-0.888-1.6-1.76-2.4-2.648-0.071-0.091-0.113-0.207-0.113-0.332 0-0.035 0.003-0.070 0.010-0.103l-0.001 0.003q2.208-7.776 4.44-15.544c0.114-0.563 0.605-0.981 1.193-0.981 0.062 0 0.122 0.005 0.182 0.013l-0.007-0.001h4.088v-1.288zM6.888 28.56c0 0.002 0 0.005 0 0.008 0 1.043-0.845 1.888-1.888 1.888 0 0 0 0-0 0v0c-1.031-0.018-1.862-0.849-1.88-1.878l-0-0.002c0-0.002-0-0.005-0-0.008 0-1.033 0.833-1.871 1.863-1.88h0.001c0.014-0 0.031-0.001 0.048-0.001 1.025 0 1.856 0.831 1.856 1.856 0 0.006-0 0.012-0 0.017v-0.001zM23.232 28.56c0.003 0.037 0.004 0.080 0.004 0.123 0 1.043-0.845 1.888-1.888 1.888s-1.888-0.845-1.888-1.888c0-0.043 0.001-0.086 0.004-0.129l-0 0.006c0.066-0.988 0.884-1.765 1.884-1.765s1.818 0.777 1.884 1.759l0 0.006z"></path>
<path d="M13.328 0.296c-2.479 0-4.488 2.009-4.488 4.488s2.009 4.488 4.488 4.488c2.473 0 4.479-2 4.488-4.471v-0.001c0-0.005 0-0.010 0-0.016 0-2.479-2.009-4.488-4.488-4.488 0 0-0 0-0 0v0zM13.328 8.904c-2.275-0-4.12-1.845-4.12-4.12s1.845-4.12 4.12-4.12c2.275 0 4.12 1.845 4.12 4.12 0 0.006 0 0.011-0 0.017v-0.001c-0.009 2.269-1.85 4.104-4.12 4.104 0 0-0 0-0 0v0z"></path>
<path d="M14.456 4.512c0.448 0.162 0.762 0.583 0.762 1.078 0 0.071-0.007 0.141-0.019 0.209l0.001-0.007c-0.152 0.8-0.76 1.024-1.496 1.016 0 0.192 0 0.376 0 0.56 0 0.064 0 0.176-0.128 0.176s-0.104-0.12-0.104-0.176v-0.552h-0.368c0 0.168 0 0.384 0 0.552s0 0.176-0.112 0.176-0.12-0.112-0.12-0.176 0-0.248 0-0.384 0-0.112 0-0.176h-0.424c-0.152 0-0.208-0.056-0.208-0.2q0-1.88 0-3.768c0-0.136 0.056-0.192 0.192-0.192h0.432c0-0.2 0-0.32 0-0.504 0-0.048 0-0.224 0.112-0.224s0.112 0.176 0.112 0.224 0 0.336 0 0.504h0.368c0-0.176 0-0.36 0-0.536s0-0.2 0.104-0.2 0.128 0.088 0.128 0.192 0 0.352 0 0.536c0.051-0.009 0.11-0.014 0.171-0.014 0.579 0 1.048 0.469 1.048 1.048 0 0.341-0.163 0.645-0.416 0.836l-0.003 0.002zM12.464 4.696v1.88h1.248c0.066 0.005 0.143 0.008 0.22 0.008s0.154-0.003 0.23-0.008l-0.010 0.001c0.446-0.093 0.779-0.473 0.8-0.934l0-0.002c-0.001-0.464-0.347-0.846-0.795-0.904l-0.005-0zM12.464 4.472c0.472 0 1.016 0 1.48 0 0.005 0 0.012 0 0.018 0 0.141 0 0.272-0.048 0.375-0.129l-0.001 0.001c0.196-0.147 0.322-0.38 0.322-0.641 0-0.091-0.015-0.179-0.043-0.26l0.002 0.006c-0.105-0.328-0.407-0.561-0.763-0.561-0.013 0-0.026 0-0.038 0.001l0.002-0h-1.352z"></path>
</svg>
