<?xml version="1.0" encoding="UTF-8"?>
<svg width="23px" height="20px" viewBox="0 0 23 20" version="1.1" xmlns="http://www.w3.org/2000/svg" xmlns:xlink="http://www.w3.org/1999/xlink">
    <!-- Generator: Sketch 51 (57462) - http://www.bohemiancoding.com/sketch -->
    <title>Shape</title>
    <desc>Created with Sketch.</desc>
    <defs></defs>
    <g id="Explorer-final" stroke="none" stroke-width="1" fill="none" fill-rule="evenodd">
        <g id="eth---block" transform="translate(-450.000000, -1087.000000)">
            <rect fill="#FFFFFF" x="0" y="0" width="1440" height="4000"></rect>
            <g id="blocks" transform="translate(0.000000, 1047.000000)" fill="#222D38" fill-rule="nonzero">
                <g id="filter" transform="translate(80.000000, 10.000000)">
                    <g id="blocks" transform="translate(210.000000, 27.000000)">
                        <g transform="translate(160.000000, 0.000000)" id="blocks-icon">
                            <g transform="translate(0.000000, 3.000000)">
                                <path d="M13.225,0 L21.9138889,0 C22.513739,0 23,0.499922457 23,1.11662531 L23,8.56079404 C23,9.1774969 22.513739,9.67741935 21.9138889,9.67741935 L13.225,9.67741935 C12.6251499,9.67741935 12.1388889,9.1774969 12.1388889,8.56079404 L12.1388889,1.11662531 C12.1388889,0.499922457 12.6251499,0 13.225,0 Z M9.775,0 L1.08611111,0 C0.486260995,0 0,0.499922457 0,1.11662531 L0,8.56079404 C0,9.1774969 0.486260995,9.67741935 1.08611111,9.67741935 L9.775,9.67741935 C10.3748501,9.67741935 10.8611111,9.1774969 10.8611111,8.56079404 L10.8611111,1.11662531 C10.8611111,0.499922457 10.3748501,0 9.775,0 Z M0,11.439206 L0,18.8833747 C0,19.5000775 0.486260995,20 1.08611111,20 L9.775,20 C10.3748501,20 10.8611111,19.5000775 10.8611111,18.8833747 L10.8611111,11.439206 C10.8611111,10.8225031 10.3748501,10.3225806 9.775,10.3225806 L1.08611111,10.3225806 C0.486260995,10.3225806 0,10.8225031 0,11.439206 Z M13.225,20 L21.9138889,20 C22.513739,20 23,19.5000775 23,18.8833747 L23,11.439206 C23,10.8225031 22.513739,10.3225806 21.9138889,10.3225806 L13.225,10.3225806 C12.6251499,10.3225806 12.1388889,10.8225031 12.1388889,11.439206 L12.1388889,18.8833747 C12.1388889,19.5000775 12.6251499,20 13.225,20 Z" id="Shape"></path>
                            </g>
                        </g>
                    </g>
                </g>
            </g>
        </g>
    </g>
</svg>