<!-- Generated by IcoMoon.io -->
<svg version="1.1" xmlns="http://www.w3.org/2000/svg" width="32" height="32" viewBox="0 0 32 32">
<title>build-filled</title>
<path d="M29.296 25.6l-10.296-9.752c1.12-1.12 2.64-2.648 3.704-3.696 0.057-0.043 0.128-0.068 0.206-0.068 0.032 0 0.063 0.004 0.093 0.013l-0.002-0.001c0.516 0.188 1.111 0.296 1.731 0.296 0.353 0 0.697-0.035 1.030-0.102l-0.033 0.006c2.353-0.478 4.1-2.531 4.1-4.991 0-0.537-0.083-1.055-0.238-1.541l0.010 0.036c-0.055-0.393-0.389-0.693-0.793-0.693-0.27 0-0.509 0.134-0.654 0.338l-0.002 0.003-1.976 1.952c-0.102 0.115-0.199 0.24-0.288 0.371l-0.008 0.013-1.6-1.6 0.192-0.2 2.136-2.136c0.17-0.147 0.276-0.364 0.276-0.605 0-0.366-0.246-0.675-0.582-0.77l-0.006-0.001c-0.471-0.17-1.016-0.268-1.583-0.268-0.332 0-0.656 0.034-0.968 0.098l0.031-0.005c-2.364 0.474-4.119 2.533-4.119 5.002 0 0.604 0.105 1.184 0.298 1.722l-0.011-0.036c0.021 0.042 0.033 0.092 0.033 0.145 0 0.111-0.054 0.209-0.136 0.27l-0.001 0.001-3.76 3.712c-0.082 0.050-0.182 0.080-0.288 0.080-0.161 0-0.305-0.068-0.407-0.176l-0-0-2.152-2.152-2.032-2c0.158-0.109 0.297-0.219 0.427-0.338l-0.003 0.002c0.156-0.146 0.253-0.354 0.253-0.584 0-0.131-0.032-0.255-0.088-0.364l0.002 0.005c-0.054-0.091-0.086-0.201-0.086-0.318 0-0.161 0.060-0.307 0.158-0.419l-0.001 0.001c0.101-0.17 0.204-0.317 0.317-0.455l-0.005 0.007c1.052-1.28 2.426-2.258 4.001-2.813l0.063-0.019c0.368-0.128 0.528-0.32 0.512-0.6s-0.192-0.408-0.552-0.496c-0.435-0.101-0.934-0.159-1.447-0.159-0.379 0-0.75 0.032-1.112 0.092l0.039-0.005c-1.895 0.289-3.546 1.167-4.799 2.439l-0.001 0.001c-1.128 1.104-2.24 2.232-3.36 3.352-0.229 0.173-0.376 0.444-0.376 0.75 0 0.185 0.054 0.357 0.146 0.502l-0.002-0.004c-0.2 0.192-0.384 0.384-0.592 0.56-0.036 0.017-0.079 0.027-0.124 0.027s-0.088-0.010-0.126-0.028l0.002 0.001c-0.098-0.046-0.213-0.073-0.334-0.073-0.204 0-0.39 0.076-0.531 0.202l0.001-0.001c-0.48 0.472-0.92 0.992-1.384 1.488v0.488c0.456 0.496 0.912 1 1.376 1.496 0.272 0.288 0.552 0.568 0.8 0.8 0.163 0.181 0.398 0.294 0.66 0.294s0.497-0.113 0.659-0.293l0.001-0.001c0.288-0.28 0.568-0.576 0.856-0.856 0.24-0.175 0.395-0.455 0.395-0.772 0-0.188-0.055-0.364-0.149-0.512l0.002 0.004c0.12-0.104 0.24-0.2 0.344-0.304s0.344-0.384 0.688-0.24c0.056 0.014 0.121 0.022 0.187 0.022 0.246 0 0.465-0.111 0.612-0.285l0.001-0.001c0.104-0.104 0.2-0.232 0.304-0.352 0.060 0.043 0.112 0.085 0.162 0.13l-0.002-0.002 4 4c0.102 0.105 0.165 0.249 0.165 0.407 0 0.081-0.017 0.159-0.047 0.229l0.001-0.004-3.888 3.896c-0.062 0.080-0.158 0.131-0.266 0.131-0.055 0-0.106-0.013-0.152-0.036l0.002 0.001c-0.499-0.179-1.075-0.282-1.675-0.282-2.529 0-4.628 1.839-5.033 4.253l-0.004 0.030c-0.017 0.070-0.036 0.128-0.059 0.185l0.003-0.009v1.136c0.096 0.368 0.168 0.752 0.28 1.112 0.069 0.322 0.351 0.561 0.689 0.561 0.039 0 0.077-0.003 0.115-0.009l-0.004 0.001c0.205-0.057 0.381-0.162 0.52-0.304l0-0c0.72-0.704 1.424-1.416 2.136-2.128l0.208-0.192 1.552 1.6-0.184 0.192-2.040 2.168c-0.177 0.148-0.289 0.368-0.289 0.615 0 0.374 0.256 0.688 0.603 0.776l0.006 0.001c0.336 0.112 0.688 0.168 1.040 0.256h1.128c0.034-0.019 0.074-0.035 0.116-0.047l0.004-0.001c2.464-0.379 4.329-2.484 4.329-5.024 0-0.203-0.012-0.403-0.035-0.6l0.002 0.024c-0.056-0.456-0.184-0.904-0.264-1.304l3.944-3.952 0.392 0.424q4.656 4.912 9.296 9.84c0.254 0.314 0.64 0.513 1.072 0.513s0.818-0.199 1.070-0.511l0.002-0.003 1.464-1.472c0.302-0.253 0.494-0.63 0.494-1.052s-0.191-0.799-0.491-1.050l-0.002-0.002z"></path>
</svg>
