<!-- Generated by IcoMoon.io -->
<svg version="1.1" xmlns="http://www.w3.org/2000/svg" width="32" height="32" viewBox="0 0 32 32">
<title>build</title>
<path d="M16.384 12.8l0.64 0.6 3.672-3.672c0.312-0.312 0.32-0.368 0.144-0.8-0.215-0.491-0.341-1.064-0.341-1.665 0-2.049 1.453-3.758 3.385-4.154l0.027-0.005c0.219-0.045 0.47-0.071 0.728-0.071 0.45 0 0.882 0.079 1.283 0.223l-0.026-0.008-0.2 0.216-1.944 1.976c-0.222 0.179-0.363 0.451-0.363 0.756s0.141 0.577 0.362 0.755l0.002 0.001 1.336 1.336c0.174 0.207 0.434 0.338 0.724 0.338s0.55-0.131 0.723-0.337l0.001-0.001 1.952-1.968c0.072-0.072 0.112-0.168 0.208-0.224 0.154 0.355 0.244 0.769 0.244 1.203 0 0.055-0.001 0.11-0.004 0.165l0-0.008c-0.085 2.266-1.943 4.070-4.221 4.070-0.587 0-1.146-0.12-1.654-0.336l0.028 0.010c-0.48-0.2-0.496-0.192-0.864 0.176l-3.568 3.568 0.64 0.592q1.696-1.696 3.4-3.392c0.057-0.043 0.128-0.068 0.206-0.068 0.032 0 0.063 0.004 0.093 0.013l-0.002-0.001c0.516 0.188 1.111 0.296 1.731 0.296 0.353 0 0.697-0.035 1.030-0.102l-0.033 0.006c2.356-0.476 4.105-2.53 4.105-4.992 0-0.534-0.082-1.048-0.235-1.532l0.010 0.036c-0.055-0.393-0.389-0.693-0.793-0.693-0.27 0-0.509 0.134-0.654 0.338l-0.002 0.003-1.976 1.952c-0.102 0.115-0.199 0.24-0.288 0.371l-0.008 0.013-1.6-1.6 0.192-0.2 2.136-2.136c0.17-0.147 0.276-0.364 0.276-0.605 0-0.366-0.246-0.675-0.582-0.77l-0.006-0.001c-0.471-0.17-1.016-0.268-1.583-0.268-0.332 0-0.656 0.034-0.968 0.098l0.031-0.005c-2.364 0.474-4.119 2.533-4.119 5.002 0 0.604 0.105 1.184 0.298 1.722l-0.011-0.036c0.021 0.042 0.033 0.092 0.033 0.145 0 0.111-0.054 0.209-0.136 0.27l-0.001 0.001z"></path>
<path d="M29.296 25.6l-10.296-9.752-0.6-0.584-2.312-2.16c-0.082 0.050-0.182 0.080-0.288 0.080-0.161 0-0.305-0.068-0.407-0.176l-0-0-2.152-2.152-2.040-1.992c0.158-0.109 0.297-0.219 0.427-0.338l-0.003 0.002c0.156-0.146 0.253-0.354 0.253-0.584 0-0.131-0.032-0.255-0.088-0.364l0.002 0.005c-0.054-0.091-0.086-0.201-0.086-0.318 0-0.161 0.060-0.307 0.158-0.419l-0.001 0.001c0.101-0.17 0.204-0.317 0.317-0.455l-0.005 0.007c1.052-1.28 2.426-2.258 4.001-2.813l0.063-0.019c0.368-0.128 0.528-0.32 0.512-0.6s-0.192-0.408-0.552-0.496c-0.435-0.101-0.934-0.159-1.447-0.159-0.379 0-0.75 0.032-1.112 0.092l0.039-0.005c-1.895 0.289-3.546 1.167-4.799 2.439l-0.001 0.001c-1.128 1.104-2.24 2.232-3.36 3.352-0.229 0.173-0.376 0.444-0.376 0.75 0 0.185 0.054 0.357 0.146 0.502l-0.002-0.004c-0.2 0.192-0.384 0.384-0.592 0.56-0.036 0.017-0.079 0.027-0.124 0.027s-0.088-0.010-0.126-0.028l0.002 0.001c-0.098-0.046-0.213-0.073-0.334-0.073-0.204 0-0.39 0.076-0.531 0.202l0.001-0.001c-0.48 0.472-0.92 0.992-1.384 1.488v0.488c0.456 0.496 0.912 1 1.376 1.496 0.272 0.288 0.552 0.568 0.8 0.8 0.163 0.181 0.398 0.294 0.66 0.294s0.497-0.113 0.659-0.293l0.001-0.001c0.288-0.28 0.568-0.576 0.856-0.856 0.24-0.175 0.395-0.455 0.395-0.772 0-0.188-0.055-0.364-0.149-0.512l0.002 0.004c0.12-0.104 0.24-0.2 0.344-0.304s0.344-0.384 0.688-0.24c0.056 0.014 0.121 0.022 0.187 0.022 0.246 0 0.465-0.111 0.612-0.285l0.001-0.001c0.104-0.104 0.2-0.232 0.304-0.352 0.060 0.043 0.112 0.085 0.162 0.13l-0.002-0.002 4 4c0.102 0.105 0.165 0.249 0.165 0.407 0 0.081-0.017 0.159-0.047 0.229l0.001-0.004 3.2 3.44c3.104 3.272 6.192 6.568 9.296 9.84 0.254 0.314 0.64 0.513 1.072 0.513s0.818-0.199 1.070-0.511l0.002-0.003 1.464-1.472c0.284-0.252 0.463-0.618 0.463-1.026 0-0.419-0.188-0.794-0.485-1.045l-0.002-0.002zM8.208 10.744c-0.112 0.112-0.192 0.176-0.368 0.096-0.092-0.040-0.198-0.063-0.311-0.063-0.231 0-0.439 0.098-0.585 0.254l-0 0c-0.265 0.237-0.507 0.479-0.736 0.735l-0.008 0.009c-0.157 0.158-0.254 0.375-0.254 0.615 0 0.131 0.029 0.255 0.080 0.366l-0.002-0.005c0.014 0.029 0.023 0.064 0.023 0.1s-0.008 0.071-0.023 0.101l0.001-0.001c-0.296 0.312-0.6 0.616-0.888 0.912l-2.040-2.032c0.28-0.28 0.6-0.608 0.928-0.92 0 0 0.128 0 0.184 0 0.099 0.042 0.215 0.067 0.337 0.067 0.24 0 0.457-0.096 0.616-0.251l-0 0c0.265-0.237 0.507-0.479 0.736-0.735l0.008-0.009c0.161-0.159 0.26-0.38 0.26-0.624 0-0.192-0.061-0.37-0.166-0.514l0.002 0.003c1.44-1.368 2.8-2.8 4.336-4.104 1.166-0.995 2.69-1.601 4.356-1.601 0.035 0 0.070 0 0.105 0.001l-0.005-0c-0.464 0.296-0.888 0.544-1.288 0.8-0.802 0.561-1.488 1.217-2.064 1.962l-0.016 0.022c-0.155 0.206-0.299 0.44-0.421 0.686l-0.011 0.026c-0.112 0.175-0.179 0.388-0.179 0.616s0.067 0.441 0.181 0.621l-0.003-0.005-0.16 0.168zM28.712 27.104l-1.512 1.512c-0.096 0.115-0.24 0.188-0.4 0.188s-0.304-0.073-0.399-0.187l-0.001-0.001-2.848-3.016-9.152-9.648c-0.147-0.135-0.239-0.328-0.239-0.543 0-0.037 0.003-0.073 0.008-0.109l-0.001 0.004c-0.011-0.181-0.092-0.341-0.216-0.456l-0-0c-1.36-1.376-2.728-2.736-4.088-4.104l-0.16-0.168 1.016-1.016 0.144 0.128 4.12 4.12c0.123 0.145 0.305 0.237 0.509 0.237 0.029 0 0.058-0.002 0.087-0.006l-0.003 0c0.001 0 0.002 0 0.004 0 0.181 0 0.346 0.070 0.469 0.184l-0-0q2.704 2.536 5.384 5.096l6.984 6.624 0.328 0.32c0.124 0.094 0.204 0.242 0.204 0.409 0 0.18-0.093 0.339-0.234 0.43l-0.002 0.001z"></path>
<path d="M15.072 18.512l-3.768 3.76c-0.312 0.312-0.32 0.368-0.152 0.8 0.215 0.491 0.34 1.063 0.34 1.664 0 2.037-1.437 3.739-3.352 4.147l-0.028 0.005c-0.235 0.048-0.506 0.076-0.783 0.076-0.446 0-0.876-0.072-1.278-0.204l0.029 0.008 0.216-0.232 1.944-1.944c0.228-0.179 0.374-0.454 0.374-0.764s-0.145-0.585-0.371-0.762l-0.002-0.002-1.32-1.328c-0.176-0.213-0.44-0.348-0.736-0.348s-0.56 0.135-0.735 0.347l-0.001 0.002q-0.976 0.984-1.952 1.968c-0.055 0.076-0.101 0.163-0.134 0.257l-0.002 0.007-0.16-0.096c-0.102-0.345-0.161-0.742-0.161-1.152 0-2.324 1.884-4.208 4.208-4.208 0.623 0 1.215 0.136 1.747 0.379l-0.026-0.011c0.075 0.043 0.165 0.069 0.261 0.069 0.166 0 0.314-0.076 0.411-0.196l0.001-0.001 3.872-3.88-0.592-0.64-3.592 3.6c-0.062 0.080-0.158 0.131-0.266 0.131-0.055 0-0.106-0.013-0.152-0.036l0.002 0.001c-0.499-0.179-1.075-0.282-1.675-0.282-2.529 0-4.628 1.839-5.033 4.253l-0.004 0.030c-0.017 0.070-0.037 0.129-0.059 0.185l0.003-0.009v1.136c0.096 0.368 0.168 0.752 0.28 1.112 0.069 0.322 0.351 0.561 0.689 0.561 0.039 0 0.077-0.003 0.115-0.009l-0.004 0.001c0.205-0.057 0.381-0.162 0.52-0.304l0-0c0.72-0.704 1.424-1.416 2.136-2.128l0.208-0.192 1.552 1.6-0.184 0.192-2.040 2.096c-0.177 0.148-0.289 0.368-0.289 0.615 0 0.374 0.256 0.688 0.603 0.776l0.006 0.001c0.336 0.112 0.688 0.168 1.040 0.256h1.128c0.034-0.019 0.074-0.035 0.116-0.047l0.004-0.001c2.464-0.379 4.329-2.484 4.329-5.024 0-0.203-0.012-0.403-0.035-0.6l0.002 0.024c-0.056-0.456-0.184-0.904-0.264-1.304l3.656-3.664z"></path>
</svg>
