<!-- Generated by IcoMoon.io -->
<svg version="1.1" xmlns="http://www.w3.org/2000/svg" width="32" height="32" viewBox="0 0 32 32">
<title>camera-filled</title>
<path d="M16 13c-0.002 0-0.005 0-0.008 0-3.071 0-5.56 2.489-5.56 5.56s2.489 5.56 5.56 5.56c3.071 0 5.56-2.489 5.56-5.56 0-0.011-0-0.023-0-0.034v0.002c-0.009-3.055-2.488-5.528-5.544-5.528-0.003 0-0.006 0-0.008 0h0z"></path>
<path d="M27.064 11.152c-0.002 0-0.005-0-0.008-0-0.862 0-1.56 0.698-1.56 1.56s0.698 1.56 1.56 1.56c0.848 0 1.537-0.676 1.559-1.518l0-0.002c0.001-0.017 0.001-0.036 0.001-0.056 0-0.853-0.691-1.544-1.544-1.544-0.003 0-0.006 0-0.009 0h0z"></path>
<path d="M29.312 9.008c-1.936 0-3.88 0-5.816 0-0.020 0.001-0.043 0.001-0.067 0.001-1.35 0-2.452-1.061-2.517-2.395l-0-0.006c0.002-0.024 0.003-0.052 0.003-0.080 0-0.676-0.548-1.224-1.224-1.224-0.049 0-0.097 0.003-0.144 0.008l0.006-0.001h-7.096c-0.036-0.004-0.079-0.006-0.121-0.006-0.698 0-1.264 0.566-1.264 1.264 0 0.019 0 0.038 0.001 0.056l-0-0.003c0 0.001 0 0.002 0 0.003 0 1.325-1.075 2.4-2.4 2.4-0.042 0-0.084-0.001-0.126-0.003l0.006 0h-5.888c-0.047-0.006-0.102-0.010-0.157-0.010-0.703 0-1.272 0.569-1.272 1.272 0 0.040 0.002 0.080 0.005 0.119l-0-0.005c0 5.6 0 9.232 0 14.856-0.006 0.046-0.009 0.1-0.009 0.154 0 0.698 0.566 1.264 1.264 1.264 0.057 0 0.113-0.004 0.168-0.011l-0.006 0.001h26.672c0.054 0.008 0.116 0.013 0.18 0.013 0.698 0 1.264-0.566 1.264-1.264 0-0.061-0.004-0.121-0.013-0.18l0.001 0.007c0-5.6 0-9.208 0-14.824 0.005-0.042 0.008-0.091 0.008-0.14 0-0.707-0.573-1.28-1.28-1.28-0.062 0-0.123 0.004-0.183 0.013l0.007-0.001zM12.328 6.608h7.336v1.152h-7.328zM16 25.136c-3.627 0-6.568-2.941-6.568-6.568s2.941-6.568 6.568-6.568c3.627 0 6.568 2.941 6.568 6.568 0 0.003 0 0.006 0 0.008v-0c-0.018 3.619-2.949 6.546-6.567 6.56h-0.001zM27.056 15.2c-1.356-0-2.455-1.1-2.455-2.456s1.1-2.456 2.456-2.456 2.456 1.1 2.456 2.456c0 0.020-0 0.039-0.001 0.059l0-0.003c-0.022 1.33-1.106 2.4-2.44 2.4-0.006 0-0.011-0-0.017-0h0.001z"></path>
</svg>
