<!-- Generated by IcoMoon.io -->
<svg version="1.1" xmlns="http://www.w3.org/2000/svg" width="32" height="32" viewBox="0 0 32 32">
<title>camera</title>
<path d="M15.96 27.928h-13.368c-0.035 0.002-0.075 0.003-0.116 0.003-1.157 0-2.128-0.798-2.393-1.874l-0.004-0.017c-0.080-0.248-0.080-2.592-0.080-0.76 0 5.6 0-9.232 0-14.856-0.004-0.052-0.006-0.113-0.006-0.175 0-1.148 0.788-2.113 1.853-2.381l0.017-0.004c0.224-0.051 0.481-0.080 0.746-0.080 0.019 0 0.038 0 0.057 0l-0.003-0h5.704c0.065 0.012 0.139 0.018 0.215 0.018 0.703 0 1.272-0.569 1.272-1.272 0-0.046-0.002-0.091-0.007-0.136l0 0.006c0.061-1.276 1.111-2.288 2.397-2.288 0.001 0 0.002 0 0.003 0h-0q3.704-0.048 7.416 0c1.325 0 2.4 1.075 2.4 2.4v0c-0 0.009-0 0.020-0 0.031 0 0.694 0.562 1.256 1.256 1.256 0.045 0 0.090-0.002 0.134-0.007l-0.005 0h5.88c0.047-0.003 0.102-0.005 0.157-0.005 1.134 0 2.085 0.787 2.335 1.845l0.003 0.016c0.052 0.215 0.081 0.462 0.081 0.716 0 0.030-0 0.059-0.001 0.088l0-0.004c0 5.6 0 9.232 0 14.856 0.003 0.047 0.005 0.102 0.005 0.157 0 1.37-1.11 2.48-2.48 2.48-0.058 0-0.116-0.002-0.173-0.006l0.008 0zM15.96 26.688h13.344c0.054 0.008 0.116 0.013 0.18 0.013 0.698 0 1.264-0.566 1.264-1.264 0-0.061-0.004-0.121-0.013-0.18l0.001 0.007c0-5.6 0-9.208 0-14.824 0.006-0.047 0.009-0.101 0.009-0.155 0-0.707-0.573-1.28-1.28-1.28-0.060 0-0.119 0.004-0.176 0.012l0.007-0.001c-1.936 0-3.88 0-5.816 0-0.020 0.001-0.043 0.001-0.067 0.001-1.35 0-2.452-1.061-2.517-2.395l-0-0.006c0.002-0.024 0.003-0.052 0.003-0.080 0-0.676-0.548-1.224-1.224-1.224-0.049 0-0.097 0.003-0.144 0.008l0.006-0.001h-7.096c-0.036-0.004-0.079-0.006-0.121-0.006-0.698 0-1.264 0.566-1.264 1.264 0 0.019 0 0.038 0.001 0.056l-0-0.003c0 0.001 0 0.002 0 0.003 0 1.325-1.075 2.4-2.4 2.4-0.042 0-0.084-0.001-0.126-0.003l0.006 0h-5.888c-0.047-0.006-0.101-0.010-0.156-0.010-0.703 0-1.272 0.569-1.272 1.272 0 0.037 0.002 0.074 0.005 0.11l-0-0.005c0 5.6 0 9.232 0 14.856-0.008 0.054-0.013 0.116-0.013 0.179 0 0.698 0.566 1.264 1.264 1.264 0.058 0 0.115-0.004 0.171-0.012l-0.007 0.001z"></path>
<path d="M16 12c3.614 0.018 6.536 2.952 6.536 6.568 0 3.627-2.941 6.568-6.568 6.568s-6.568-2.941-6.568-6.568c0-0.006 0-0.011 0-0.017v0.001c0.009-3.621 2.946-6.552 6.568-6.552 0.011 0 0.023 0 0.034 0h-0.002zM16 13.008c-0.002 0-0.005 0-0.008 0-3.071 0-5.56 2.489-5.56 5.56s2.489 5.56 5.56 5.56c3.071 0 5.56-2.489 5.56-5.56 0-0.011-0-0.023-0-0.034v0.002c-0.005-3.058-2.485-5.536-5.544-5.536-0.003 0-0.006 0-0.008 0h0z"></path>
<path d="M24.6 12.704c0.005-1.348 1.099-2.44 2.448-2.44 1.352 0 2.448 1.096 2.448 2.448s-1.096 2.448-2.448 2.448c-0.017 0-0.034-0-0.050-0.001l0.003 0c-0 0-0 0-0.001 0-1.325 0-2.4-1.075-2.4-2.4 0-0.020 0-0.039 0.001-0.059l-0 0.003zM27.048 11.152c-0.002 0-0.005-0-0.008-0-0.862 0-1.56 0.698-1.56 1.56s0.698 1.56 1.56 1.56c0.848 0 1.537-0.676 1.559-1.518l0-0.002c0.001-0.017 0.001-0.036 0.001-0.056 0-0.853-0.691-1.544-1.544-1.544-0.003 0-0.006 0-0.009 0h0z"></path>
<path d="M19.648 6.592v1.168h-7.336v-1.168z"></path>
</svg>
