<!-- Generated by IcoMoon.io -->
<svg version="1.1" xmlns="http://www.w3.org/2000/svg" width="32" height="32" viewBox="0 0 32 32">
<title>cart-filled</title>
<path d="M31.696 0.296h-3.872c-0.011-0-0.024-0-0.038-0-1.148 0-2.115 0.775-2.406 1.831l-0.004 0.018c-0.152 0.512-0.312 1.016-0.432 1.536-0.072 0.312-0.216 0.392-0.528 0.392q-11.496 0-22.984 0c-0.051-0.007-0.11-0.011-0.171-0.011-0.707 0-1.28 0.573-1.28 1.28 0 0.211 0.051 0.411 0.142 0.587l-0.003-0.007q1.936 5.328 3.88 10.656c0.497 1.504 1.89 2.57 3.532 2.57 0.046 0 0.093-0.001 0.139-0.003l-0.007 0h13.096c0.004-0 0.009-0 0.013-0 0.173 0 0.331 0.064 0.451 0.169l-0.001-0.001q1.256 1.36 2.48 2.744c0.212 0.222 0.343 0.524 0.343 0.856 0 0.544-0.351 1.006-0.838 1.173l-0.009 0.003c-0.192 0.057-0.413 0.090-0.641 0.090-0.033 0-0.067-0.001-0.1-0.002l0.005 0h-20.56v1.24h2.496c-0.803 0.223-1.475 0.695-1.945 1.326l-0.007 0.010c-0.362 0.491-0.579 1.109-0.579 1.777 0 0.195 0.018 0.386 0.054 0.57l-0.003-0.019c0.229 1.433 1.414 2.528 2.871 2.616l0.009 0c0.075 0.006 0.162 0.010 0.249 0.010 1.36 0 2.517-0.87 2.944-2.084l0.007-0.022c0.111-0.304 0.175-0.654 0.175-1.020 0-0.584-0.163-1.129-0.446-1.593l0.008 0.014c-0.464-0.755-1.19-1.311-2.048-1.546l-0.024-0.006h15.136c-2.048 0.888-2.848 2.104-2.512 3.776 0.313 1.433 1.57 2.49 3.075 2.49 1.447 0 2.665-0.977 3.032-2.308l0.005-0.022c0.069-0.243 0.109-0.522 0.109-0.811 0-0.631-0.19-1.217-0.516-1.705l0.007 0.011c-0.476-0.714-1.193-1.235-2.032-1.451l-0.024-0.005c0.448 0 0.896 0 1.32-0.048 0.914-0.146 1.643-0.803 1.892-1.663l0.004-0.017c0.090-0.243 0.143-0.523 0.143-0.815 0-0.659-0.265-1.255-0.695-1.689l0 0c-0.8-0.888-1.6-1.76-2.4-2.648-0.071-0.091-0.113-0.207-0.113-0.332 0-0.035 0.003-0.070 0.010-0.103l-0.001 0.003q2.208-7.776 4.44-15.544c0.114-0.563 0.605-0.981 1.193-0.981 0.062 0 0.122 0.005 0.182 0.013l-0.007-0.001h4.088v-1.288z"></path>
</svg>
