<!-- Generated by IcoMoon.io -->
<svg version="1.1" xmlns="http://www.w3.org/2000/svg" width="32" height="32" viewBox="0 0 32 32">
<title>cart</title>
<path d="M20.8 25.432h-15.152c0.882 0.241 1.608 0.797 2.063 1.537l0.009 0.015c0.284 0.456 0.452 1.010 0.452 1.602 0 0.363-0.063 0.712-0.179 1.035l0.007-0.021c-0.434 1.236-1.591 2.106-2.951 2.106-0.088 0-0.175-0.004-0.261-0.011l0.011 0.001c-1.477-0.072-2.678-1.168-2.91-2.59l-0.002-0.018c-0.032-0.166-0.051-0.356-0.051-0.551 0-0.668 0.217-1.285 0.585-1.785l-0.006 0.008c0.484-0.646 1.168-1.119 1.959-1.33l0.025-0.006h-2.496v-1.24h20.568c0.028 0.001 0.062 0.002 0.095 0.002 0.228 0 0.449-0.033 0.657-0.094l-0.016 0.004c0.484-0.176 0.823-0.632 0.823-1.168 0-0.328-0.128-0.627-0.336-0.849l0.001 0.001q-1.224-1.384-2.48-2.744c-0.12-0.104-0.278-0.168-0.451-0.168-0.002 0-0.004 0-0.006 0h-13.096c-0.037 0.001-0.081 0.002-0.124 0.002-1.651 0-3.050-1.078-3.532-2.568l-0.007-0.026q-1.944-5.328-3.88-10.656c-0.090-0.17-0.142-0.373-0.142-0.587 0-0.707 0.573-1.28 1.28-1.28 0.059 0 0.116 0.004 0.173 0.012l-0.007-0.001q11.496 0 22.984 0c0.32 0 0.456-0.080 0.528-0.392 0.12-0.52 0.28-1.024 0.432-1.536 0.298-1.069 1.263-1.84 2.408-1.84 0.017 0 0.033 0 0.050 0.001l-0.003-0h4.184v1.304h-4.096c-0.048-0.007-0.103-0.010-0.159-0.010-0.588 0-1.078 0.417-1.191 0.971l-0.001 0.008q-2.232 7.768-4.44 15.544c-0.006 0.030-0.009 0.064-0.009 0.1 0 0.126 0.043 0.241 0.114 0.333l-0.001-0.001c0.8 0.896 1.6 1.768 2.4 2.648 0.429 0.433 0.695 1.030 0.695 1.689 0 0.292-0.052 0.573-0.148 0.832l0.005-0.017c-0.253 0.877-0.982 1.534-1.883 1.678l-0.013 0.002c-0.424 0.072-0.872 0-1.32 0.048 0.857 0.224 1.568 0.745 2.032 1.443l0.008 0.013c0.31 0.472 0.494 1.050 0.494 1.671 0 0.291-0.040 0.572-0.116 0.838l0.005-0.022c-0.371 1.353-1.59 2.33-3.037 2.33-1.505 0-2.763-1.057-3.071-2.469l-0.004-0.021c-0.344-1.672 0.456-2.888 2.528-3.776zM1.264 5.344c0 0.104 0.040 0.176 0.064 0.24q1.936 5.32 3.872 10.624c0.316 0.981 1.221 1.678 2.289 1.678 0.059 0 0.117-0.002 0.175-0.006l-0.008 0h12.88c0.020 0.004 0.042 0.006 0.066 0.006 0.191 0 0.348-0.146 0.366-0.332l0-0.002c0.888-3.136 1.792-6.272 2.688-9.408 0.264-0.928 0.528-1.856 0.8-2.808zM21.36 26.688c-0.988 0.066-1.765 0.884-1.765 1.884s0.777 1.818 1.759 1.884l0.006 0c1.018-0.035 1.832-0.865 1.84-1.887v-0.001c-0.004-1.023-0.821-1.853-1.838-1.88l-0.002-0zM6.888 28.56c0-0.005 0-0.011 0-0.017 0-1.025-0.831-1.856-1.856-1.856-0.017 0-0.034 0-0.051 0.001l0.002-0c-1.031 0.009-1.864 0.847-1.864 1.88 0 0.003 0 0.006 0 0.009v-0c0.018 1.031 0.849 1.862 1.878 1.88l0.002 0c0 0 0 0 0 0 1.043 0 1.888-0.845 1.888-1.888 0-0.003 0-0.006-0-0.008v0z"></path>
</svg>
