<!-- Generated by IcoMoon.io -->
<svg version="1.1" xmlns="http://www.w3.org/2000/svg" width="32" height="32" viewBox="0 0 32 32">
<title>chart</title>
<path d="M31.36 30.712h-30.048c0-1.272 0-25.536 0-30.072 0-0 0-0.001 0-0.001 0-0.353-0.287-0.64-0.64-0.64-0.011 0-0.022 0-0.034 0.001l0.002-0c-0.353 0-0.64 0.287-0.64 0.64v0 31.36h31.36c0.353 0 0.64-0.287 0.64-0.64v0 0c0-0.002 0-0.005 0-0.008 0-0.353-0.287-0.64-0.64-0.64-0 0-0 0-0 0v0z"></path>
<path d="M7.12 26.008c0.004 0 0.009 0 0.014 0 1.657 0 3-1.343 3-3 0-0.808-0.319-1.542-0.839-2.081l0.001 0.001 2.472-3.272c0.401 0.217 0.878 0.345 1.385 0.345 0.795 0 1.517-0.314 2.048-0.826l-0.001 0.001 3.352 2.528c-0.193 0.38-0.308 0.828-0.312 1.303v0.001c0 0.001 0 0.002 0 0.004 0 1.661 1.347 3.008 3.008 3.008s3.008-1.347 3.008-3.008c0-1.018-0.505-1.917-1.278-2.461l-0.010-0.006 3.432-6.696c0.267 0.092 0.574 0.147 0.894 0.152l0.002 0c0.010 0 0.021 0 0.033 0 1.679 0 3.040-1.361 3.040-3.040s-1.361-3.040-3.040-3.040c-1.679 0-3.040 1.361-3.040 3.040 0 0.959 0.444 1.814 1.137 2.371l0.006 0.005-3.432 6.76c-0.223-0.061-0.479-0.096-0.743-0.096-0.791 0-1.508 0.314-2.034 0.825l0.001-0.001-3.384-2.536c0.191-0.381 0.303-0.829 0.304-1.304v-0c0-0.002 0-0.005 0-0.008 0-1.661-1.347-3.008-3.008-3.008s-3.008 1.347-3.008 3.008c0 0.773 0.291 1.478 0.77 2.010l-0.002-0.003-2.496 3.304c-0.38-0.187-0.828-0.296-1.301-0.296-1.661 0-3.008 1.347-3.008 3.008s1.347 3.008 3.008 3.008c0.007 0 0.015-0 0.022-0h-0.001zM27.272 7.072c1.060 0 1.92 0.86 1.92 1.92s-0.86 1.92-1.92 1.92c-1.060 0-1.92-0.86-1.92-1.92v0c0-1.060 0.86-1.92 1.92-1.92v0zM21.248 19.072c1.060 0 1.92 0.86 1.92 1.92s-0.86 1.92-1.92 1.92c-1.060 0-1.92-0.86-1.92-1.92v0c0.014-1.050 0.868-1.896 1.92-1.896 0 0 0 0 0 0v0zM13.144 13.072c1.060 0 1.92 0.86 1.92 1.92s-0.86 1.92-1.92 1.92c-1.060 0-1.92-0.86-1.92-1.92v0c0-1.060 0.86-1.92 1.92-1.92v0zM7.12 21.072c1.060 0 1.92 0.86 1.92 1.92s-0.86 1.92-1.92 1.92c-1.060 0-1.92-0.86-1.92-1.92v0c0.005-1.057 0.862-1.912 1.92-1.912 0 0 0 0 0 0v0z"></path>
</svg>
