<!-- Generated by IcoMoon.io -->
<svg version="1.1" xmlns="http://www.w3.org/2000/svg" width="32" height="32" viewBox="0 0 32 32">
<title>chart-filled</title>
<path d="M9.040 23c0 1.060-0.86 1.92-1.92 1.92s-1.92-0.86-1.92-1.92c0-1.060 0.86-1.92 1.92-1.92s1.92 0.86 1.92 1.92z"></path>
<path d="M29.192 8.992c0 1.060-0.86 1.92-1.92 1.92s-1.92-0.86-1.92-1.92c0-1.060 0.86-1.92 1.92-1.92s1.92 0.86 1.92 1.92z"></path>
<path d="M23.168 21.008c0 1.060-0.86 1.92-1.92 1.92s-1.92-0.86-1.92-1.92c0-1.060 0.86-1.92 1.92-1.92s1.92 0.86 1.92 1.92z"></path>
<path d="M15.064 14.992c0 1.060-0.86 1.92-1.92 1.92s-1.92-0.86-1.92-1.92c0-1.060 0.86-1.92 1.92-1.92s1.92 0.86 1.92 1.92z"></path>
<path d="M31.36 30.712h-30.048c0-1.272 0-25.536 0-30.072 0-0.362-0.294-0.656-0.656-0.656s-0.656 0.294-0.656 0.656v31.36h31.36c0.356 0 0.644-0.288 0.644-0.644s-0.288-0.644-0.644-0.644v0z"></path>
<path d="M27.272 12c0.010 0 0.021 0 0.033 0 1.679 0 3.040-1.361 3.040-3.040s-1.361-3.040-3.040-3.040c-1.679 0-3.040 1.361-3.040 3.040 0 0.959 0.444 1.814 1.137 2.371l0.006 0.005-3.432 6.76c-0.223-0.061-0.479-0.096-0.743-0.096-0.791 0-1.508 0.314-2.034 0.825l0.001-0.001-3.36-2.536c0.191-0.381 0.303-0.829 0.304-1.304v-0c0-0.002 0-0.005 0-0.008 0-1.661-1.347-3.008-3.008-3.008s-3.008 1.347-3.008 3.008c0 0.773 0.291 1.478 0.77 2.010l-0.002-0.003-2.496 3.304c-0.376-0.182-0.818-0.288-1.285-0.288-1.661 0-3.008 1.347-3.008 3.008s1.347 3.008 3.008 3.008c1.661 0 3.008-1.347 3.008-3.008 0-0.807-0.318-1.54-0.836-2.081l0.001 0.001 2.472-3.272c0.401 0.217 0.878 0.345 1.385 0.345 0.795 0 1.517-0.314 2.048-0.826l-0.001 0.001 3.352 2.528c-0.189 0.383-0.3 0.834-0.3 1.31 0 1.661 1.347 3.008 3.008 3.008s3.008-1.347 3.008-3.008c0-1.019-0.507-1.92-1.282-2.464l-0.010-0.006 3.432-6.696c0.259 0.089 0.558 0.144 0.868 0.152l0.004 0zM7.12 24.912c-1.060 0-1.92-0.86-1.92-1.92s0.86-1.92 1.92-1.92c1.060 0 1.92 0.86 1.92 1.92v0c0 1.060-0.86 1.92-1.92 1.92v0zM13.144 16.912c-1.060 0-1.92-0.86-1.92-1.92s0.86-1.92 1.92-1.92c1.060 0 1.92 0.86 1.92 1.92v0c-0.005 1.057-0.862 1.912-1.92 1.912 0 0 0 0-0 0v0zM23.2 21.008c0 1.060-0.86 1.92-1.92 1.92s-1.92-0.86-1.92-1.92c0-1.060 0.86-1.92 1.92-1.92v0c1.060 0 1.92 0.86 1.92 1.92v0zM25.384 9.008c0-1.060 0.86-1.92 1.92-1.92s1.92 0.86 1.92 1.92c0 1.060-0.86 1.92-1.92 1.92v0c-0.010 0-0.021 0-0.032 0-1.060 0-1.92-0.86-1.92-1.92 0-0.006 0-0.011 0-0.017v0.001z"></path>
</svg>
