<!-- Generated by IcoMoon.io -->
<svg version="1.1" xmlns="http://www.w3.org/2000/svg" width="32" height="32" viewBox="0 0 32 32">
<title>checkmark-in-circle</title>
<path d="M23.928 7.568v0c-0.035-0.006-0.076-0.009-0.118-0.009-0.258 0-0.487 0.122-0.633 0.311l-0.001 0.002-9.52 14.4c-0.047 0.069-0.125 0.114-0.213 0.114-0.062 0-0.119-0.022-0.163-0.059l0 0-4.544-3.928c-0.127-0.124-0.3-0.2-0.492-0.2s-0.365 0.076-0.492 0.201l0-0c-0.32 0.32-0.064 0.896 0 0.984l5.6 5.024c0.045 0.041 0.105 0.066 0.171 0.066 0.088 0 0.166-0.045 0.212-0.113l0.001-0.001 10.552-15.712c0.096-0.136 0.32-0.928-0.36-1.080z"></path>
<path d="M16 0c-8.837 0-16 7.163-16 16s7.163 16 16 16c8.837 0 16-7.163 16-16v0c0-8.837-7.163-16-16-16v0zM16 30.704c-8.121 0-14.704-6.583-14.704-14.704s6.583-14.704 14.704-14.704c8.121 0 14.704 6.583 14.704 14.704v0c0 8.121-6.583 14.704-14.704 14.704v0z"></path>
</svg>
