<!-- Generated by IcoMoon.io -->
<svg version="1.1" xmlns="http://www.w3.org/2000/svg" width="32" height="32" viewBox="0 0 32 32">
<title>checkmark-in-circle-filled</title>
<path d="M16 1.296c-8.121 0-14.704 6.583-14.704 14.704s6.583 14.704 14.704 14.704c8.121 0 14.704-6.583 14.704-14.704v0c0-8.121-6.583-14.704-14.704-14.704v0zM24.664 8.408l-10.4 15.344c-0.34 0.497-0.904 0.819-1.543 0.819-0.392 0-0.755-0.121-1.055-0.327l0.006 0.004-4.080-2.768c-0.214-0.173-0.35-0.436-0.35-0.73 0-0.517 0.419-0.936 0.936-0.936 0.17 0 0.33 0.045 0.467 0.125l-0.005-0.002 3.712 2.464c0.068 0.047 0.153 0.075 0.244 0.075 0.147 0 0.277-0.074 0.355-0.186l0.001-0.001 10.168-14.928c0.164-0.285 0.467-0.474 0.814-0.474 0.517 0 0.936 0.419 0.936 0.936 0 0.222-0.078 0.427-0.207 0.587l0.001-0.002z"></path>
</svg>
