<svg version="1.1" xmlns="http://www.w3.org/2000/svg" width="32" height="32" viewBox="0 0 32 32">
<path d="M 31.5 16 C 31.5 24.558594 24.558594 31.5 16 31.5 C 7.441406 31.5 0.5 24.558594 0.5 16 C 0.5 7.441406 7.441406 0.5 16 0.5 C 24.558594 0.5 31.5 7.441406 31.5 16 Z M 14.207031 24.207031 L 25.707031 12.707031 C 26.097656 12.316406 26.097656 11.683594 25.707031 11.292969 L 24.292969 9.878906 C 23.902344 9.488281 23.269531 9.488281 22.878906 9.878906 L 13.5 19.257812 L 9.121094 14.878906 C 8.730469 14.488281 8.097656 14.488281 7.707031 14.878906 L 6.292969 16.292969 C 5.902344 16.683594 5.902344 17.316406 6.292969 17.707031 L 12.792969 24.207031 C 13.183594 24.597656 13.816406 24.597656 14.207031 24.207031 Z M 14.207031 24.207031 "></path>
</svg>
