<!-- Generated by IcoMoon.io -->
<svg version="1.1" xmlns="http://www.w3.org/2000/svg" width="32" height="32" viewBox="0 0 32 32">
<title>checkmark</title>
<path d="M31.504 0.216v0c-0.448-0.288-0.84-0.112-1.48 0.712l-19.152 28.232c-0.147 0.205-0.384 0.337-0.652 0.337-0.162 0-0.313-0.048-0.439-0.131l0.003 0.002-8.296-5.6c-0.157-0.102-0.349-0.162-0.555-0.162-0.291 0-0.553 0.12-0.741 0.314l-0 0c-0.095 0.13-0.152 0.293-0.152 0.469 0 0.228 0.095 0.433 0.248 0.579l0 0 9.688 6.568c0.19 0.131 0.426 0.21 0.68 0.21 0.414 0 0.779-0.208 0.997-0.526l0.003-0.004 0.072-0.104 19.944-29.512c0.376-0.576 0.328-1.056-0.168-1.384z"></path>
</svg>
