<!-- Generated by IcoMoon.io -->
<svg version="1.1" xmlns="http://www.w3.org/2000/svg" width="32" height="32" viewBox="0 0 32 32">
<title>checkmark-filled</title>
<path d="M28.664 1.056l-18.080 26.624c-0.147 0.201-0.382 0.33-0.647 0.33-0.157 0-0.304-0.045-0.428-0.124l0.003 0.002-6.616-4.504c-0.262-0.18-0.587-0.288-0.936-0.288-0.57 0-1.072 0.286-1.372 0.723l-0.004 0.006c-0.18 0.262-0.288 0.587-0.288 0.936 0 0.57 0.286 1.072 0.723 1.372l0.006 0.004 7.256 4.928c0.523 0.361 1.171 0.576 1.869 0.576 1.138 0 2.142-0.572 2.74-1.445l0.007-0.011 18.512-27.264c0.178-0.261 0.285-0.583 0.285-0.931 0-0.568-0.285-1.070-0.719-1.37l-0.006-0.004c-0.261-0.178-0.583-0.285-0.931-0.285-0.568 0-1.070 0.285-1.37 0.719l-0.004 0.006z"></path>
</svg>
