<!-- Generated by IcoMoon.io -->
<svg version="1.1" xmlns="http://www.w3.org/2000/svg" width="32" height="32" viewBox="0 0 32 32">
<title>clipboard</title>
<path d="M5.32 32c-1.168 0-1.064-1.144-1.064-1.52q0-4.512 0-9.032 0-8.968 0-17.928c-0.007-0.060-0.011-0.13-0.011-0.2 0-0.34 0.097-0.658 0.264-0.927l-0.004 0.007c0.245-0.355 0.65-0.584 1.109-0.584 0.012 0 0.025 0 0.037 0l-0.002-0h4.336c-0.126 0.791-0.198 1.704-0.198 2.633 0 0.405 0.014 0.807 0.040 1.205l-0.003-0.054c0 0.728 0.304 1.040 1.024 1.040h10.296c0.728 0 1.032-0.312 1.032-1.040s0-1.408 0-2.112c0-0.536-0.064-1.072-0.104-1.648h4.104c0.065-0.011 0.14-0.017 0.217-0.017 0.773 0 1.4 0.627 1.4 1.4 0 0.077-0.006 0.152-0.018 0.225l0.001-0.008q0 13.496 0 26.984c0 0.744 0 1.6-1.072 1.6zM5.552 16.912c0 4.488 0 8.856 0 13.344 0 0.408 0 0.448 0.44 0.448h20c0.408 0 0.44 0 0.44-0.448 0-1.976 0-3.832 0-5.808 0-6.992 0-13.848 0-20.84 0-0.416-0.040-0.464-0.456-0.464-0.8 0-1.328 0-2.152 0-0.256 0-0.312 0.080-0.312 0.32 0 0.8 0 1.648 0 2.4 0.005 0.052 0.008 0.112 0.008 0.172 0 1.087-0.881 1.968-1.968 1.968-0.045 0-0.089-0.002-0.134-0.004l0.006 0h-10.848c-0.047 0.004-0.102 0.006-0.157 0.006-1.087 0-1.968-0.881-1.968-1.968 0-0.050 0.002-0.1 0.006-0.149l-0 0.007c0-0.8 0-1.6 0-2.4 0-0.368 0-0.368-0.36-0.368h-2.072c-0.448 0-0.48 0-0.48 0.488 0.008 4.488 0.008 8.824 0.008 13.296z"></path>
<path d="M14.168 0.92c0.424-0.551 1.083-0.903 1.825-0.903 0.687 0 1.304 0.302 1.725 0.78l0.002 0.003c0.202 0.213 0.342 0.487 0.391 0.791l0.001 0.008c0 0.184 0.104 0.216 0.272 0.216h2.168c0.608 0 0.872 0.256 0.872 0.856q0 1.216 0 2.4c0 0.6-0.248 0.848-0.848 0.848h-9.152c-0.6 0-0.848-0.248-0.848-0.848q0-1.224 0-2.448c0-0.576 0.264-0.8 0.84-0.8h2.184c0.12 0 0.232 0 0.256-0.168 0.047-0.281 0.157-0.53 0.315-0.74l-0.003 0.004z"></path>
</svg>
