<!-- Generated by IcoMoon.io -->
<svg version="1.1" xmlns="http://www.w3.org/2000/svg" width="32" height="32" viewBox="0 0 32 32">
<title>clipboard-filled</title>
<path d="M5.984 31.352h20c0.408 0 0.44 0 0.44-0.448 0-1.976 0-3.832 0-5.808 0-6.992 0-13.848 0-20.84 0-0.416-0.040-0.464-0.456-0.464-0.8 0-1.328 0-2.152 0-0.256 0-0.312 0.080-0.312 0.32 0 0.8 0 1.648 0 2.4 0.003 0.043 0.005 0.092 0.005 0.142 0 1.087-0.881 1.968-1.968 1.968-0.055 0-0.11-0.002-0.164-0.007l0.007 0h-10.808c-0.047 0.004-0.102 0.006-0.157 0.006-1.087 0-1.968-0.881-1.968-1.968 0-0.050 0.002-0.1 0.006-0.149l-0 0.007c0-0.8 0-1.6 0-2.4 0-0.368 0-0.368-0.36-0.368h-2.072c-0.448 0-0.48 0-0.48 0.488 0 4.472 0 8.8 0 13.28s0 8.856 0 13.344c0.008 0.464 0.056 0.496 0.44 0.496z"></path>
<path d="M20.576 6.552c0.6 0 0.848-0.248 0.848-0.848q0-1.216 0-2.4c0-0.6-0.256-0.856-0.872-0.856h-2.152c-0.16 0-0.256 0-0.272-0.216-0.050-0.313-0.19-0.587-0.393-0.801l0.001 0.001c-0.422-0.474-1.035-0.771-1.716-0.771-0.757 0-1.429 0.367-1.847 0.932l-0.004 0.006c-0.153 0.19-0.268 0.419-0.326 0.669l-0.002 0.011c0 0.176-0.136 0.168-0.256 0.168h-2.168c-0.576 0-0.8 0.256-0.84 0.8q0 1.224 0 2.448c0 0.6 0.248 0.848 0.848 0.848z"></path>
</svg>
