<!-- Generated by IcoMoon.io -->
<svg version="1.1" xmlns="http://www.w3.org/2000/svg" width="32" height="32" viewBox="0 0 32 32">
<title>close-in-circle</title>
<path stroke="#000" fill="#000" stroke-width="0.7805" stroke-miterlimit="10" stroke-linecap="butt" stroke-linejoin="miter" d="M16 0.39c-8.621 0-15.61 6.989-15.61 15.61s6.989 15.61 15.61 15.61c8.621 0 15.61-6.989 15.61-15.61v0c0-8.621-6.989-15.61-15.61-15.61v0zM16 30.345c-7.923 0-14.345-6.423-14.345-14.345s6.423-14.345 14.345-14.345c7.923 0 14.345 6.423 14.345 14.345v0c0 7.923-6.423 14.345-14.345 14.345v0z"></path>
<path d="M23.75 8.25v0c-0.153-0.149-0.362-0.241-0.593-0.241s-0.44 0.092-0.593 0.241l0-0-5.971 5.979c-0.151 0.153-0.361 0.247-0.593 0.247s-0.442-0.095-0.593-0.247l-0-0-5.971-5.979c-0.153-0.149-0.362-0.241-0.593-0.241s-0.44 0.092-0.593 0.241l0-0c-0.149 0.153-0.241 0.362-0.241 0.593s0.092 0.44 0.241 0.593l-0-0 5.979 5.971c0.153 0.151 0.247 0.361 0.247 0.593s-0.095 0.442-0.247 0.593l-0 0-5.979 5.971c-0.149 0.153-0.241 0.362-0.241 0.593s0.092 0.44 0.241 0.593l-0-0c0.153 0.149 0.362 0.241 0.593 0.241s0.44-0.092 0.593-0.241l-0 0 5.971-5.979c0.151-0.153 0.361-0.247 0.593-0.247s0.442 0.095 0.593 0.247l0 0 5.971 5.979c0.153 0.149 0.362 0.241 0.593 0.241s0.44-0.092 0.593-0.241l-0 0c0.149-0.153 0.241-0.362 0.241-0.593s-0.092-0.44-0.241-0.593l0 0-5.979-5.971c-0.153-0.151-0.247-0.361-0.247-0.593s0.095-0.442 0.247-0.593l0-0 5.979-5.971c0.149-0.153 0.241-0.362 0.241-0.593s-0.092-0.44-0.241-0.593l0 0z"></path>
</svg>
