<!-- Generated by IcoMoon.io -->
<svg version="1.1" xmlns="http://www.w3.org/2000/svg" width="32" height="32" viewBox="0 0 32 32">
<title>close-filled</title>
<path d="M31.432 0.568v0c-0.301-0.301-0.717-0.487-1.176-0.487s-0.875 0.186-1.176 0.487v0l-11.904 11.904c-0.301 0.301-0.717 0.487-1.176 0.487s-0.875-0.186-1.176-0.487v0l-11.904-11.904c-0.301-0.301-0.717-0.487-1.176-0.487s-0.875 0.186-1.176 0.487v0c-0.301 0.301-0.487 0.717-0.487 1.176s0.186 0.875 0.487 1.176v0l11.904 11.904c0.301 0.301 0.487 0.717 0.487 1.176s-0.186 0.875-0.487 1.176v0l-11.904 11.904c-0.301 0.301-0.487 0.717-0.487 1.176s0.186 0.875 0.487 1.176v0c0.301 0.301 0.717 0.487 1.176 0.487s0.875-0.186 1.176-0.487v0l11.904-11.904c0.301-0.301 0.717-0.487 1.176-0.487s0.875 0.186 1.176 0.487v0l11.904 11.904c0.301 0.301 0.717 0.487 1.176 0.487s0.875-0.186 1.176-0.487v0c0.301-0.301 0.487-0.717 0.487-1.176s-0.186-0.875-0.487-1.176v0l-11.904-11.904c-0.301-0.301-0.487-0.717-0.487-1.176s0.186-0.875 0.487-1.176v0l11.904-11.904c0.301-0.301 0.487-0.717 0.487-1.176s-0.186-0.875-0.487-1.176v0z"></path>
</svg>
