<!-- Generated by IcoMoon.io -->
<svg version="1.1" xmlns="http://www.w3.org/2000/svg" width="32" height="32" viewBox="0 0 32 32">
<title>close</title>
<path d="M31.536 0.464v0c-0.117-0.118-0.28-0.192-0.46-0.192s-0.343 0.073-0.46 0.192l-14.16 14.16c-0.117 0.118-0.28 0.192-0.46 0.192s-0.343-0.073-0.46-0.192l-14.16-14.16c-0.117-0.118-0.28-0.192-0.46-0.192s-0.343 0.073-0.46 0.192l-0 0c-0.118 0.117-0.192 0.28-0.192 0.46s0.073 0.343 0.192 0.46l14.16 14.16c0.118 0.117 0.192 0.28 0.192 0.46s-0.073 0.343-0.192 0.46l-14.16 14.16c-0.118 0.117-0.192 0.28-0.192 0.46s0.073 0.343 0.192 0.46l0 0c0.117 0.118 0.28 0.192 0.46 0.192s0.343-0.073 0.46-0.192l14.16-14.16c0.117-0.118 0.28-0.192 0.46-0.192s0.343 0.073 0.46 0.192l14.16 14.16c0.117 0.118 0.28 0.192 0.46 0.192s0.343-0.073 0.46-0.192l0-0c0.118-0.117 0.192-0.28 0.192-0.46s-0.073-0.343-0.192-0.46l-14.16-14.16c-0.118-0.117-0.192-0.28-0.192-0.46s0.073-0.343 0.192-0.46l14.16-14.16c0.118-0.117 0.192-0.28 0.192-0.46s-0.073-0.343-0.192-0.46l-0-0z"></path>
</svg>
