<!-- Generated by IcoMoon.io -->
<svg version="1.1" xmlns="http://www.w3.org/2000/svg" width="32" height="32" viewBox="0 0 32 32">
<title>club-mate</title>
<path d="M8.44 32h-3.952c-1.383-0.366-2.387-1.6-2.4-3.071v-13.489c0.144-1.144 0.192-2.32 0.448-3.44 0.44-1.928 1.080-3.816 1.496-5.752 0.263-0.834 0.414-1.793 0.414-2.788 0-0.581-0.052-1.15-0.15-1.702l0.009 0.058c-0.304-1.272 0.208-1.768 1.56-1.816h0.6c1.472 0 1.936 0.416 1.64 1.784-0.073 0.454-0.114 0.978-0.114 1.512 0 1.11 0.179 2.177 0.51 3.176l-0.020-0.071c0.408 1.704 1.112 3.336 1.52 5.040 0.344 1.424 0.448 2.904 0.656 4.36v13.456c0 0.009 0 0.019 0 0.029 0 1.005-0.495 1.894-1.255 2.436l-0.009 0.006c-0.277 0.135-0.599 0.231-0.938 0.271l-0.014 0.001zM10.28 22.4v0c0-0.936-0.088-1.888-0.152-2.816-0.12-1.664-0.8-2.52-2.4-2.712-0.446-0.056-0.961-0.089-1.484-0.089s-1.038 0.032-1.545 0.095l0.061-0.006c-1.256 0.144-1.92 0.704-1.968 1.968-0.043 0.93-0.067 2.020-0.067 3.116 0 1.623 0.053 3.233 0.159 4.829l-0.011-0.217c0.060 1.278 1.11 2.291 2.398 2.291 0.083 0 0.164-0.004 0.245-0.012l-0.010 0.001c0.584 0 1.184 0 1.768 0 1.504-0.072 2.4-0.968 2.68-2.608 0.192-1.28 0.224-2.56 0.336-3.84zM8.68 10.4c0.235-0.142 0.39-0.396 0.39-0.687 0-0.066-0.008-0.13-0.023-0.191l0.001 0.005c-0.122-0.948-0.644-1.755-1.389-2.257l-0.011-0.007c-0.394-0.317-0.901-0.509-1.452-0.509-0.052 0-0.103 0.002-0.154 0.005l0.007-0c-0.753 0.172-1.394 0.569-1.868 1.116l-0.004 0.004c-0.294 0.473-0.505 1.028-0.597 1.623l-0.003 0.025c-0.016 0.057-0.026 0.122-0.026 0.19 0 0.256 0.133 0.481 0.335 0.608l0.003 0.002c0.675 0.506 1.527 0.81 2.45 0.81 0.879 0 1.694-0.276 2.363-0.746l-0.013 0.009zM8 5.888l-0.448-3.928h-2.68l-0.36 3.928z"></path>
<path d="M8.128 19.6c-0.005 0.96-0.784 1.736-1.744 1.736-0.963 0-1.744-0.781-1.744-1.744s0.781-1.744 1.744-1.744c0.006 0 0.011 0 0.017 0h-0.001c0.954 0.022 1.719 0.796 1.728 1.751v0.001z"></path>
<path d="M7.296 8.64c0 0.513-0.415 0.928-0.928 0.928s-0.928-0.415-0.928-0.928c0-0.513 0.415-0.928 0.928-0.928s0.928 0.415 0.928 0.928z"></path>
<path d="M18.136 32h-3.952c-1.383-0.366-2.387-1.6-2.4-3.071v-13.489c0.144-1.144 0.192-2.32 0.448-3.44 0.44-1.928 1.080-3.816 1.496-5.752 0.263-0.834 0.414-1.793 0.414-2.788 0-0.581-0.052-1.15-0.15-1.702l0.009 0.058c-0.288-1.272 0.208-1.768 1.56-1.816h0.6c1.44 0 1.928 0.416 1.64 1.792-0.072 0.453-0.113 0.975-0.113 1.506 0 1.109 0.179 2.175 0.51 3.173l-0.020-0.071c0.408 1.704 1.112 3.336 1.52 5.040 0.344 1.424 0.448 2.904 0.656 4.36v13.456c0 0.009 0 0.019 0 0.029 0 1.005-0.495 1.894-1.255 2.436l-0.009 0.006c-0.277 0.135-0.599 0.231-0.938 0.271l-0.014 0.001zM20 22.4v0c0-0.936-0.088-1.888-0.152-2.816-0.12-1.664-0.8-2.52-2.4-2.712-0.445-0.056-0.961-0.089-1.484-0.089s-1.039 0.032-1.545 0.095l0.061-0.006c-1.256 0.144-1.92 0.704-1.968 1.968-0.043 0.93-0.067 2.020-0.067 3.116 0 1.623 0.053 3.233 0.159 4.829l-0.011-0.217c0.052 1.284 1.106 2.305 2.398 2.305 0.074 0 0.147-0.003 0.219-0.010l-0.009 0.001c0.584 0 1.184 0 1.768 0 1.504-0.072 2.4-0.968 2.68-2.608 0.192-1.296 0.224-2.576 0.352-3.856zM18.4 10.4c0.235-0.142 0.39-0.396 0.39-0.687 0-0.066-0.008-0.13-0.023-0.191l0.001 0.005c-0.12-0.956-0.645-1.769-1.396-2.273l-0.012-0.007c-0.394-0.317-0.901-0.509-1.452-0.509-0.052 0-0.103 0.002-0.154 0.005l0.007-0c-0.753 0.172-1.395 0.569-1.868 1.116l-0.004 0.004c-0.294 0.473-0.505 1.028-0.597 1.623l-0.003 0.025c-0.016 0.057-0.026 0.122-0.026 0.19 0 0.256 0.133 0.481 0.335 0.608l0.003 0.002c0.678 0.511 1.534 0.818 2.461 0.818 0.875 0 1.686-0.273 2.352-0.739l-0.013 0.009zM17.712 5.872l-0.448-3.936h-2.696l-0.36 3.936z"></path>
<path d="M17.816 19.6c-0.005 0.96-0.784 1.736-1.744 1.736-0.963 0-1.744-0.781-1.744-1.744s0.781-1.744 1.744-1.744c0.008 0 0.017 0 0.025 0h-0.001c0.95 0.027 1.711 0.799 1.72 1.751v0.001z"></path>
<path d="M16.992 8.64c0 0.513-0.415 0.928-0.928 0.928s-0.928-0.415-0.928-0.928c0-0.513 0.415-0.928 0.928-0.928s0.928 0.415 0.928 0.928z"></path>
<path d="M27.656 32h-3.952c-1.383-0.366-2.387-1.6-2.4-3.071v-13.489c0.144-1.144 0.192-2.32 0.448-3.44 0.44-1.928 1.080-3.816 1.496-5.752 0.263-0.834 0.414-1.793 0.414-2.788 0-0.581-0.052-1.15-0.15-1.702l0.009 0.058c-0.32-1.272 0.208-1.768 1.56-1.816h0.6c1.472 0 1.936 0.416 1.64 1.784-0.073 0.454-0.114 0.978-0.114 1.512 0 1.11 0.179 2.177 0.51 3.176l-0.020-0.071c0.408 1.704 1.112 3.336 1.52 5.040 0.344 1.424 0.448 2.904 0.656 4.36v13.456c0 0.009 0 0.019 0 0.029 0 1.005-0.495 1.894-1.255 2.436l-0.009 0.006c-0.277 0.135-0.599 0.231-0.938 0.271l-0.014 0.001zM29.496 22.4v0c0-0.936-0.088-1.888-0.152-2.816-0.12-1.664-0.8-2.52-2.4-2.712-0.445-0.056-0.961-0.089-1.484-0.089s-1.038 0.032-1.545 0.095l0.061-0.006c-1.256 0.144-1.92 0.704-1.968 1.968-0.043 0.93-0.067 2.020-0.067 3.116 0 1.623 0.053 3.233 0.159 4.829l-0.011-0.217c0.060 1.278 1.11 2.291 2.398 2.291 0.083 0 0.164-0.004 0.245-0.012l-0.010 0.001c0.584 0 1.184 0 1.768 0 1.504-0.072 2.4-0.968 2.68-2.608 0.192-1.28 0.224-2.56 0.328-3.84zM27.896 10.4c0.235-0.142 0.39-0.396 0.39-0.687 0-0.066-0.008-0.13-0.023-0.191l0.001 0.005c-0.12-0.956-0.645-1.769-1.396-2.273l-0.012-0.007c-0.394-0.317-0.901-0.509-1.452-0.509-0.052 0-0.103 0.002-0.154 0.005l0.007-0c-0.753 0.172-1.395 0.569-1.868 1.116l-0.004 0.004c-0.294 0.473-0.505 1.028-0.597 1.623l-0.003 0.025c-0.016 0.057-0.026 0.122-0.026 0.19 0 0.256 0.133 0.481 0.335 0.608l0.003 0.002c0.678 0.512 1.536 0.821 2.465 0.821 0.876 0 1.689-0.274 2.356-0.742l-0.013 0.009zM27.2 5.888l-0.448-3.936h-2.664l-0.36 3.936z"></path>
<path d="M27.344 19.6c-0.005 0.96-0.784 1.736-1.744 1.736-0.963 0-1.744-0.781-1.744-1.744s0.781-1.744 1.744-1.744v0c0.961 0.013 1.735 0.791 1.744 1.751v0.001z"></path>
<path d="M26.512 8.64c0 0.513-0.415 0.928-0.928 0.928s-0.928-0.415-0.928-0.928c0-0.513 0.415-0.928 0.928-0.928s0.928 0.415 0.928 0.928z"></path>
</svg>
