<!-- Generated by IcoMoon.io -->
<svg version="1.1" xmlns="http://www.w3.org/2000/svg" width="32" height="32" viewBox="0 0 32 32">
<title>credit-card-filled</title>
<path d="M30.672 10.36c0-0.8 0-1.96 0-2.728-0.032-0.375-0.284-0.684-0.625-0.798l-0.006-0.002c-0.268-0.092-0.578-0.144-0.899-0.144-0.016 0-0.032 0-0.047 0l0.002-0h-26.4c-0.057-0.010-0.123-0.015-0.191-0.015-0.617 0-1.126 0.466-1.193 1.066l-0 0.005c0 0.72 0 1.864 0 2.616z"></path>
<path d="M1.344 15.2c0 0.056 0 1.024 0 1.048 0 2.504 0 5.44 0 7.944 0.037 0.353 0.216 0.658 0.477 0.862l0.003 0.002c0.267 0.157 0.588 0.25 0.931 0.25 0.033 0 0.065-0.001 0.098-0.003l-0.005 0c8.52 0 17.952 0 26.472 0 0.051 0.008 0.111 0.012 0.171 0.012 0.68 0 1.232-0.552 1.232-1.232 0-0.058-0.004-0.115-0.012-0.17l0.001 0.006c0-2.112 0-4.664 0-6.776 0-0.336 0-1.6 0-1.96zM25.704 22.728q-2.216 0-4.44 0c-0.536 0-0.912-0.168-0.888-0.648s0.408-0.632 0.96-0.64h4.32c0.56 0 0.92 0.152 0.928 0.648s-0.328 0.648-0.88 0.656z"></path>
</svg>
