<!-- Generated by IcoMoon.io -->
<svg version="1.1" xmlns="http://www.w3.org/2000/svg" width="32" height="32" viewBox="0 0 32 32">
<title>credit-card</title>
<path d="M25.808 5.376h0.448c0.944 0 1.888 0 2.824 0 0.001 0 0.003 0 0.004 0 1.361 0 2.504 0.934 2.823 2.196l0.004 0.020c0.030 0.088 0.060 0.159 0.093 0.228l-0.005-0.012v16.416c-0.232 0.541-0.468 0.993-0.732 1.425l0.028-0.049c-0.42 0.523-1.006 0.897-1.676 1.044l-0.020 0.004h-27.2s0 0-0.064 0c-1.358-0.327-2.351-1.531-2.351-2.967 0-0.107 0.006-0.213 0.016-0.318l-0.001 0.013c0-3.2 0-4.888 0-8.048v-2.448c0-1.416 0.048-2.832 0-4.24-0.003-0.054-0.005-0.117-0.005-0.18 0-1.719 1.393-3.112 3.112-3.112 0.055 0 0.11 0.001 0.165 0.004l-0.008-0c6.096 0.056 12.2 0 18.296 0h4.248zM30.704 15.2h-29.36c0 0.056 0 1.024 0 1.048 0 2.504 0 5.44 0 7.944 0.037 0.353 0.216 0.658 0.477 0.862l0.003 0.002c0.267 0.157 0.588 0.25 0.931 0.25 0.033 0 0.065-0.001 0.098-0.003l-0.005 0c8.52 0 17.952 0 26.472 0 0.046 0.006 0.1 0.010 0.155 0.010 0.68 0 1.232-0.552 1.232-1.232 0-0.029-0.001-0.057-0.003-0.086l0 0.004c0-2.112 0-4.664 0-6.776 0-0.368 0-1.648 0-2.024zM1.32 13.92h29.352v-2.232h-29.352zM1.32 10.376h29.36c0-0.8 0-1.96 0-2.728-0.032-0.375-0.284-0.684-0.625-0.798l-0.006-0.002c-0.268-0.092-0.578-0.144-0.899-0.144-0.016 0-0.032 0-0.047 0l0.002-0h-26.4c-0.060-0.011-0.129-0.017-0.2-0.017-0.615 0-1.122 0.463-1.192 1.059l-0.001 0.006c-0.032 0.728-0.008 1.848-0.008 2.648z"></path>
<path d="M23.52 21.464h2.136c0.56 0 0.92 0.152 0.928 0.648s-0.328 0.632-0.88 0.64q-2.216 0-4.44 0c-0.536 0-0.912-0.168-0.888-0.648s0.408-0.632 0.96-0.64z"></path>
</svg>
