<!-- Generated by IcoMoon.io -->
<svg version="1.1" xmlns="http://www.w3.org/2000/svg" width="32" height="32" viewBox="0 0 32 32">
<title>dollars</title>
<path d="M32 21.032l-1.424-6.888c0.4-0.23 0.664-0.655 0.664-1.141 0-0.236-0.062-0.458-0.172-0.649l0.003 0.006-1.432-2.52c-0.060-0.246-0.184-0.458-0.352-0.624l-0-0-3.84-6.816c-0.23-0.4-0.655-0.664-1.141-0.664-0.236 0-0.458 0.062-0.649 0.172l0.006-0.003-20.048 11.392h-0.32c-0.043-0.005-0.092-0.008-0.142-0.008-0.625 0-1.148 0.437-1.28 1.023l-0.002 0.009-1.208 0.688c-0.4 0.23-0.664 0.655-0.664 1.141 0 0.236 0.062 0.458 0.172 0.649l-0.003-0.006 1.168 2.056-0.8 6.928c-0.004 0.037-0.006 0.079-0.006 0.122 0 0.667 0.498 1.218 1.143 1.301l0.007 0.001 2.064 0.24c0.242 0.323 0.623 0.53 1.053 0.53 0.092 0 0.181-0.009 0.267-0.027l-0.008 0.001 1.080-0.224 21.816 2.52c0.046 0.006 0.099 0.009 0.153 0.009 0.671 0 1.225-0.504 1.303-1.155l0.001-0.006 0.736-6.336 0.8-0.168c0.619-0.113 1.082-0.648 1.082-1.292 0-0.092-0.010-0.182-0.028-0.269l0.001 0.009zM29.88 16.368c-0.083-0.032-0.18-0.058-0.281-0.071l-0.007-0.001-2.392-0.296-1.792-0.208-5.312-0.592h-0.184c-0.836-0.896-2.024-1.454-3.342-1.454-0.326 0-0.645 0.034-0.952 0.099l0.030-0.005-0.168 0.040c-0.243 0.061-0.448 0.129-0.646 0.211l0.030-0.011-0.192 0.080c-0.247 0.115-0.457 0.235-0.656 0.37l0.016-0.010-0.672-0.080-4.48-0.52 2.256-0.464 16.448-3.408c0.059-0.013 0.126-0.020 0.195-0.020 0.455 0 0.835 0.322 0.924 0.75l0.001 0.006 0.584 2.816 0.224 1.096zM13.48 11.624l0.552-0.312 0.224 0.392-0.656 0.136zM23.528 3.2c0.129-0.070 0.282-0.112 0.446-0.112 0.354 0 0.662 0.195 0.824 0.483l0.002 0.005 3.016 5.32-9.416 1.96c-0.765-0.597-1.739-0.957-2.798-0.957-1.715 0-3.209 0.945-3.99 2.342l-0.012 0.023-6.088 1.248h-0.104zM28.328 28.248c-0.069 0.459-0.461 0.807-0.934 0.807-0.040 0-0.080-0.003-0.119-0.007l0.005 0-21.192-2.408h-0.336l-1-0.16-1.368-0.16-0.8-0.096c-0.459-0.069-0.807-0.461-0.807-0.934 0-0.040 0.002-0.080 0.007-0.119l-0 0.005 0.456-4.376v-0.32l0.384-3.264 0.264-2.016c0.061-0.451 0.442-0.796 0.904-0.8h0c0.020-0.002 0.044-0.003 0.068-0.003s0.048 0.001 0.071 0.003l-0.003-0 11.648 1.352h0.232l1.696 0.2h0.24l10.936 1.264c0.459 0.069 0.807 0.461 0.807 0.934 0 0.040-0.003 0.080-0.007 0.119l0-0.005-0.416 3.56-0.128 1.112zM30.28 21.6l0.232-2.032 0.216 1.032c0.012 0.057 0.019 0.123 0.019 0.19 0 0.344-0.186 0.645-0.463 0.808l-0.004 0.002z"></path>
<path d="M14.816 20.296c-0.005 0.026-0.007 0.057-0.007 0.088s0.003 0.062 0.008 0.091l-0-0.003c0.070 0.233 0.236 0.417 0.451 0.51l0.005 0.002v-0.296l0.096-0.8c-0.296-0.008-0.52 0.112-0.552 0.408z"></path>
<path d="M16.296 22.864v0c0.002-0.019 0.003-0.040 0.003-0.062 0-0.178-0.082-0.337-0.21-0.441l-0.001-0.001c-0.088-0.082-0.188-0.154-0.296-0.212l-0.008-0.004-0.048 0.416v0.248l-0.064 0.568c0.328-0.048 0.584-0.224 0.624-0.512z"></path>
<path d="M19.952 20.16c-0.527-1.485-1.758-2.6-3.281-2.954l-0.031-0.006h-0.096l-0.384-0.064h-1.080c-0.873 0.107-1.652 0.448-2.289 0.959l0.009-0.007c-1.073 0.844-1.756 2.142-1.756 3.6s0.683 2.756 1.746 3.593l0.010 0.007c0.419 0.343 0.912 0.615 1.448 0.791l0.032 0.009c0.405 0.131 0.871 0.206 1.355 0.206 2.518 0 4.56-2.042 4.56-4.56 0-0.2-0.013-0.396-0.038-0.589l0.002 0.023c-0.034-0.372-0.108-0.714-0.217-1.040l0.009 0.032zM14.84 24.8l0.088-0.728c-0.413-0.088-0.778-0.249-1.098-0.471l0.010 0.007c-0.228-0.151-0.425-0.323-0.597-0.517l-0.003-0.003 0.384-0.584 0.072-0.104 0.040 0.040c0.256 0.287 0.564 0.521 0.911 0.688l0.017 0.008c0.1 0.049 0.22 0.096 0.343 0.132l0.017 0.004 0.040-0.36v-0.312l0.088-0.76-0.224-0.096c-0.616-0.28-1.192-0.656-1.096-1.504s0.736-1.2 1.648-1.2v0l0.056-0.488c0.173 0.037 0.387 0.068 0.604 0.087l0.020 0.001-0.040 0.368v0.128l0.176 0.048c0.269 0.074 0.503 0.169 0.721 0.289l-0.017-0.009c0.15 0.080 0.279 0.162 0.399 0.253l-0.007-0.005 0.128 0.096-0.432 0.704c-0.23-0.184-0.494-0.34-0.779-0.456l-0.021-0.008-0.224-0.096v0.048l-0.096 0.8-0.048 0.416c0.395 0.148 0.735 0.357 1.027 0.619l-0.003-0.003c0.207 0.211 0.334 0.499 0.334 0.818 0 0.042-0.002 0.083-0.006 0.123l0-0.005s0 0.064 0 0.096c-0.121 0.72-0.739 1.262-1.484 1.262-0.072 0-0.142-0.005-0.212-0.015l0.008 0.001-0.064 0.528z"></path>
</svg>
