<!-- Generated by IcoMoon.io -->
<svg version="1.1" xmlns="http://www.w3.org/2000/svg" width="32" height="32" viewBox="0 0 32 32">
<title>dollars-filled</title>
<path d="M29.056 13.536l-0.592-2.864c-0.090-0.435-0.47-0.756-0.925-0.756-0.069 0-0.136 0.007-0.201 0.021l0.006-0.001-18.704 3.872 5.152 0.6c0.183-0.125 0.393-0.245 0.612-0.348l0.028-0.012 0.192-0.080c0.168-0.071 0.373-0.139 0.584-0.193l0.032-0.007 0.168-0.040c0.277-0.060 0.596-0.094 0.922-0.094 1.318 0 2.506 0.558 3.34 1.451l0.002 0.003h0.184l9.48 1.096c0.108 0.014 0.205 0.040 0.297 0.075l-0.009-0.003-0.336-1.64z"></path>
<path d="M15.704 20.72l0.096-0.8v-0.072l0.224 0.096c0.306 0.124 0.57 0.28 0.806 0.469l-0.006-0.005 0.432-0.704-0.128-0.096c-0.098-0.085-0.205-0.167-0.317-0.241l-0.011-0.007c-0.201-0.111-0.435-0.206-0.681-0.274l-0.023-0.006-0.176-0.048v-0.128l0.040-0.368c-0.237-0.020-0.451-0.051-0.66-0.094l0.036 0.006-0.056 0.488c-0.912 0-1.552 0.432-1.648 1.2s0.48 1.216 1.096 1.504l0.224 0.096-0.088 0.76v0.312l-0.040 0.36c-0.14-0.040-0.26-0.087-0.374-0.142l0.014 0.006c-0.377-0.152-0.698-0.366-0.968-0.632l0 0-0.040-0.040-0.064 0.104-0.384 0.584c0.175 0.197 0.372 0.369 0.589 0.513l0.011 0.007c0.31 0.215 0.675 0.376 1.068 0.46l0.020 0.004-0.088 0.728 0.656-0.136 0.064-0.528c0.061 0.009 0.132 0.014 0.204 0.014 0.745 0 1.364-0.542 1.483-1.253l0.001-0.009s0-0.064 0-0.096c0.004-0.035 0.006-0.077 0.006-0.118 0-0.319-0.127-0.607-0.334-0.818l0 0c-0.289-0.259-0.629-0.468-1.002-0.609l-0.022-0.007zM15.080 20.584v0.296c-0.22-0.095-0.386-0.279-0.455-0.506l-0.001-0.006c-0.005-0.026-0.007-0.057-0.007-0.088s0.003-0.062 0.008-0.091l-0 0.003c0-0.272 0.256-0.416 0.6-0.44zM15.88 22.248c0.129 0.105 0.211 0.264 0.211 0.442 0 0.022-0.001 0.043-0.004 0.064l0-0.003c0 0.296-0.272 0.464-0.648 0.504l0.064-0.568v-0.248l0.048-0.416c0.116 0.065 0.216 0.139 0.304 0.224l-0-0z"></path>
<path d="M28.448 17.168l-3.024-0.368-7.912-0.912h-0.24l-1.672-0.208h-0.232l-11.648-1.352c-0.020-0.002-0.044-0.003-0.068-0.003s-0.048 0.001-0.071 0.003l0.003-0c-0.462 0.004-0.843 0.349-0.903 0.795l-0.001 0.005-0.28 1.992-0.384 3.264v0.32l-0.512 4.384c-0.004 0.034-0.007 0.074-0.007 0.114 0 0.473 0.348 0.865 0.802 0.933l0.005 0.001 0.8 0.096 1.368 0.16 1 0.112h0.336l3.368 0.384 17.856 2.072c0.034 0.004 0.074 0.007 0.114 0.007 0.473 0 0.865-0.348 0.933-0.802l0.001-0.005 0.608-5.272 0.128-1.112 0.416-3.56c0.005-0.035 0.007-0.075 0.007-0.116 0-0.467-0.34-0.855-0.786-0.931l-0.006-0.001zM19.944 22.088c-0.266 2.302-2.204 4.072-4.555 4.072-2.532 0-4.584-2.052-4.584-4.584 0-2.341 1.755-4.272 4.021-4.55l0.022-0.002h1.088l0.384 0.064h0.096c2.057 0.484 3.565 2.304 3.565 4.476 0 0.182-0.011 0.361-0.031 0.538l0.002-0.021z"></path>
<path d="M30.272 19.448l-0.232 2.032c0.281-0.165 0.466-0.466 0.466-0.809 0-0.065-0.007-0.128-0.019-0.189l0.001 0.006z"></path>
<path d="M11.344 12.16c0.793-1.421 2.287-2.365 4.002-2.365 1.059 0 2.034 0.36 2.808 0.965l-0.010-0.008 9.456-1.952-3.024-5.32c-0.166-0.287-0.471-0.476-0.82-0.476-0.172 0-0.334 0.046-0.473 0.127l0.005-0.002-18.112 10.272h0.104z"></path>
<path d="M13.368 11.736l0.648-0.128-0.224-0.392-0.544 0.312 0.12 0.208z"></path>
</svg>
