<!-- Generated by IcoMoon.io -->
<svg version="1.1" xmlns="http://www.w3.org/2000/svg" width="32" height="32" viewBox="0 0 32 32">
<title>download</title>
<path d="M24.088 27.792v2.608c0 0.172-0.14 0.312-0.312 0.312v0h-15.552c-0.172 0-0.312-0.14-0.312-0.312v0-2.608c0-0.336 0-1.128-0.608-1.128s-0.696 0.952-0.696 1.128v3.584c0 0 0 0.001 0 0.001 0 0.333 0.261 0.606 0.59 0.623l0.002 0h17.6c0.345 0 0.624-0.279 0.624-0.624v0-3.584c0-0.176 0-1.128-0.64-1.128s-0.696 0.76-0.696 1.128z"></path>
<path d="M15.424 24.216c0-0.080 0-19.024 0-23.152 0-0.328-0.040-0.728 0.176-0.92 0.123-0.099 0.282-0.159 0.454-0.159 0.127 0 0.246 0.032 0.349 0.089l-0.004-0.002c0.416 0.168 0.328 0.504 0.344 0.944 0 0.048 0 23.088 0 23.2l4.648-4.672c0.145-0.148 0.347-0.239 0.571-0.239 0.194 0 0.372 0.069 0.511 0.184l-0.001-0.001c0.304 0.304 0.176 0.648-0.168 0.992l-2.4 2.4-3.008 2.96c-0.195 0.232-0.478 0.385-0.796 0.408l-0.004 0c-0.025 0.002-0.053 0.003-0.082 0.003-0.282 0-0.537-0.118-0.718-0.307l-5.488-5.488c-0.384-0.384-0.64-0.752-0.344-1.16s0.664-0.328 1.144 0.12c0.64 0.6 1.264 1.232 1.888 1.856s2.872 2.896 2.928 2.944z"></path>
</svg>
