<!-- Generated by IcoMoon.io -->
<svg version="1.1" xmlns="http://www.w3.org/2000/svg" width="32" height="32" viewBox="0 0 32 32">
<title>down-arrow-in-circle</title>
<path d="M16 0c-8.837 0-16 7.163-16 16s7.163 16 16 16c8.837 0 16-7.163 16-16v0c0-8.837-7.163-16-16-16v0zM16 30.704c-8.121 0-14.704-6.583-14.704-14.704s6.583-14.704 14.704-14.704c8.121 0 14.704 6.583 14.704 14.704v0c0 8.121-6.583 14.704-14.704 14.704v0z"></path>
<path d="M15.424 22.296c0-0.080 0-9.416 0-13.552 0-0.328-0.040-0.728 0.176-0.92 0.123-0.099 0.282-0.159 0.454-0.159 0.127 0 0.246 0.032 0.349 0.089l-0.004-0.002c0.416 0.168 0.328 0.504 0.344 0.944 0 0.048 0 13.488 0 13.6l4.624-4.696c0.145-0.148 0.347-0.239 0.571-0.239 0.194 0 0.372 0.069 0.511 0.184l-0.001-0.001c0.304 0.304 0.176 0.648-0.168 0.992l-5.368 5.368c-0.195 0.232-0.478 0.385-0.796 0.408l-0.004 0c-0.025 0.002-0.053 0.003-0.082 0.003-0.282 0-0.537-0.118-0.718-0.307l-5.488-5.488c-0.384-0.384-0.64-0.752-0.344-1.16s0.664-0.328 1.144 0.12c0.64 0.6 1.264 1.232 1.888 1.856s2.856 2.912 2.912 2.96z"></path>
</svg>
