<!-- Generated by IcoMoon.io -->
<svg version="1.1" xmlns="http://www.w3.org/2000/svg" width="32" height="32" viewBox="0 0 32 32">
<title>down-arrow</title>
<path d="M16.336 21.448l13.92-13.392c0.146-0.154 0.352-0.249 0.58-0.249s0.434 0.095 0.58 0.249l0 0c0.156 0.146 0.253 0.354 0.253 0.584s-0.097 0.438-0.253 0.584l-0 0-14.568 14.584c-0.224 0.224-0.534 0.362-0.876 0.362s-0.652-0.138-0.876-0.362l-14.6-14.592c-0.135-0.143-0.217-0.336-0.217-0.548 0-0.186 0.064-0.358 0.17-0.494l-0.001 0.002c0.148-0.171 0.365-0.279 0.607-0.279 0.211 0 0.403 0.082 0.546 0.215l-0-0 13.776 13.336c0.125 0.119 0.294 0.192 0.48 0.192s0.355-0.073 0.48-0.192l-0 0z"></path>
</svg>
