<!-- Generated by IcoMoon.io -->
<svg version="1.1" xmlns="http://www.w3.org/2000/svg" width="32" height="32" viewBox="0 0 32 32">
<title>down-arrow-in-circle-filled</title>
<path d="M16 1.296c-8.121 0-14.704 6.583-14.704 14.704s6.583 14.704 14.704 14.704c8.121 0 14.704-6.583 14.704-14.704v0c0-8.121-6.583-14.704-14.704-14.704v0zM22.24 19.064l-5.504 5.6c-0.144 0.141-0.342 0.229-0.56 0.229s-0.416-0.087-0.56-0.229l0 0-5.736-5.792c-0.21-0.211-0.34-0.502-0.34-0.824s0.13-0.613 0.34-0.824l-0 0c0.211-0.21 0.502-0.34 0.824-0.34s0.613 0.13 0.824 0.34l-0-0 3.472 3.776v-12.136c0-0.645 0.523-1.168 1.168-1.168s1.168 0.523 1.168 1.168v0 12.096l3.248-3.544c0.204-0.179 0.473-0.288 0.768-0.288 0.645 0 1.168 0.523 1.168 1.168 0 0.295-0.109 0.564-0.289 0.769l0.001-0.001z"></path>
</svg>
