<!-- Generated by IcoMoon.io -->
<svg version="1.1" xmlns="http://www.w3.org/2000/svg" width="32" height="32" viewBox="0 0 32 32">
<title>download-filled</title>
<path d="M10.16 16.704c-0.301 0.301-0.487 0.717-0.487 1.176s0.186 0.875 0.487 1.176v0l5.2 5.288c0.203 0.208 0.487 0.336 0.8 0.336s0.597-0.129 0.8-0.336l0-0 4.968-5.056c0.301-0.301 0.487-0.717 0.487-1.176s-0.186-0.875-0.487-1.176v0c-0.301-0.301-0.717-0.487-1.176-0.487s-0.875 0.186-1.176 0.487v0l-1.752 2.184v-17.384c0-0.919-0.745-1.664-1.664-1.664v0c-0.919 0-1.664 0.745-1.664 1.664v0 17.384l-1.984-2.4c-0.301-0.301-0.717-0.487-1.176-0.487s-0.875 0.186-1.176 0.487v0z"></path>
<path d="M28.68 26.784v1.336c0 0.265-0.215 0.48-0.48 0.48v0h-24.392c-0.265 0-0.48-0.215-0.48-0.48v-1.336c0-0.919-0.745-1.664-1.664-1.664v0 0c-0.919 0-1.664 0.745-1.664 1.664v0 4.112c0 0.566 0.458 1.024 1.024 1.024v0h29.952c0 0 0 0 0 0 0.563 0 1.019-0.454 1.024-1.016v-4.12c0-0.919-0.745-1.664-1.664-1.664v0 0c-0.916 0.005-1.656 0.748-1.656 1.664 0 0 0 0 0 0v0z"></path>
</svg>
