<!-- Generated by IcoMoon.io -->
<svg version="1.1" xmlns="http://www.w3.org/2000/svg" width="32" height="32" viewBox="0 0 32 32">
<title>email-filled</title>
<path d="M10.080 16.344c-2.88-2.88-6.016-6.632-8.776-9.392 0 5.536 0.088 12.304 0.088 18.016 2.888-2.88 5.944-5.888 8.688-8.624z"></path>
<path d="M30.696 25.504c0-5.744 0-14.216 0-18.544-2.888 2.888-6.152 6.592-8.912 9.352 2.824 2.888 6.112 6.376 8.912 9.192z"></path>
<path d="M18.352 18.304c3.808-3.8 11.592-12 11.856-12.272h-28.448c0.296 0.312 7.848 8.264 11.648 12.064 0.633 0.711 1.551 1.156 2.572 1.156 0.92 0 1.756-0.361 2.373-0.949l-0.001 0.001z"></path>
<path d="M18.76 19.2c-0.684 0.749-1.665 1.218-2.756 1.218s-2.072-0.468-2.753-1.215l-0.003-0.003c-0.744-0.728-1.776-1.6-2.448-2.272-2.992 2.968-6.056 6.080-9.008 9.040h28.136c-2.928-2.928-5.928-6.064-8.912-9.056-0.672 0.688-1.512 1.528-2.256 2.288z"></path>
</svg>
