<!-- Generated by IcoMoon.io -->
<svg version="1.1" xmlns="http://www.w3.org/2000/svg" width="32" height="32" viewBox="0 0 32 32">
<title>email</title>
<path d="M0 25.032q0-9.032 0-18.064c0-2.232 1.264-2.232 3.344-2.232h25.304c2.080 0 3.352 0 3.352 2.232q0 9.032 0 18.064c0 2.232-1.272 2.232-3.352 2.232h-25.288c-2.096 0-3.36 0-3.36-2.232zM1.752 6.032c0.296 0.312 7.848 8.264 11.648 12.064 0.633 0.711 1.551 1.156 2.572 1.156 0.92 0 1.756-0.361 2.373-0.949l-0.001 0.001c3.808-3.8 11.592-12 11.856-12.272zM1.752 25.968h28.168c-2.928-2.928-5.92-6.064-8.904-9.048-0.672 0.688-1.52 1.528-2.256 2.256-0.684 0.749-1.665 1.218-2.756 1.218s-2.072-0.468-2.753-1.215l-0.003-0.003c-0.744-0.728-1.776-1.6-2.448-2.272-2.992 2.992-6.064 6.104-9.016 9.064zM10.040 16.368c-2.84-2.904-5.984-6.656-8.744-9.416 0 5.536 0.088 12.304 0.088 18.016 2.888-2.88 5.944-5.888 8.688-8.624zM21.72 16.368c2.848 2.864 6.136 6.4 8.936 9.192 0-5.744 0-14.216 0-18.544-2.872 2.832-6.144 6.536-8.904 9.296z"></path>
</svg>
