<!-- Generated by IcoMoon.io -->
<svg version="1.1" xmlns="http://www.w3.org/2000/svg" width="32" height="32" viewBox="0 0 32 32">
<title>ethereum-cart</title>
<path d="M31.248 1.496h-3.768c-0.023-0.001-0.051-0.001-0.078-0.001-1.11 0-2.044 0.753-2.318 1.776l-0.004 0.017c-0.144 0.496-0.296 0.992-0.416 1.488-0.072 0.304-0.208 0.384-0.52 0.384h-6.080v1.24h6.144c-0.264 0.92-0.512 1.824-0.8 2.728-0.848 3.040-1.72 6.072-2.608 9.136-0.018 0.184-0.172 0.326-0.358 0.326-0.023 0-0.046-0.002-0.068-0.006l0.002 0h-12.472c-0.056 0.005-0.121 0.007-0.186 0.007-1.028 0-1.901-0.666-2.209-1.591l-0.005-0.016q-1.88-5.192-3.752-10.352c0-0.064 0-0.128-0.064-0.232h6.792v-1.24h-6.632c-0.052-0.008-0.111-0.012-0.172-0.012-0.685 0-1.24 0.555-1.24 1.24 0 0.209 0.052 0.406 0.143 0.579l-0.003-0.007q1.88 5.176 3.768 10.352c0.48 1.462 1.833 2.498 3.427 2.498 0.047 0 0.093-0.001 0.139-0.003l-0.007 0h12.72c0.002-0 0.004-0 0.006-0 0.17 0 0.325 0.064 0.442 0.169l-0.001-0.001q1.216 1.32 2.4 2.672c0.198 0.214 0.319 0.502 0.319 0.818 0 0.518-0.325 0.959-0.783 1.131l-0.008 0.003c-0.188 0.057-0.405 0.090-0.629 0.090-0.029 0-0.058-0.001-0.087-0.002l0.004 0h-20v1.2h2.4c-0.766 0.229-1.404 0.69-1.849 1.302l-0.007 0.010c-0.351 0.477-0.562 1.076-0.562 1.725 0 0.191 0.018 0.377 0.053 0.557l-0.003-0.018c0.253 1.45 1.502 2.538 3.005 2.538 1.329 0 2.459-0.851 2.876-2.037l0.007-0.021c0.108-0.296 0.171-0.637 0.171-0.993 0-0.567-0.159-1.097-0.434-1.548l0.007 0.013c-0.451-0.736-1.157-1.277-1.992-1.506l-0.024-0.006h14.704c-1.984 0.864-2.768 2.040-2.44 3.672 0.295 1.399 1.519 2.435 2.986 2.435 1.411 0 2.599-0.959 2.946-2.261l0.005-0.021c0.066-0.233 0.103-0.501 0.103-0.778 0-0.603-0.179-1.164-0.486-1.633l0.007 0.011c-0.462-0.695-1.16-1.202-1.977-1.411l-0.023-0.005c0.44 0 0.872 0 1.288-0.048 0.879-0.138 1.583-0.762 1.836-1.584l0.004-0.016c0.081-0.228 0.128-0.491 0.128-0.765 0-0.636-0.253-1.213-0.665-1.635l0 0c-0.8-0.856-1.544-1.712-2.304-2.576-0.070-0.089-0.113-0.203-0.113-0.327 0-0.034 0.003-0.068 0.010-0.101l-0.001 0.003q2.144-7.552 4.312-15.096c0.102-0.559 0.585-0.977 1.166-0.977 0.052 0 0.102 0.003 0.152 0.010l-0.006-0.001h4v-1.288zM7.152 28.944c0 0.002 0 0.005 0 0.008 0 1.012-0.82 1.832-1.832 1.832 0 0 0 0-0 0v0c-1-0.018-1.806-0.824-1.824-1.822l-0-0.002c0-0.002-0-0.005-0-0.008 0-1.002 0.808-1.815 1.807-1.824h0.001c0.012-0 0.026-0 0.040-0 0.999 0 1.808 0.809 1.808 1.808 0 0.003 0 0.006-0 0.009v-0zM23.024 28.944c0 1.012-0.82 1.832-1.832 1.832s-1.832-0.82-1.832-1.832v0c0-1.012 0.82-1.832 1.832-1.832s1.832 0.82 1.832 1.832v0z"></path>
<path d="M9.672 6.512c-0.061-0.089-0.098-0.2-0.098-0.319 0-0.060 0.009-0.119 0.027-0.173l-0.001 0.004c1.216-2.024 2.456-4.016 3.68-6.024 1.232 2.008 2.464 4 3.672 6.024 0.019 0.054 0.030 0.117 0.030 0.183 0 0.117-0.035 0.225-0.096 0.315l0.001-0.002c-1.192 1.672-2.4 3.336-3.608 4.992-1.2-1.664-2.416-3.328-3.608-5zM13.128 7.96v-6.936c-1.128 1.8-2.024 3.448-3.080 5.176 1.080 0.632 2.008 1.136 3.080 1.76zM16.424 6.2c-1.072-1.76-1.792-3.376-2.896-5.176v6.976c1.088-0.616 1.8-1.168 2.896-1.8zM12.96 8.36c-0.92-0.544-1.712-1.056-2.64-1.6 0.952 1.312 1.864 2.4 2.824 3.736 0-0.664 0-1.152 0-1.824-0.016-0.129-0.084-0.24-0.183-0.311l-0.001-0.001zM13.56 10.4l2.784-3.856c-0.112 0.080-1.8 1.248-2.656 1.76-0.075 0.078-0.12 0.183-0.12 0.299 0 0.007 0 0.014 0.001 0.022l-0-0.001c-0.016 0.736 0.032 1.088-0.008 1.776z"></path>
</svg>
