<!-- Generated by IcoMoon.io -->
<svg version="1.1" xmlns="http://www.w3.org/2000/svg" width="32" height="32" viewBox="0 0 32 32">
<title>ethereum-filled</title>
<path d="M16.736 3.144v18.304c3.008-1.736 4.632-2.896 7.664-4.656-2.976-4.88-4.608-8.64-7.664-13.648z"></path>
<path d="M14.936 22.896c-2.544-1.512-4.528-2.712-7.088-4.2 2.64 3.64 4.944 6.456 7.608 10.144 0-1.84 0.072-3.2 0-5.072-0.044-0.362-0.238-0.671-0.516-0.869l-0.004-0.003z"></path>
<path d="M16.8 23.928c0 1.976 0 2.952 0 4.928 2.544-3.528 4.8-6.76 7.376-10.352-0.312 0.208-4.656 3.112-7.040 4.552-0.208 0.214-0.337 0.507-0.337 0.83 0 0.015 0 0.029 0.001 0.044l-0-0.002z"></path>
<path d="M15.624 21.312v-18.152c-3.032 4.976-5.096 8.736-8 13.536 2.968 1.704 5.016 2.888 8 4.616z"></path>
</svg>
