<!-- Generated by IcoMoon.io -->
<svg version="1.1" xmlns="http://www.w3.org/2000/svg" width="32" height="32" viewBox="0 0 32 32">
<title>ethereum</title>
<path d="M6 18.144c-0.164-0.247-0.262-0.551-0.262-0.877 0-0.167 0.025-0.327 0.073-0.478l-0.003 0.011c3.36-5.6 6.784-11.16 10.192-16.72 3.408 5.56 6.832 11.12 10.192 16.72 0.049 0.147 0.077 0.316 0.077 0.492 0 0.326-0.098 0.629-0.265 0.882l0.004-0.006c-3.304 4.616-6.664 9.216-10.008 13.832-3.344-4.616-6.696-9.216-10-13.856zM15.6 21.456v-18.16c-3.056 4.984-5.12 8.704-8.048 13.504 3 1.768 5.040 2.928 8.024 4.656zM24.4 16.936c-2.976-4.888-4.616-8.648-7.664-13.648v18.312c2.968-1.752 4.592-2.912 7.624-4.664zM14.896 23.032c-2.544-1.512-4.496-2.712-7.096-4.2 2.64 3.64 4.944 6.456 7.608 10.144 0-1.84 0.072-3.2 0-5.072-0.042-0.361-0.233-0.67-0.508-0.869l-0.004-0.003zM16.8 28.992c2.544-3.528 4.8-6.76 7.376-10.352-0.312 0.208-4.656 3.112-7.040 4.552-0.199 0.211-0.322 0.497-0.322 0.812 0 0.024 0.001 0.048 0.002 0.072l-0-0.003c-0.064 1.968-0.016 2.952-0.016 4.92z"></path>
</svg>
