<!-- Generated by IcoMoon.io -->
<svg version="1.1" xmlns="http://www.w3.org/2000/svg" width="32" height="32" viewBox="0 0 32 32">
<title>exchange-2</title>
<path d="M31.952 24.408c-0.205-0.151-0.385-0.301-0.556-0.46l0.004 0.004c-1.848-1.848-3.68-3.704-5.544-5.528-0.211-0.19-0.493-0.307-0.801-0.307-0.056 0-0.111 0.004-0.165 0.011l0.006-0.001c-0.192 0.048-0.368 0.536-0.392 0.8-0.056 0.8 0 1.6 0 2.352h-2.104c1.145-1.492 1.836-3.385 1.84-5.439v-0.001c-0.054-1.872-0.708-3.582-1.774-4.955l0.014 0.019c0.105-0.371 0.189-0.814 0.237-1.268l0.003-0.036c0-1.52 0-3.040 0-4.56 0-1.24-0.080-1.32-1.304-1.32h-13.904c0-0.84 0-1.6 0-2.4 0-0.304-0.192-0.8-0.392-0.8-0.030-0.002-0.066-0.004-0.101-0.004-0.327 0-0.627 0.116-0.861 0.31l0.002-0.002c-0.376 0.322-0.716 0.659-1.030 1.020l-0.010 0.012-5.12 5.024 0.048 0.8c0.205 0.151 0.385 0.301 0.556 0.46l-0.004-0.004c1.848 1.848 3.68 3.704 5.544 5.528 0.211 0.19 0.493 0.307 0.801 0.307 0.056 0 0.111-0.004 0.165-0.011l-0.006 0.001c0.192-0.048 0.368-0.536 0.392-0.8 0.056-0.8 0-1.6 0-2.352h2.104c-1.145 1.492-1.836 3.385-1.84 5.439v0.001c0.054 1.872 0.708 3.582 1.774 4.955l-0.014-0.019c-0.107 0.373-0.195 0.818-0.245 1.275l-0.003 0.037c0 1.52 0 3.040 0 4.56 0 1.24 0.080 1.32 1.304 1.32h13.912c0 0.84 0 1.6 0 2.4 0 0.304 0.192 0.8 0.392 0.8 0.030 0.002 0.066 0.004 0.101 0.004 0.327 0 0.627-0.116 0.861-0.31l-0.002 0.002c0.374-0.314 0.712-0.641 1.024-0.99l0.008-0.010 5.128-5.024zM15.928 23.2c-3.945-0.042-7.126-3.249-7.126-7.2 0-3.976 3.224-7.2 7.2-7.2s7.2 3.224 7.2 7.2c0 0.056-0.001 0.112-0.002 0.168l0-0.008c-0.089 3.907-3.278 7.040-7.198 7.040-0.026 0-0.052-0-0.078-0l0.004 0zM7.792 9.888c-1.048 0-1.168 0.128-1.176 1.208 0 0.288 0 1.304 0 1.44-1.376-1.336-4.384-3.896-5.76-5.272 1.248-1.248 4.264-4 5.752-5.472 0 0.328 0 1.544 0 1.904 0.024 0.888 0.2 1.104 1.096 1.104h14.12v5.44c-0.404-0.417-0.855-0.784-1.346-1.094l-0.030-0.018c-1.249-0.846-2.79-1.351-4.448-1.351s-3.199 0.505-4.476 1.369l0.028-0.018c-0.296 0.184-0.888 0.744-1.232 0.76-1.064 0.024-1.464 0-2.528 0zM25.392 30.336c0-0.328 0-1.544 0-1.904 0-0.888-0.192-1.072-1.088-1.072h-14.128v-5.464c0.404 0.417 0.855 0.784 1.346 1.094l0.030 0.018c1.249 0.846 2.79 1.351 4.448 1.351s3.199-0.505 4.476-1.369l-0.028 0.018c0.296-0.184 0.888-0.744 1.232-0.76 1.064 0 1.464 0 2.528 0s1.168-0.128 1.176-1.208c0-0.288 0-1.304 0-1.44 1.376 1.376 4.384 3.896 5.752 5.272-1.24 1.24-4.256 3.976-5.752 5.464z"></path>
</svg>
