<!-- Generated by IcoMoon.io -->
<svg version="1.1" xmlns="http://www.w3.org/2000/svg" width="32" height="32" viewBox="0 0 32 32">
<title>exchange-2-filled</title>
<path d="M15.928 23.2c3.976-0 7.2-3.224 7.2-7.2s-3.224-7.2-7.2-7.2c-3.954 0-7.163 3.187-7.2 7.133l-0 0.003c-0 0.019-0 0.041-0 0.064 0 3.976 3.224 7.2 7.2 7.2 0 0 0 0 0 0h-0z"></path>
<path d="M11.56 9.056c1.249-0.846 2.79-1.351 4.448-1.351s3.199 0.505 4.476 1.369l-0.028-0.018c0.521 0.328 0.972 0.695 1.374 1.11l0.002 0.002v-5.472h-14.128c-0.896 0-1.064-0.176-1.088-1.072 0-0.352 0-1.6 0-1.904-1.496 1.48-4.512 4.24-5.76 5.48 1.376 1.376 4.376 3.896 5.752 5.272 0-0.136 0-1.144 0-1.44 0-1.080 0.128-1.208 1.176-1.208s1.464 0 2.528 0c0.36-0.024 0.944-0.592 1.248-0.768z"></path>
<path d="M25.384 20.96c0 1.080-0.128 1.208-1.176 1.208s-1.464 0-2.528 0c-0.352 0-0.936 0.576-1.232 0.76-1.249 0.846-2.79 1.351-4.448 1.351s-3.199-0.505-4.476-1.369l0.028 0.018c-0.521-0.328-0.972-0.695-1.374-1.11l-0.002-0.002v5.472h14.12c0.896 0 1.064 0.176 1.088 1.072 0 0.352 0 1.6 0 1.904 1.496-1.464 4.512-4.224 5.76-5.464-1.376-1.376-4.376-3.896-5.752-5.272-0.008 0.136 0 1.144-0.008 1.432z"></path>
</svg>
