<!-- Generated by IcoMoon.io -->
<svg version="1.1" xmlns="http://www.w3.org/2000/svg" width="32" height="32" viewBox="0 0 32 32">
<title>exchange</title>
<path d="M13.064 18.752c-0.096-0.165-0.152-0.363-0.152-0.574 0-0.006 0-0.012 0-0.019v0.001c0-0.184 0-0.376 0-0.56 0.012-0.143 0.035-0.274 0.068-0.4l-0.004 0.016c0-0.056 0-0.072 0-0.096-0.176-0.112-0.352-0.208-0.512-0.336-0.205-0.154-0.367-0.356-0.468-0.591l-0.004-0.009c-0.032-0.083-0.065-0.19-0.092-0.299l-0.004-0.021q0-0.44 0-0.88v-0.048c0.050-0.242 0.159-0.454 0.313-0.625l-0.001 0.001c0.189-0.214 0.415-0.39 0.667-0.522l0.013-0.006c0.040-0.020 0.068-0.058 0.072-0.104l0-0.001c0.041-0.2 0.125-0.375 0.242-0.523l-0.002 0.002c0.232-0.291 0.527-0.522 0.865-0.674l0.015-0.006c0.387-0.186 0.836-0.319 1.308-0.374l0.020-0.002 0.352-0.048h0.72c0.588 0.040 1.132 0.187 1.628 0.42l-0.028-0.012c0.316 0.155 0.583 0.365 0.797 0.62l0.003 0.004c0.199 0.222 0.321 0.518 0.321 0.841 0 0.014-0 0.027-0.001 0.041l0-0.002c0 0.168 0 0.328 0 0.496-0.014 0.156-0.036 0.298-0.068 0.437l0.004-0.021c0 0.048 0 0.064 0 0.088 0.184 0.12 0.368 0.224 0.544 0.36 0.178 0.133 0.319 0.305 0.413 0.504l0.003 0.008c0.042 0.103 0.086 0.233 0.122 0.367l0.006 0.025v0.888c-0.059 0.325-0.23 0.603-0.47 0.798l-0.002 0.002c-0.16 0.136-0.344 0.248-0.52 0.368-0.020 0.032-0.032 0.071-0.032 0.112v0c-0.048 0.12-0.096 0.24-0.144 0.36s0 0 0 0c-0.631 0.774-1.585 1.264-2.653 1.264-0.142 0-0.282-0.009-0.42-0.026l0.016 0.002c-1.488 0-2.656-0.664-2.936-1.248zM16.064 15.416c0.152 0 0.304 0 0.448 0 0.397-0.025 0.768-0.102 1.117-0.225l-0.029 0.009c0.391-0.125 0.728-0.322 1.010-0.578l-0.002 0.002c0.138-0.123 0.247-0.275 0.317-0.448l0.003-0.008c0.029-0.079 0.045-0.17 0.045-0.265 0-0.206-0.078-0.394-0.206-0.536l0.001 0.001c-0.215-0.252-0.483-0.452-0.786-0.586l-0.014-0.006c-0.483-0.229-1.047-0.369-1.643-0.384l-0.005-0c-0.091-0.007-0.198-0.011-0.305-0.011-0.721 0-1.4 0.176-1.999 0.486l0.024-0.011c-0.292 0.147-0.532 0.358-0.708 0.618l-0.004 0.006c-0.086 0.12-0.137 0.271-0.137 0.433 0 0.104 0.021 0.202 0.059 0.292l-0.002-0.005c0.073 0.174 0.179 0.321 0.311 0.439l0.001 0.001c0.306 0.275 0.676 0.484 1.084 0.603l0.020 0.005c0.352 0.11 0.757 0.174 1.177 0.174 0.079 0 0.156-0.002 0.234-0.007l-0.011 0.001zM15.424 17.56v0c0.224 0.064 0.456 0.136 0.68 0.192 0.301 0.068 0.646 0.107 1.001 0.107 0.177 0 0.352-0.010 0.524-0.029l-0.021 0.002c0.525-0.045 1.009-0.182 1.449-0.395l-0.025 0.011c0.298-0.137 0.549-0.329 0.749-0.565l0.003-0.003c0.108-0.125 0.185-0.279 0.215-0.45l0.001-0.006c0.003-0.027 0.005-0.058 0.005-0.089 0-0.184-0.062-0.353-0.166-0.488l0.001 0.002c-0.209-0.274-0.477-0.491-0.787-0.635l-0.013-0.005c-0.048 0-0.072 0-0.104 0-0.049 0.061-0.099 0.116-0.152 0.168l-0 0c-0.169 0.163-0.361 0.304-0.57 0.417l-0.014 0.007c-0.031 0.020-0.054 0.051-0.064 0.087l-0 0.001c-0.048 0.226-0.149 0.423-0.289 0.586l0.001-0.002c-0.218 0.249-0.484 0.449-0.785 0.586l-0.015 0.006c-0.358 0.179-0.773 0.311-1.21 0.373l-0.022 0.003zM12.912 14.112v0c-0.253 0.141-0.462 0.333-0.62 0.562l-0.004 0.006c-0.083 0.124-0.133 0.277-0.133 0.441 0 0.131 0.031 0.254 0.087 0.363l-0.002-0.005c0.094 0.181 0.221 0.333 0.373 0.454l0.003 0.002c0.267 0.217 0.582 0.389 0.924 0.498l0.020 0.006c0.425 0.142 0.915 0.224 1.423 0.224 0.011 0 0.023-0 0.034-0h-0.002c0.024 0 0.052 0.001 0.080 0.001 0.584 0 1.142-0.112 1.654-0.315l-0.030 0.011h0.056c-0.008-0.003-0.018-0.005-0.028-0.005s-0.020 0.002-0.029 0.005l0.001-0h-0.432c-0.070 0.004-0.151 0.006-0.233 0.006-0.317 0-0.626-0.031-0.925-0.091l0.030 0.005c-0.456-0.078-0.864-0.223-1.237-0.426l0.021 0.010c-0.293-0.153-0.538-0.357-0.732-0.603l-0.004-0.005c-0.149-0.185-0.244-0.421-0.256-0.677l-0-0.003c-0.040-0.176-0.032-0.304-0.032-0.464zM17.792 18.784v0h-0.112c-0.175 0.021-0.378 0.032-0.584 0.032s-0.409-0.012-0.608-0.035l0.024 0.002c-0.665-0.059-1.27-0.271-1.792-0.602l0.016 0.010c-0.253-0.159-0.46-0.369-0.611-0.616l-0.005-0.008c-0.020-0.026-0.047-0.045-0.079-0.056l-0.001-0h-0.088l-0.704-0.192c-0.046 0.087-0.073 0.19-0.073 0.3s0.027 0.213 0.074 0.304l-0.002-0.004c0.127 0.26 0.318 0.472 0.554 0.62l0.006 0.004c0.479 0.313 1.055 0.52 1.674 0.575l0.014 0.001c0.171 0.022 0.37 0.034 0.571 0.034 0.342 0 0.675-0.036 0.997-0.104l-0.031 0.006c0.293-0.070 0.549-0.164 0.79-0.282l-0.022 0.010z"></path>
<path d="M15.104 31.616c-0.248-0.336-0.208-3.64-0.208-3.64l1.384 0.176c-0.029 0-0.064 0-0.099 0-6.676 0-12.088-5.412-12.088-12.088 0-1.401 0.238-2.746 0.676-3.997l-0.026 0.085c0.713-2.020 1.894-3.724 3.417-5.044l0.015-0.012c0.102-0.104 0.243-0.168 0.4-0.168s0.298 0.064 0.4 0.168l0 0c0.085 0.095 0.136 0.222 0.136 0.36 0 0.18-0.088 0.34-0.223 0.439l-0.002 0.001c-0.955 0.829-1.755 1.804-2.372 2.898l-0.028 0.054c-0.852 1.499-1.354 3.293-1.354 5.204 0 0.362 0.018 0.72 0.053 1.073l-0.004-0.045c0.22 2.645 1.381 4.983 3.142 6.71l0.002 0.002c1.97 1.999 4.707 3.237 7.734 3.237 0.316 0 0.629-0.014 0.939-0.040l-0.040 0.003c0.040 0-2.304 0.184-2.2 0.192 0-0.744-0.056-2.272-0.056-2.784 0-0.368-0.080-0.744 0.152-0.944 0.1-0.088 0.231-0.141 0.375-0.141 0.196 0 0.37 0.1 0.472 0.251l0.001 0.002 2.896 3.424c0.096 0.102 0.156 0.239 0.156 0.391 0 0.12-0.037 0.232-0.101 0.323l0.001-0.002c-0.851 1.435-1.685 2.655-2.589 3.818l0.061-0.082c-0.153 0.192-0.386 0.315-0.647 0.32h-0.001c-0.011 0.001-0.023 0.001-0.035 0.001-0.134 0-0.255-0.056-0.341-0.145l-0-0z"></path>
<path d="M17.040 0.592c0.248 0.336 0.208 3.64 0.208 3.64l-1.384-0.176c0.029-0 0.064-0 0.099-0 6.676 0 12.088 5.412 12.088 12.088 0 1.401-0.238 2.746-0.677 3.997l0.026-0.085c-0.701 2.027-1.872 3.739-3.387 5.069l-0.013 0.012c-0.102 0.104-0.243 0.168-0.4 0.168s-0.298-0.064-0.4-0.168l-0-0c-0.085-0.095-0.136-0.222-0.136-0.36 0-0.18 0.088-0.34 0.223-0.439l0.002-0.001c0.955-0.829 1.755-1.804 2.372-2.898l0.028-0.054c0.852-1.499 1.354-3.293 1.354-5.204 0-0.362-0.018-0.72-0.053-1.073l0.004 0.045c-0.22-2.645-1.381-4.983-3.142-6.71l-0.002-0.002c-1.97-1.999-4.707-3.237-7.734-3.237-0.316 0-0.629 0.014-0.939 0.040l0.040-0.003c-0.040 0 2.304-0.184 2.2-0.192 0 0.744 0.056 2.272 0.056 2.784 0 0.368 0.080 0.744-0.152 0.944-0.099 0.088-0.231 0.141-0.375 0.141-0.196 0-0.37-0.1-0.472-0.251l-0.001-0.002-2.96-3.48c-0.096-0.102-0.156-0.239-0.156-0.391 0-0.12 0.037-0.231 0.101-0.323l-0.001 0.002c0.855-1.43 1.695-2.647 2.604-3.807l-0.060 0.079c0.154-0.192 0.386-0.315 0.647-0.32h0.001c0.009-0.001 0.020-0.001 0.030-0.001 0.145 0 0.275 0.065 0.361 0.168l0.001 0.001z"></path>
</svg>
