<!-- Generated by IcoMoon.io -->
<svg version="1.1" xmlns="http://www.w3.org/2000/svg" width="32" height="32" viewBox="0 0 32 32">
<title>exchange-filled</title>
<path d="M12.48 14.656c0.415 0.363 0.917 0.639 1.469 0.794l0.027 0.006c0.501 0.166 1.078 0.261 1.677 0.261 0.085 0 0.17-0.002 0.255-0.006l-0.012 0c0.2 0 0.408 0 0.608 0 0.527-0.038 1.017-0.144 1.479-0.308l-0.039 0.012c0.534-0.174 0.994-0.448 1.379-0.802l-0.003 0.002c0.187-0.168 0.334-0.377 0.428-0.613l0.004-0.011c0.037-0.106 0.059-0.229 0.059-0.356 0-0.281-0.104-0.537-0.276-0.733l0.001 0.001c-0.289-0.339-0.647-0.61-1.053-0.792l-0.019-0.008c-0.656-0.313-1.423-0.505-2.232-0.528l-0.008-0c-0.123-0.009-0.267-0.014-0.412-0.014-0.98 0-1.904 0.239-2.717 0.662l0.033-0.015c-0.396 0.197-0.723 0.482-0.963 0.832l-0.005 0.008c-0.117 0.164-0.187 0.369-0.187 0.59 0 0.139 0.028 0.271 0.078 0.392l-0.002-0.007c0.097 0.25 0.244 0.462 0.431 0.631l0.001 0.001z"></path>
<path d="M21.248 17.152c0.007-0.045 0.011-0.098 0.011-0.151 0-0.246-0.086-0.473-0.229-0.651l0.002 0.002c-0.283-0.373-0.649-0.669-1.070-0.865l-0.017-0.007c-0.064 0-0.096 0-0.136 0-0.067 0.081-0.135 0.154-0.207 0.223l-0.001 0.001c-0.231 0.222-0.494 0.414-0.781 0.567l-0.019 0.009c-0.043 0.027-0.075 0.069-0.088 0.119l-0 0.001c-0.064 0.31-0.202 0.58-0.394 0.802l0.002-0.002c-0.29 0.334-0.644 0.604-1.045 0.792l-0.019 0.008c-0.488 0.245-1.054 0.424-1.651 0.509l-0.029 0.003-0.56 0.072v0.040c0.312 0.088 0.616 0.192 0.928 0.256 0.411 0.093 0.884 0.147 1.369 0.147 0.236 0 0.47-0.013 0.699-0.038l-0.029 0.003c0.714-0.061 1.371-0.246 1.969-0.535l-0.033 0.015c0.404-0.195 0.743-0.465 1.012-0.795l0.004-0.005c0.14-0.142 0.247-0.316 0.309-0.511l0.003-0.009z"></path>
<path d="M18.096 20.296c-0.24 0.028-0.518 0.045-0.8 0.045s-0.56-0.016-0.833-0.048l0.033 0.003c-0.898-0.080-1.715-0.367-2.422-0.813l0.022 0.013c-0.329-0.22-0.598-0.504-0.793-0.836l-0.007-0.012c-0.026-0.036-0.061-0.063-0.102-0.079l-0.002-0.001c-0.018-0.002-0.039-0.002-0.060-0.002s-0.042 0.001-0.063 0.003l0.003-0-0.96-0.256c-0.059 0.117-0.094 0.254-0.094 0.4s0.035 0.283 0.097 0.405l-0.002-0.005c0.182 0.358 0.456 0.647 0.79 0.843l0.010 0.005c0.649 0.431 1.428 0.718 2.268 0.798l0.020 0.002c0.238 0.031 0.512 0.048 0.791 0.048 0.456 0 0.901-0.047 1.331-0.135l-0.042 0.007c0.4-0.077 0.754-0.188 1.089-0.333l-0.033 0.013z"></path>
<path d="M14.4 17.424c0.030 0.001 0.065 0.001 0.1 0.001 0.796 0 1.557-0.153 2.253-0.431l-0.041 0.014h0.072c-0.012-0.005-0.026-0.007-0.040-0.007s-0.028 0.003-0.041 0.008l0.001-0-0.584 0.048c-0.101 0.006-0.22 0.009-0.339 0.009-0.423 0-0.837-0.041-1.238-0.12l0.040 0.007c-0.618-0.105-1.171-0.3-1.676-0.574l0.028 0.014c-0.396-0.2-0.729-0.469-0.996-0.795l-0.004-0.005c-0.202-0.254-0.329-0.575-0.344-0.925l-0-0.003c0-0.2 0-0.4 0-0.616h-0.056c-0.346 0.2-0.631 0.469-0.842 0.791l-0.006 0.009c-0.112 0.163-0.18 0.364-0.18 0.582 0 0.173 0.043 0.337 0.118 0.48l-0.003-0.006c0.127 0.244 0.296 0.45 0.5 0.613l0.004 0.003c0.365 0.297 0.793 0.532 1.261 0.68l0.027 0.008c0.499 0.142 1.072 0.224 1.664 0.224 0.113 0 0.224-0.003 0.336-0.009l-0.016 0.001z"></path>
<path d="M14.592 5.208c0.21-0.013 0.456-0.020 0.704-0.020 0.53 0 1.052 0.033 1.565 0.098l-0.061-0.006v-0.264c0.096 0.008-2.248 0.192-2.208 0.192z"></path>
<path d="M16.688 4.248v-0.104c-0.4-0.046-0.863-0.072-1.333-0.072-0.018 0-0.036 0-0.054 0h0.003z"></path>
<path d="M18.064 27.040l-2.864-3.416c-0.103-0.154-0.276-0.253-0.473-0.253-0.144 0-0.276 0.054-0.376 0.142l0.001-0.001c-0.232 0.2-0.144 0.584-0.152 0.944s0 0.8 0 1.312c-5.189-0.309-9.281-4.592-9.281-9.832 0-0.146 0.003-0.292 0.010-0.437l-0.001 0.021c0.204-4.011 2.752-7.379 6.293-8.777l0.068-0.023c0.555-0.213 0.941-0.741 0.941-1.36 0-0.803-0.651-1.453-1.453-1.453-0.184 0-0.36 0.034-0.522 0.097l0.010-0.003c-4.898 1.892-8.32 6.539-8.376 11.993l-0 0.007s0 0.080 0 0.12c0 0.001 0 0.002 0 0.003 0 6.981 5.512 12.674 12.422 12.964l0.026 0.001c-0.006 0.134-0.010 0.291-0.010 0.449 0 0.745 0.079 1.471 0.23 2.171l-0.012-0.067c0.087 0.104 0.217 0.169 0.362 0.169 0.013 0 0.026-0.001 0.039-0.002l-0.002 0c0.262-0.005 0.495-0.128 0.647-0.318l0.001-0.002c0.843-1.081 1.677-2.301 2.436-3.571l0.092-0.165c0.062-0.090 0.1-0.201 0.1-0.321 0-0.151-0.059-0.289-0.156-0.391l0 0zM16.464 27.040v0zM14.712 28.040v0zM14.744 27.2v0zM15.544 27.072c-0.264 0-0.512 0-0.8 0v0zM14.688 28.136v0c0.344 0 0.688 0.056 1.048 0.048v0c-0.376-0.008-0.72-0.040-1.064-0.064z"></path>
<path d="M13.936 4.96l2.864 3.416c0.103 0.154 0.276 0.253 0.473 0.253 0.144 0 0.276-0.054 0.376-0.142l-0.001 0.001c0.232-0.2 0.144-0.584 0.152-0.944s0-0.8 0-1.312c5.189 0.309 9.281 4.592 9.281 9.832 0 0.146-0.003 0.292-0.010 0.437l0.001-0.021c-0.204 4.011-2.752 7.379-6.293 8.777l-0.067 0.023c-0.555 0.213-0.941 0.741-0.941 1.36 0 0.803 0.651 1.453 1.453 1.453 0.184 0 0.36-0.034 0.522-0.097l-0.010 0.003c4.898-1.892 8.32-6.539 8.376-11.993l0-0.007s0-0.080 0-0.12c0-0.001 0-0.002 0-0.003 0-6.981-5.512-12.674-12.422-12.964l-0.026-0.001c0.006-0.134 0.010-0.291 0.010-0.449 0-0.745-0.079-1.471-0.23-2.171l0.012 0.068c-0.087-0.104-0.217-0.17-0.362-0.17-0.013 0-0.026 0.001-0.039 0.002l0.002-0c-0.262 0.005-0.494 0.128-0.647 0.318l-0.001 0.002c-0.843 1.081-1.677 2.301-2.436 3.571l-0.092 0.165c-0.062 0.090-0.1 0.201-0.1 0.321 0 0.151 0.059 0.289 0.156 0.391l-0-0zM15.536 4.96v0zM17.288 3.96v0zM17.256 4.8v0zM16.456 4.928c0.264 0 0.512 0 0.8 0v0zM17.312 3.864v0c-0.344 0-0.688-0.056-1.048-0.048v0c0.376 0.008 0.72 0.040 1.064 0.064z"></path>
</svg>
