<svg version="1.1" xmlns="http://www.w3.org/2000/svg" width="32" height="32" viewBox="0 0 32 32">
<path d="M 35.59375 27.5 C 36.75 29.5 35.300781 32 32.996094 32 L 3.003906 32 C 0.695312 32 -0.746094 29.496094 0.40625 27.5 L 15.402344 1.5 C 16.554688 -0.5 19.445312 -0.496094 20.597656 1.5 Z M 18 22.125 C 16.414062 22.125 15.125 23.414062 15.125 25 C 15.125 26.585938 16.414062 27.875 18 27.875 C 19.585938 27.875 20.875 26.585938 20.875 25 C 20.875 23.414062 19.585938 22.125 18 22.125 Z M 15.269531 11.789062 L 15.734375 20.289062 C 15.753906 20.6875 16.085938 21 16.484375 21 L 19.515625 21 C 19.914062 21 20.246094 20.6875 20.265625 20.289062 L 20.730469 11.789062 C 20.753906 11.359375 20.410156 11 19.980469 11 L 16.019531 11 C 15.589844 11 15.246094 11.359375 15.269531 11.789062 Z M 15.269531 11.789062 "/>
</svg>
