<!-- Generated by IcoMoon.io -->
<svg version="1.1" xmlns="http://www.w3.org/2000/svg" width="32" height="32" viewBox="0 0 32 32">
<title>gears</title>
<path d="M17.6 21.488c-0.137 0.543-0.62 0.938-1.196 0.938-0.089 0-0.176-0.009-0.26-0.027l0.008 0.001c-0.248 0-0.632-0.040-0.728 0.096-0.211 0.331-0.385 0.714-0.504 1.12l-0.008 0.032c0 0.064 0.096 0.192 0.168 0.272 0.192 0.2 0.392 0.392 0.584 0.592 0.201 0.175 0.328 0.432 0.328 0.719 0 0.251-0.097 0.48-0.256 0.65l0.001-0.001c-0.468 0.532-0.952 1.018-1.463 1.473l-0.017 0.015c-0.171 0.159-0.4 0.256-0.653 0.256-0.284 0-0.539-0.123-0.715-0.319l-0.001-0.001-0.088-0.104c-0.8-0.8-0.8-0.8-1.792-0.232-0.111 0.075-0.19 0.19-0.216 0.325l-0.001 0.003c-0.008 0.103-0.013 0.223-0.013 0.344s0.005 0.241 0.014 0.36l-0.001-0.016c0 0.84-0.312 1.208-1.152 1.248-0.278 0.024-0.601 0.038-0.928 0.038s-0.65-0.014-0.97-0.041l0.042 0.003c-0.51-0.009-0.921-0.424-0.921-0.936 0-0.045 0.003-0.090 0.009-0.133l-0.001 0.005c0-1.12 0-1.128-1.080-1.52-0.039-0.011-0.084-0.017-0.13-0.017-0.107 0-0.206 0.033-0.288 0.090l0.002-0.001c-0.232 0.176-0.416 0.416-0.632 0.608-0.176 0.201-0.432 0.328-0.719 0.328-0.251 0-0.48-0.097-0.65-0.256l0.001 0c-0.532-0.468-1.018-0.952-1.473-1.463l-0.015-0.017c-0.159-0.171-0.256-0.4-0.256-0.653 0-0.284 0.123-0.539 0.319-0.715l0.001-0.001 0.104-0.104c0.8-0.8 0.8-0.8 0.232-1.8-0.072-0.127-0.195-0.219-0.341-0.247l-0.003-0.001c-0.103-0.008-0.223-0.013-0.344-0.013s-0.241 0.005-0.36 0.014l0.016-0.001c-0.8 0-1.2-0.312-1.248-1.152-0.020-0.256-0.031-0.555-0.031-0.856s0.011-0.6 0.033-0.895l-0.002 0.039c0.064-0.76 0.424-1.048 1.192-1.056 1.024 0 1.232-0.16 1.456-1.168 0.001-0.009 0.001-0.020 0.001-0.030 0-0.114-0.043-0.219-0.113-0.298l0 0c-0.208-0.232-0.44-0.432-0.648-0.664-0.18-0.172-0.291-0.414-0.291-0.682 0-0.235 0.086-0.45 0.228-0.615l-0.001 0.001c0.491-0.554 0.998-1.061 1.534-1.536l0.018-0.016c0.163-0.139 0.377-0.223 0.61-0.223 0.266 0 0.506 0.11 0.678 0.287l0.136 0.136c0.8 0.8 0.8 0.8 1.8 0.232 0.107-0.080 0.183-0.198 0.207-0.333l0-0.003c0.014-0.081 0.023-0.173 0.023-0.268s-0.008-0.187-0.024-0.278l0.001 0.010c-0.019-0.080-0.030-0.172-0.030-0.266 0-0.558 0.384-1.027 0.902-1.156l0.008-0.002h2.152c0.526 0.131 0.91 0.6 0.91 1.158 0 0.094-0.011 0.186-0.032 0.274l0.002-0.008c-0.014 0.081-0.023 0.173-0.023 0.268s0.008 0.187 0.024 0.278l-0.001-0.010c0.027 0.135 0.102 0.25 0.207 0.327l0.001 0.001c1.064 0.504 1.064 0.504 1.864-0.248l0.104-0.104c0.177-0.197 0.432-0.32 0.715-0.32 0.252 0 0.482 0.097 0.653 0.256l-0.001-0.001c0.521 0.458 0.997 0.931 1.442 1.431l0.014 0.017c0.173 0.176 0.279 0.417 0.279 0.684 0 0.304-0.139 0.576-0.358 0.755l-0.002 0.001c-0.192 0.2-0.392 0.392-0.584 0.592-0.064 0.064-0.16 0.184-0.136 0.24 0.13 0.438 0.304 0.821 0.524 1.172l-0.012-0.020c0.104 0.136 0.488 0.12 0.728 0.096 0.075-0.016 0.16-0.025 0.248-0.025 0.566 0 1.042 0.384 1.182 0.905l0.002 0.009zM15.2 15.6c-0.070-0.115-0.142-0.215-0.219-0.308l0.003 0.004c-0.312-0.328-0.648-0.648-0.96-0.984s-0.52-0.288-0.8 0c-0.904 0.944-0.92 0.936-2.104 0.448l-0.36-0.144c-0.449-0.108-0.777-0.506-0.777-0.981 0-0.012 0-0.024 0.001-0.037l-0 0.002c0-1.232 0-1.232-1.256-1.224h-0.048c-1.048 0-1.048 0-1.048 1.040 0 0.8-0.192 0.944-0.848 1.304-0.288 0.22-0.652 0.352-1.048 0.352-0.634 0-1.189-0.34-1.492-0.848l-0.004-0.008c-0.068-0.039-0.149-0.062-0.236-0.062s-0.168 0.023-0.238 0.063l0.002-0.001c-0.423 0.368-0.807 0.749-1.165 1.155l-0.011 0.013c-0.038 0.068-0.061 0.149-0.061 0.236s0.023 0.168 0.062 0.238l-0.001-0.002c1.056 0.744 1.040 1.6 0.464 2.672-0.184 0.4-0.581 0.673-1.042 0.673-0.013 0-0.026-0-0.040-0.001l0.002 0c-1.216 0-1.216 0.048-1.176 1.304 0 0.048 0 0.096 0 0.144 0 0.952 0 0.952 0.928 0.952s0.984 0.16 1.424 0.952c0.21 0.268 0.337 0.611 0.337 0.983 0 0.612-0.344 1.144-0.849 1.413l-0.009 0.004c-0.208 0.152-0.256 0.328-0.056 0.528 0.392 0.392 0.8 0.8 1.184 1.16 0.067 0.038 0.147 0.060 0.232 0.060s0.165-0.022 0.234-0.061l-0.002 0.001c0.295-0.524 0.848-0.872 1.482-0.872 0.418 0 0.801 0.151 1.096 0.402l-0.002-0.002c0.038 0.021 0.083 0.040 0.13 0.054l0.006 0.002c0.407 0.13 0.696 0.505 0.696 0.947 0 0.010-0 0.020-0 0.031l0-0.002c0 1.272 0 1.272 1.328 1.248 1.024 0 1.024 0 1.024-1.016 0-0.84 0.176-0.944 0.92-1.352 0.274-0.207 0.621-0.331 0.996-0.331 0.62 0 1.161 0.34 1.448 0.843l0.004 0.008c0.053 0.092 0.152 0.153 0.264 0.153s0.211-0.061 0.263-0.152l0.001-0.001 1.144-1.144c0.176-0.176 0.224-0.36 0-0.528-0.523-0.285-0.873-0.831-0.873-1.459 0-0.405 0.145-0.776 0.387-1.064l-0.002 0.003c0.015-0.025 0.028-0.054 0.039-0.084l0.001-0.004c0.090-0.463 0.492-0.808 0.975-0.808 0.046 0 0.090 0.003 0.134 0.009l-0.005-0.001c1.192 0 1.192 0 1.184-1.2 0-0.064 0-0.128 0-0.192-0.064-0.928-0.064-0.928-1-0.928s-0.976-0.168-1.392-0.928c-0.203-0.27-0.325-0.61-0.325-0.979 0-0.604 0.327-1.132 0.813-1.416l0.008-0.004c0.087-0.080 0.163-0.169 0.229-0.267l0.003-0.005z"></path>
<path d="M8.8 23.744c-1.824-0.018-3.296-1.501-3.296-3.328 0-1.838 1.49-3.328 3.328-3.328s3.328 1.49 3.328 3.328c0 0.011-0 0.022-0 0.034v-0.002c-0.004 1.822-1.482 3.296-3.304 3.296-0.020 0-0.039-0-0.059-0l0.003 0zM8.8 22.944c0.002 0 0.005 0 0.008 0 1.409 0 2.552-1.143 2.552-2.552s-1.143-2.552-2.552-2.552c-1.404 0-2.543 1.133-2.552 2.535v0.001c0 0 0 0 0 0 0 1.413 1.134 2.561 2.542 2.584l0.002 0z"></path>
<path d="M32 12.672c-0.129 0.553-0.618 0.958-1.201 0.958-0.096 0-0.189-0.011-0.279-0.032l0.008 0.002c-0.248 0-0.632-0.040-0.728 0.096-0.211 0.331-0.385 0.714-0.504 1.12l-0.008 0.032c0 0.064 0.096 0.192 0.168 0.272 0.192 0.2 0.392 0.392 0.584 0.592 0.201 0.175 0.328 0.432 0.328 0.719 0 0.251-0.097 0.48-0.256 0.65l0-0.001c-0.468 0.532-0.952 1.018-1.463 1.473l-0.017 0.015c-0.171 0.159-0.4 0.256-0.653 0.256-0.284 0-0.539-0.123-0.715-0.319l-0.001-0.001-0.104-0.104c-0.8-0.8-0.8-0.8-1.792-0.232-0.111 0.075-0.19 0.19-0.215 0.325l-0 0.003c-0.008 0.103-0.013 0.223-0.013 0.344s0.005 0.241 0.014 0.36l-0.001-0.016c0 0.84-0.312 1.208-1.152 1.248-0.278 0.024-0.601 0.038-0.928 0.038s-0.65-0.014-0.97-0.041l0.042 0.003c-0.51-0.009-0.921-0.424-0.921-0.936 0-0.045 0.003-0.090 0.009-0.133l-0.001 0.005c0-1.12 0-1.128-1.080-1.52-0.039-0.011-0.084-0.017-0.13-0.017-0.107 0-0.206 0.033-0.288 0.090l0.002-0.001c-0.232 0.176-0.416 0.416-0.632 0.608-0.175 0.201-0.432 0.328-0.719 0.328-0.251 0-0.48-0.097-0.65-0.256l0.001 0c-0.532-0.468-1.018-0.952-1.473-1.463l-0.015-0.017c-0.159-0.171-0.256-0.4-0.256-0.653 0-0.284 0.123-0.539 0.319-0.715l0.001-0.001 0.104-0.104c0.8-0.8 0.8-0.8 0.232-1.8-0.069-0.124-0.186-0.214-0.325-0.247l-0.003-0.001c-0.103-0.008-0.223-0.013-0.344-0.013s-0.241 0.005-0.36 0.014l0.016-0.001c-0.8 0-1.2-0.312-1.248-1.152-0.020-0.256-0.031-0.555-0.031-0.856s0.011-0.6 0.033-0.895l-0.002 0.039c0.064-0.76 0.424-1.048 1.192-1.056 1.024 0 1.232-0.16 1.456-1.168 0.001-0.009 0.001-0.020 0.001-0.030 0-0.114-0.043-0.219-0.113-0.298l0 0c-0.208-0.232-0.44-0.432-0.648-0.664-0.18-0.172-0.291-0.414-0.291-0.682 0-0.235 0.086-0.45 0.228-0.615l-0.001 0.001c0.491-0.554 0.998-1.061 1.534-1.536l0.018-0.016c0.163-0.139 0.377-0.223 0.61-0.223 0.266 0 0.506 0.11 0.678 0.287l0 0 0.152 0.064c0.8 0.8 0.8 0.8 1.8 0.232 0.107-0.080 0.183-0.198 0.207-0.333l0-0.003c0.014-0.081 0.023-0.173 0.023-0.268s-0.008-0.187-0.024-0.278l0.001 0.010c-0.019-0.080-0.030-0.172-0.030-0.266 0-0.558 0.384-1.027 0.902-1.156l0.008-0.002h2.152c0.526 0.131 0.91 0.6 0.91 1.158 0 0.094-0.011 0.186-0.032 0.274l0.002-0.008c-0.014 0.081-0.023 0.173-0.023 0.268s0.008 0.187 0.024 0.278l-0.001-0.010c0.027 0.135 0.102 0.25 0.207 0.327l0.001 0.001c1.024 0.576 1.072 0.576 1.832-0.224l0.104-0.104c0.177-0.197 0.432-0.32 0.715-0.32 0.252 0 0.482 0.097 0.653 0.256l-0.001-0.001c0.516 0.465 0.989 0.948 1.431 1.459l0.017 0.021c0.173 0.176 0.279 0.417 0.279 0.684 0 0.304-0.139 0.576-0.358 0.755l-0.002 0.001c-0.192 0.2-0.392 0.392-0.584 0.592-0.064 0.064-0.16 0.184-0.136 0.24 0.13 0.438 0.304 0.821 0.524 1.172l-0.012-0.020c0.104 0.136 0.488 0.12 0.728 0.096 0.088-0.023 0.189-0.036 0.293-0.036 0.569 0 1.048 0.389 1.185 0.915l0.002 0.008zM29.6 6.784c-0.070-0.115-0.142-0.215-0.219-0.308l0.003 0.004c-0.312-0.328-0.648-0.648-0.96-0.984s-0.52-0.288-0.8 0c-0.904 0.944-0.92 0.936-2.104 0.448l-0.36-0.144c-0.464-0.096-0.808-0.502-0.808-0.988 0-0.004 0-0.008 0-0.013v0.001c0-1.232 0-1.232-1.256-1.224h-0.048c-1.048 0-1.048 0-1.048 1.040 0 0.8-0.192 0.944-0.848 1.304-0.288 0.22-0.652 0.352-1.048 0.352-0.634 0-1.189-0.34-1.492-0.848l-0.004-0.008c-0.068-0.039-0.149-0.062-0.236-0.062s-0.168 0.023-0.238 0.063l0.002-0.001c-0.423 0.368-0.807 0.749-1.165 1.155l-0.012 0.013c-0.038 0.068-0.061 0.149-0.061 0.236s0.023 0.168 0.062 0.238l-0.001-0.002c1.056 0.744 1.040 1.6 0.464 2.672-0.167 0.438-0.584 0.744-1.072 0.744-0.003 0-0.006 0-0.009-0h0c-1.224 0-1.224 0-1.208 1.264 0 0.048 0 0.096 0 0.144 0.064 0.92 0.064 0.92 0.968 0.92s0.984 0.16 1.424 0.952c0.21 0.268 0.337 0.611 0.337 0.983 0 0.612-0.344 1.144-0.849 1.413l-0.009 0.004c-0.208 0.152-0.256 0.328-0.056 0.528 0.392 0.392 0.8 0.8 1.184 1.16 0.067 0.038 0.147 0.060 0.232 0.060s0.165-0.022 0.234-0.061l-0.002 0.001c0.295-0.524 0.848-0.872 1.482-0.872 0.418 0 0.801 0.151 1.096 0.402l-0.002-0.002c0.038 0.021 0.083 0.040 0.13 0.054l0.006 0.002c0.407 0.13 0.696 0.505 0.696 0.947 0 0.010-0 0.020-0 0.031l0-0.002c0 1.272 0 1.272 1.328 1.248 1.024 0 1.024 0 1.024-1.016 0-0.84 0.176-0.944 0.92-1.352 0.274-0.207 0.621-0.331 0.996-0.331 0.62 0 1.161 0.34 1.448 0.843l0.004 0.008c0.053 0.092 0.152 0.153 0.264 0.153s0.211-0.061 0.263-0.152l0.001-0.001 1.144-1.144c0.176-0.176 0.224-0.36 0-0.528-0.535-0.282-0.894-0.834-0.894-1.47 0-0.403 0.144-0.773 0.384-1.060l-0.002 0.003c0.015-0.025 0.028-0.054 0.039-0.084l0.001-0.004c0.090-0.463 0.492-0.808 0.975-0.808 0.046 0 0.090 0.003 0.134 0.009l-0.005-0.001c1.168 0.088 1.168 0.088 1.168-1.136 0-0.064 0-0.128 0-0.192 0-0.984 0-0.984-0.968-0.984s-0.976-0.168-1.392-0.928c-0.203-0.27-0.325-0.61-0.325-0.979 0-0.604 0.327-1.132 0.813-1.416l0.008-0.004c0.1-0.084 0.187-0.179 0.261-0.283l0.003-0.005z"></path>
<path d="M23.152 14.928c-1.824-0.018-3.296-1.501-3.296-3.328 0-1.838 1.49-3.328 3.328-3.328s3.328 1.49 3.328 3.328c0 0.011-0 0.022-0 0.034v-0.002c-0.004 1.822-1.482 3.296-3.304 3.296-0.020 0-0.039-0-0.059-0.001l0.003 0zM23.152 14.128c0.002 0 0.005 0 0.008 0 1.409 0 2.552-1.143 2.552-2.552s-1.143-2.552-2.552-2.552c-1.404 0-2.543 1.133-2.552 2.535v0.001c0 0 0 0 0 0 0 1.427 1.157 2.584 2.584 2.584 0.003 0 0.006 0 0.008 0h-0z"></path>
</svg>
