<!-- Generated by IcoMoon.io -->
<svg version="1.1" xmlns="http://www.w3.org/2000/svg" width="32" height="32" viewBox="0 0 32 32">
<title>globe</title>
<path d="M32 16c0-8.837-7.163-16-16-16s-16 7.163-16 16c0 8.837 7.163 16 16 16v0c8.837 0 16-7.163 16-16v0zM13.224 31.008c-0.413-0.074-0.723-0.43-0.723-0.859 0-0.096 0.016-0.189 0.044-0.275l-0.002 0.006c0.067-0.171 0.136-0.387 0.192-0.609l0.008-0.039c0.009-0.084 0.015-0.181 0.015-0.28s-0.005-0.196-0.016-0.292l0.001 0.012c0.363-0.262 0.681-0.524 0.982-0.805l-0.006 0.005c1.131-1.146 2.070-2.484 2.763-3.961l0.037-0.087c0.376-0.8 0.304-0.984-0.584-1.216-1.056-0.272-2.136-0.472-3.24-0.704 0 0 0 0 0-0.048 0.152-0.856-0.232-1.28-1.040-1.6-0.92-0.388-1.695-0.792-2.434-1.251l0.074 0.043c-0.183-0.115-0.406-0.183-0.644-0.183s-0.461 0.068-0.649 0.186l0.005-0.003c-0.208 0.12-0.408 0.28-0.656 0.456l-0.216-0.504-1.832 0.52c0.8 0.512 1 0.36 0.728 1.728-0.029 0.166-0.046 0.357-0.046 0.551 0 1.078 0.514 2.036 1.31 2.643l0.008 0.006c0.248 0.251 0.536 0.462 0.853 0.623l0.019 0.009c0.776 0.329 1.312 1.081 1.32 1.959v0.001c0.080 0.888 0.12 1.776 0.176 2.68-4.696-1.808-8.704-7.408-8.72-13.104l3.568 2.816c0.011-0.085 0.018-0.184 0.018-0.284 0-0.6-0.235-1.146-0.619-1.549l0.001 0.001c-0.274-0.311-0.514-0.663-0.707-1.043l-0.013-0.029c-0.052-0.084-0.125-0.15-0.213-0.191l-0.003-0.001c-0.607-0.237-1.029-0.816-1.029-1.495 0-0.091 0.008-0.18 0.022-0.267l-0.001 0.009c0.048-0.185 0.156-0.34 0.302-0.446l0.002-0.002c0.247-0.086 0.531-0.135 0.827-0.135 0.381 0 0.743 0.082 1.070 0.23l-0.016-0.007c0.264 0.216 0.512 0.448 0.8 0.704 0.584-2.4 1.6-4.368 4.2-5.288l-0.256 0.568 0.080 0.104 0.96-0.448-0.752-0.96c0.352-0.16 0.648-0.32 0.96-0.448s0.856-0.296 1.264-0.488c0.16-0.080 0.256-0.288 0.456-0.512l-0.576-0.168c-0.376-0.888-1.192-1.040-1.992-1.272 0-0.080 0-0.216-0.064-0.288-0.224-0.264-0.44-0.64-0.72-0.704-0.33 0.018-0.618 0.186-0.798 0.437l-0.002 0.003c-0.262 0.428-0.53 0.937-0.765 1.464l-0.035 0.088c-0.184 0.344-0.384 0.672-0.576 1.008h-0.16c-0.082-0.432-0.207-0.815-0.373-1.175l0.013 0.031c-0.23-0.306-0.494-0.57-0.79-0.793l-0.010-0.007c0.447-0.955 1.151-1.726 2.024-2.243l0.024-0.013c0.507-0.33 0.949-0.672 1.36-1.047l-0.008 0.007c0.368-0.304 0.64-0.224 0.88 0.152 0.152 0.24 0.32 0.464 0.52 0.744l-1.448 0.32 1.688 1.024v-0.4l0.424 0.080v-0.704l0.848-0.384-0.64-0.6 0.168-0.336-0.8-0.744c0.68-0.224 1.256-0.448 1.848-0.6 0.024-0.003 0.053-0.005 0.081-0.005 0.196 0 0.373 0.078 0.503 0.205l-0-0c0.44 0.464 0.8 0.968 1.232 1.456l-0.736 0.664c0.256 0.36 0.488 0.68 0.704 1 0.136 0.2 0.232 0.44 0.392 0.624 0.344 0.408 0.648 0.376 0.92-0.088 0.576-1.157 1.571-2.032 2.782-2.438l0.034-0.010-0.472-0.12 0.92-0.328-0.568-0.416 0.632-0.216-0.44-0.8c0.272 0 0.552 0.064 0.8 0.112 1.985 0.358 3.755 1.062 5.325 2.052l-0.061-0.036c0.512 0.32 0.52 0.88 0.664 1.368 0 0.136-0.264 0.368-0.416 0.576 0.12 0.264 0.24 0.576 0.4 0.856 0.304 0.52 0.552 0.224 0.8-0.064l0.992 0.984 0.208-0.104-0.464-1.808c0.721 0.295 1.22 0.991 1.22 1.804 0 0.097-0.007 0.193-0.021 0.287l0.001-0.011c-0.088 0.544-0.24 0.632-0.704 0.352-0.187-0.116-0.349-0.24-0.498-0.378l0.002 0.002c-0.122-0.123-0.237-0.253-0.345-0.39l-0.007-0.010c-0.215 0.544-0.44 1.002-0.698 1.439l0.026-0.047c-0.304 0.425-0.676 0.779-1.104 1.054l-0.016 0.010s0 0.072 0 0.104c0.048 0.248 0.104 0.496 0.152 0.736-0.252 0.080-0.544 0.134-0.846 0.152l-0.010 0c-0.4 0-0.8-0.176-1.048 0.296-0.168 0.239-0.268 0.537-0.268 0.857 0 0.273 0.073 0.529 0.2 0.75l-0.004-0.007c0.166 0.183 0.405 0.297 0.67 0.297 0.046 0 0.091-0.003 0.135-0.010l-0.005 0.001c0.572-0.226 1.065-0.495 1.519-0.815l-0.023 0.015c0.384-0.24 0.712-0.568 1.096-0.8 0.214-0.176 0.491-0.282 0.793-0.282 0.445 0 0.837 0.232 1.060 0.581l0.003 0.005c0.211 0.3 0.418 0.56 0.64 0.809l-0.008-0.009c0.128 0.12 0.376 0.104 0.568 0.152 0-0.192 0.048-0.416 0-0.56-0.237-0.324-0.473-0.608-0.725-0.877l0.005 0.005c-0.199-0.196-0.356-0.434-0.459-0.698l-0.005-0.014c1 0.384 1.384 1.36 2.072 2.168l-0.064-0.568 0.096 0.056 0.592-0.92c-0.052 0.199-0.081 0.427-0.081 0.663 0 0.029 0 0.057 0.001 0.086l-0-0.004c0.081 0.424 0.2 0.799 0.357 1.154l-0.013-0.034c0.196 0.395 0.382 0.72 0.585 1.033l-0.025-0.041c-0.664 0.216-1.192 0.4-1.728 0.552-0.071 0.028-0.154 0.044-0.24 0.044s-0.169-0.016-0.245-0.046l0.005 0.002c-0.317-0.172-0.583-0.397-0.796-0.667l-0.004-0.005c-0.752-1.072-0.904-1.192-2.2-0.832-2.4 0.664-3.592 2.448-4.080 4.8-0.4 1.88-0.168 2.896 2.344 3.528 0.587 0.139 1.261 0.218 1.953 0.218 0.064 0 0.128-0.001 0.192-0.002l-0.010 0c0.52 0 0.72 0.208 0.664 0.664-0.092 0.932-0.239 1.77-0.442 2.587l0.026-0.123c-0.421 1.728-1.105 3.248-2.016 4.603l0.032-0.051c-0.161 0.254-0.367 0.465-0.608 0.627l-0.008 0.005c-2.211 1.368-4.893 2.179-7.764 2.179-0.995 0-1.966-0.097-2.907-0.283l0.095 0.016z"></path>
</svg>
