<!-- Generated by IcoMoon.io -->
<svg version="1.1" xmlns="http://www.w3.org/2000/svg" width="32" height="32" viewBox="0 0 32 32">
<title>home</title>
<path d="M31.448 13.688c-1.328-1.328-3.088-2.952-4.888-4.672v-6.672c0-0.181-0.147-0.328-0.328-0.328v0h-5.048c-0.181 0-0.328 0.147-0.328 0.328v0 2l-4.4-4.192c-0.095-0.092-0.225-0.149-0.368-0.149s-0.273 0.057-0.368 0.149l0-0c-1.848 1.76-10.344 9.688-14.744 14.088-0.976 0.96-1.24 2.2-0.696 2.8 0.275 0.281 0.658 0.455 1.081 0.455 0.487 0 0.92-0.23 1.196-0.587l0.003-0.003c0.696-0.704 0.912-0.904 1.792-1.704 0 3.416 0 11.784 0 15.856 0 0 0 0 0 0 0 0.516 0.414 0.935 0.927 0.944h7.257c0.526 0 0.952-0.426 0.952-0.952v0-8.32c0-0 0-0 0-0 0-0.212 0.172-0.384 0.384-0.384 0.003 0 0.006 0 0.008 0h4.432c0.002-0 0.005-0 0.008-0 0.212 0 0.384 0.172 0.384 0.384 0 0 0 0 0 0v0 8.32c0 0.526 0.426 0.952 0.952 0.952h7.248c0.526 0 0.952-0.426 0.952-0.952v0-16.648l1.904 1.816c0.512 0.488 1.6 0.12 1.936-0.2 0.184-0.285 0.293-0.634 0.293-1.008 0-0.514-0.207-0.981-0.541-1.32l0 0zM22.968 5.536v-1.104c0-0.181 0.147-0.328 0.328-0.328h0.8c0.181 0 0.328 0.147 0.328 0.328v0 2.528c-1.040-0.992-0.504-0.416-1.488-1.352 0.024-0.008 0.032-0.008 0.032-0.072zM24.976 27.864c0 0.528-0.424 1.232-0.952 1.232h-1.496c-0.528 0-0.96-0.712-0.96-1.24v-8c0-0.002 0-0.005 0-0.008 0-0.225-0.183-0.408-0.408-0.408-0 0-0 0-0 0h-10.152c-0 0-0 0-0 0-0.225 0-0.408 0.183-0.408 0.408 0 0.003 0 0.006 0 0.008v-0 7.912c0 0.528-0.424 1.312-0.952 1.312h-1.48c-0.528 0-0.952-0.8-0.952-1.304-0.016-3.248-0.016-13.688-0.016-15.376 3.944-3.768 6.952-6.568 8.424-8 0.125-0.119 0.294-0.192 0.48-0.192s0.355 0.073 0.48 0.192l-0-0c1.464 1.4 4.448 4.184 8.408 8-0.016 1.712-0.016 12.216-0.016 15.464z"></path>
</svg>
