<!-- Generated by IcoMoon.io -->
<svg version="1.1" xmlns="http://www.w3.org/2000/svg" width="32" height="32" viewBox="0 0 32 32">
<title>home-filled</title>
<path d="M25.32 4.416c0-0.186-0.15-0.336-0.336-0.336v0h-2.4c-0.186 0-0.336 0.15-0.336 0.336v0c0 0.8 0 1 0 1.928 0 0 0 0.048 0 0.072l3.12 2.984c-0.048-1.72-0.048-4.408-0.048-4.984z"></path>
<path d="M15.52 2.816l-10.192 9.728c0 1.728 0 12.536 0 15.856 0 0.535 0.433 0.968 0.968 0.968v0h4.712c0.005 0 0.010 0 0.016 0 0.539 0 0.976-0.437 0.976-0.976 0-0 0-0 0-0v0-7.2c0-0.23 0.186-0.416 0.416-0.416v0h7.16c0.23 0 0.416 0.186 0.416 0.416v0 7.2c0 0.539 0.437 0.976 0.976 0.976v0h4.728c0.002 0 0.005 0 0.008 0 0.535 0 0.968-0.433 0.968-0.968 0 0 0-0 0-0v0c0-3.32 0-14.12 0-15.864l-10.176-9.72c-0.126-0.122-0.298-0.197-0.488-0.197s-0.362 0.075-0.488 0.197l0-0z"></path>
</svg>
