<!-- Generated by IcoMoon.io -->
<svg version="1.1" xmlns="http://www.w3.org/2000/svg" width="32" height="32" viewBox="0 0 32 32">
<title>left-arrow-filled</title>
<path d="M11.008 7.2c-0.301-0.301-0.717-0.487-1.176-0.487s-0.875 0.186-1.176 0.487v0l-8.248 8.16c-0.208 0.203-0.336 0.487-0.336 0.8s0.129 0.597 0.336 0.8l0 0 7.928 7.84c0.301 0.301 0.717 0.487 1.176 0.487s0.875-0.186 1.176-0.487v0c0.301-0.301 0.487-0.717 0.487-1.176s-0.186-0.875-0.487-1.176v0l-5.088-4.624h24.664c0.919 0 1.664-0.745 1.664-1.664v0 0c0-0.919-0.745-1.664-1.664-1.664v0h-24.664l5.368-4.944c0.301-0.301 0.487-0.717 0.487-1.176s-0.186-0.875-0.487-1.176v0z"></path>
</svg>
