<!-- Generated by IcoMoon.io -->
<svg version="1.1" xmlns="http://www.w3.org/2000/svg" width="32" height="32" viewBox="0 0 32 32">
<title>left-arrow</title>
<path d="M1.952 15.312h28.096c0.6 0 1.952-0.064 1.952 0.648v0c0 0.8-1.064 0.616-1.864 0.648h-28.312c0.096 0.104 4.28 4.8 6.488 7.032 0.528 0.528 2.184 1.872 1.688 2.4s-0.8 0-1.456-0.672l-2.344-2.376-5.448-5.44c-0.414-0.341-0.692-0.833-0.751-1.391l-0.001-0.009c-0.003-0.036-0.004-0.078-0.004-0.121 0-0.518 0.216-0.986 0.563-1.318l0.001-0.001 3.104-3.112 5.064-5.064c0.672-0.672 0.952-0.872 1.256-0.568 0.464 0.464-0.256 1.152-1.080 2.040-1.104 1.184-0.408 0.416-1.544 1.6s-5.32 5.592-5.408 5.704z"></path>
</svg>
