<!-- Generated by IcoMoon.io -->
<svg version="1.1" xmlns="http://www.w3.org/2000/svg" width="32" height="32" viewBox="0 0 32 32">
<title>lightbulb-filled</title>
<path d="M24.32 14.208c0.595-1.1 0.945-2.408 0.945-3.797 0-0.286-0.015-0.568-0.044-0.846l0.003 0.035c-0.536-4.96-5.976-8.952-10.824-8-5.408 1.096-8.896 7.2-6.792 12.224 0.392 0.952 0.944 1.84 1.432 2.744 0.176 0.336 0.4 0.648 0.592 0.968 1.052 1.592 1.777 3.491 2.033 5.535l0.007 0.065c0.12 0 8.248 0 8.752 0 0.216 0 0.288-0.056 0.288-0.272s0.040-0.968 0.080-1.184c0.298-1.375 0.793-2.592 1.462-3.693l-0.030 0.053c0.696-1.24 1.432-2.528 2.096-3.832zM20.464 7.28c-0.36 0.192-0.96-0.304-1.272-0.608-0.54-0.53-1.211-0.929-1.959-1.144l-0.033-0.008c-0.367-0.093-0.789-0.146-1.223-0.146-1.759 0-3.313 0.873-4.254 2.209l-0.011 0.016c-0.419 0.748-0.666 1.641-0.666 2.592 0 1.298 0.46 2.488 1.226 3.417l-0.007-0.009c0.24 0.256 0.592 0.68 0.544 1.048s-0.152 0.44-0.344 0.52c-0.095 0.038-0.205 0.061-0.321 0.061-0.26 0-0.493-0.113-0.655-0.292l-0.001-0.001c-0.947-0.937-1.592-2.176-1.78-3.56l-0.004-0.032c-0.043-0.276-0.067-0.594-0.067-0.918 0-3.023 2.119-5.55 4.953-6.178l0.042-0.008c0.317-0.065 0.71-0.122 1.11-0.157l0.042-0.003c0.058-0.002 0.127-0.003 0.195-0.003 1.731 0 3.302 0.688 4.454 1.805l-0.002-0.002c0.156 0.159 0.271 0.36 0.326 0.583l0.002 0.009c0.088 0.368 0.040 0.624-0.296 0.808z"></path>
<path d="M21.88 23.296c-0-0.010-0-0.022-0-0.035 0-0.553 0.049-1.095 0.144-1.621l-0.008 0.055c0.291-1.126 0.722-2.114 1.282-3.013l-0.026 0.045c0.712-1.296 1.464-2.584 2.12-3.904 0.673-1.278 1.068-2.793 1.068-4.4 0-0.56-0.048-1.108-0.14-1.641l0.008 0.057c-0.86-4.987-5.152-8.732-10.32-8.732-5.779 0-10.464 4.685-10.464 10.464 0 0.612 0.053 1.211 0.153 1.794l-0.009-0.062c0.339 1.635 0.932 3.085 1.744 4.384l-0.032-0.056c0.688 1.184 1.416 2.344 2.096 3.536 0.505 0.834 0.804 1.841 0.804 2.918 0 0.079-0.002 0.158-0.005 0.237l0-0.011c0 0.736 0.352 1.096 1.088 1.096h9.36c0.8 0.040 1.12-0.296 1.136-1.112zM20.712 22.864c0 0.216-0.072 0.28-0.288 0.272-0.512 0-8.632 0-8.752 0-0.263-2.109-0.988-4.008-2.071-5.649l0.031 0.049c-0.2-0.32-0.416-0.632-0.592-0.968-0.488-0.912-1.040-1.8-1.432-2.744-2.104-5.024 1.384-11.128 6.792-12.224 4.848-0.952 10.288 3.040 10.824 8 0.027 0.247 0.042 0.534 0.042 0.824 0 1.391-0.35 2.699-0.967 3.843l0.021-0.043c-0.656 1.296-1.392 2.552-2.096 3.832-0.635 1.043-1.127 2.255-1.41 3.545l-0.014 0.079c-0.048 0.216-0.088 0.968-0.088 1.184z"></path>
<path d="M21.176 27.912c0-0.472-0.264-0.624-0.728-0.728-0.058-0.006-0.124-0.010-0.192-0.010s-0.134 0.004-0.2 0.011l0.008-0.001h-8.216c-0.528 0.040-0.896 0.208-0.864 0.736s0.432 0.6 0.984 0.6h5.896c0.8 0 1.6 0 2.4 0 0.488-0.032 0.88-0.136 0.912-0.608z"></path>
<path d="M16.256 31.92c0.8 0 1.6 0 2.4 0 0.496 0 0.88-0.112 0.92-0.584s-0.264-0.624-0.728-0.728c-0.058-0.006-0.124-0.010-0.192-0.010s-0.134 0.004-0.2 0.011l0.008-0.001h-5.024c-0.528 0.040-0.904 0.208-0.864 0.736s0.432 0.6 0.984 0.6h2.696z"></path>
</svg>
