<!-- Generated by IcoMoon.io -->
<svg version="1.1" xmlns="http://www.w3.org/2000/svg" width="32" height="32" viewBox="0 0 32 32">
<title>lightbulb</title>
<path d="M16.080 24.376h-4.704c-0.736 0-1.128-0.36-1.088-1.096 0.003-0.067 0.004-0.146 0.004-0.226 0-1.077-0.299-2.085-0.819-2.944l0.014 0.025c-0.68-1.192-1.4-2.352-2.096-3.536-0.78-1.243-1.373-2.693-1.697-4.242l-0.015-0.086c-0.092-0.522-0.145-1.123-0.145-1.736 0-5.784 4.689-10.473 10.473-10.473 5.171 0 9.466 3.747 10.319 8.675l0.009 0.062c0.084 0.476 0.132 1.025 0.132 1.584 0 1.607-0.395 3.122-1.093 4.453l0.025-0.053c-0.664 1.328-1.408 2.608-2.12 3.904-0.534 0.854-0.965 1.842-1.239 2.894l-0.017 0.074c-0.087 0.471-0.136 1.013-0.136 1.566 0 0.012 0 0.024 0 0.036v-0.002c0 0.8-0.336 1.152-1.144 1.152zM11.672 23.056c0.12 0 8.248 0 8.752 0 0.216 0 0.288-0.056 0.288-0.272s0.040-0.968 0.080-1.184c0.298-1.375 0.793-2.592 1.462-3.693l-0.030 0.053c0.704-1.28 1.44-2.536 2.096-3.832 0.596-1.101 0.946-2.409 0.946-3.8 0-0.29-0.015-0.577-0.045-0.859l0.003 0.035c-0.536-4.944-5.976-8.928-10.824-7.96-5.408 1.072-8.896 7.144-6.792 12.208 0.392 0.952 0.944 1.84 1.432 2.744 0.176 0.336 0.4 0.648 0.592 0.968 1.051 1.59 1.776 3.486 2.033 5.527l0.007 0.065z"></path>
<path d="M16.072 28.416h-4.072c-0.552 0-0.952-0.096-0.984-0.6s0.336-0.696 0.864-0.736h8.184c0.058-0.006 0.124-0.010 0.192-0.010s0.134 0.004 0.2 0.011l-0.008-0.001c0.464 0.096 0.8 0.248 0.728 0.728s-0.424 0.576-0.92 0.584c-0.8 0-1.6 0-2.4 0z"></path>
<path d="M14.472 31.848h-0.912c-0.552 0-0.952-0.096-0.984-0.6s0.336-0.696 0.864-0.736h5.024c0.058-0.006 0.124-0.010 0.192-0.010s0.134 0.004 0.2 0.011l-0.008-0.001c0.464 0.096 0.8 0.248 0.728 0.728s-0.424 0.576-0.92 0.584c-0.8 0-1.6 0-2.4 0z"></path>
<path d="M15.776 4c0.058-0.002 0.127-0.003 0.195-0.003 1.731 0 3.302 0.688 4.454 1.805l-0.002-0.002c0.156 0.159 0.271 0.36 0.326 0.583l0.002 0.009c0.088 0.384 0.056 0.64-0.288 0.8s-0.96-0.304-1.272-0.608c-0.54-0.53-1.211-0.929-1.959-1.144l-0.033-0.008c-0.367-0.093-0.789-0.146-1.223-0.146-1.759 0-3.313 0.873-4.254 2.209l-0.011 0.016c-0.414 0.744-0.658 1.633-0.658 2.578 0 1.293 0.457 2.48 1.218 3.408l-0.008-0.009c0.24 0.256 0.592 0.68 0.544 1.048s-0.152 0.44-0.344 0.52c-0.095 0.038-0.205 0.061-0.321 0.061-0.26 0-0.493-0.113-0.655-0.292l-0.001-0.001c-0.947-0.937-1.592-2.176-1.78-3.56l-0.004-0.032c-0.043-0.276-0.067-0.594-0.067-0.918 0-3.023 2.119-5.55 4.953-6.178l0.042-0.008c0.321-0.057 0.714-0.102 1.113-0.127l0.031-0.002z"></path>
</svg>
