<!-- Generated by IcoMoon.io -->
<svg version="1.1" xmlns="http://www.w3.org/2000/svg" width="32" height="32" viewBox="0 0 32 32">
<title>lock-filled</title>
<path d="M10.4 13.2c0-0.176 0-4.184 0-4.232 0-3.528 2.072-5.768 5.6-5.768s5.512 2.208 5.512 5.736v4.264h1.952v-4.56c0-3.896-3.552-7.584-7.448-7.584s-7.44 3.688-7.44 7.584c0 0.040 0 2.888 0 4.56z"></path>
<path d="M7.568 30.944h16.864c1.84 0 2.816-0.336 2.816-2.64v-11.2c0-1.784-0.552-2.64-2.816-2.64h-16.864c-2.552 0-2.816 1.168-2.816 2.64v11.2c0 1.88 0.6 2.64 2.816 2.64zM16 17.952c0.001 0 0.001 0 0.002 0 1.591 0 2.88 1.289 2.88 2.88 0 0.893-0.407 1.692-1.045 2.22l-0.005 0.004v3.12c0 1.888-3.44 1.888-3.44 0v-2.976c-0.771-0.527-1.27-1.401-1.27-2.392 0-1.589 1.283-2.878 2.869-2.888h0.001z"></path>
</svg>
