<!-- Generated by IcoMoon.io -->
<svg version="1.1" xmlns="http://www.w3.org/2000/svg" width="32" height="32" viewBox="0 0 32 32">
<title>lock</title>
<path d="M25.304 13.264h-0.6v-4.56c0-4.807-3.897-8.704-8.704-8.704s-8.704 3.897-8.704 8.704v0c0 0.056 0 2.88 0 4.56h-0.896c-2.6 0-2.928 1.808-2.928 3.032v12.912c0 1.384 0.376 3.032 2.928 3.032h18.904c2.112 0 3.2-1.232 3.2-3.032v-12.912c0.040-2.048-1.24-3.032-3.2-3.032zM10.824 13.264c0-0.048 0-4.176 0-4.224 0-2.859 2.317-5.176 5.176-5.176s5.176 2.317 5.176 5.176v0 4.232h-0.88zM8.56 8.704c0-3.904 3.544-7.584 7.44-7.584s7.448 3.68 7.448 7.584v4.56h-1.048v-4.232c0-3.535-2.865-6.4-6.4-6.4s-6.4 2.865-6.4 6.4v0c0 0.056 0 4.064 0 4.232h-1.040c0-1.672 0-4.52 0-4.56zM27.248 28.368c0 2.296-0.976 2.64-2.816 2.64h-16.864c-2.216 0-2.816-0.76-2.816-2.64v-11.2c0-1.472 0.264-2.64 2.816-2.64h16.864c2.264 0 2.816 0.856 2.816 2.64z"></path>
<path d="M16 18.024c-1.587 0.010-2.87 1.299-2.87 2.888 0 0.991 0.499 1.866 1.26 2.386l0.010 0.006v2.904c0 1.928 3.44 1.928 3.44 0v-3.12c0.616-0.531 1.003-1.313 1.003-2.184 0-1.578-1.268-2.859-2.841-2.88l-0.002-0zM17.096 22.624v2.976c0.005 0.038 0.008 0.081 0.008 0.126 0 0.548-0.444 0.992-0.992 0.992s-0.992-0.444-0.992-0.992c0-0.044 0.003-0.088 0.009-0.131l-0.001 0.005v-2.896c-0.591-0.4-0.991-1.043-1.055-1.783l-0.001-0.009c0-1.060 0.86-1.92 1.92-1.92s1.92 0.86 1.92 1.92v0c-0.055 0.675-0.357 1.27-0.815 1.703l-0.001 0.001z"></path>
</svg>
