<!-- Generated by IcoMoon.io -->
<svg version="1.1" xmlns="http://www.w3.org/2000/svg" width="32" height="32" viewBox="0 0 32 32">
<title>map-pin-filled</title>
<path d="M7.112 5.984c-1.424 2.272-1.6 7.248-0.664 9.784 1.944 5.128 5.936 10.208 9.488 14.552 1.264-1.6 3.064-4.048 4.184-5.6 2.168-2.992 4.368-5.992 5.528-9.536 1.688-5.144-0.8-13.512-9.6-13.512-4.456 0.008-7.512 2.048-8.936 4.312zM19.008 11.888c0 0.007 0 0.016 0 0.024 0 1.671-1.341 3.029-3.006 3.056l-0.003 0c-1.688-0.009-3.057-1.363-3.088-3.045l-0-0.003c0-0.002 0-0.005 0-0.008 0-1.685 1.364-3.051 3.048-3.056h0c0.014-0 0.031-0 0.048-0 1.657 0 3 1.343 3 3 0 0.011-0 0.023-0 0.034v-0.002z"></path>
</svg>
