<!-- Generated by IcoMoon.io -->
<svg version="1.1" xmlns="http://www.w3.org/2000/svg" width="32" height="32" viewBox="0 0 32 32">
<title>map-pin</title>
<path d="M16.12 0c0.010-0 0.022-0 0.033-0 1.342 0 2.635 0.208 3.849 0.593l-0.090-0.025c5.808 1.792 8.888 7.88 7.056 14.032-0.905 2.972-2.189 5.563-3.826 7.887l0.058-0.087c-2.136 3.096-4.448 6.080-6.68 9.104-0.142 0.171-0.286 0.325-0.438 0.47l-0.002 0.002c-0.088-0.048-0.176-0.064-0.224-0.112-3.662-4.087-6.857-8.713-9.428-13.712l-0.172-0.368c-1.082-1.997-1.718-4.372-1.718-6.896 0-0.284 0.008-0.567 0.024-0.847l-0.002 0.039c0.318-5.14 4.238-9.274 9.251-9.922l0.053-0.006c0.675-0.094 1.457-0.149 2.252-0.152h0.004zM16 29.936c1.264-1.6 3.064-4.048 4.184-5.6 2.168-2.992 4.368-5.992 5.528-9.536 1.688-5.144-0.8-13.512-9.6-13.512-4.448 0.008-7.496 2.048-8.912 4.312s-1.6 7.248-0.664 9.784c1.936 5.128 5.928 10.216 9.464 14.552z"></path>
<path d="M16 8.488c-1.684 0.005-3.048 1.371-3.048 3.056 0 0.003 0 0.006 0 0.008v-0c0.031 1.685 1.4 3.039 3.087 3.048h0.001c1.674-0.018 3.024-1.379 3.024-3.056 0-0.011-0-0.023-0-0.034v0.002c0-0.007 0-0.016 0-0.025 0-1.657-1.343-3-3-3-0.023 0-0.045 0-0.067 0.001l0.003-0zM16 13.528c-1.097-0.009-1.986-0.889-2.008-1.982l-0-0.002c0-0 0-0 0-0 0-1.1 0.892-1.992 1.992-1.992 0.006 0 0.011 0 0.017 0h-0.001c0.012-0 0.026-0 0.040-0 1.078 0 1.952 0.874 1.952 1.952 0 0.006-0 0.012-0 0.017v-0.001c0 0.005 0 0.011 0 0.017 0 1.083-0.865 1.965-1.942 1.991l-0.002 0z"></path>
</svg>
