<!-- Generated by IcoMoon.io -->
<svg version="1.1" xmlns="http://www.w3.org/2000/svg" width="32" height="32" viewBox="0 0 32 32">
<title>mobile</title>
<path d="M24.928 3.096c0.002-0.044 0.004-0.096 0.004-0.148 0-1.63-1.322-2.952-2.952-2.952-0.055 0-0.109 0.002-0.163 0.004l0.008-0h-11.664c-0.039-0.002-0.085-0.003-0.132-0.003-1.639 0-2.968 1.329-2.968 2.968 0 0.052 0.001 0.103 0.004 0.154l-0-0.007q0 7.264 0 14.528c0 4.8 0 6.4 0 11.2-0.006 0.070-0.009 0.151-0.009 0.233 0 1.644 1.332 2.976 2.976 2.976 0.082 0 0.163-0.003 0.244-0.010l-0.011 0.001h11.536c0.049 0.003 0.106 0.005 0.164 0.005 1.639 0 2.968-1.329 2.968-2.968 0-0.052-0.001-0.104-0.004-0.156l0 0.007c0.008-9.728 0.008-16.128 0-25.832zM8.256 5.56h15.488c0 4.656 0 13.104 0 18.704h-15.488c0-6.752 0-11.464 0-18.704zM10.128 1.304h11.76c0.015-0 0.033-0.001 0.050-0.001 0.999 0 1.808 0.809 1.808 1.808 0 0.031-0.001 0.062-0.002 0.093l0-0.004c0 0.312 0 1.192 0 1.6h-15.488c0-0.352 0-1.232 0-1.6-0.002-0.034-0.004-0.074-0.004-0.114 0-0.985 0.799-1.784 1.784-1.784 0.032 0 0.064 0.001 0.096 0.003l-0.004-0zM21.864 30.824h-11.608c-0.031 0.002-0.067 0.003-0.104 0.003-1.043 0-1.889-0.841-1.896-1.882v-0.001c0-1.152 0-2.888 0-3.928h15.488c0 1.312 0 3.080 0 3.912 0.001 0.027 0.002 0.058 0.002 0.089 0 0.999-0.809 1.808-1.808 1.808-0.023 0-0.046-0-0.070-0.001l0.003 0z"></path>
<path d="M14.296 3.672h3.416c0.232 0 0.408-0.072 0.408-0.336s-0.168-0.32-0.384-0.32h-3.448c-0.232 0-0.408 0.080-0.408 0.336s0.184 0.328 0.416 0.32z"></path>
<path d="M16.752 26.504h-1.504c-0.393 0-0.712 0.319-0.712 0.712v0 1.512c0 0.393 0.319 0.712 0.712 0.712v0h1.512c0.393 0 0.712-0.319 0.712-0.712v0-1.528c-0.009-0.386-0.324-0.696-0.712-0.696-0.003 0-0.006 0-0.009 0h0zM17.056 28.672c0 0.199-0.161 0.36-0.36 0.36h-1.392c-0.199 0-0.36-0.161-0.36-0.36v0-1.392c0-0.199 0.161-0.36 0.36-0.36h1.392c0.199 0 0.36 0.161 0.36 0.36v0z"></path>
</svg>
