<!-- Generated by IcoMoon.io -->
<svg version="1.1" xmlns="http://www.w3.org/2000/svg" width="32" height="32" viewBox="0 0 32 32">
<title>mobile-filled</title>
<path d="M23.744 3.16c0.002-0.034 0.004-0.073 0.004-0.113 0-0.999-0.809-1.808-1.808-1.808-0.018 0-0.036 0-0.054 0.001l0.003-0h-11.76c-0.027-0.002-0.059-0.002-0.092-0.002-0.985 0-1.784 0.799-1.784 1.784 0 0.040 0.001 0.080 0.004 0.12l-0-0.005c0 0.368 0 1.248 0 1.6h15.488c0-0.384 0-1.272 0-1.576zM17.712 3.616h-3.416c-0.232 0-0.416-0.064-0.424-0.32s0.176-0.336 0.408-0.336h3.448c0.216 0 0.384 0.072 0.384 0.32s-0.16 0.336-0.392 0.336z"></path>
<path d="M8.256 24.944c0 1.040 0 2.776 0 3.928 0.007 1.041 0.853 1.883 1.896 1.883 0.037 0 0.073-0.001 0.109-0.003l-0.005 0h11.616c0.022 0.001 0.048 0.002 0.075 0.002 0.999 0 1.808-0.809 1.808-1.808 0-0.034-0.001-0.068-0.003-0.102l0 0.005c0-0.8 0-2.6 0-3.912zM17.472 28.672c0 0.393-0.319 0.712-0.712 0.712v0h-1.512c-0.393 0-0.712-0.319-0.712-0.712v0-1.472c0-0.393 0.319-0.712 0.712-0.712v0h1.512c0.393 0 0.712 0.319 0.712 0.712v0z"></path>
<path d="M23.744 24.2c0-5.6 0-14.048 0-18.704h-15.488c0 7.2 0 11.952 0 18.704z"></path>
</svg>
