<!-- Generated by IcoMoon.io -->
<svg version="1.1" xmlns="http://www.w3.org/2000/svg" width="32" height="32" viewBox="0 0 32 32">
<title>open-source-filled</title>
<path d="M31.944 16.072v0l-1.152-0.496-7.528-3.2c-0.193-0.085-0.419-0.134-0.655-0.134-0.681 0-1.267 0.409-1.524 0.996l-0.004 0.011c-0.085 0.193-0.134 0.419-0.134 0.655 0 0.681 0.41 1.267 0.996 1.524l0.011 0.004 4.144 1.776c0.067 0.033 0.113 0.101 0.113 0.18s-0.046 0.147-0.112 0.179l-0.001 0.001-4 1.696c-0.603 0.259-1.017 0.848-1.017 1.533 0 0.232 0.047 0.453 0.133 0.654l-0.004-0.011c0.259 0.603 0.848 1.017 1.533 1.017 0.232 0 0.453-0.047 0.654-0.133l-0.011 0.004 8.752-3.672 0.072-0.064c0.306-0.292 0.496-0.703 0.496-1.158 0-0.573-0.301-1.075-0.753-1.358l-0.007-0.004z"></path>
<path d="M0.056 18.544v0l1.152 0.496 7.528 3.2c0.193 0.085 0.419 0.134 0.655 0.134 0.681 0 1.267-0.41 1.524-0.996l0.004-0.011c0.085-0.194 0.135-0.419 0.135-0.657 0-0.666-0.392-1.241-0.957-1.507l-4.162-1.756c-0.067-0.033-0.113-0.101-0.113-0.18s0.045-0.147 0.112-0.179l0.001-0.001 4-1.696c0.603-0.259 1.017-0.848 1.017-1.533 0-0.232-0.047-0.453-0.133-0.654l0.004 0.011c-0.259-0.603-0.848-1.017-1.533-1.017-0.232 0-0.453 0.047-0.654 0.133l0.011-0.004-8.712 3.672-0.072 0.064c-0.308 0.292-0.5 0.705-0.5 1.162 0 0.544 0.272 1.025 0.687 1.314l0.005 0.003z"></path>
<path d="M19.866 4.323l-0.008-0.002c0.874 0.285 1.351 1.224 1.066 2.098l-6.587 20.201c-0.285 0.874-1.224 1.351-2.098 1.066l0.008 0.002c-0.874-0.285-1.351-1.224-1.066-2.098l6.587-20.201c0.285-0.874 1.224-1.351 2.098-1.066z"></path>
</svg>
