<!-- Generated by IcoMoon.io -->
<svg version="1.1" xmlns="http://www.w3.org/2000/svg" width="32" height="32" viewBox="0 0 32 32">
<title>open-source</title>
<path d="M2.888 17.248l7.032 3.056c0.261 0.117 0.439 0.373 0.44 0.672v0c-0.001 0.406-0.33 0.734-0.736 0.734-0.107 0-0.209-0.023-0.301-0.064l0.005 0.002-8.48-3.776c-0.504-0.231-0.848-0.731-0.848-1.312v-0c0-0.581 0.344-1.081 0.839-1.308l0.009-0.004 8.48-3.784c0.087-0.039 0.189-0.062 0.296-0.062 0.406 0 0.735 0.328 0.736 0.734v0c-0.001 0.299-0.179 0.555-0.435 0.67l-0.005 0.002-7.032 3.088c-0.264 0.116-0.445 0.375-0.445 0.676s0.181 0.56 0.44 0.674l0.005 0.002z"></path>
<path d="M12.912 26.648l7.2-21.808c0.107-0.324 0.407-0.553 0.761-0.553 0.014 0 0.027 0 0.041 0.001l-0.002-0c0.013-0.001 0.028-0.001 0.042-0.001 0.442 0 0.8 0.358 0.8 0.8 0 0.092-0.016 0.18-0.044 0.263l0.002-0.006-7.312 21.816c-0.107 0.324-0.407 0.553-0.761 0.553-0.014 0-0.027-0-0.041-0.001l0.002 0c-0.412-0.035-0.734-0.379-0.734-0.797 0-0.096 0.017-0.187 0.048-0.272l-0.002 0.006z"></path>
<path d="M29.112 15.8l-7.032-3.064c-0.261-0.117-0.439-0.373-0.44-0.672v-0c0.001-0.406 0.33-0.734 0.736-0.734 0.107 0 0.209 0.023 0.301 0.064l-0.005-0.002 8.48 3.808c0.497 0.228 0.838 0.717 0.848 1.287l0 0.001c-0 0.581-0.344 1.081-0.839 1.308l-0.009 0.004-8.48 3.8c-0.098 0.052-0.214 0.082-0.337 0.082-0.406 0-0.736-0.33-0.736-0.736 0-0.015 0-0.029 0.001-0.044l-0 0.002c0.001-0.299 0.179-0.555 0.435-0.67l0.005-0.002 7.032-3.064c0.285-0.106 0.485-0.375 0.485-0.692 0-0.301-0.181-0.56-0.44-0.674l-0.005-0.002z"></path>
</svg>
