<!-- Generated by IcoMoon.io -->
<svg version="1.1" xmlns="http://www.w3.org/2000/svg" width="32" height="32" viewBox="0 0 32 32">
<title>paper-airplane-filled-2</title>
<path d="M12.104 31.072c0-2.4 0-4.88 0-7.32-0.001-0.024-0.002-0.051-0.002-0.079 0-0.431 0.162-0.824 0.427-1.123l-0.001 0.002c1.304-1.448 2.6-2.912 3.912-4.344q4.992-5.456 10.008-10.888c0.046-0.045 0.076-0.107 0.080-0.175l0-0.001-1.072 0.856-8.12 6.712-6.936 5.704c-0.536 0.44-1.088 0.856-1.648 1.272-0.070 0.048-0.156 0.076-0.249 0.076-0.036 0-0.072-0.004-0.106-0.012l0.003 0.001q-3.672-1.296-7.328-2.616c-0.314-0.106-0.582-0.276-0.8-0.496l-0-0c-0.148-0.124-0.241-0.309-0.241-0.516 0-0.264 0.152-0.492 0.374-0.602l0.004-0.002c0.23-0.173 0.492-0.342 0.765-0.494l0.035-0.018 28.832-16.208c0.224-0.128 0.456-0.248 0.688-0.36 0.456-0.224 0.752-0.208 1 0.080 0.147 0.18 0.235 0.412 0.235 0.665 0 0.085-0.010 0.167-0.029 0.246l0.001-0.007c-0.056 0.264-0.096 0.528-0.136 0.8-0.16 1.040-0.344 2.072-0.496 3.112s-0.296 2.040-0.456 3.056c-0.176 1.168-0.36 2.344-0.544 3.512s-0.344 2.344-0.52 3.52-0.368 2.336-0.544 3.512-0.344 2.344-0.52 3.512-0.36 2.4-0.544 3.568c-0.046 0.433-0.108 0.812-0.189 1.183l0.013-0.071c-0.153 0.591-0.682 1.021-1.311 1.021-0.225 0-0.438-0.055-0.625-0.153l0.007 0.004-8.416-2.984c-0.050-0.030-0.11-0.049-0.174-0.049-0.143 0-0.265 0.089-0.313 0.214l-0.001 0.002q-1.232 2.016-2.496 4.056c-0.456 0.736-0.928 1.464-1.4 2.192-0.116 0.176-0.313 0.29-0.536 0.29-0.351 0-0.637-0.283-0.64-0.634v-0z"></path>
</svg>
