<!-- Generated by IcoMoon.io -->
<svg version="1.1" xmlns="http://www.w3.org/2000/svg" width="32" height="32" viewBox="0 0 32 32">
<title>paper-airplane</title>
<path d="M0.328 14.76l18.824-7.2c3.888-1.496 7.792-2.936 11.664-4.488 0.552-0.224 1.352-0.192 1.16 1.008-0.296 1.736-0.624 3.464-0.896 5.208q-1.28 8.312-2.528 16.616c-0.052 0.396-0.388 0.698-0.794 0.698-0.115 0-0.225-0.024-0.324-0.068l0.005 0.002c-3.016-1.232-6.040-2.4-9.136-3.656l-3.68 5.224c-0.129 0.218-0.267 0.406-0.42 0.58l0.004-0.004c-0.176 0.168-0.424 0.424-0.608 0.392s-0.384-0.336-0.456-0.56c-0.904-2.592-1.816-5.176-2.648-7.792-0.23-0.741-0.777-1.323-1.479-1.594l-0.017-0.006c-2.912-1.072-5.8-2.24-8.672-3.376-0.199-0.079-0.336-0.269-0.336-0.492s0.138-0.413 0.333-0.491l0.004-0.001zM16.232 21.080l11.432 4.52 3.144-20.576c0.001-0.004 0.001-0.009 0.001-0.014 0-0.057-0.047-0.104-0.104-0.104-0.028 0-0.054 0.011-0.073 0.030v0zM1.712 15.2c0.456 0.2 0.712 0.32 0.976 0.424 2.304 0.928 4.616 1.832 6.896 2.792 0.172 0.087 0.375 0.137 0.59 0.137 0.358 0 0.683-0.141 0.923-0.37l-0.001 0c5.48-4.184 10.952-8.384 16.464-12.528 0.6-0.448 0.488-0.624 0.16-0.496zM27.392 7.2c0.008-0.014 0.013-0.032 0.013-0.050 0-0.057-0.047-0.104-0.104-0.104-0.016 0-0.032 0.004-0.046 0.010l0.001-0-16.272 12.36 2.616 7.624c0.464-1.888 0.848-3.552 1.304-5.2 0.183-0.574 0.456-1.072 0.807-1.504l-0.007 0.008c2.144-2.456 4.328-4.872 6.496-7.312zM14.832 25.832l0.24 0.064 2.4-3.368-1.6-0.656z"></path>
</svg>
