<!-- Generated by IcoMoon.io -->
<svg version="1.1" xmlns="http://www.w3.org/2000/svg" width="32" height="32" viewBox="0 0 32 32">
<title>paper-airplane-filled</title>
<path d="M14.568 25.856l0.24 0.064 2.4-3.368-1.6-0.656z"></path>
<path d="M15.448 20.368c2.144-2.456 4.328-4.872 6.496-7.312l5.192-5.856c0.008-0.014 0.013-0.032 0.013-0.050 0-0.057-0.047-0.104-0.104-0.104-0.016 0-0.032 0.004-0.046 0.010l0.001-0-16.28 12.392 2.608 7.624c0.464-1.888 0.848-3.552 1.304-5.2 0.187-0.578 0.465-1.078 0.822-1.512l-0.006 0.008z"></path>
<path d="M27.304 5.712c0.6-0.448 0.488-0.624 0.16-0.496l-26.008 10.040c0.456 0.2 0.712 0.32 0.976 0.424 2.304 0.928 4.616 1.832 6.896 2.792 0.172 0.087 0.375 0.137 0.59 0.137 0.358 0 0.683-0.141 0.923-0.37l-0.001 0c5.48-4.184 10.952-8.384 16.464-12.528z"></path>
<path d="M30.4 4.968l-14.4 16.136 11.424 4.56 3.12-20.616c-0.008-0.050-0.051-0.088-0.103-0.088-0.015 0-0.029 0.003-0.042 0.009l0.001-0z"></path>
</svg>
