<!-- Generated by IcoMoon.io -->
<svg version="1.1" xmlns="http://www.w3.org/2000/svg" width="32" height="32" viewBox="0 0 32 32">
<title>pencil-filled</title>
<path d="M26.4 2.168c-0.19-0.189-0.451-0.306-0.74-0.306s-0.55 0.117-0.74 0.306l-2.52 2.512 5.040 5.040 2.496-2.52c0.189-0.19 0.306-0.451 0.306-0.74s-0.117-0.55-0.306-0.74l0 0z"></path>
<path d="M5.6 21.216l5.168 5.184 15.72-15.768-5.056-5.032c-5.16 5.176-10.656 10.456-15.832 15.616z"></path>
<path d="M4.688 22.272c-0.944 2.528-1.96 5.104-2.92 7.648-0.007 0.017-0.011 0.038-0.011 0.059 0 0.093 0.075 0.168 0.168 0.168 0.021 0 0.041-0.004 0.060-0.011l-0.001 0c2.544-0.968 5.112-1.992 7.616-2.936l-2.568-2.584z"></path>
</svg>
