<!-- Generated by IcoMoon.io -->
<svg version="1.1" xmlns="http://www.w3.org/2000/svg" width="32" height="32" viewBox="0 0 32 32">
<title>pencil</title>
<path d="M31.52 5.168l-4.576-4.584c-0.291-0.302-0.7-0.49-1.152-0.49s-0.861 0.188-1.152 0.489l-0 0-2.976 2.96-0.728 0.72c-5.16 5.16-11.064 10.848-16.224 16l-0.8 0.8-3.912 10.432c-0.013 0.032-0.021 0.070-0.021 0.109 0 0.163 0.133 0.296 0.296 0.296 0.039 0 0.076-0.008 0.111-0.021l-0.002 0.001 10.4-3.912 0.872-0.656 16.896-16.832 2.968-3.008c0.302-0.291 0.49-0.7 0.49-1.152s-0.188-0.861-0.489-1.152l-0-0zM1.992 29.704c0.96-2.544 1.976-5.128 2.92-7.648l4.928 4.928c-2.52 0.944-5.088 1.976-7.632 2.936-0.017 0.007-0.038 0.011-0.059 0.011-0.093 0-0.168-0.075-0.168-0.168 0-0.021 0.004-0.041 0.011-0.060l-0 0.001zM10.992 26.152l-5.144-5.152c5.16-5.16 10.648-10.4 15.808-15.6l5.056 5zM30.192 6.952l-2.52 2.52-5.040-5.040 2.488-2.488c0.19-0.189 0.451-0.306 0.74-0.306s0.55 0.117 0.74 0.306l3.56 3.56c0.189 0.19 0.306 0.451 0.306 0.74s-0.117 0.55-0.306 0.74l0-0z"></path>
</svg>
