<!-- Generated by IcoMoon.io -->
<svg version="1.1" xmlns="http://www.w3.org/2000/svg" width="32" height="32" viewBox="0 0 32 32">
<title>phone</title>
<path d="M10.28 0.096c1.059 0.485 1.895 1.305 2.387 2.323l0.013 0.029c0.92 1.44 1.888 2.84 2.824 4.272 0.36 0.442 0.577 1.013 0.577 1.633 0 0.988-0.551 1.848-1.363 2.288l-0.014 0.007c-0.96 0.648-1.944 1.264-3.008 1.952 1.491 3.537 3.521 6.562 6.022 9.126l-0.006-0.006c1.032-0.696 1.992-1.352 2.96-1.984 0.451-0.382 1.039-0.614 1.681-0.614 1.004 0 1.876 0.568 2.312 1.4l0.007 0.014c0.976 1.456 1.92 2.936 2.912 4.384 0.639 0.74 1.057 1.686 1.143 2.727l0.001 0.017-0.168 0.8c-0.398 0.47-0.806 0.895-1.238 1.295l-0.010 0.009c-0.504 0.416-1.128 0.704-1.6 1.112-0.869 0.654-1.967 1.048-3.157 1.048-0.102 0-0.204-0.003-0.305-0.009l0.014 0.001h-0.8l-2.232-0.456c-0.983-0.388-1.784-0.764-2.558-1.182l0.126 0.062c-4.267-2.678-7.702-6.313-10.069-10.619l-0.075-0.149c-1.579-2.705-2.727-5.865-3.252-9.232l-0.019-0.152c-0.12-0.88-0.096-1.784-0.136-2.672l0.512-2.512c0.719-1.806 2.050-3.241 3.731-4.076l0.045-0.020c0.653-0.476 1.444-0.801 2.303-0.909l0.025-0.003zM5.016 6.744c-0.091 0.574-0.143 1.236-0.143 1.911 0 1.401 0.225 2.75 0.641 4.012l-0.026-0.090c1.747 6.051 5.213 11.142 9.831 14.86l0.057 0.044c1.335 1.162 2.943 2.048 4.713 2.547l0.087 0.021c1.768 0.44 3.504 0.6 5.040-0.712 0.352-0.259 0.757-0.524 1.176-0.766l0.064-0.034c0.412-0.194 0.692-0.605 0.692-1.082 0-0.304-0.114-0.581-0.301-0.791l0.001 0.001q-1.76-2.664-3.52-5.296c-0.496-0.744-0.896-0.8-1.656-0.344s-1.704 1.12-2.552 1.68c-1.408 0.936-1.6 0.92-2.808-0.256q-0.36-0.344-0.688-0.712c-1.779-1.967-3.305-4.214-4.493-6.654l-0.075-0.17c-0.288-0.62-0.581-1.389-0.826-2.18l-0.038-0.14c-0.042-0.101-0.066-0.218-0.066-0.341 0-0.371 0.222-0.691 0.54-0.833l0.006-0.002c1.112-0.68 2.184-1.416 3.264-2.144 0.64-0.432 0.8-0.872 0.408-1.432q-1.84-2.832-3.728-5.6c-0.206-0.324-0.563-0.536-0.969-0.536-0.27 0-0.518 0.093-0.713 0.25l0.002-0.002c-0.371 0.267-0.799 0.54-1.243 0.789l-0.069 0.035c-1.616 0.792-2.224 2.232-2.608 3.968z"></path>
</svg>
