<!-- Generated by IcoMoon.io -->
<svg version="1.1" xmlns="http://www.w3.org/2000/svg" width="32" height="32" viewBox="0 0 32 32">
<title>phone-in-circle-filled</title>
<path d="M16 1.296c-8.121 0-14.704 6.583-14.704 14.704s6.583 14.704 14.704 14.704c8.121 0 14.704-6.583 14.704-14.704v0c0-8.121-6.583-14.704-14.704-14.704v0zM23.104 23.056c-0.225 0.265-0.455 0.505-0.699 0.731l-0.005 0.005c-0.288 0.24-0.64 0.392-0.928 0.632-0.49 0.368-1.109 0.589-1.779 0.589-0.058 0-0.115-0.002-0.173-0.005l0.008 0h-0.432l-1.256-0.208c-0.563-0.232-1.023-0.457-1.468-0.707l0.068 0.035c-2.408-1.514-4.345-3.569-5.678-6.003l-0.042-0.085c-0.892-1.526-1.54-3.31-1.837-5.21l-0.011-0.086c-0.072-0.52-0.072-1.032-0.072-1.544l0.288-1.416c0.403-1.013 1.147-1.819 2.087-2.293l0.025-0.011c0.368-0.267 0.814-0.45 1.298-0.511l0.014-0.001 0.24 0.048c0.606 0.27 1.086 0.734 1.369 1.312l0.007 0.016c0.52 0.8 1.064 1.6 1.6 2.4 0.206 0.251 0.331 0.576 0.331 0.93 0 0.556-0.308 1.040-0.763 1.29l-0.008 0.004c-0.544 0.368-1.096 0.712-1.696 1.104 0.848 1.989 1.997 3.69 3.411 5.131l-0.003-0.003 1.672-1.12c0.254-0.213 0.583-0.342 0.943-0.342 0.564 0 1.053 0.317 1.301 0.782l0.004 0.008c0.552 0.8 1.088 1.656 1.64 2.472 0.365 0.427 0.6 0.975 0.64 1.576l0 0.008z"></path>
</svg>
