<!-- Generated by IcoMoon.io -->
<svg version="1.1" xmlns="http://www.w3.org/2000/svg" width="32" height="32" viewBox="0 0 32 32">
<title>phone-filled</title>
<path d="M10.632 2.192c-0.206-0.324-0.563-0.536-0.969-0.536-0.27 0-0.518 0.093-0.713 0.25l0.002-0.002c-0.372 0.277-0.797 0.557-1.239 0.813l-0.065 0.035c-1.6 0.8-2.224 2.232-2.616 4-0.091 0.574-0.143 1.236-0.143 1.911 0 1.401 0.225 2.75 0.641 4.012l-0.026-0.090c1.754 6.035 5.22 11.111 9.831 14.82l0.057 0.044c1.335 1.162 2.943 2.047 4.713 2.547l0.087 0.021c1.768 0.44 3.504 0.6 5.040-0.712 0.352-0.259 0.757-0.524 1.176-0.766l0.064-0.034c0.412-0.194 0.692-0.605 0.692-1.082 0-0.304-0.114-0.581-0.301-0.791l0.001 0.001q-1.76-2.632-3.52-5.296c-0.496-0.744-0.896-0.8-1.656-0.344s-1.704 1.12-2.552 1.68c-1.408 0.936-1.6 0.92-2.808-0.256q-0.36-0.344-0.688-0.712c-1.779-1.967-3.305-4.214-4.493-6.654l-0.075-0.17c-0.288-0.62-0.581-1.389-0.826-2.18l-0.037-0.14c-0.042-0.101-0.066-0.218-0.066-0.341 0-0.371 0.222-0.691 0.54-0.833l0.006-0.002c1.112-0.68 2.184-1.416 3.264-2.144 0.64-0.432 0.8-0.872 0.408-1.432q-1.832-2.824-3.728-5.616z"></path>
</svg>
