<!-- Generated by IcoMoon.io -->
<svg version="1.1" xmlns="http://www.w3.org/2000/svg" width="32" height="32" viewBox="0 0 32 32">
<title>phone-in-circle</title>
<path d="M16 32c8.837 0 16-7.163 16-16s-7.163-16-16-16c-8.837 0-16 7.163-16 16v0c0 8.837 7.163 16 16 16v0zM16 1.296c8.121 0 14.704 6.583 14.704 14.704s-6.583 14.704-14.704 14.704c-8.121 0-14.704-6.583-14.704-14.704v0c0-8.121 6.583-14.704 14.704-14.704v0z"></path>
<path d="M12.8 7.016c0.606 0.27 1.086 0.734 1.369 1.312l0.007 0.016c0.52 0.8 1.064 1.6 1.6 2.4 0.206 0.251 0.331 0.576 0.331 0.93 0 0.556-0.308 1.040-0.763 1.29l-0.008 0.004c-0.544 0.368-1.096 0.712-1.696 1.104 0.833 1.987 1.967 3.688 3.364 5.133l-0.004-0.005 1.672-1.12c0.254-0.213 0.583-0.342 0.943-0.342 0.564 0 1.053 0.317 1.301 0.782l0.004 0.008c0.552 0.8 1.088 1.656 1.64 2.472 0.365 0.427 0.6 0.975 0.64 1.576l0 0.008-0.096 0.472c-0.225 0.265-0.455 0.505-0.699 0.731l-0.005 0.005c-0.288 0.24-0.64 0.392-0.928 0.632-0.49 0.368-1.109 0.589-1.779 0.589-0.058 0-0.115-0.002-0.173-0.005l0.008 0h-0.432l-1.256-0.208c-0.563-0.232-1.023-0.457-1.468-0.707l0.068 0.035c-2.408-1.514-4.345-3.569-5.678-6.003l-0.042-0.085c-0.892-1.526-1.54-3.31-1.837-5.21l-0.011-0.086c-0.072-0.52-0.072-1.032-0.072-1.544l0.288-1.416c0.403-1.013 1.147-1.819 2.087-2.293l0.025-0.011c0.368-0.267 0.814-0.45 1.298-0.511l0.014-0.001zM9.824 10.768c-0.053 0.327-0.083 0.704-0.083 1.088 0 0.789 0.127 1.548 0.361 2.258l-0.015-0.051c0.991 3.418 2.954 6.293 5.568 8.391l0.032 0.025c0.748 0.653 1.648 1.152 2.639 1.436l0.049 0.012c0.316 0.126 0.682 0.199 1.065 0.199 0.673 0 1.293-0.225 1.79-0.604l-0.007 0.005c0.2-0.154 0.427-0.31 0.663-0.453l0.033-0.019c0.233-0.109 0.392-0.341 0.392-0.611 0-0.171-0.064-0.327-0.169-0.446l0.001 0.001q-0.976-1.496-1.968-2.976c-0.28-0.424-0.504-0.472-0.936-0.192s-0.96 0.632-1.44 0.952c-0.8 0.528-0.888 0.52-1.6-0.144q-0.2-0.192-0.392-0.4c-1.007-1.112-1.869-2.381-2.542-3.76l-0.042-0.096c-0.162-0.351-0.328-0.786-0.467-1.233l-0.021-0.079c-0.024-0.057-0.038-0.124-0.038-0.194 0-0.21 0.126-0.39 0.307-0.469l0.003-0.001c0.624-0.384 1.232-0.8 1.84-1.216 0.36-0.248 0.44-0.488 0.232-0.8q-1.040-1.6-2.104-3.2c-0.117-0.182-0.318-0.302-0.548-0.302-0.154 0-0.295 0.053-0.406 0.143l0.001-0.001c-0.21 0.157-0.45 0.315-0.699 0.46l-0.037 0.020c-0.825 0.458-1.397 1.285-1.495 2.252l-0.001 0.012z"></path>
</svg>
