<!-- Generated by IcoMoon.io -->
<svg version="1.1" xmlns="http://www.w3.org/2000/svg" width="32" height="32" viewBox="0 0 32 32">
<title>present-filled</title>
<path d="M5.512 30.552h6.616v-14.28h-6.616z"></path>
<path d="M19.888 30.528h6.616v-14.296h-6.616z"></path>
<path d="M4.208 14.92h7.936v-6h-7.936z"></path>
<path d="M27.792 8.928h-7.912v6.016h7.912z"></path>
<path d="M13.432 30.52h5.176v-14.296h-5.176z"></path>
<path d="M23.080 7.080c1.233-0.2 2.164-1.255 2.168-2.528v-0c0.006-0.072 0.010-0.155 0.010-0.239 0-1.185-0.718-2.203-1.743-2.642l-0.019-0.007c-0.316-0.144-0.685-0.228-1.073-0.228-0.869 0-1.641 0.42-2.122 1.069l-0.005 0.007c-0.992 1.488-1.8 3.088-2.696 4.584l0.264 0.376c1.752-0.12 3.496-0.16 5.216-0.392z"></path>
<path d="M8.88 7.072c1.744 0.232 3.512 0.272 5.272 0.4l0.248-0.352c-0.896-1.6-1.72-3.2-2.72-4.664-0.478-0.631-1.228-1.034-2.072-1.034-0.429 0-0.834 0.104-1.191 0.289l0.014-0.007c-1.005 0.45-1.692 1.441-1.692 2.592 0 0.118 0.007 0.235 0.021 0.349l-0.001-0.014c0.034 1.227 0.932 2.234 2.105 2.438l0.015 0.002z"></path>
<path d="M13.432 14.96h5.152v-6.048h-5.152z"></path>
</svg>
