<!-- Generated by IcoMoon.io -->
<svg version="1.1" xmlns="http://www.w3.org/2000/svg" width="32" height="32" viewBox="0 0 32 32">
<title>present</title>
<path d="M16.16 6.896c0.968-1.68 1.888-3.472 2.984-5.144 0.717-1.070 1.921-1.765 3.287-1.765 0.402 0 0.791 0.060 1.157 0.172l-0.028-0.007c1.698 0.332 3.016 1.642 3.355 3.309l0.005 0.027c0.070 0.306 0.109 0.658 0.109 1.019 0 1.264-0.489 2.415-1.288 3.272l0.003-0.003c0.912 0 1.6 0 2.344 0 0.019-0.001 0.041-0.002 0.064-0.002 0.605 0 1.096 0.491 1.096 1.096 0 0.003-0 0.007-0 0.010v-0.001c0 2.128 0.056 4.248-0.048 6.4v0.168c-0.038 0.597-0.531 1.066-1.134 1.066-0.023 0-0.046-0.001-0.069-0.002l0.003 0h-0.072q0 6.864 0 13.72c0 1.776 0 1.784-1.72 1.784h-20.216c-1.6 0-1.6 0-1.6-1.656 0-4.616 0-9.224 0-13.896-1.184-0.080-1.328-0.8-1.304-1.784q0.072-2.728 0-5.464c0-1.024 0.304-1.544 1.4-1.44 0.616 0.056 1.24 0 2.024 0l-0.56-0.928c-0.415-0.671-0.66-1.484-0.66-2.355 0-1.519 0.748-2.863 1.895-3.684l0.014-0.009c0.702-0.528 1.588-0.846 2.549-0.846 1.458 0 2.745 0.732 3.514 1.847l0.009 0.014c1.128 1.648 1.928 3.44 2.888 5.080zM12.296 30.72v-14.288h-6.616v14.288zM20.056 16.392v14.296h6.616v-14.296zM13.6 16.392v14.288h5.176v-14.288zM4.368 15.088h7.936v-6h-7.936zM27.96 15.088v-5.992h-7.912v6.016zM14.32 7.64l0.24-0.352c-0.896-1.6-1.72-3.2-2.712-4.664-0.478-0.631-1.228-1.034-2.072-1.034-0.429 0-0.834 0.104-1.191 0.289l0.014-0.007c-1.005 0.45-1.692 1.441-1.692 2.592 0 0.118 0.007 0.235 0.021 0.349l-0.001-0.014c0.053 1.21 0.944 2.197 2.105 2.398l0.015 0.002c1.744 0.264 3.52 0.312 5.272 0.44zM17.784 7.264l0.264 0.376c1.736-0.12 3.48-0.168 5.2-0.4 1.233-0.2 2.164-1.255 2.168-2.528v-0c0.006-0.072 0.010-0.155 0.010-0.239 0-1.185-0.718-2.203-1.743-2.642l-0.019-0.007c-0.316-0.144-0.685-0.228-1.073-0.228-0.869 0-1.641 0.42-2.122 1.069l-0.005 0.007c-0.992 1.48-1.8 3.056-2.68 4.592zM18.752 15.128v-6.056h-5.152v6.048z"></path>
</svg>
