<!-- Generated by IcoMoon.io -->
<svg version="1.1" xmlns="http://www.w3.org/2000/svg" width="32" height="32" viewBox="0 0 32 32">
<title>question</title>
<path d="M26.4 8.8c-0.197-2.091-1.075-3.946-2.405-5.373l0.005 0.005c-2.009-2.143-4.858-3.478-8.019-3.478-0.778 0-1.536 0.081-2.268 0.234l0.072-0.013c-2.52 0.363-4.68 1.675-6.144 3.555l-0.016 0.021c-1.265 1.674-2.027 3.79-2.027 6.084 0 0.083 0.001 0.166 0.003 0.249l-0-0.012c0 0.736 0 1.648 0.72 1.648s0.696-1.224 0.696-1.792c-0.002-0.066-0.003-0.145-0.003-0.223 0-1.966 0.65-3.78 1.747-5.239l-0.016 0.022c1.272-1.636 3.129-2.766 5.252-3.075l0.044-0.005c0.561-0.119 1.206-0.186 1.867-0.186 2.716 0 5.165 1.146 6.888 2.981l0.005 0.005c1.144 1.214 1.905 2.8 2.085 4.559l0.003 0.033c0.056 0.377 0.088 0.812 0.088 1.254 0 1.073-0.187 2.102-0.531 3.057l0.020-0.063c-0.614 1.555-1.642 2.835-2.949 3.742l-0.027 0.018c-0.72 0.528-1.48 1-2.216 1.512-0.443 0.304-0.824 0.595-1.189 0.905l0.021-0.017c-0.688 0.6-2.4 1.88-2.4 4.144 0 0.464 0 0 0 0.536 0 1 0 2.952 0.8 2.952 0.656 0 0.76-0.536 0.72-1.696 0-0.624 0-1.232 0-1.776 0-0.004-0-0.008-0-0.012 0-1.016 0.487-1.918 1.24-2.486l0.008-0.006c0.401-0.34 0.844-0.679 1.304-0.996l0.056-0.036c0.856-0.568 1.768-1.112 2.568-1.728 1.553-1.076 2.75-2.566 3.442-4.312l0.022-0.064c0.396-1.060 0.625-2.285 0.625-3.564 0-0.481-0.032-0.954-0.095-1.418l0.006 0.054z"></path>
<path d="M16.576 29.496c0 0 0 0 0 0 0.566 0 1.024 0.458 1.024 1.024 0 0.008-0 0.017-0 0.025l0-0.001c0 0.57-0.462 1.032-1.032 1.032v0c-0.027 0.003-0.059 0.004-0.091 0.004-0.574 0-1.040-0.466-1.040-1.040s0.466-1.040 1.040-1.040c0.032 0 0.064 0.001 0.095 0.004l-0.004-0z"></path>
</svg>
