<!-- Generated by IcoMoon.io -->
<svg version="1.1" xmlns="http://www.w3.org/2000/svg" width="32" height="32" viewBox="0 0 32 32">
<title>question-in-circle-filled</title>
<path d="M16 1.208c-8.169 0-14.792 6.623-14.792 14.792s6.623 14.792 14.792 14.792c8.169 0 14.792-6.623 14.792-14.792v0c0-8.169-6.623-14.792-14.792-14.792v0zM15.928 24.488c-0.001 0-0.001 0-0.002 0-0.61 0-1.104-0.494-1.104-1.104 0-0.023 0.001-0.045 0.002-0.067l-0 0.003c-0.003-0.028-0.004-0.061-0.004-0.094 0-0.61 0.494-1.104 1.104-1.104s1.104 0.494 1.104 1.104c0 0.033-0.001 0.066-0.004 0.098l0-0.004c0.001 0.019 0.002 0.041 0.002 0.064 0 0.608-0.491 1.101-1.098 1.104h-0zM16.080 19.536v0c-0.005 0-0.011 0-0.017 0-0.605 0-1.096-0.491-1.096-1.096 0-0.082 0.009-0.162 0.026-0.239l-0.001 0.007c0.664-2.784 3.36-3.136 3.36-5.808 0-1.464-1.032-2.168-2.6-2.168-0.079-0.009-0.171-0.015-0.265-0.015-1.106 0-2.037 0.748-2.315 1.766l-0.004 0.017c-0.139 0.466-0.564 0.8-1.067 0.8-0.010 0-0.020-0-0.030-0l0.001 0c-0.629-0.010-1.135-0.522-1.135-1.152 0-0.094 0.011-0.185 0.032-0.272l-0.002 0.008c0.568-2.32 2.4-3.616 5.032-3.616 3.024 0 5.040 1.464 5.040 4.208 0 3.632-3.312 4.096-3.896 6.736-0.122 0.477-0.548 0.824-1.056 0.824-0.006 0-0.012-0-0.017-0h0.001z"></path>
</svg>
