<!-- Generated by IcoMoon.io -->
<svg version="1.1" xmlns="http://www.w3.org/2000/svg" width="32" height="32" viewBox="0 0 32 32">
<title>question-in-circle</title>
<path stroke="#000" fill="#000" stroke-width="0.7805" stroke-miterlimit="10" stroke-linecap="butt" stroke-linejoin="miter" d="M16 0.39c-8.621 0-15.61 6.989-15.61 15.61s6.989 15.61 15.61 15.61c8.621 0 15.61-6.989 15.61-15.61v0c0-8.621-6.989-15.61-15.61-15.61v0zM16 30.345c-7.923 0-14.345-6.423-14.345-14.345s6.423-14.345 14.345-14.345c7.923 0 14.345 6.423 14.345 14.345v0c0 7.923-6.423 14.345-14.345 14.345v0z"></path>
<path d="M11.559 12.308c-0.645-0.008-1.165-0.532-1.165-1.178 0-0.072 0.006-0.142 0.019-0.21l-0.001 0.007c0.585-2.677 2.638-4.16 5.62-4.16 3.348 0 5.588 1.616 5.588 4.683 0 4.020-3.653 4.542-4.316 7.446-0.115 0.534-0.58 0.93-1.139 0.937h-0.133c-0.003 0-0.008 0-0.012 0-0.638 0-1.155-0.517-1.155-1.155 0-0.089 0.010-0.175 0.029-0.258l-0.001 0.008c0.702-3.122 3.731-3.512 3.731-6.501 0-1.616-1.14-2.404-2.872-2.404-1.499 0-2.505 0.648-2.857 1.943-0.155 0.493-0.607 0.844-1.142 0.844-0.016 0-0.031-0-0.047-0.001l0.002 0zM17.171 23.969c0 0.672-0.545 1.218-1.218 1.218s-1.218-0.545-1.218-1.218v0c0-0.672 0.545-1.218 1.218-1.218s1.218 0.545 1.218 1.218v0z"></path>
</svg>
