<!-- Generated by IcoMoon.io -->
<svg version="1.1" xmlns="http://www.w3.org/2000/svg" width="32" height="32" viewBox="0 0 32 32">
<title>question-filled</title>
<path d="M9 10.184c-1.013-0.010-1.831-0.833-1.831-1.848 0-0.119 0.011-0.235 0.033-0.348l-0.002 0.012c0.92-4.216 4.152-6.568 8.848-6.568 5.28 0 8.8 2.552 8.8 7.352 0 6.328-5.752 7.152-6.792 11.72-0.182 0.843-0.916 1.468-1.799 1.48h-0.209c-0.002 0-0.005 0-0.007 0-1.012 0-1.832-0.82-1.832-1.832 0-0.133 0.014-0.263 0.041-0.388l-0.002 0.012c1.112-4.96 5.888-5.544 5.888-10.248 0-2.552-1.808-3.784-4.536-3.784-2.36 0-3.944 1.016-4.496 3.056-0.214 0.82-0.948 1.416-1.822 1.416-0.001 0-0.002 0-0.002 0h0zM17.8 28.584c0.005 0.053 0.008 0.114 0.008 0.175 0 1.065-0.863 1.928-1.928 1.928s-1.928-0.863-1.928-1.928c0-0.062 0.003-0.123 0.009-0.183l-0.001 0.008c0-1.060 0.86-1.92 1.92-1.92s1.92 0.86 1.92 1.92v0z"></path>
</svg>
