<!-- Generated by IcoMoon.io -->
<svg version="1.1" xmlns="http://www.w3.org/2000/svg" width="32" height="32" viewBox="0 0 32 32">
<title>refresh</title>
<path d="M27.152 26.296c-2.508 3.475-6.546 5.711-11.107 5.711-1.914 0-3.736-0.394-5.39-1.105l0.089 0.034c-5.040-2.171-8.504-7.095-8.504-12.829 0-0.744 0.058-1.474 0.171-2.186l-0.010 0.079c1.016-6.288 6.248-10.664 12.56-11.144l0.472-0.056c0.351-0.030 0.624-0.322 0.624-0.678 0-0.001 0-0.002 0-0.002v0-3.44c0.005-0.372 0.308-0.671 0.68-0.671 0.143 0 0.277 0.044 0.386 0.12l-0.002-0.001 8.344 5.88c0.176 0.125 0.289 0.327 0.289 0.557 0 0.249-0.134 0.467-0.334 0.586l-0.003 0.002-8.264 4.8c-0.099 0.059-0.217 0.093-0.344 0.093-0.375 0-0.679-0.303-0.68-0.677v-4.36c0-0.003 0-0.006 0-0.009 0-0.36-0.283-0.654-0.639-0.671l-0.002-0c-5.528-0.12-11.6 4.928-11.88 10.84-0.352 7.376 4.872 12.544 11.288 13.416 6.176 0.84 12.392-4.088 13.536-11.76 0.044-0.311 0.294-0.553 0.605-0.584l0.003-0c0.017-0.002 0.038-0.002 0.058-0.002 0.38 0 0.688 0.308 0.688 0.688 0 0.018-0.001 0.035-0.002 0.053l0-0.002c-0.258 2.76-1.205 5.257-2.666 7.372l0.034-0.052z"></path>
</svg>
