<!-- Generated by IcoMoon.io -->
<svg version="1.1" xmlns="http://www.w3.org/2000/svg" width="32" height="32" viewBox="0 0 32 32">
<title>refresh-filled</title>
<path d="M28.424 19.24c-0.159-0.062-0.342-0.1-0.534-0.104l-0.002-0c-0.007-0-0.015-0-0.023-0-0.788 0-1.442 0.569-1.575 1.319l-0.001 0.010c-0.989 4.796-5.178 8.351-10.196 8.351-0.198 0-0.395-0.006-0.591-0.017l0.027 0.001c-5.617-0.165-10.108-4.758-10.108-10.4 0-5.746 4.658-10.404 10.404-10.404 0.104 0 0.208 0.002 0.311 0.005l-0.015-0h0.048v3.52c0.001 0.374 0.305 0.677 0.68 0.677 0.127 0 0.246-0.035 0.347-0.095l-0.003 0.002 8.264-4.8c0.203-0.12 0.337-0.338 0.337-0.587 0-0.229-0.113-0.432-0.287-0.555l-0.002-0.001-8.352-5.872c-0.109-0.078-0.245-0.124-0.392-0.124-0.374 0-0.678 0.302-0.68 0.676v3.464c-0.001 0.078-0.016 0.152-0.041 0.221l0.002-0.005c-7.479 0.095-13.507 6.173-13.52 13.663v0.001c0 0.040 0 0.080 0 0.128 0.065 7.488 6.15 13.533 13.648 13.533 4.59 0 8.65-2.265 11.124-5.739l0.028-0.042c0.088-0.128 0.184-0.256 0.272-0.392l0.112-0.192c0.184-0.296 0.352-0.6 0.512-0.912l0.128-0.256q0.192-0.4 0.36-0.8l0.072-0.176c0.128-0.328 0.24-0.656 0.344-0.992l0.072-0.256q0.12-0.408 0.208-0.8c0-0.056 0-0.112 0.040-0.168s0 0 0-0.040c0.023-0.101 0.036-0.218 0.036-0.337 0-0.687-0.433-1.273-1.041-1.5l-0.011-0.004z"></path>
</svg>
