<!-- Generated by IcoMoon.io -->
<svg version="1.1" xmlns="http://www.w3.org/2000/svg" width="32" height="32" viewBox="0 0 32 32">
<title>request-filled</title>
<path d="M10.24 12.2c-0.301 0.301-0.487 0.717-0.487 1.176s0.186 0.875 0.487 1.176v0l5.064 5.152c0.203 0.208 0.487 0.336 0.8 0.336s0.597-0.129 0.8-0.336l0-0 5.064-5.152c0.301-0.301 0.487-0.717 0.487-1.176s-0.186-0.875-0.487-1.176v0c-0.301-0.301-0.717-0.487-1.176-0.487s-0.875 0.186-1.176 0.487v0l-1.856 2.272v-10.64c0-0.919-0.745-1.664-1.664-1.664v0 0c-0.010-0-0.021-0-0.032-0-0.919 0-1.664 0.745-1.664 1.664 0 0 0 0 0 0v-0 10.64l-1.848-2.272c-0.301-0.301-0.717-0.487-1.176-0.487s-0.875 0.186-1.176 0.487v0z"></path>
<path d="M16.168 26.48c-0.077 0.002-0.169 0.002-0.26 0.002-5.86 0-10.862-3.674-12.828-8.844l-0.031-0.094c-0.242-0.65-0.857-1.104-1.578-1.104-0.008 0-0.015 0-0.023 0h0.001c-0.918 0.019-1.654 0.767-1.654 1.688 0 0.216 0.041 0.422 0.114 0.612l-0.004-0.012c2.493 6.542 8.714 11.106 16.001 11.106 7.523 0 13.909-4.863 16.188-11.617l0.035-0.12c0.055-0.16 0.087-0.344 0.087-0.536 0-0.932-0.755-1.688-1.687-1.688h-0c-0.001 0-0.002 0-0.003 0-0.742 0-1.372 0.481-1.594 1.148l-0.003 0.012c-1.822 5.446-6.822 9.323-12.745 9.448l-0.015 0z"></path>
</svg>
