<!-- Generated by IcoMoon.io -->
<svg version="1.1" xmlns="http://www.w3.org/2000/svg" width="32" height="32" viewBox="0 0 32 32">
<title>right-arrow</title>
<path d="M30.048 16.688h-28.096c-0.6 0-1.952 0.064-1.952-0.688v0c0-0.8 1.064-0.616 1.864-0.648h28.312c-0.096-0.104-4.28-4.8-6.488-7.032-0.528-0.528-2.184-1.872-1.688-2.4s0.8 0 1.456 0.672l7.792 7.792c0.428 0.356 0.71 0.873 0.752 1.457l0 0.007c0.003 0.041 0.005 0.088 0.005 0.136 0 0.515-0.213 0.98-0.557 1.312l-0.001 0-3.112 3.104-5.064 5.064c-0.672 0.672-0.952 0.872-1.256 0.568-0.464-0.464 0.256-1.152 1.080-2.040 1.104-1.184 0.408-0.416 1.544-1.6s5.32-5.592 5.408-5.704z"></path>
</svg>
