<!-- Generated by IcoMoon.io -->
<svg version="1.1" xmlns="http://www.w3.org/2000/svg" width="32" height="32" viewBox="0 0 32 32">
<title>right-arrow-filled</title>
<path d="M21.072 24.8c0.301 0.301 0.717 0.487 1.176 0.487s0.875-0.186 1.176-0.487v0l8.24-8.16c0.208-0.203 0.336-0.487 0.336-0.8s-0.129-0.597-0.336-0.8l-0-0-7.928-7.84c-0.301-0.301-0.717-0.487-1.176-0.487s-0.875 0.186-1.176 0.487v0c-0.301 0.301-0.487 0.717-0.487 1.176s0.186 0.875 0.487 1.176v0l5.016 4.624h-24.592c-0.919 0-1.664 0.745-1.664 1.664v0c0 0.919 0.745 1.664 1.664 1.664v0h24.592l-5.368 4.944c-0.301 0.301-0.487 0.717-0.487 1.176s0.186 0.875 0.487 1.176v0z"></path>
</svg>
