<!-- Generated by IcoMoon.io -->
<svg version="1.1" xmlns="http://www.w3.org/2000/svg" width="32" height="32" viewBox="0 0 32 32">
<title>safe-filled</title>
<path d="M29.256 16v0c0-0.8 0-1.6 0-2.344 0-3.408 0-6.304 0-9.712 0-1.016-0.168-1.192-1.168-1.192h-24.2c-0.952 0-1.144 0.192-1.144 1.152v0.616c0 0.192 0 0.384 0 0.576v0c0 3.856 0 22.552 0 22.872 0 1.144 0.136 1.28 1.272 1.28h24.264c0.736 0 0.96-0.24 0.976-1 0-0.064 0-0.088 0-0.096s0 0 0-0.088zM26.056 25.696c-0.004 0.25-0.206 0.452-0.456 0.456h-19.608c-0.141 0-0.256-0.115-0.256-0.256v-1.232c-0.069-0.019-0.153-0.036-0.239-0.047l-0.009-0.001c-1.16-0.064-1.16-0.064-1.16-1.208s0-2.496 0-3.752c0-0.464 0.12-0.64 0.608-0.632s0.712 0 0.8-0.136v-5.76c-0.104-0.152-0.288-0.208-0.576-0.168-0.648 0.088-0.88-0.144-0.848-0.8 0.056-1.392 0-2.792 0-4.192 0-0.408 0.128-0.568 0.552-0.56 0.318-0.004 0.618-0.080 0.884-0.213l-0.012 0.005v-1.088c0-0.141 0.115-0.256 0.256-0.256v0h19.608c0.25 0.004 0.452 0.206 0.456 0.456v0z"></path>
<path d="M16.28 11.144c-2.639 0.066-4.753 2.222-4.753 4.871 0 2.691 2.181 4.872 4.872 4.872s4.872-2.181 4.872-4.872c0-0.217-0.014-0.43-0.042-0.639l0.003 0.025c-0.281-2.408-2.309-4.259-4.769-4.259-0.064 0-0.128 0.001-0.192 0.004l0.009-0zM20.64 16.248c-0.44 0-0.8 0-1.208 0s-0.464 0.192-0.648 0.464c-0.52 0.8-0.216 1.328 0.448 1.808 0.117 0.102 0.196 0.244 0.216 0.405l0 0.003c-0.144 0-0.368 0-0.416 0-0.225-0.452-0.684-0.758-1.214-0.758-0.341 0-0.653 0.127-0.891 0.335l0.002-0.001c-0.083 0.034-0.18 0.062-0.28 0.079l-0.008 0.001c0 0.432 0 0.88 0 1.328 0 0.096-0.112 0.192-0.176 0.288l-0.224-0.304c-0.003-0.008-0.005-0.018-0.005-0.028s0.002-0.020 0.005-0.029l-0 0.001c0.28-1.040-0.32-1.472-1.184-1.712-0.037-0.008-0.079-0.013-0.122-0.013-0.132 0-0.254 0.044-0.352 0.118l0.001-0.001c-0.304 0.28-0.568 0.6-0.848 0.904l-0.192-0.056c0-0.136-0.072-0.376 0-0.408 1.056-0.616 0.8-1.44 0.416-2.312l-0.048-0.096h-1.776c0.16-0.2 0.224-0.32 0.32-0.376 0.050-0.011 0.108-0.018 0.168-0.018s0.117 0.007 0.173 0.019l-0.005-0.001c1.184 0 1.32-0.136 1.6-1.296 0-0.003 0-0.007 0-0.011 0-0.165-0.067-0.314-0.176-0.421l-0-0c-0.297-0.291-0.561-0.613-0.787-0.962l-0.013-0.022c0.144 0 0.384-0.056 0.424 0 0.64 1.128 1.528 0.8 2.4 0.272 0.2-0.12 0-0.8 0-1.216 0-0.112 0.128-0.216 0.2-0.328l0.2 0.328s0 0 0 0.056c0 0.424-0.080 0.952 0.128 1.248s0.728 0.32 1.12 0.432c0.030 0.006 0.065 0.009 0.1 0.009 0.128 0 0.246-0.042 0.341-0.114l-0.001 0.001c0.248-0.2 0.432-0.472 0.68-0.672 0.096-0.080 0.28-0.048 0.424-0.064l0.080 0.216c-0.136 0.104-0.256 0.216-0.4 0.304-1.048 0.656-0.432 1.424-0.12 2.16 0.488 0.064 1.016 0.128 1.536 0.2 0.040-0.056 0.056 0.064 0.12 0.232z"></path>
<path d="M7.328 23.2c0-1.224 0-1.424 0-2.648 0-0.336-0.112-0.496-0.48-0.488h-0.112c-0.416 0-0.624 0-1 0h-0.44c0 1.472 0 1.856 0 3.264 0 0.112 0.256 0.312 0.4 0.328h1.216c0.208-0.071 0.364-0.241 0.415-0.452l0.001-0.004z"></path>
<path d="M6.736 11.96h0.224c0.185-0.067 0.323-0.222 0.367-0.412l0.001-0.004c0-1.248 0-1.472 0-2.712 0-0.152-0.28-0.304-0.44-0.44 0 0-0.096 0-0.152 0h-1c-0.11 0.028-0.205 0.084-0.28 0.16l-0 0c-0.32 0.304-0.144 0.632-0.16 1.232 0 0.88 0 1.256 0 2.232h0.44c0.384-0.016 0.608-0.016 1-0.056z"></path>
<path d="M24.8 6.784h-17.776c-0.080 0.001-0.153 0.031-0.208 0.080l0-0c0 0.168 0 0.344 0 0.52 0.12 0.008 0.259 0.012 0.4 0.012s0.28-0.004 0.419-0.013l-0.019 0.001c0.592-0.080 0.8 0.168 0.752 0.752-0.040 1.248 0 2.496 0 3.752 0 1.080 0.112 1.104-0.992 1.072-0.408 0-0.552 0.152-0.544 0.568 0 1.544 0 3.088 0 4.632 0 0.856 0 0.888 0.84 0.872 0.52 0 0.704 0.168 0.688 0.696 0 1.184 0 2.4 0 3.56s0 1.272-1.24 1.336c-0.11 0.016-0.205 0.035-0.298 0.060l0.018-0.004c0 0.16 0 0.312 0 0.464 0.057 0.050 0.132 0.080 0.215 0.080 0 0 0.001 0 0.001 0h17.744c0.181 0 0.328-0.147 0.328-0.328v-17.784c0-0.181-0.147-0.328-0.328-0.328v0zM16.424 21.704c-3.13-0.020-5.66-2.563-5.66-5.696 0-3.146 2.55-5.696 5.696-5.696s5.696 2.55 5.696 5.696c0 0.076-0.002 0.151-0.004 0.227l0-0.011c-0.089 3.046-2.579 5.481-5.638 5.481-0.032 0-0.063-0-0.095-0.001l0.005 0z"></path>
<path d="M28.64 1.768h-25.288c-1.224 0-1.6 0.36-1.6 1.6q0 0.528 0 1.048v0c0 0.552 0 23.608 0 24.16 0 1.312 0.344 1.664 1.64 1.664h25.176c1.312 0 1.664-0.344 1.664-1.64q0-7.792 0-15.584 0-4.8 0-9.656c0-1.232-0.36-1.592-1.592-1.592zM29.256 28.248c0 0.76-0.24 0.984-0.976 1h-24.28c-1.136 0-1.272-0.136-1.272-1.28 0-0.32 0-19.016 0-22.872v0c0-0.192 0-0.384 0-0.576v-0.616c0-0.96 0.192-1.152 1.144-1.152h24.216c1 0 1.168 0.176 1.168 1.192 0 3.408 0 6.304 0 9.712 0 0.8 0 1.6 0 2.344v0 12.064c0 0.056 0 0.080 0 0.088s0 0.032 0 0.096z"></path>
</svg>
