<!-- Generated by IcoMoon.io -->
<svg version="1.1" xmlns="http://www.w3.org/2000/svg" width="32" height="32" viewBox="0 0 32 32">
<title>safe</title>
<path d="M19.112 13.6c0.144-0.088 0.264-0.2 0.4-0.304l-0.080-0.216c-0.144 0-0.328 0-0.424 0.064-0.248 0.2-0.432 0.472-0.68 0.672-0.094 0.070-0.212 0.113-0.34 0.113-0.035 0-0.070-0.003-0.104-0.009l0.003 0.001c-0.392-0.104-0.928-0.152-1.12-0.432s-0.096-0.8-0.128-1.248c0 0 0-0.040 0-0.056l-0.2-0.328c-0.072 0.104-0.192 0.216-0.2 0.328 0 0.416 0.16 1.096 0 1.216-0.84 0.528-1.728 0.848-2.4-0.272 0-0.064-0.272 0-0.424 0 0.24 0.371 0.503 0.693 0.799 0.983l0.001 0.001c0.109 0.106 0.176 0.254 0.176 0.418 0 0.005-0 0.010-0 0.015v-0.001c-0.288 1.152-0.424 1.256-1.6 1.296-0.050-0.011-0.108-0.018-0.168-0.018s-0.117 0.007-0.173 0.019l0.005-0.001c-0.096 0.056-0.16 0.176-0.32 0.376h1.752l0.048 0.096c0.408 0.872 0.64 1.696-0.416 2.312-0.056 0 0 0.264 0 0.408l0.192 0.056c0.28-0.304 0.544-0.624 0.848-0.904 0.096-0.073 0.218-0.117 0.35-0.117 0.043 0 0.085 0.005 0.125 0.014l-0.004-0.001c0.864 0.232 1.464 0.672 1.184 1.712-0.003 0.008-0.005 0.018-0.005 0.028s0.002 0.020 0.005 0.029l-0-0.001 0.224 0.304c0.064-0.096 0.168-0.192 0.176-0.288 0-0.448 0-0.896 0-1.328 0.108-0.018 0.205-0.046 0.297-0.083l-0.009 0.003c0.236-0.207 0.548-0.334 0.89-0.334 0.53 0 0.989 0.305 1.211 0.75l0.004 0.008c0.048 0.072 0.272 0 0.416 0-0.020-0.164-0.099-0.306-0.215-0.407l-0.001-0.001c-0.664-0.48-0.96-1.008-0.448-1.808 0.176-0.28 0.28-0.488 0.648-0.464s0.8 0 1.208 0c-0.056-0.168-0.072-0.288-0.112-0.296-0.528-0.080-1.048-0.144-1.536-0.2-0.288-0.696-0.904-1.464 0.144-2.104zM16.504 17.92c-0.024 0.001-0.053 0.002-0.082 0.002-1.056 0-1.912-0.856-1.912-1.912s0.856-1.912 1.912-1.912c0.974 0 1.777 0.728 1.897 1.669l0.001 0.009c0.010 0.072 0.015 0.156 0.015 0.241 0 1.026-0.812 1.862-1.828 1.902l-0.004 0z"></path>
<path d="M16.488 10.312c-0.009-0-0.021-0-0.032-0-3.146 0-5.696 2.55-5.696 5.696 0 3.135 2.532 5.678 5.662 5.696h0.002c0.009 0 0.021 0 0.032 0 3.146 0 5.696-2.55 5.696-5.696 0-3.135-2.532-5.678-5.662-5.696h-0.002zM16.608 20.872c-0.063 0.003-0.136 0.005-0.21 0.005-2.691 0-4.872-2.181-4.872-4.872s2.181-4.872 4.872-4.872c2.478 0 4.523 1.849 4.832 4.243l0.003 0.024c0.025 0.184 0.039 0.396 0.039 0.612 0 2.616-2.064 4.749-4.653 4.86l-0.010 0z"></path>
<path d="M30.232 3.344c0-1.216-0.36-1.6-1.6-1.6h-25.28c-1.224 0-1.6 0.36-1.6 1.6q0 0.528 0 1.048v0c0 0.552 0 23.608 0 24.16 0 1.312 0.344 1.664 1.64 1.664h25.176c1.312 0 1.664-0.344 1.664-1.64q0-7.792 0-15.584-0.008-4.816 0-9.648zM29.256 28.248c0 0.76-0.24 0.984-0.976 1h-24.28c-1.136 0-1.272-0.136-1.272-1.28 0-0.32 0-19.016 0-22.872v0c0-0.192 0-0.384 0-0.576v-0.112c0-0.168 0-0.336 0-0.504 0-0.96 0.192-1.152 1.144-1.152h24.216c1 0 1.168 0.176 1.168 1.192 0 3.408 0 6.304 0 9.712 0 0.8 0 1.6 0 2.344v0 12.064c0 0.056 0 0.080 0 0.088s0 0.032 0 0.096z"></path>
<path d="M25.6 5.856h-19.608c-0.141 0-0.256 0.115-0.256 0.256v0 1.088c-0.219 0.089-0.474 0.14-0.74 0.14-0.046 0-0.092-0.002-0.138-0.005l0.006 0c-0.416 0-0.552 0.152-0.552 0.56 0 1.4 0.048 2.8 0 4.192 0 0.688 0.2 0.92 0.848 0.8 0.288-0.040 0.472 0 0.576 0.168v5.76c-0.112 0.136-0.336 0.144-0.8 0.136s-0.616 0.168-0.608 0.632c0 1.248 0 2.496 0 3.752s0 1.144 1.16 1.208c0.095 0.012 0.179 0.029 0.261 0.051l-0.013-0.003v1.24c0 0.141 0.115 0.256 0.256 0.256v0h19.608c0.25-0.004 0.452-0.206 0.456-0.456v-19.312c0-0 0-0 0-0 0-0.253-0.203-0.459-0.456-0.464h-0zM5.296 12c0-0.976 0-1.344 0-2.232 0-0.6-0.16-0.928 0.16-1.232 0.075-0.076 0.17-0.132 0.276-0.159l0.004-0.001h1c0.056 0 0.12 0 0.152 0 0.16 0.136 0.44 0.288 0.44 0.44 0 1.248 0 1.472 0 2.712-0.045 0.194-0.183 0.349-0.364 0.415l-0.004 0.001h-0.224c-0.392 0-0.616 0-1 0zM5.736 23.656v0c-0.144 0-0.4-0.208-0.4-0.328 0-1.408 0-1.792 0-3.264h0.44c0.368 0 0.584 0 1 0h0.104c0.368 0 0.48 0.144 0.48 0.488 0 1.224 0 1.424 0 2.648-0.055 0.214-0.215 0.381-0.42 0.447l-0.004 0.001h-0.176zM25.136 24.928c0 0.181-0.147 0.328-0.328 0.328v0h-17.784c-0 0-0.001 0-0.001 0-0.082 0-0.157-0.030-0.215-0.080l0 0c0-0.152 0-0.304 0-0.464 0.075-0.021 0.17-0.040 0.267-0.054l0.013-0.002c1.24-0.072 1.24-0.072 1.24-1.336s0-2.4 0-3.56c0-0.528-0.16-0.704-0.688-0.696-0.84 0-0.84 0-0.84-0.872 0-1.544 0-3.088 0-4.632 0-0.408 0.136-0.584 0.544-0.568 1.104 0 0.992 0 0.992-1.072 0-1.248 0-2.504 0-3.752 0-0.584-0.16-0.8-0.752-0.752-0.12 0.008-0.259 0.012-0.4 0.012s-0.28-0.004-0.419-0.013l0.019 0.001c0-0.176 0-0.352 0-0.52 0.055-0.049 0.128-0.079 0.208-0.080h17.808c0.181 0 0.328 0.147 0.328 0.328v0z"></path>
</svg>
