<!-- Generated by IcoMoon.io -->
<svg version="1.1" xmlns="http://www.w3.org/2000/svg" width="32" height="32" viewBox="0 0 32 32">
<title>search-filled</title>
<path d="M14.856 0.104c-0.468-0.061-1.009-0.095-1.559-0.095-7.069 0-12.8 5.731-12.8 12.8s5.731 12.8 12.8 12.8c2.513 0 4.858-0.724 6.835-1.976l-0.052 0.031 7.672 7.672c0.41 0.409 0.975 0.662 1.6 0.662s1.19-0.253 1.6-0.662l-0 0c0.409-0.41 0.662-0.975 0.662-1.6s-0.253-1.19-0.662-1.6l0 0-7.544-7.528c1.652-2.128 2.648-4.836 2.648-7.777 0-0.55-0.035-1.091-0.102-1.623l0.007 0.063c-0.748-5.821-5.292-10.387-11.038-11.161l-0.066-0.007zM13.216 3.024c5.421 0 9.816 4.395 9.816 9.816s-4.395 9.816-9.816 9.816c-5.421 0-9.816-4.395-9.816-9.816 0-0.014 0-0.028 0-0.042v0.002c0.014-5.402 4.396-9.776 9.8-9.776 0.006 0 0.011 0 0.017 0h-0.001z"></path>
</svg>
