<!-- Generated by IcoMoon.io -->
<svg version="1.1" xmlns="http://www.w3.org/2000/svg" width="32" height="32" viewBox="0 0 32 32">
<title>search</title>
<path d="M30.576 30.024c-0.76-0.8-4.296-4.312-7.384-7.392 2.387-2.397 3.863-5.703 3.863-9.353 0-7.321-5.935-13.256-13.256-13.256-6.953 0-12.655 5.353-13.211 12.162l-0.003 0.047c0 0.344-0.056 0.696-0.056 1.048 0.007 7.312 5.935 13.236 13.248 13.236 3.105 0 5.961-1.068 8.22-2.858l-0.028 0.021c3.088 3.096 6.616 6.616 7.392 7.376 0.616 0.608 1.304 1.264 1.872 0.72s-0.032-1.12-0.656-1.752zM21.144 22.872c-2.015 1.556-4.576 2.494-7.356 2.494-6.68 0-12.096-5.416-12.096-12.096 0-4.455 2.409-8.348 5.995-10.447l0.057-0.031c1.351-0.799 2.941-1.35 4.64-1.547l0.056-0.005c0.42-0.052 0.907-0.081 1.4-0.081 6.667 0 12.072 5.405 12.072 12.072 0 0.003 0 0.007 0 0.010v-0.001c0 0.009 0 0.021 0 0.032 0 3.903-1.873 7.368-4.769 9.546l-0.031 0.022z"></path>
</svg>
