<!-- Generated by IcoMoon.io -->
<svg version="1.1" xmlns="http://www.w3.org/2000/svg" width="32" height="32" viewBox="0 0 32 32">
<title>send</title>
<path d="M31.2 15.32c-0.003-0-0.006-0-0.009-0-0.399 0-0.731 0.293-0.79 0.676l-0.001 0.005c-1.237 6.924-7.212 12.113-14.4 12.113s-13.163-5.188-14.387-12.024l-0.013-0.089c-0.057-0.391-0.39-0.688-0.792-0.688-0.003 0-0.006 0-0.008 0h0c-0.39 0.010-0.703 0.328-0.703 0.72 0 0.074 0.011 0.146 0.032 0.213l-0.001-0.005c1.416 8.104 7.248 13.016 15.872 13.016s14.456-4.896 15.872-12.992c0.018-0.060 0.028-0.13 0.028-0.201 0-0.395-0.308-0.719-0.698-0.743l-0.002-0z"></path>
<path d="M16.576 4.8c0 0.080 0 10.216 0 14.352 0 0.328 0.040 0.728-0.176 0.92-0.123 0.099-0.282 0.159-0.454 0.159-0.127 0-0.246-0.032-0.349-0.089l0.004 0.002c-0.416-0.168-0.328-0.504-0.344-0.944 0-0.048 0-14.288 0-14.4l-4.648 4.672c-0.145 0.148-0.347 0.239-0.571 0.239-0.194 0-0.372-0.069-0.511-0.184l0.001 0.001c-0.304-0.304-0.176-0.648 0.168-0.992l5.368-5.368c0.195-0.232 0.478-0.385 0.796-0.408l0.004-0c0.025-0.002 0.053-0.003 0.082-0.003 0.282 0 0.537 0.118 0.718 0.307l5.488 5.488c0.384 0.384 0.64 0.752 0.344 1.16s-0.664 0.328-1.144-0.12c-0.64-0.6-1.264-1.232-1.888-1.856s-2.832-2.936-2.888-2.936z"></path>
</svg>
