<!-- Generated by IcoMoon.io -->
<svg version="1.1" xmlns="http://www.w3.org/2000/svg" width="32" height="32" viewBox="0 0 32 32">
<title>send-filled</title>
<path d="M21.856 10c0.301-0.301 0.487-0.717 0.487-1.176s-0.186-0.875-0.487-1.176v0l-5.056-5.144c-0.203-0.208-0.487-0.336-0.8-0.336s-0.597 0.129-0.8 0.336l-0 0-5.056 5.152c-0.301 0.301-0.487 0.717-0.487 1.176s0.186 0.875 0.487 1.176v0c0.301 0.301 0.717 0.487 1.176 0.487s0.875-0.186 1.176-0.487v0l1.848-2.272v10.664c0.035 0.889 0.762 1.596 1.656 1.6h0c0 0 0.001 0 0.001 0 0.896 0 1.627-0.709 1.663-1.597l0-0.003v-10.672l1.848 2.272c0.301 0.301 0.717 0.487 1.176 0.487s0.875-0.186 1.176-0.487v0z"></path>
<path d="M16 26.48c-5.95-0.002-11.015-3.791-12.914-9.088l-0.030-0.096c-0.233-0.666-0.856-1.136-1.589-1.136-0.004 0-0.007 0-0.011 0h0.001c-0.921 0.015-1.661 0.765-1.661 1.688 0 0.198 0.034 0.388 0.097 0.564l-0.004-0.012c2.409 6.704 8.71 11.412 16.112 11.412s13.703-4.708 16.075-11.293l0.037-0.119c0.062-0.169 0.098-0.364 0.098-0.568 0-0.932-0.756-1.688-1.688-1.688-0.004 0-0.007 0-0.011 0h0.001c-0.003-0-0.007-0-0.011-0-0.733 0-1.356 0.47-1.586 1.124l-0.004 0.012c-1.921 5.389-6.971 9.181-12.91 9.2h-0.002z"></path>
</svg>
