<!-- Generated by IcoMoon.io -->
<svg version="1.1" xmlns="http://www.w3.org/2000/svg" width="32" height="32" viewBox="0 0 32 32">
<title>settings</title>
<path d="M32 17.96c-0.262 0.963-1.128 1.66-2.157 1.66-0.183 0-0.36-0.022-0.53-0.063l0.015 0.003c-0.448-0.048-1.144-0.080-1.328 0.176-0.382 0.601-0.698 1.294-0.914 2.030l-0.014 0.058c-0.040 0.112 0.176 0.352 0.312 0.496 0.344 0.368 0.72 0.704 1.056 1.072 0.362 0.32 0.588 0.785 0.588 1.303 0 0.455-0.175 0.869-0.461 1.179l0.001-0.001c-0.85 0.964-1.728 1.844-2.657 2.669l-0.031 0.027c-0.309 0.288-0.725 0.464-1.181 0.464-0.516 0-0.979-0.225-1.297-0.582l-0.002-0.002-0.2-0.176c-1.44-1.416-1.448-1.424-3.256-0.424-0.199 0.139-0.34 0.35-0.383 0.594l-0.001 0.006c-0.015 0.186-0.023 0.402-0.023 0.62s0.008 0.434 0.025 0.648l-0.002-0.028c0 1.528-0.56 2.184-2.088 2.272-0.372 0.024-0.806 0.037-1.244 0.037-0.748 0-1.487-0.040-2.215-0.117l0.091 0.008c-0.926-0.014-1.672-0.768-1.672-1.696 0-0.082 0.006-0.162 0.017-0.241l-0.001 0.009c0-2.032 0-2.040-1.952-2.752-0.068-0.018-0.146-0.028-0.227-0.028-0.196 0-0.378 0.062-0.528 0.166l0.003-0.002c-0.416 0.328-0.76 0.744-1.144 1.112-0.318 0.364-0.784 0.592-1.302 0.592-0.456 0-0.87-0.176-1.179-0.465l0.001 0.001c-0.964-0.85-1.844-1.728-2.669-2.657l-0.027-0.031c-0.285-0.31-0.461-0.725-0.461-1.181 0-0.515 0.224-0.979 0.579-1.298l0.002-0.001 0.192-0.216c1.416-1.448 1.424-1.448 0.424-3.256-0.139-0.199-0.35-0.34-0.594-0.383l-0.006-0.001c-0.186-0.014-0.402-0.023-0.62-0.023s-0.434 0.008-0.648 0.024l0.028-0.002c-1.52 0-2.184-0.568-2.28-2.088-0.028-0.409-0.043-0.887-0.043-1.368 0-0.6 0.024-1.194 0.072-1.781l-0.005 0.077c0.12-1.376 0.8-1.904 2.16-1.912 1.864 0 2.24-0.296 2.648-2.12 0.001-0.016 0.002-0.034 0.002-0.052 0-0.208-0.080-0.398-0.21-0.541l0.001 0.001c-0.368-0.424-0.8-0.8-1.176-1.208-0.322-0.312-0.523-0.748-0.523-1.232 0-0.426 0.155-0.815 0.413-1.115l-0.002 0.002c0.893-1.019 1.813-1.949 2.785-2.821l0.031-0.027c0.297-0.253 0.684-0.407 1.108-0.407 0.485 0 0.924 0.202 1.235 0.527l0.001 0.001c0.088 0.080 0.168 0.168 0.256 0.248 1.432 1.408 1.472 1.416 3.264 0.416 0.195-0.142 0.334-0.352 0.383-0.594l0.001-0.006c0.026-0.147 0.041-0.316 0.041-0.488s-0.015-0.341-0.043-0.506l0.003 0.018c-0.034-0.143-0.053-0.307-0.053-0.476 0-1.013 0.697-1.863 1.638-2.097l0.015-0.003h3.912c0.956 0.239 1.653 1.091 1.653 2.106 0 0.169-0.019 0.334-0.056 0.493l0.003-0.015c-0.026 0.147-0.041 0.316-0.041 0.488s0.015 0.341 0.043 0.506l-0.003-0.018c0.050 0.248 0.189 0.458 0.381 0.598l0.003 0.002c1.8 1 1.824 0.992 3.264-0.424l0.192-0.184c0.321-0.357 0.784-0.581 1.299-0.581 0.456 0 0.871 0.175 1.182 0.462l-0.001-0.001c0.945 0.83 1.807 1.687 2.614 2.594l0.026 0.030c0.318 0.32 0.514 0.76 0.514 1.246 0 0.551-0.252 1.043-0.647 1.367l-0.003 0.002c-0.344 0.368-0.72 0.704-1.064 1.072-0.112 0.12-0.288 0.328-0.248 0.432 0.239 0.792 0.557 1.482 0.957 2.115l-0.021-0.035c0.184 0.256 0.88 0.224 1.328 0.176 0.154-0.038 0.331-0.060 0.513-0.060 1.028 0 1.893 0.697 2.148 1.644l0.004 0.016zM27.608 7.28c-0.132-0.208-0.267-0.388-0.413-0.558l0.005 0.006c-0.576-0.6-1.176-1.168-1.736-1.776s-0.944-0.528-1.504 0.056c-1.648 1.72-1.672 1.696-3.816 0.8-0.216-0.088-0.432-0.184-0.664-0.256-0.8-0.205-1.382-0.919-1.382-1.77 0-0.053 0.002-0.105 0.007-0.157l-0 0.007c0-2.24 0-2.24-2.28-2.216h-0.064c-1.896 0-1.896 0-1.896 1.888 0 1.432-0.352 1.72-1.544 2.4-1.872 1.008-3.344 0.8-4.616-0.912-0.134-0.088-0.298-0.14-0.474-0.14-0.136 0-0.264 0.031-0.379 0.086l0.005-0.002c-0.769 0.662-1.467 1.346-2.117 2.074l-0.019 0.022c-0.070 0.123-0.111 0.271-0.111 0.428s0.041 0.305 0.113 0.432l-0.002-0.004c1.92 1.352 1.88 2.952 0.8 4.848-0.306 0.792-1.061 1.344-1.945 1.344-0.005 0-0.010-0-0.015-0h0.001c-2.216 0-2.216 0-2.192 2.296 0 0.088 0 0.176 0 0.264 0.048 1.696 0.048 1.696 1.736 1.704s1.792 0.288 2.584 1.728c1.016 1.848 0.632 3.2-0.944 4.36-0.376 0.28-0.464 0.592-0.096 0.96 0.712 0.712 1.4 1.448 2.152 2.112 0.113 0.057 0.247 0.091 0.388 0.091 0.17 0 0.329-0.049 0.463-0.133l-0.004 0.002c1.296-1.8 2.856-2 4.672-0.864 0.070 0.036 0.152 0.069 0.238 0.094l0.010 0.002c0.736 0.234 1.26 0.911 1.26 1.711 0 0.043-0.001 0.085-0.004 0.126l0-0.006c0 2.312 0 2.312 2.4 2.264 1.856 0 1.856 0 1.856-1.848 0-1.528 0.328-1.72 1.664-2.448 1.848-1.008 3.2-0.712 4.44 0.944 0.090 0.19 0.28 0.319 0.5 0.319 0.191 0 0.359-0.097 0.459-0.245l0.001-0.002 2.072-2.072c0.328-0.328 0.408-0.656 0-0.96-1.768-1.24-2.016-2.776-0.888-4.576 0.026-0.045 0.051-0.098 0.070-0.153l0.002-0.007c0.186-0.812 0.902-1.409 1.757-1.409 0.086 0 0.17 0.006 0.253 0.018l-0.009-0.001c2.16 0 2.16 0 2.152-2.176 0-0.12 0-0.24 0-0.352-0.048-1.744-0.048-1.744-1.776-1.744-1.6 0-1.776-0.304-2.52-1.688-0.976-1.808-0.736-3.2 0.896-4.368 0.172-0.159 0.323-0.338 0.449-0.533l0.007-0.011z"></path>
<path d="M15.952 22.048c-3.315-0.027-5.992-2.721-5.992-6.040 0-3.336 2.704-6.040 6.040-6.040s6.040 2.704 6.040 6.040c0 0.022-0 0.045-0 0.067l0-0.003c-0.009 3.303-2.688 5.977-5.992 5.977-0.034 0-0.067-0-0.101-0.001l0.005 0zM15.952 20.632c0.014 0 0.031 0 0.048 0 2.554 0 4.624-2.070 4.624-4.624s-2.070-4.624-4.624-4.624c-2.551 0-4.619 2.066-4.624 4.615v0c0.031 2.543 2.082 4.596 4.621 4.632l0.003 0z"></path>
</svg>
