<!-- Generated by IcoMoon.io -->
<svg version="1.1" xmlns="http://www.w3.org/2000/svg" width="32" height="32" viewBox="0 0 32 32">
<title>settings-filled</title>
<path d="M30.576 15.608c-0.048-1.744-0.048-1.744-1.776-1.744-1.6 0-1.776-0.304-2.52-1.688-0.976-1.808-0.736-3.2 0.896-4.368 0.166-0.157 0.311-0.333 0.433-0.525l0.007-0.011c-0.135-0.208-0.272-0.388-0.421-0.557l0.005 0.005c-0.576-0.6-1.176-1.168-1.736-1.776s-0.944-0.528-1.504 0.056c-1.648 1.72-1.672 1.696-3.816 0.8-0.216-0.088-0.432-0.184-0.664-0.256-0.8-0.205-1.382-0.919-1.382-1.77 0-0.053 0.002-0.105 0.007-0.157l-0 0.007c0-2.24 0-2.24-2.28-2.216h-0.088c-1.896 0-1.896 0-1.896 1.888 0 1.432-0.352 1.72-1.544 2.4-1.872 1.008-3.344 0.8-4.616-0.912-0.134-0.088-0.298-0.14-0.474-0.14-0.136 0-0.264 0.031-0.379 0.086l0.005-0.002c-0.759 0.661-1.448 1.345-2.091 2.072l-0.021 0.024c-0.070 0.123-0.111 0.271-0.111 0.428s0.041 0.305 0.113 0.432l-0.002-0.004c1.92 1.352 1.88 2.952 0.8 4.848-0.306 0.792-1.061 1.344-1.945 1.344-0.005 0-0.010-0-0.015-0h0.001c-2.216 0-2.216 0-2.192 2.296 0 0.088 0 0.176 0 0.264 0.048 1.696 0.048 1.696 1.736 1.704s1.792 0.288 2.584 1.728c1.016 1.848 0.632 3.2-0.944 4.36-0.376 0.28-0.464 0.592-0.096 0.96 0.712 0.712 1.4 1.448 2.152 2.112 0.113 0.057 0.247 0.091 0.388 0.091 0.17 0 0.329-0.049 0.463-0.133l-0.004 0.002c1.296-1.8 2.856-2 4.672-0.864 0.070 0.036 0.152 0.069 0.238 0.094l0.010 0.002c0.736 0.234 1.26 0.911 1.26 1.711 0 0.043-0.001 0.085-0.004 0.126l0-0.006c0 2.312 0 2.312 2.4 2.264 1.856 0 1.856 0 1.856-1.848 0-1.528 0.328-1.72 1.664-2.448 1.848-1.008 3.2-0.712 4.44 0.944 0.090 0.19 0.28 0.319 0.5 0.319 0.191 0 0.359-0.097 0.459-0.245l0.001-0.002 2.072-2.072c0.328-0.328 0.408-0.656 0-0.96-1.768-1.24-2.016-2.776-0.888-4.576 0.026-0.045 0.051-0.098 0.070-0.153l0.002-0.007c0.186-0.812 0.902-1.409 1.757-1.409 0.086 0 0.17 0.006 0.253 0.018l-0.009-0.001c2.16 0 2.16 0 2.152-2.176 0.032-0.128 0.032-0.24 0.024-0.36zM15.952 22.008c-3.315-0.027-5.992-2.721-5.992-6.040 0-3.336 2.704-6.040 6.040-6.040s6.040 2.704 6.040 6.040c0 0.022-0 0.045-0 0.067l0-0.003c0 0.005 0 0.011 0 0.017 0 3.309-2.683 5.992-5.992 5.992-0.034 0-0.067-0-0.101-0.001l0.005 0z"></path>
</svg>
