<!-- Generated by IcoMoon.io -->
<svg version="1.1" xmlns="http://www.w3.org/2000/svg" width="32" height="32" viewBox="0 0 32 32">
<title>shapeshift-switch</title>
<path d="M16 0c8.822 0 16 7.178 16 16s-7.178 16-16 16c-8.822 0-16-7.178-16-16s7.178-16 16-16zM16 30.5c7.995 0 14.5-6.505 14.5-14.5s-6.505-14.5-14.5-14.5c-7.995 0-14.5 6.505-14.5 14.5s6.505 14.5 14.5 14.5z"></path>
<path d="M18.855 16.174l4.236 3.533c0.048 0.035 0.093 0.074 0.132 0.121 0.102 0.122 0.157 0.267 0.17 0.413 0.002 0.023 0 0.046 0.001 0.070-0.001 0.023 0.001 0.046-0.001 0.070-0.012 0.146-0.069 0.291-0.17 0.413-0.039 0.047-0.084 0.087-0.132 0.121l-4.236 3.532c-0.319 0.265-0.791 0.223-1.056-0.096s-0.221-0.791 0.096-1.056l2.68-2.234h-11.323c-0.414 0-0.75-0.336-0.75-0.75s0.336-0.75 0.75-0.75h11.323l-2.678-2.235c-0.319-0.265-0.361-0.738-0.096-1.056 0.264-0.318 0.737-0.361 1.055-0.096z"></path>
<path d="M13.040 8.174l-4.237 3.533c-0.047 0.035-0.092 0.074-0.132 0.121-0.101 0.122-0.157 0.267-0.171 0.414-0.002 0.023 0 0.046-0.001 0.069 0.001 0.023-0.002 0.046 0.001 0.069 0.013 0.147 0.069 0.291 0.171 0.413 0.039 0.047 0.084 0.086 0.132 0.121l4.237 3.533c0.319 0.265 0.791 0.223 1.056-0.096s0.222-0.791-0.095-1.056l-2.679-2.234h11.323c0.414 0 0.75-0.335 0.75-0.75s-0.336-0.75-0.75-0.75h-11.323l2.678-2.234c0.319-0.265 0.361-0.739 0.095-1.056-0.264-0.318-0.737-0.361-1.056-0.096z"></path>
</svg>
