<!-- Generated by IcoMoon.io -->
<svg version="1.1" xmlns="http://www.w3.org/2000/svg" width="32" height="32" viewBox="0 0 32 32">
<title>sophisticated</title>
<path d="M29.712 20.72h-1.16v-3.92c0-0.495-0.401-0.896-0.896-0.896v0h-11.064v-4.624h1.16c1.264 0 2.288-1.024 2.288-2.288v0-3.504c0-1.264-1.024-2.288-2.288-2.288v0h-3.504c-1.264 0-2.288 1.024-2.288 2.288v0 3.504c0 1.264 1.024 2.288 2.288 2.288v0h1.16v4.64h-10.776c-0.654 0-1.184 0.53-1.184 1.184v0 3.616h-1.16c-1.264 0-2.288 1.024-2.288 2.288v3.504c0 1.264 1.024 2.288 2.288 2.288v0h3.504c1.264 0 2.288-1.024 2.288-2.288v0-3.504c0-1.264-1.024-2.288-2.288-2.288v0h-1.16v-3.616h10.776v3.616h-1.16c-1.264 0-2.288 1.024-2.288 2.288v0 3.504c0 1.264 1.024 2.288 2.288 2.288v0h3.504c1.264 0 2.288-1.024 2.288-2.288v0-3.504c0-1.264-1.024-2.288-2.288-2.288v0h-1.16v-3.616h10.776v3.616h-1.16c-1.264 0-2.288 1.024-2.288 2.288v0 3.504c0 1.264 1.024 2.288 2.288 2.288v0h3.504c1.264 0 2.288-1.024 2.288-2.288v0-3.504c0-1.264-1.024-2.288-2.288-2.288v0zM13.256 8.656v-2.864c0-0.725 0.587-1.312 1.312-1.312v0h2.864c0.725 0 1.312 0.587 1.312 1.312v0 2.864c0 0.725-0.587 1.312-1.312 1.312v0h-2.864c-0.725 0-1.312-0.587-1.312-1.312v0zM6.776 23.32v2.848c0 0.72-0.584 1.304-1.304 1.304v0h-2.856c-0.72 0-1.304-0.584-1.304-1.304v-2.848c0-0.72 0.584-1.304 1.304-1.304v0h2.848c0.002-0 0.005-0 0.008-0 0.72 0 1.304 0.584 1.304 1.304 0 0 0 0 0 0v0zM18.776 23.32v2.872c0 0.002 0 0.005 0 0.008 0 0.729-0.591 1.32-1.32 1.32-0.006 0-0.011-0-0.017-0h-2.879c-0.729 0-1.32-0.591-1.32-1.32v0-2.872c0-0.729 0.591-1.32 1.32-1.32v0h2.88c0.726 0.005 1.312 0.594 1.312 1.32 0 0 0 0 0 0v0zM30.736 26.192c0 0.729-0.591 1.32-1.32 1.32h-2.896c-0.729 0-1.32-0.591-1.32-1.32v0-2.864c0-0.729 0.591-1.32 1.32-1.32h2.872c0.729 0 1.32 0.591 1.32 1.32v0z"></path>
</svg>
