<!-- Generated by IcoMoon.io -->
<svg version="1.1" xmlns="http://www.w3.org/2000/svg" width="32" height="32" viewBox="0 0 32 32">
<title>stack-of-coins-2</title>
<path d="M4.592 26.304c-0.372-0.633-0.592-1.394-0.592-2.207 0-0.012 0-0.023 0-0.035v0.002c0-0.712 0-1.432 0-2.144 0.045-0.538 0.13-1.032 0.254-1.51l-0.014 0.062c0.048-0.2 0-0.264-0.128-0.36-0.656-0.408-1.328-0.8-1.952-1.28-0.773-0.582-1.381-1.342-1.77-2.22l-0.014-0.036c-0.124-0.319-0.253-0.727-0.359-1.145l-0.017-0.079q0-1.672 0-3.352c0.022-0.050 0.044-0.111 0.062-0.174l0.002-0.010c0.183-0.932 0.6-1.746 1.188-2.405l-0.004 0.005c0.717-0.799 1.567-1.46 2.519-1.953l0.049-0.023c0.15-0.072 0.257-0.213 0.28-0.381l0-0.003c0.154-0.765 0.476-1.437 0.927-2.001l-0.007 0.009c0.886-1.105 2.009-1.982 3.296-2.562l0.056-0.022c1.474-0.71 3.186-1.216 4.989-1.425l0.075-0.007 1.336-0.176h2.456c0.075 0.022 0.167 0.041 0.261 0.055l0.011 0.001c2.25 0.147 4.336 0.704 6.233 1.597l-0.105-0.045c1.266 0.578 2.334 1.39 3.19 2.388l0.010 0.012c0.731 0.838 1.177 1.941 1.177 3.148 0 0.032-0 0.064-0.001 0.096l0-0.005c0 0.624 0 1.256 0 1.872-0.052 0.601-0.14 1.147-0.264 1.679l0.016-0.079c-0.040 0.192 0 0.256 0.128 0.344 0.688 0.44 1.392 0.864 2.056 1.36 0.683 0.503 1.226 1.156 1.587 1.913l0.013 0.031c0.153 0.386 0.312 0.88 0.443 1.384l0.021 0.096v3.28c-0.016 0.030-0.029 0.064-0.039 0.1l-0.001 0.004c-0.217 1.258-0.872 2.334-1.799 3.089l-0.009 0.007c-0.616 0.528-1.312 0.936-1.968 1.416-0.117 0.081-0.209 0.189-0.27 0.315l-0.002 0.005c-0.192 0.448-0.368 0.904-0.536 1.368 0 0.104-0.088 0 0 0.104-2.688 4.096-7.736 4.76-11.544 4.72-5.76-0.064-10.192-2.608-11.24-4.824zM16 13.6c0.568 0 1.144 0 1.712 0 1.475-0.096 2.851-0.381 4.15-0.833l-0.11 0.033c1.493-0.482 2.778-1.241 3.856-2.223l-0.008 0.007c0.524-0.468 0.938-1.049 1.205-1.705l0.011-0.031c0.104-0.297 0.165-0.64 0.165-0.998 0-0.791-0.296-1.513-0.783-2.062l0.003 0.003c-0.807-0.955-1.809-1.719-2.947-2.235l-0.053-0.021c-1.839-0.875-3.99-1.412-6.259-1.472l-0.021-0c-0.351-0.027-0.76-0.042-1.172-0.042-2.737 0-5.319 0.666-7.592 1.845l0.092-0.043c-1.115 0.564-2.030 1.379-2.696 2.375l-0.016 0.025c-0.331 0.462-0.529 1.038-0.529 1.661 0 0.388 0.077 0.757 0.216 1.094l-0.007-0.019c0.28 0.651 0.681 1.201 1.179 1.644l0.005 0.004c1.161 1.042 2.566 1.836 4.117 2.285l0.075 0.019c1.382 0.449 2.972 0.708 4.622 0.708 0.277 0 0.551-0.007 0.824-0.022l-0.038 0.002zM13.6 21.776v0.12c0.864 0.24 1.72 0.528 2.6 0.72 1.151 0.261 2.473 0.411 3.831 0.411 0.666 0 1.323-0.036 1.97-0.106l-0.080 0.007c2-0.169 3.842-0.689 5.518-1.497l-0.094 0.041c1.128-0.52 2.077-1.247 2.838-2.141l0.010-0.011c0.405-0.478 0.689-1.071 0.797-1.723l0.003-0.021c0.016-0.116 0.026-0.25 0.026-0.386 0-0.685-0.236-1.314-0.63-1.812l0.005 0.006c-0.796-1.027-1.816-1.842-2.99-2.38l-0.050-0.020c-0.176-0.088-0.272-0.048-0.384 0.104-0.184 0.231-0.37 0.437-0.567 0.631l-0.001 0.001c-0.641 0.616-1.37 1.148-2.163 1.574l-0.052 0.026c-0.117 0.078-0.203 0.195-0.239 0.332l-0.001 0.004c-0.184 0.855-0.568 1.601-1.101 2.214l0.005-0.006c-0.81 0.942-1.801 1.702-2.922 2.233l-0.053 0.023c-1.373 0.704-2.969 1.223-4.652 1.47l-0.084 0.010zM4 8.656l-0.144 0.064c-0.973 0.537-1.778 1.267-2.385 2.145l-0.015 0.023c-0.313 0.455-0.5 1.017-0.5 1.624 0 0.485 0.12 0.943 0.331 1.344l-0.008-0.016c0.356 0.683 0.832 1.256 1.405 1.712l0.011 0.008c1.019 0.828 2.218 1.483 3.523 1.899l0.077 0.021c1.627 0.548 3.5 0.864 5.447 0.864 0.028 0 0.057-0 0.085-0l-0.004 0c0.121 0.003 0.263 0.005 0.406 0.005 2.22 0 4.34-0.425 6.285-1.197l-0.115 0.040c0.081-0.037 0.147-0.072 0.211-0.11l-0.011 0.006c-0.051-0.037-0.114-0.059-0.182-0.059-0.015 0-0.029 0.001-0.043 0.003l0.002-0c-0.544 0.048-1.088 0.104-1.6 0.136-0.278 0.015-0.604 0.024-0.932 0.024-1.193 0-2.358-0.117-3.486-0.339l0.114 0.019c-1.732-0.304-3.282-0.861-4.693-1.639l0.077 0.039c-1.117-0.584-2.053-1.366-2.794-2.31l-0.014-0.018c-0.586-0.688-0.969-1.565-1.047-2.528l-0.001-0.016c0-0.584 0-1.136 0-1.744zM22.576 26.4v-0.080h-0.424c-0.666 0.079-1.438 0.123-2.22 0.123s-1.554-0.045-2.313-0.132l0.093 0.009c-2.525-0.226-4.822-1.039-6.806-2.301l0.062 0.037c-0.963-0.613-1.751-1.419-2.326-2.368l-0.018-0.032c-0.077-0.101-0.18-0.179-0.299-0.223l-0.005-0.001c-0.032-0.002-0.070-0.003-0.109-0.003-0.074 0-0.148 0.004-0.22 0.012l0.009-0.001-2.688-0.728c-0.188 0.343-0.299 0.752-0.299 1.187 0 0.398 0.093 0.774 0.258 1.108l-0.007-0.015c0.478 1.001 1.206 1.816 2.105 2.386l0.023 0.014c1.818 1.189 3.999 1.977 6.346 2.188l0.054 0.004c0.658 0.084 1.419 0.132 2.192 0.132 1.286 0 2.54-0.132 3.751-0.384l-0.119 0.021c1.124-0.235 2.114-0.563 3.050-0.989l-0.090 0.037z"></path>
</svg>
