<!-- Generated by IcoMoon.io -->
<svg version="1.1" xmlns="http://www.w3.org/2000/svg" width="32" height="32" viewBox="0 0 32 32">
<title>stack-of-coins-filled</title>
<path d="M5.344 12.192c0.372 0.201 0.823 0.406 1.288 0.581l0.080 0.027c0.754 0.298 1.667 0.573 2.606 0.778l0.122 0.022c1.809 0.402 3.888 0.632 6.020 0.632 0.052 0 0.104-0 0.156-0l-0.008 0c0.044 0 0.096 0 0.148 0 2.132 0 4.21-0.23 6.211-0.667l-0.192 0.035c1.391-0.294 2.618-0.716 3.772-1.267l-0.1 0.043c0.381-0.169 0.693-0.332 0.994-0.511l-0.042 0.023 0.376-0.256c0.231-0.17 0.435-0.345 0.624-0.536l0-0c0.493-0.445 0.812-1.074 0.848-1.778l0-0.006c0-2.736-5.648-4.96-12.616-4.96-6.28 0-11.488 1.8-12.456 4.16-0.101 0.236-0.16 0.511-0.16 0.8v0c0.002 0.233 0.043 0.455 0.116 0.662l-0.004-0.014c0.452 0.993 1.227 1.774 2.189 2.221l0.027 0.011z"></path>
<path d="M4.184 15.712c0.37 0.18 0.838 0.372 1.318 0.539l0.098 0.029c1.486 0.505 3.218 0.878 5.010 1.049l0.094 0.007c0.945 0.101 2.041 0.159 3.151 0.16h0.001c0.075 0.001 0.163 0.001 0.252 0.001 2.572 0 5.061-0.354 7.421-1.015l-0.193 0.046c0.969-0.275 1.803-0.605 2.594-1.006l-0.082 0.038c0.507-0.243 0.943-0.51 1.348-0.815l-0.020 0.014c0.487-0.362 0.873-0.833 1.127-1.378l0.009-0.022c-0.617 0.345-1.343 0.675-2.097 0.944l-0.103 0.032c-0.621 0.232-1.408 0.466-2.212 0.653l-0.14 0.027c-1.824 0.422-3.918 0.664-6.069 0.664-0.035 0-0.069-0-0.104-0h0.005c-0.029 0-0.064 0-0.099 0-2.151 0-4.245-0.242-6.258-0.7l0.188 0.036c-0.944-0.214-1.731-0.448-2.496-0.726l0.144 0.046c-0.674-0.251-1.225-0.499-1.758-0.777l0.086 0.041c-0.445-0.22-0.811-0.43-1.165-0.659l0.045 0.027c-0.913-0.545-1.651-1.294-2.168-2.187l-0.016-0.029c-0.493 0.445-0.812 1.074-0.848 1.778l-0 0.006c0.115 1.038 0.725 1.912 1.584 2.392l0.016 0.008c0.329 0.229 0.707 0.45 1.101 0.642l0.051 0.022z"></path>
<path d="M26.352 15.304c-0.316 0.283-0.664 0.547-1.032 0.781l-0.032 0.019c-0.4 0.27-0.864 0.536-1.347 0.77l-0.069 0.030c-0.72 0.349-1.581 0.678-2.471 0.938l-0.121 0.030c-2.158 0.62-4.637 0.977-7.199 0.977-0.076 0-0.152-0-0.229-0.001l0.012 0c-0.011 0-0.023 0-0.036 0-1.115 0-2.215-0.061-3.298-0.18l0.134 0.012c-0.88-0.096-1.728-0.232-2.528-0.4-1.453-0.295-2.73-0.701-3.944-1.225l0.128 0.049c0.63 0.843 1.462 1.503 2.426 1.913l0.038 0.015c0.375 0.187 0.846 0.384 1.329 0.555l0.095 0.029c2.403 0.803 5.169 1.266 8.044 1.266 0.106 0 0.211-0.001 0.316-0.002l-0.016 0c4 0 7.616-0.744 9.928-1.896 0.511-0.245 0.949-0.511 1.357-0.815l-0.021 0.015h0.048c0.328-0.256 0.61-0.548 0.847-0.876l0.009-0.012c0.273-0.362 0.443-0.816 0.456-1.309l0-0.003c-0.115-1.038-0.725-1.912-1.584-2.392l-0.016-0.008c-0.278 0.683-0.694 1.259-1.219 1.715l-0.005 0.005z"></path>
<path d="M29.28 20.368c-1.112 2.992-6.808 5.272-13.672 5.272-0.142 0.003-0.31 0.005-0.479 0.005-3.354 0-6.55-0.678-9.457-1.905l0.16 0.060c1.288 2.2 6.304 3.848 12.296 3.848 6.968 0 12.616-2.216 12.616-4.96-0.094-0.989-0.652-1.83-1.45-2.312l-0.014-0.008z"></path>
<path d="M28.184 19.696l-0.272-0.136c-2.512 1.6-6.656 2.696-11.352 2.696-0.141 0.003-0.307 0.005-0.473 0.005-3.325 0-6.495-0.663-9.385-1.864l0.162 0.060c-0.473-0.209-0.854-0.404-1.223-0.617l0.063 0.033c-0.892-0.487-1.644-1.116-2.253-1.866l-0.011-0.014c-0.274 0.362-0.443 0.816-0.456 1.309l-0 0.003c0.104 0.981 0.662 1.812 1.458 2.288l0.014 0.008c0.316 0.233 0.675 0.456 1.051 0.651l0.045 0.021c2.304 1.192 5.952 1.96 10.056 1.96 6.632 0.032 12.064-1.984 12.576-4.536z"></path>
</svg>
