<!-- Generated by IcoMoon.io -->
<svg version="1.1" xmlns="http://www.w3.org/2000/svg" width="32" height="32" viewBox="0 0 32 32">
<title>stack-of-coins</title>
<path d="M29.464 19.040c-0.024-0.24-0.072-0.46-0.142-0.67l0.006 0.022c0.638-0.634 1.042-1.503 1.072-2.466l0-0.006c0-1.36-0.944-2.624-2.544-3.656 0.914-0.687 1.521-1.742 1.599-2.94l0.001-0.012c0-3.496-6.208-6.336-13.872-6.336s-13.848 2.832-13.848 6.336c0 0.048 0 0.104 0 0.152-0.988 0.695-1.648 1.799-1.735 3.059l-0.001 0.013c0 1.408 1.008 2.712 2.704 3.76 0.026 0.205 0.069 0.389 0.126 0.566l-0.006-0.022c-0.642 0.63-1.051 1.496-1.088 2.457l-0 0.007c0 1.36 0.936 2.624 2.536 3.656 0.304 3.376 6.4 6.072 13.856 6.072 7.664 0 13.872-2.84 13.872-6.336 0-1.368-0.936-2.624-2.536-3.656zM29.168 15.92c-0.013 0.496-0.182 0.95-0.46 1.318l0.004-0.006c-0.246 0.34-0.528 0.632-0.846 0.881l-0.009 0.007h-0.048c-0.387 0.289-0.825 0.555-1.288 0.779l-0.048 0.021c-2.312 1.152-5.896 1.896-9.928 1.896-0.113 0.002-0.246 0.003-0.38 0.003-2.848 0-5.59-0.455-8.157-1.295l0.185 0.052c-0.578-0.2-1.049-0.397-1.505-0.619l0.081 0.035c-1.002-0.425-1.834-1.084-2.453-1.913l-0.011-0.015c1.086 0.475 2.363 0.881 3.689 1.154l0.127 0.022c0.8 0.168 1.648 0.304 2.528 0.4 0.949 0.107 2.049 0.168 3.164 0.168 0.013 0 0.025 0 0.038-0h-0.002c0.064 0.001 0.141 0.001 0.217 0.001 2.562 0 5.041-0.357 7.39-1.023l-0.19 0.046c1.011-0.29 1.872-0.619 2.696-1.013l-0.104 0.045c0.552-0.264 1.016-0.53 1.458-0.826l-0.042 0.026c0.4-0.254 0.748-0.517 1.072-0.807l-0.008 0.007c0.538-0.479 0.956-1.081 1.214-1.761l0.010-0.031c0.891 0.495 1.507 1.39 1.607 2.435l0.001 0.013zM15.568 4.352c6.968 0 12.616 2.216 12.616 4.96-0.036 0.71-0.355 1.339-0.846 1.782l-0.002 0.002c-0.189 0.191-0.393 0.366-0.61 0.526l-0.014 0.010-0.376 0.256c-0.256 0.167-0.56 0.34-0.874 0.496l-0.054 0.024c-1.042 0.495-2.256 0.906-3.524 1.173l-0.108 0.019c-1.809 0.402-3.888 0.632-6.020 0.632-0.052 0-0.104-0-0.156-0l0.008 0c-0.046 0-0.101 0-0.156 0-2.132 0-4.21-0.23-6.211-0.668l0.191 0.035c-1.061-0.226-1.974-0.502-2.854-0.843l0.126 0.043c-0.544-0.211-0.995-0.423-1.428-0.662l0.060 0.030c-1.002-0.452-1.789-1.234-2.237-2.204l-0.011-0.028c-0.069-0.193-0.11-0.415-0.112-0.647v-0.001c0-0.289 0.059-0.564 0.165-0.814l-0.005 0.014c0.976-2.336 6.184-4.136 12.472-4.136zM1.256 12.536c0.036-0.71 0.355-1.339 0.846-1.782l0.002-0.002c0.533 0.922 1.271 1.671 2.156 2.201l0.028 0.015c0.308 0.202 0.675 0.412 1.054 0.602l0.066 0.030c0.447 0.227 1.002 0.465 1.572 0.67l0.108 0.034c0.621 0.232 1.408 0.466 2.212 0.653l0.14 0.027c1.824 0.422 3.918 0.664 6.069 0.664 0.035 0 0.069-0 0.104-0h-0.005c0.029 0 0.064 0 0.099 0 2.151 0 4.245-0.242 6.258-0.7l-0.188 0.036c0.944-0.214 1.731-0.448 2.496-0.726l-0.144 0.046c0.857-0.301 1.583-0.631 2.275-1.014l-0.075 0.038c-0.263 0.567-0.649 1.038-1.126 1.393l-0.010 0.007c-0.385 0.29-0.821 0.557-1.281 0.78l-0.047 0.020c-0.709 0.363-1.543 0.693-2.41 0.943l-0.102 0.025c-2.167 0.615-4.657 0.969-7.228 0.969-0.088 0-0.177-0-0.265-0.001l0.014 0c-1.111-0.001-2.207-0.059-3.288-0.171l0.136 0.011c-1.887-0.165-3.627-0.527-5.285-1.071l0.165 0.047c-0.583-0.195-1.057-0.387-1.517-0.604l0.085 0.036-0.168-0.112c-0.433-0.213-0.8-0.431-1.148-0.674l0.028 0.018c-0.887-0.484-1.506-1.363-1.623-2.394l-0.001-0.014zM2.992 19.304c0.013-0.496 0.182-0.95 0.46-1.318l-0.004 0.006c0.62 0.764 1.372 1.393 2.225 1.861l0.039 0.019c0.306 0.18 0.687 0.375 1.078 0.551l0.082 0.033c2.728 1.141 5.898 1.804 9.223 1.804 0.164 0 0.327-0.002 0.49-0.005l-0.024 0c4.696 0 8.848-1.064 11.352-2.696l0.272 0.136c-0.504 2.552-5.944 4.568-12.576 4.568-4.104 0-7.744-0.8-10.056-1.96-0.419-0.226-0.778-0.459-1.115-0.718l0.019 0.014c-0.81-0.484-1.368-1.315-1.471-2.283l-0.001-0.013zM18.128 27.648c-6 0-11.016-1.64-12.296-3.848 2.748 1.167 5.943 1.845 9.297 1.845 0.168 0 0.336-0.002 0.504-0.005l-0.025 0c6.864 0 12.568-2.28 13.672-5.272 0.812 0.49 1.37 1.331 1.463 2.308l0.001 0.012c0 2.744-5.648 4.96-12.616 4.96z"></path>
</svg>
