<!-- Generated by IcoMoon.io -->
<svg version="1.1" xmlns="http://www.w3.org/2000/svg" width="32" height="32" viewBox="0 0 32 32">
<title>support-filled</title>
<path d="M31.744 16c-0.263-1.097-0.842-2.032-1.634-2.731l-0.006-0.005c-0.343-0.242-0.737-0.476-1.147-0.68l-0.053-0.024c-0.116-0.058-0.212-0.139-0.287-0.238l-0.002-0.002c-0.231-0.401-0.557-0.724-0.948-0.945l-0.012-0.007c-0.105-0.066-0.18-0.17-0.207-0.293l-0.001-0.003c-0.666-4.802-4.158-8.637-8.719-9.798l-0.081-0.018c-0.632-0.144-1.288-0.216-1.928-0.328h-1.408c-0.52 0.080-1.048 0.144-1.6 0.248-4.591 1.001-8.127 4.602-9.020 9.15l-0.012 0.074c-0.096 0.528-0.072 0.88-0.384 1.072-0.33 0.136-0.601 0.356-0.796 0.634l-0.004 0.006c-0.216 0.464-0.488 0.504-0.928 0.72-1.023 0.568-1.785 1.5-2.12 2.617l-0.008 0.031c-0.192 0.52-0.296 1.136-0.44 1.704v1.44c0 0.096 0.048 0.2 0.064 0.296 0.151 1.123 0.572 2.125 1.196 2.969l-0.012-0.017c0.448 0.6 1.055 1.059 1.757 1.319l0.027 0.009c0.157 0.064 0.286 0.172 0.374 0.309l0.002 0.003c0.307 0.584 0.878 0.994 1.551 1.071l0.009 0.001c0.024 0.001 0.052 0.002 0.080 0.002 1.105 0 2-0.895 2-2 0-0.006-0-0.012-0-0.019v0.001c0-3.072 0-6.144 0-9.216 0.001-0.028 0.002-0.061 0.002-0.094 0-0.788-0.424-1.478-1.056-1.852l-0.010-0.005c-0.079-0.065-0.128-0.163-0.128-0.272 0-0.006 0-0.011 0-0.017l-0 0.001c0.103-0.694 0.231-1.292 0.393-1.875l-0.025 0.107c1.317-4.175 5.154-7.149 9.686-7.149 1.178 0 2.309 0.201 3.361 0.571l-0.071-0.022c4 1.312 6.328 4.192 6.984 8.384 0 0.184 0 0.248-0.176 0.336-0.617 0.362-1.025 1.023-1.025 1.779 0 0.024 0 0.049 0.001 0.073l-0-0.004q0 4.608 0 9.216c-0.001 0.021-0.001 0.046-0.001 0.070 0 0.755 0.412 1.414 1.023 1.764l0.010 0.005c0.132 0.063 0.222 0.195 0.222 0.348 0 0.024-0.002 0.047-0.006 0.070l0-0.002c-0.208 1.904-1.224 3.312-3.36 3.584-0.936 0.12-1.888 0.064-2.84 0.096-0.015 0.002-0.033 0.003-0.051 0.003-0.161 0-0.3-0.095-0.363-0.233l-0.001-0.002c-0.305-0.595-0.902-1.002-1.596-1.032l-0.004-0c-1.104 0-2.208 0-3.312 0-0.78 0.028-1.439 0.522-1.708 1.211l-0.004 0.013c-0.101 0.21-0.16 0.457-0.16 0.717 0 0.455 0.18 0.868 0.472 1.171l-0.001-0.001c0.333 0.373 0.777 0.64 1.28 0.749l0.016 0.003h3.504c0.701-0.146 1.277-0.592 1.594-1.195l0.006-0.013c0-0.064 0.168-0.096 0.256-0.096h2.096c0.032 0.001 0.070 0.001 0.109 0.001 2.84 0 5.166-2.202 5.363-4.992l0.001-0.017c0.018-0.126 0.086-0.233 0.183-0.303l0.001-0.001c0.391-0.229 0.705-0.549 0.922-0.932l0.006-0.012c0.049-0.1 0.13-0.178 0.229-0.223l0.003-0.001c0.886-0.301 1.606-0.894 2.062-1.663l0.010-0.017c0.512-0.776 0.865-1.701 0.989-2.697l0.003-0.031c0.019-0.095 0.041-0.175 0.068-0.253l-0.004 0.014v-1.44c-0.088-0.392-0.152-0.8-0.256-1.192z"></path>
</svg>
