<!-- Generated by IcoMoon.io -->
<svg version="1.1" xmlns="http://www.w3.org/2000/svg" width="32" height="32" viewBox="0 0 32 32">
<title>support</title>
<path d="M14.56 31.064c-0.519-0.112-0.963-0.379-1.294-0.75l-0.002-0.002c-0.292-0.303-0.472-0.716-0.472-1.171 0-0.26 0.059-0.507 0.164-0.727l-0.004 0.010c0.273-0.702 0.932-1.196 1.709-1.224l0.003-0c1.104 0 2.208 0 3.312 0 0.698 0.030 1.295 0.437 1.595 1.021l0.005 0.011c0.064 0.14 0.203 0.235 0.365 0.235 0.018 0 0.036-0.001 0.054-0.004l-0.002 0c0.944 0 1.904 0 2.84-0.096 2.136-0.272 3.152-1.68 3.36-3.584 0.004-0.020 0.006-0.044 0.006-0.068 0-0.153-0.090-0.286-0.22-0.347l-0.002-0.001c-0.621-0.356-1.033-1.014-1.033-1.77 0-0.025 0-0.049 0.001-0.074l-0 0.004q0-4.608 0-9.216c-0.001-0.021-0.001-0.045-0.001-0.069 0-0.756 0.408-1.416 1.016-1.774l0.010-0.005c0.136-0.088 0.208-0.16 0.176-0.336-0.656-4.192-2.944-7.072-6.944-8.384-0.976-0.344-2.102-0.543-3.274-0.543-4.542 0-8.386 2.987-9.675 7.104l-0.019 0.072c-0.137 0.476-0.265 1.074-0.357 1.683l-0.011 0.085c-0 0.005-0 0.010-0 0.016 0 0.109 0.050 0.207 0.128 0.271l0.001 0c0.642 0.38 1.066 1.070 1.066 1.858 0 0.033-0.001 0.066-0.002 0.099l0-0.005c0 3.072 0 6.144 0 9.216 0 0.005 0 0.011 0 0.018 0 1.105-0.895 2-2 2-0.028 0-0.056-0.001-0.084-0.002l0.004 0c-0.682-0.078-1.253-0.488-1.555-1.061l-0.005-0.011c-0.087-0.154-0.22-0.273-0.379-0.342l-0.005-0.002c-0.733-0.28-1.34-0.752-1.776-1.357l-0.008-0.011c-0.606-0.816-1.026-1.804-1.18-2.878l-0.004-0.034c0-0.104-0.040-0.2-0.064-0.296q0-0.72 0-1.44c0.144-0.568 0.248-1.152 0.44-1.704 0.341-1.164 1.114-2.109 2.129-2.668l0.023-0.012c0.448-0.216 0.712-0.256 0.928-0.72 0.199-0.284 0.471-0.504 0.788-0.636l0.012-0.004c0.312-0.184 0.28-0.544 0.384-1.072 0.92-4.608 4.456-8.192 8.963-9.17l0.077-0.014c0.52-0.104 1.040-0.168 1.6-0.248h1.376c0.64 0.104 1.296 0.184 1.928 0.328 4.643 1.177 8.136 5.013 8.793 9.755l0.007 0.061c0.027 0.126 0.103 0.231 0.206 0.295l0.002 0.001c0.403 0.228 0.729 0.551 0.954 0.94l0.006 0.012c0.076 0.101 0.172 0.182 0.283 0.238l0.005 0.002c0.463 0.228 0.857 0.462 1.229 0.723l-0.029-0.019c0.796 0.702 1.375 1.634 1.633 2.692l0.007 0.036c0.112 0.384 0.176 0.8 0.256 1.176v1.44c-0.023 0.065-0.045 0.145-0.062 0.227l-0.002 0.013c-0.124 1.033-0.477 1.964-1.007 2.768l0.015-0.024c-0.475 0.788-1.207 1.379-2.077 1.664l-0.027 0.008c-0.102 0.046-0.183 0.124-0.231 0.221l-0.001 0.003c-0.223 0.395-0.538 0.715-0.916 0.938l-0.012 0.006c-0.098 0.071-0.166 0.178-0.184 0.302l-0 0.002c-0.198 2.807-2.523 5.009-5.363 5.009-0.038 0-0.076-0-0.114-0.001l0.006 0h-2.088c-0.088 0-0.224 0-0.256 0.096-0.323 0.616-0.898 1.062-1.585 1.205l-0.015 0.003zM27.504 17.912q0-2.4 0-4.8c0-0.48-0.168-0.64-0.632-0.64s-0.632 0.168-0.632 0.68q0 4.736 0 9.464c0 0.064 0 0.128 0 0.184-0 0.002-0 0.005-0 0.008 0 0.274 0.222 0.496 0.496 0.496 0 0 0 0 0 0v0c0.536 0.064 0.8-0.128 0.8-0.664q-0.024-2.352-0.032-4.728zM4.488 17.872q0 2.4 0 4.8c0 0.496 0.2 0.68 0.688 0.656s0.568-0.208 0.568-0.688q0-4.728 0-9.464c0.012-0.046 0.019-0.098 0.019-0.152s-0.007-0.106-0.020-0.156l0.001 0.004c-0.088-0.136-0.2-0.312-0.344-0.36-0.56-0.184-0.888 0.080-0.888 0.664q-0.024 2.352-0.024 4.696zM3.2 21.92v-8.064c-0.225 0.123-0.42 0.263-0.594 0.426l0.002-0.002c-0.3 0.341-0.565 0.724-0.784 1.136l-0.016 0.032c-0.313 0.716-0.495 1.549-0.495 2.426 0 0.33 0.026 0.654 0.075 0.969l-0.005-0.035c0.062 0.864 0.353 1.65 0.81 2.311l-0.010-0.015c0.248 0.366 0.594 0.648 1.001 0.811l0.015 0.005zM28.8 21.976c0.229-0.122 0.426-0.263 0.602-0.426l-0.002 0.002c0.303-0.347 0.569-0.738 0.785-1.159l0.015-0.033c0.31-0.721 0.491-1.561 0.491-2.442 0-0.467-0.051-0.922-0.147-1.36l0.008 0.042c-0.116-0.91-0.532-1.707-1.143-2.303l-0.001-0.001c-0.184-0.146-0.39-0.289-0.606-0.418l-0.026-0.014zM16.32 28.488h-1.6c-0.432 0-0.616 0.184-0.624 0.6s0.176 0.656 0.6 0.664q1.6 0 3.272 0c0.017 0.002 0.036 0.003 0.056 0.003 0.305 0 0.552-0.247 0.552-0.552 0-0.032-0.003-0.064-0.008-0.094l0 0.003c0-0.416-0.184-0.616-0.608-0.624z"></path>
</svg>
