<!-- Generated by IcoMoon.io -->
<svg version="1.1" xmlns="http://www.w3.org/2000/svg" width="32" height="32" viewBox="0 0 32 32">
<title>transactions-filled</title>
<path d="M25.528 3.688c-0.041-1.092-0.829-1.989-1.865-2.197l-0.015-0.002c-0.364-0.064-0.782-0.1-1.21-0.1-0.089 0-0.179 0.002-0.267 0.005l0.013-0h-12.96c-0.031-0.001-0.066-0.001-0.102-0.001-0.247 0-0.488 0.024-0.721 0.069l0.024-0.004c-1.166 0.229-2.034 1.243-2.034 2.459 0 0.078 0.004 0.154 0.010 0.23l-0.001-0.010q0 6.152 0 12.312c0 4.128 0.048 11.696 0.080 12.336 0 1.552 0.88 1.984 2.672 1.984h13.808c0.053 0.004 0.114 0.006 0.176 0.006 1.423 0 2.576-1.153 2.576-2.576 0-0.070-0.003-0.139-0.008-0.207l0.001 0.009c-0.040-6.528-0.104-12.112-0.104-18.624 0-1.896 0-3.776-0.072-5.688zM13.264 6.888h8.848c0.020-0.002 0.044-0.003 0.068-0.003 0.376 0 0.68 0.304 0.68 0.68 0 0.131-0.037 0.254-0.102 0.358l0.002-0.003c-0.134 0.211-0.366 0.348-0.63 0.348-0.029 0-0.057-0.002-0.085-0.005l0.003 0h-8.448c-0.128 0-0.256 0-0.384 0-0.362-0.012-0.65-0.308-0.65-0.672 0-0.020 0.001-0.039 0.003-0.059l-0 0.003c-0-0.003-0-0.006-0-0.009 0-0.367 0.297-0.664 0.664-0.664 0.011 0 0.023 0 0.034 0.001l-0.002-0zM13.264 12.384h8.848c0.020-0.002 0.044-0.003 0.068-0.003 0.376 0 0.68 0.304 0.68 0.68 0 0.132-0.037 0.254-0.102 0.358l0.002-0.003c-0.134 0.211-0.366 0.348-0.63 0.348-0.029 0-0.057-0.002-0.085-0.005l0.003 0h-8.448c-0.128 0-0.256 0-0.384 0-0.362-0.012-0.65-0.308-0.65-0.672 0-0.020 0.001-0.039 0.003-0.059l-0 0.003c-0-0.003-0-0.006-0-0.009 0-0.367 0.297-0.664 0.664-0.664 0.011 0 0.023 0 0.034 0.001l-0.002-0zM10.064 6.784c0.026-0.003 0.057-0.005 0.088-0.005 0.442 0 0.8 0.358 0.8 0.8 0 0.002 0 0.003-0 0.005v-0c0 0.002 0 0.005 0 0.008 0 0.442-0.358 0.8-0.8 0.8-0.040 0-0.078-0.003-0.116-0.008l0.004 0.001c-0.442 0-0.8-0.358-0.8-0.8s0.358-0.8 0.8-0.8v0zM10.064 12.328c0.026-0.003 0.057-0.005 0.088-0.005 0.442 0 0.8 0.358 0.8 0.8 0 0.002 0 0.003-0 0.005v-0c0 0.002 0 0.005 0 0.008 0 0.442-0.358 0.8-0.8 0.8-0.040 0-0.078-0.003-0.116-0.008l0.004 0.001c-0.442 0-0.8-0.358-0.8-0.8s0.358-0.8 0.8-0.8v0zM10.064 24.88c-0.031 0.004-0.067 0.007-0.104 0.007-0.442 0-0.8-0.358-0.8-0.8 0-0.002 0-0.005 0-0.007v0c0.030-0.448 0.401-0.801 0.854-0.801 0.012 0 0.024 0 0.035 0.001l-0.002-0c0.039-0.007 0.083-0.010 0.128-0.010 0.442 0 0.8 0.358 0.8 0.8 0 0.004-0 0.007-0 0.011v-0.001c-0.007 0.436-0.362 0.788-0.8 0.788-0.048 0-0.095-0.004-0.141-0.012l0.005 0.001zM10.064 19.512c-0.46 0-0.832-0.372-0.832-0.832s0.373-0.832 0.832-0.832v0c0.46 0 0.832 0.372 0.832 0.832s-0.373 0.832-0.832 0.832v0zM12.6 18.352c0.098-0.299 0.375-0.511 0.701-0.511 0.035 0 0.069 0.002 0.103 0.007l-0.004-0h8.64c0.024-0.003 0.051-0.004 0.079-0.004 0.275 0 0.516 0.148 0.647 0.369l0.002 0.003c0.064 0.099 0.101 0.219 0.101 0.348s-0.038 0.25-0.103 0.351l0.002-0.003c-0.147 0.202-0.383 0.331-0.648 0.331-0.025 0-0.050-0.001-0.075-0.003l0.003 0h-8.672c-0.576-0.040-0.928-0.416-0.792-0.904zM22.088 24.752h-8.728c-0.496 0-0.8-0.256-0.8-0.672s0.304-0.696 0.8-0.704h8.72c0.024-0.003 0.052-0.005 0.081-0.005 0.385 0 0.7 0.302 0.719 0.683l0 0.002c-0.031 0.368-0.337 0.655-0.71 0.655-0.035 0-0.069-0.002-0.102-0.007l0.004 0z"></path>
<path d="M22.848 0c-8.184 0-5.352 0-13.536 0-2.912 0-4.216 1.176-4.216 3.408 0 0 0 0.048-0.048 0.080v25.168c-0.008 2.544 0.984 3.344 2.888 3.344h16.24c1.48 0 2.776-0.992 2.776-3.552 0-8.424 0-15.912 0-24.328 0.008-2.592-0.64-4.12-4.104-4.12zM22.96 30.768h-13.792c-1.792 0-2.672-0.432-2.672-1.984 0-0.64-0.080-8.208-0.080-12.336s-0.016-8.208-0.016-12.312c-0.006-0.067-0.010-0.145-0.010-0.224 0-1.211 0.86-2.221 2.002-2.454l0.016-0.003c0.21-0.042 0.451-0.065 0.697-0.065 0.036 0 0.072 0 0.108 0.002l-0.005-0h12.968c0.076-0.003 0.165-0.004 0.254-0.004 0.427 0 0.846 0.037 1.253 0.107l-0.044-0.006c1.051 0.211 1.839 1.108 1.88 2.196l0 0.004c0.080 1.912 0.080 3.792 0.080 5.688 0 6.512 0.072 12.096 0.112 18.608 0.006 0.064 0.009 0.139 0.009 0.215 0 1.423-1.153 2.576-2.576 2.576-0.065 0-0.13-0.002-0.193-0.007l0.009 0z"></path>
<path d="M21.6 24.704v0z"></path>
<path d="M20.8 13.736v0z"></path>
<path d="M20.8 8.24v0z"></path>
</svg>
