<!-- Generated by IcoMoon.io -->
<svg version="1.1" xmlns="http://www.w3.org/2000/svg" width="32" height="32" viewBox="0 0 32 32">
<title>transactions-2</title>
<path d="M0.328 14.608h31.344c0.014 0.003 0.031 0.004 0.048 0.004 0.159 0 0.288-0.129 0.288-0.288s-0.129-0.288-0.288-0.288c-0.017 0-0.033 0.001-0.050 0.004l0.002-0h-31.344c-0.014-0.003-0.031-0.004-0.048-0.004-0.159 0-0.288 0.129-0.288 0.288s0.129 0.288 0.288 0.288c0.017 0 0.033-0.001 0.050-0.004l-0.002 0z"></path>
<path d="M31.672 20.952h-31.344c-0.014-0.003-0.031-0.004-0.048-0.004-0.159 0-0.288 0.129-0.288 0.288s0.129 0.288 0.288 0.288c0.017 0 0.033-0.001 0.050-0.004l-0.002 0h31.344c0.014 0.003 0.031 0.004 0.048 0.004 0.159 0 0.288-0.129 0.288-0.288s-0.129-0.288-0.288-0.288c-0.017 0-0.033 0.001-0.050 0.004l0.002-0z"></path>
<path d="M1.112 11.768h19.312c0.616 0 1.112 0 1.112-0.64s-0.496-0.648-1.112-0.648h-19.312c-0.616 0-1.112 0-1.112 0.648s0.496 0.64 1.112 0.64z"></path>
<path d="M1.112 18.472h19.312c0.616 0 1.112 0 1.112-0.64s-0.496-0.648-1.112-0.648h-19.312c-0.616 0-1.112 0-1.112 0.648s0.496 0.64 1.112 0.64z"></path>
</svg>
