<!-- Generated by IcoMoon.io -->
<svg version="1.1" xmlns="http://www.w3.org/2000/svg" width="32" height="32" viewBox="0 0 32 32">
<title>transactions</title>
<path d="M5.040 28.656c0-8.704 0-16.472 0-25.176 0 0 0.048-0.048 0.048-0.080 0.008-2.224 1.312-3.4 4.224-3.4 8.184 0 5.352 0 13.536 0 3.456 0 4.112 1.528 4.112 4.12 0 8.416 0 15.912 0 24.328 0 2.552-1.296 3.552-2.776 3.552h-16.248c-1.904 0-2.896-0.8-2.896-3.344zM6.4 16.448c0 4.128 0.048 11.696 0.080 12.336 0 1.552 0.88 1.984 2.672 1.984h13.808c0.053 0.004 0.114 0.006 0.176 0.006 1.423 0 2.576-1.153 2.576-2.576 0-0.070-0.003-0.139-0.008-0.207l0.001 0.009c-0.040-6.528-0.104-12.112-0.104-18.624 0-1.896 0-3.792-0.064-5.688-0.041-1.092-0.829-1.989-1.865-2.197l-0.015-0.002c-0.364-0.064-0.783-0.101-1.211-0.101-0.092 0-0.183 0.002-0.274 0.005l0.013-0h-12.96c-0.030-0.001-0.066-0.001-0.102-0.001-0.247 0-0.488 0.024-0.722 0.069l0.024-0.004c-1.166 0.229-2.034 1.243-2.034 2.459 0 0.078 0.004 0.154 0.010 0.23l-0.001-0.010q0 6.16 0 12.312z"></path>
<path d="M20.8 17.832h1.232c0.024-0.003 0.051-0.004 0.079-0.004 0.275 0 0.516 0.148 0.647 0.369l0.002 0.003c0.064 0.099 0.101 0.219 0.101 0.348s-0.038 0.25-0.103 0.351l0.002-0.003c-0.147 0.202-0.383 0.331-0.648 0.331-0.025 0-0.050-0.001-0.075-0.003l0.003 0h-8.664c-0.576 0-0.928-0.4-0.8-0.896 0.098-0.299 0.375-0.511 0.701-0.511 0.035 0 0.069 0.002 0.103 0.007l-0.004-0h7.424z"></path>
<path d="M20.8 24.696h-7.44c-0.496 0-0.8-0.256-0.8-0.672s0.304-0.696 0.8-0.704h8.72c0.024-0.003 0.052-0.005 0.081-0.005 0.385 0 0.7 0.302 0.719 0.683l0 0.002c-0.006 0.389-0.322 0.701-0.712 0.701-0.031 0-0.062-0.002-0.092-0.006l0.004 0h-1.28z"></path>
<path d="M20.8 13.736h-7.2c-0.128 0-0.256 0-0.384 0-0.362-0.012-0.65-0.308-0.65-0.672 0-0.020 0.001-0.039 0.003-0.059l-0 0.003c0.013-0.357 0.305-0.641 0.664-0.641 0.014 0 0.028 0 0.042 0.001l-0.002-0h8.84c0.020-0.002 0.044-0.003 0.068-0.003 0.376 0 0.68 0.304 0.68 0.68 0 0.132-0.037 0.254-0.102 0.358l0.002-0.003c-0.134 0.211-0.366 0.348-0.63 0.348-0.029 0-0.057-0.002-0.085-0.005l0.003 0h-1.248z"></path>
<path d="M10.664 18.528c-0.008 0.387-0.324 0.698-0.712 0.698-0.017 0-0.034-0.001-0.050-0.002l0.002 0c-0.022 0.003-0.049 0.004-0.075 0.004-0.389 0-0.704-0.315-0.704-0.704s0.315-0.704 0.704-0.704c0.026 0 0.052 0.001 0.078 0.004l-0.003-0c0.017-0.001 0.036-0.002 0.056-0.002 0.389 0 0.704 0.315 0.704 0.704 0 0.001 0 0.002 0 0.002v-0z"></path>
<path d="M9.896 24.696c-0.017 0.001-0.036 0.002-0.056 0.002-0.387 0-0.701-0.312-0.704-0.698v-0c0.017-0.384 0.333-0.688 0.719-0.688 0.009 0 0.017 0 0.026 0l-0.001-0c0.029-0.004 0.062-0.007 0.096-0.007 0.389 0 0.704 0.315 0.704 0.704 0 0.002 0 0.005-0 0.007v-0c-0.001 0.379-0.308 0.687-0.688 0.687-0.034 0-0.067-0.002-0.1-0.007l0.004 0z"></path>
<path d="M9.912 12.36c0.019-0.002 0.042-0.003 0.064-0.003 0.376 0 0.68 0.304 0.68 0.68 0 0.007-0 0.013-0 0.020l0-0.001c0 0 0 0.001 0 0.001 0 0.38-0.308 0.688-0.688 0.688-0.040 0-0.078-0.003-0.116-0.010l0.004 0.001c-0.38 0-0.688-0.308-0.688-0.688s0.308-0.688 0.688-0.688v0z"></path>
<path d="M20.8 8.24h-7.2c-0.128 0-0.256 0-0.384 0-0.362-0.012-0.65-0.308-0.65-0.672 0-0.020 0.001-0.039 0.003-0.059l-0 0.003c0.013-0.357 0.305-0.641 0.664-0.641 0.014 0 0.028 0 0.042 0.001l-0.002-0h8.84c0.020-0.002 0.044-0.003 0.068-0.003 0.376 0 0.68 0.304 0.68 0.68 0 0.131-0.037 0.254-0.102 0.358l0.002-0.003c-0.134 0.211-0.366 0.349-0.63 0.349-0.029 0-0.057-0.002-0.085-0.005l0.003 0h-1.248z"></path>
<path d="M9.912 6.864c0.019-0.002 0.042-0.003 0.064-0.003 0.376 0 0.68 0.304 0.68 0.68 0 0.007-0 0.013-0 0.020l0-0.001c0 0 0 0.001 0 0.001 0 0.38-0.308 0.688-0.688 0.688-0.040 0-0.078-0.003-0.116-0.010l0.004 0.001c-0.38 0-0.688-0.308-0.688-0.688s0.308-0.688 0.688-0.688v0z"></path>
</svg>
