<!-- Generated by IcoMoon.io -->
<svg version="1.1" xmlns="http://www.w3.org/2000/svg" width="32" height="32" viewBox="0 0 32 32">
<title>transactions-2-filled</title>
<path d="M0.328 14.504h31.344c0.014 0.003 0.031 0.004 0.048 0.004 0.159 0 0.288-0.129 0.288-0.288s-0.129-0.288-0.288-0.288c-0.017 0-0.033 0.001-0.050 0.004l0.002-0h-31.344c-0.014-0.003-0.031-0.004-0.048-0.004-0.159 0-0.288 0.129-0.288 0.288s0.129 0.288 0.288 0.288c0.017 0 0.033-0.001 0.050-0.004l-0.002 0z"></path>
<path d="M1.52 8.632h18.496c0.839 0 1.52 0.681 1.52 1.52s-0.681 1.52-1.52 1.52h-18.496c-0.839 0-1.52-0.681-1.52-1.52s0.681-1.52 1.52-1.52z"></path>
<path d="M0.328 23.368h31.344c0.014 0.003 0.031 0.004 0.048 0.004 0.159 0 0.288-0.129 0.288-0.288s-0.129-0.288-0.288-0.288c-0.017 0-0.033 0.001-0.050 0.004l0.002-0h-31.344c-0.014-0.003-0.031-0.004-0.048-0.004-0.159 0-0.288 0.129-0.288 0.288s0.129 0.288 0.288 0.288c0.017 0 0.033-0.001 0.050-0.004l-0.002 0z"></path>
<path d="M1.52 17.496h18.496c0.839 0 1.52 0.681 1.52 1.52s-0.681 1.52-1.52 1.52h-18.496c-0.839 0-1.52-0.681-1.52-1.52s0.681-1.52 1.52-1.52z"></path>
</svg>
