<!-- Generated by IcoMoon.io -->
<svg version="1.1" xmlns="http://www.w3.org/2000/svg" width="32" height="32" viewBox="0 0 32 32">
<title>trash-filled</title>
<path d="M7.664 9.8c0.2 2.216 0.408 4.432 0.608 6.656s0.384 4.44 0.584 6.656 0.416 4.728 0.616 7.032c0.048 0.544 1.344 0.56 1.888 0.56h10.088c0.464 0 1.072-0.064 1.128-0.504 0-0.312 0.16-1.336 0.184-1.648 0.136-1.504 0.264-2.352 0.4-3.848s0.28-3.048 0.416-4.568 0.264-3.024 0.4-4.536 0.28-3.048 0.416-4.568 0.28-3.112 0.416-4.664c0.056-0.608 0-1.248 0.080-1.88h-17.768c0 0.104 0.392 3.64 0.544 5.312zM18.4 9.312c0.416-0.072 0.632 0.080 0.72 0.384 0.008 0.053 0.012 0.114 0.012 0.176s-0.004 0.123-0.013 0.183l0.001-0.007q0 4.184 0 8.368t0 8.392c0.004 0.027 0.007 0.058 0.007 0.089 0 0.304-0.235 0.552-0.533 0.574l-0.002 0c-0.060 0.025-0.13 0.039-0.203 0.039-0.253 0-0.467-0.171-0.532-0.403l-0.001-0.004c-0.008-0.049-0.013-0.106-0.013-0.164s0.005-0.115 0.014-0.17l-0.001 0.006q0-8.392 0-16.8c-0.016-0.376 0.144-0.6 0.544-0.664zM13.512 9.312c0.416-0.072 0.632 0.080 0.72 0.384 0.008 0.053 0.012 0.114 0.012 0.176s-0.004 0.123-0.013 0.183l0.001-0.007q0 4.184 0 8.368t0 8.392c0.004 0.027 0.007 0.058 0.007 0.089 0 0.304-0.235 0.552-0.533 0.574l-0.002 0c-0.060 0.025-0.13 0.039-0.203 0.039-0.253 0-0.467-0.171-0.532-0.403l-0.001-0.004c-0.008-0.049-0.013-0.106-0.013-0.164s0.005-0.115 0.014-0.17l-0.001 0.006q0-8.392 0-16.8c-0.016-0.376 0.144-0.6 0.528-0.664z"></path>
<path d="M19.144 3.2c0-0.152 0-0.184 0-0.176s0-0.056 0-0.144c0-0.456-0.136-1.552-1.152-1.552h-3.712c-1.312 0-1.288 1.064-1.304 1.456-0.004 0.062-0.006 0.135-0.006 0.208s0.002 0.146 0.006 0.218l-0-0.010z"></path>
</svg>
