<!-- Generated by IcoMoon.io -->
<svg version="1.1" xmlns="http://www.w3.org/2000/svg" width="32" height="32" viewBox="0 0 32 32">
<title>trash</title>
<path d="M26.8 3.2c-0.448 0-0.896 0-1.344 0h-5.072c0-0.408 0-0.8 0-1.216 0.005-0.050 0.008-0.109 0.008-0.168 0-0.714-0.409-1.333-1.005-1.635l-0.010-0.005c-0.23-0.111-0.5-0.176-0.785-0.176-0.005 0-0.010 0-0.015 0h-5.023c-0.012-0-0.027-0-0.041-0-0.396 0-0.768 0.104-1.090 0.286l0.011-0.006c-0.255 0.141-0.458 0.348-0.588 0.6l-0.004 0.008c-0.127 0.325-0.2 0.701-0.2 1.094 0 0.009 0 0.019 0 0.028v-0.001c0 0.376 0 0.8 0 1.184h-6.296c-1.904 0.008-1.56 1.32-0.168 1.32h0.64c0.088 0.968 0.176 1.888 0.256 2.832q0.208 2.328 0.416 4.664c0.136 1.512 0.264 3.024 0.4 4.536s0.28 3.048 0.416 4.568 0.264 2.984 0.4 4.48c0.144 1.6 0.272 3.256 0.448 4.88 0.062 0.635 0.473 1.162 1.037 1.388l0.011 0.004 0.32 0.136h12.536c0.002 0 0.004 0 0.007 0 0.426 0 0.821-0.135 1.143-0.364l-0.006 0.004c0.457-0.38 0.746-0.948 0.746-1.584 0-0.031-0.001-0.061-0.002-0.092l0 0.004c0.24-2.8 0.496-5.6 0.744-8.392s0.464-5.368 0.704-8.048c0.216-2.448 0.448-4.888 0.664-7.336 0.048-0.56 0-1.176 0.064-1.76 0.232 0 0.512 0 0.72 0 0.416 0 1-0.088 1-0.608s-0.408-0.624-1.040-0.624zM12.928 2.76c0-0.392 0-1.456 1.304-1.456h3.704c1.024 0 1.144 1.096 1.152 1.552 0 0.080 0 0.12 0 0.144s0 0 0 0.176h-6.16c-0.004-0.062-0.006-0.135-0.006-0.208s0.002-0.146 0.006-0.218l-0 0.010zM24.752 6.36q-0.208 2.328-0.416 4.664t-0.416 4.568c-0.136 1.512-0.264 3.024-0.4 4.536s-0.28 3.048-0.416 4.568-0.264 2.352-0.4 3.848c0 0.312-0.152 1.336-0.184 1.648-0.048 0.448-0.664 0.504-1.128 0.504h-10.088c-0.544 0-1.84 0-1.888-0.56-0.2-2.312-0.416-4.728-0.616-7.032s-0.384-4.44-0.584-6.656-0.4-4.432-0.6-6.656c-0.152-1.672-0.544-5.2-0.544-5.32h17.728c0 0.632 0 1.272-0.048 1.88z"></path>
<path d="M17.832 27.112c0.066 0.236 0.279 0.407 0.533 0.407 0.073 0 0.143-0.014 0.207-0.040l-0.004 0.001c0.3-0.022 0.535-0.271 0.535-0.575 0-0.032-0.003-0.063-0.007-0.093l0 0.003q0-4.2 0-8.392t0-8.368c0.008-0.053 0.012-0.114 0.012-0.176s-0.004-0.123-0.013-0.183l0.001 0.007c-0.088-0.296-0.304-0.456-0.72-0.384s-0.544 0.264-0.544 0.68q0 8.392 0 16.8c-0.007 0.047-0.012 0.101-0.012 0.156s0.004 0.109 0.012 0.162l-0.001-0.006z"></path>
<path d="M12.944 27.112c0.066 0.236 0.279 0.407 0.533 0.407 0.073 0 0.143-0.014 0.207-0.040l-0.004 0.001c0.3-0.022 0.535-0.271 0.535-0.575 0-0.032-0.003-0.063-0.007-0.093l0 0.003q0-4.2 0-8.392t0-8.368c0.008-0.053 0.012-0.114 0.012-0.176s-0.004-0.123-0.013-0.183l0.001 0.007c-0.088-0.296-0.304-0.456-0.72-0.384s-0.544 0.264-0.544 0.68q0 8.392 0 16.8c-0.007 0.047-0.012 0.101-0.012 0.156s0.004 0.109 0.012 0.162l-0.001-0.006z"></path>
</svg>
