<!-- Generated by IcoMoon.io -->
<svg version="1.1" xmlns="http://www.w3.org/2000/svg" width="32" height="32" viewBox="0 0 32 32">
<title>up-arrow</title>
<path d="M15.624 10.552l-13.912 13.392c-0.146 0.154-0.352 0.249-0.58 0.249s-0.434-0.095-0.58-0.249l-0-0c-0.156-0.146-0.253-0.354-0.253-0.584s0.097-0.438 0.253-0.584l0-0 14.568-14.584c0.224-0.224 0.534-0.362 0.876-0.362s0.652 0.138 0.876 0.362l14.592 14.592c0.134 0.143 0.217 0.336 0.217 0.548 0 0.186-0.064 0.358-0.17 0.494l0.001-0.002c-0.147 0.161-0.358 0.262-0.592 0.262-0.206 0-0.395-0.078-0.537-0.207l0.001 0.001-13.792-13.328c-0.125-0.121-0.296-0.196-0.484-0.196s-0.359 0.075-0.484 0.196l0-0z"></path>
</svg>
