<!-- Generated by IcoMoon.io -->
<svg version="1.1" xmlns="http://www.w3.org/2000/svg" width="32" height="32" viewBox="0 0 32 32">
<title>up-arrow-in-circle-filled</title>
<path d="M16 30.704c8.121 0 14.704-6.583 14.704-14.704s-6.583-14.704-14.704-14.704c-8.121 0-14.704 6.583-14.704 14.704v0c0 8.121 6.583 14.704 14.704 14.704v0zM9.76 12.936l5.504-5.6c0.144-0.141 0.342-0.229 0.56-0.229s0.416 0.087 0.56 0.229l-0-0 5.736 5.792c0.21 0.211 0.34 0.502 0.34 0.824s-0.13 0.613-0.34 0.824l0-0c-0.211 0.21-0.502 0.34-0.824 0.34s-0.613-0.13-0.824-0.34l0 0-3.48-3.736v12.096c0 0.645-0.523 1.168-1.168 1.168s-1.168-0.523-1.168-1.168v0-12.096l-3.248 3.544c-0.204 0.179-0.473 0.288-0.768 0.288-0.645 0-1.168-0.523-1.168-1.168 0-0.295 0.109-0.564 0.289-0.769l-0.001 0.001z"></path>
</svg>
