<!-- Generated by IcoMoon.io -->
<svg version="1.1" xmlns="http://www.w3.org/2000/svg" width="32" height="32" viewBox="0 0 32 32">
<title>up-arrow-filled</title>
<path d="M30.64 23.744c0.301-0.301 0.487-0.717 0.487-1.176s-0.186-0.875-0.487-1.176v0l-13.632-13.712c-0.203-0.208-0.487-0.336-0.8-0.336s-0.597 0.129-0.8 0.336l-0 0-14.048 14.136c-0.301 0.301-0.487 0.717-0.487 1.176s0.186 0.875 0.487 1.176v0c0.302 0.301 0.719 0.487 1.18 0.487s0.878-0.186 1.18-0.488l-0 0 10.936-11.312c0.401-0.409 0.96-0.663 1.577-0.663 0.641 0 1.218 0.273 1.621 0.709l0.001 0.001 10.4 10.84c0.301 0.301 0.717 0.487 1.176 0.487s0.875-0.186 1.176-0.487v0z"></path>
</svg>
