<!-- Generated by IcoMoon.io -->
<svg version="1.1" xmlns="http://www.w3.org/2000/svg" width="32" height="32" viewBox="0 0 32 32">
<title>user</title>
<path d="M30.648 30.304l0.392 1.696h-30.080c-0-0.009-0-0.019-0-0.029 0-1.427 0.358-2.769 0.99-3.943l-0.022 0.044c0.168-0.309 0.334-0.57 0.518-0.819l-0.014 0.019c1.023-1.198 2.34-2.116 3.841-2.645l0.063-0.019c1.216-0.528 2.472-0.976 3.64-1.6 0.618-0.273 1.108-0.742 1.401-1.328l0.007-0.016c0.688-2.352-1.064-4.080-1.784-6.080 0-0.040-0.072-0.064-0.104-0.104-0.628-0.677-1.014-1.587-1.014-2.587 0-0.188 0.014-0.373 0.040-0.554l-0.002 0.021c0.048-0.648 0.52-1.176 0.32-1.92-0.262-0.903-0.413-1.94-0.413-3.013 0-0.529 0.037-1.049 0.107-1.558l-0.007 0.059c0.328-2.28 1.344-4.088 3.536-5.016 0.607-0.331 1.311-0.606 2.051-0.787l0.061-0.013c0.403-0.083 0.865-0.13 1.339-0.13 0.689 0 1.354 0.1 1.982 0.287l-0.049-0.013 0.232 0.096c1.024 0.488 2.064 0.968 3.064 1.496l0.744 0.576c0.777 0.599 1.357 1.419 1.647 2.366l0.009 0.034 0.056 0.216c0.136 0.701 0.214 1.508 0.214 2.333 0 1.255-0.181 2.468-0.517 3.614l0.023-0.091c-0.017 0.069-0.026 0.148-0.026 0.23 0 0.13 0.024 0.255 0.069 0.369l-0.002-0.007c0.215 0.427 0.34 0.931 0.34 1.464 0 0.772-0.264 1.483-0.706 2.047l0.005-0.007c-0.488 0.692-0.908 1.484-1.224 2.327l-0.024 0.073c-0.176 0.392-0.384 0.8-0.592 1.16-0.165 0.213-0.312 0.455-0.43 0.713l-0.010 0.023c-0.488 1.888 0.048 3.048 1.776 3.928 0.128 0.064 0.256 0.136 0.384 0.2 2 0.888 4.144 1.48 5.888 2.896v0c1.094 1.058 1.893 2.413 2.268 3.936l0.012 0.056zM29.048 30.704c0-0.16-0.064-1.008-0.096-1.12-0.552-1.864-1.8-2.776-3.432-3.544-1.504-0.712-2.6-1.008-4.080-1.76-1.072-0.544-2.16-1.28-2.24-2.632-0.056-0.968 0-1.944 0-2.912-0.003-0.022-0.004-0.048-0.004-0.075 0-0.145 0.043-0.28 0.118-0.392l-0.002 0.003c0.851-0.877 1.418-2.034 1.55-3.32l0.002-0.024c0.073-0.233 0.238-0.418 0.451-0.518l0.005-0.002c0.476-0.283 0.789-0.795 0.789-1.38 0-0.326-0.098-0.63-0.265-0.882l0.004 0.006c-0.2-0.155-0.328-0.396-0.328-0.666 0-0.13 0.030-0.253 0.082-0.363l-0.002 0.005c0.425-1.263 0.67-2.718 0.67-4.23 0-0.144-0.002-0.288-0.007-0.431l0 0.021c-0.066-1.922-1.389-3.517-3.17-3.993l-0.030-0.007c-0.202-0.090-0.375-0.197-0.533-0.324l0.005 0.004c-0.42-0.315-0.91-0.566-1.439-0.727l-0.034-0.009c-0.387-0.054-0.834-0.085-1.288-0.085s-0.901 0.031-1.339 0.091l0.051-0.006c-2.759 0.312-4.884 2.631-4.888 5.448v0c0.091 1.655 0.268 3.184 0.53 4.683l-0.034-0.235c0.048 0.36 0.104 0.592-0.224 0.872-0.568 0.504-0.312 2.080 0.392 2.24 0.536 0.12 0.552 0.448 0.616 0.8 0.151 1.205 0.684 2.264 1.473 3.073l-0.001-0.001c0.106 0.116 0.172 0.27 0.176 0.439v0.001c0 0.888 0 1.784 0 2.664 0.031 0.133 0.049 0.285 0.049 0.441 0 0.624-0.286 1.181-0.734 1.548l-0.004 0.003c-0.723 0.462-1.557 0.894-2.431 1.25l-0.105 0.038c-1.464 0.76-3.056 1.352-4.504 2.16-1.224 0.664-1.848 2.4-2.104 3.848z"></path>
</svg>
