<!-- Generated by IcoMoon.io -->
<svg version="1.1" xmlns="http://www.w3.org/2000/svg" width="32" height="32" viewBox="0 0 32 32">
<title>user-id-filled</title>
<path d="M30.664 7.632c-0.032-0.375-0.284-0.684-0.625-0.798l-0.006-0.002c-0.268-0.092-0.578-0.144-0.899-0.144-0.016 0-0.032 0-0.047 0l0.002-0h-26.4c-0.053-0.008-0.113-0.013-0.175-0.013-0.617 0-1.124 0.465-1.192 1.063l-0 0.005v0.72s0 13.248 0.048 15.752c0.037 0.353 0.216 0.658 0.477 0.862l0.003 0.002c0.099 0.065 0.213 0.118 0.336 0.15l0.008 0.002c0.072-0.46 0.206-0.875 0.395-1.257l-0.011 0.025c0.087-0.167 0.175-0.308 0.271-0.443l-0.007 0.011c0.535-0.623 1.223-1.1 2.007-1.374l0.033-0.010c0.632-0.28 1.288-0.512 1.904-0.8 0.323-0.143 0.58-0.389 0.732-0.695l0.004-0.009c0.36-1.232-0.56-2.128-0.928-3.2 0 0 0 0-0.056-0.056-0.327-0.353-0.528-0.827-0.528-1.348 0-0.089 0.006-0.176 0.017-0.262l-0.001 0.010c0-0.336 0.272-0.616 0.168-1-0.135-0.469-0.213-1.008-0.213-1.565 0-0.278 0.019-0.551 0.057-0.818l-0.004 0.031c0.079-1.174 0.808-2.161 1.828-2.608l0.020-0.008c0.318-0.167 0.686-0.305 1.073-0.394l0.031-0.006c0.211-0.044 0.454-0.069 0.703-0.069 0.356 0 0.701 0.051 1.026 0.147l-0.026-0.006 0.12 0.048c0.536 0.256 1.072 0.504 1.6 0.8l0.384 0.304c0.405 0.311 0.707 0.738 0.859 1.231l0.005 0.017v0.104c0.071 0.367 0.112 0.789 0.112 1.221 0 0.653-0.094 1.285-0.268 1.882l0.012-0.047c-0.014 0.046-0.022 0.098-0.022 0.152s0.008 0.107 0.023 0.156l-0.001-0.004c0.111 0.222 0.175 0.483 0.175 0.759 0 0.404-0.138 0.775-0.37 1.069l0.003-0.004c-0.237 0.341-0.445 0.732-0.603 1.146l-0.013 0.038c-0.096 0.208-0.2 0.408-0.312 0.608-0.087 0.111-0.164 0.238-0.227 0.372l-0.005 0.012c-0.063 0.165-0.099 0.355-0.099 0.554 0 0.678 0.421 1.257 1.016 1.49l0.011 0.004 0.2 0.104c1.172 0.399 2.188 0.911 3.117 1.541l-0.045-0.029c0.594 0.555 1.029 1.273 1.234 2.082l0.006 0.030v0.168h11.712c0.051 0.008 0.111 0.012 0.171 0.012 0.68 0 1.232-0.552 1.232-1.232 0-0.058-0.004-0.115-0.012-0.17l0.001 0.006c0-2.112 0-4.664 0-6.776zM26.4 19.56q-3.6 0-7.2 0c-0.864 0-1.472-0.136-1.432-0.504s0.664-0.496 1.552-0.496h7c0.904 0 1.496 0.12 1.512 0.512s-0.536 0.48-1.432 0.488zM26.4 16.472q-3.6 0-7.2 0c-0.864 0-1.472-0.136-1.432-0.504s0.664-0.496 1.552-0.496h7c0.904 0 1.496 0.12 1.512 0.512s-0.536 0.48-1.432 0.488zM26.4 13.384q-3.6 0-7.2 0c-0.864 0-1.472-0.136-1.432-0.504s0.664-0.496 1.552-0.496h7c0.904 0 1.496 0.12 1.512 0.512s-0.536 0.48-1.432 0.48z"></path>
</svg>
