<!-- Generated by IcoMoon.io -->
<svg version="1.1" xmlns="http://www.w3.org/2000/svg" width="32" height="32" viewBox="0 0 32 32">
<title>user-id</title>
<path d="M31.912 7.592c-0.323-1.282-1.466-2.216-2.828-2.216-0.002 0-0.003 0-0.005 0h0c-0.944 0-1.888 0-2.824 0h-4.656c-6.096 0-12.2 0-18.296 0-0.059-0.004-0.127-0.006-0.196-0.006-1.719 0-3.112 1.393-3.112 3.112 0 0.056 0.001 0.111 0.004 0.166l-0-0.008c0.056 1.408 0 2.824 0 4.24v2.44c0 3.2 0 4.888 0 8.048-0.009 0.090-0.015 0.193-0.015 0.299 0 1.459 1.025 2.679 2.394 2.978l0.020 0.004c0.064 0 0.040 0 0.064 0h27.136c0.69-0.151 1.276-0.525 1.692-1.042l0.004-0.006c0.236-0.383 0.472-0.835 0.676-1.304l0.028-0.072v-16.416c-0.028-0.057-0.058-0.128-0.084-0.202l-0.004-0.014zM8.128 20.552c0-0.464 0-0.928 0-1.392-0-0.089-0.034-0.17-0.088-0.232l0 0c-0.423-0.417-0.712-0.969-0.798-1.585l-0.002-0.015c0-0.184-0.040-0.36-0.32-0.424s-0.48-0.904-0.184-1.168c0.168-0.152 0.144-0.272 0.12-0.456-0.12-0.658-0.214-1.455-0.261-2.265l-0.003-0.055c-0-0.008-0-0.017-0-0.027 0-1.466 1.102-2.675 2.523-2.844l0.014-0.001c0.202-0.028 0.435-0.044 0.672-0.044s0.47 0.016 0.698 0.047l-0.027-0.003c0.305 0.085 0.572 0.216 0.807 0.389l-0.007-0.005c0.081 0.065 0.173 0.121 0.272 0.165l0.008 0.003c0.955 0.249 1.652 1.091 1.68 2.101l0 0.003c0.002 0.060 0.003 0.13 0.003 0.201 0 0.786-0.127 1.542-0.361 2.249l0.014-0.050c-0.030 0.058-0.047 0.126-0.047 0.198 0 0.136 0.062 0.257 0.158 0.338l0.001 0.001c0.094 0.129 0.15 0.291 0.15 0.467 0 0.307-0.173 0.573-0.426 0.707l-0.004 0.002c-0.115 0.053-0.202 0.15-0.239 0.269l-0.001 0.003c-0.066 0.682-0.358 1.286-0.801 1.745l0.001-0.001c-0.037 0.057-0.059 0.127-0.059 0.202 0 0.016 0.001 0.032 0.003 0.048l-0-0.002c0 0.504 0 1.016 0 1.52 0.102 0.658 0.558 1.189 1.164 1.396l0.012 0.004c0.8 0.392 1.344 0.552 2.128 0.92 0.836 0.317 1.475 0.985 1.746 1.82l0.006 0.020c0 0.056 0 0.424 0.048 0.544h-13.768c0.073-0.803 0.481-1.499 1.081-1.955l0.007-0.005c0.8-0.416 1.6-0.728 2.4-1.12 0.51-0.203 0.944-0.426 1.354-0.684l-0.034 0.020c0.237-0.192 0.388-0.483 0.388-0.81 0-0.084-0.010-0.167-0.029-0.245l0.001 0.007zM30.704 24c0.007 0.049 0.011 0.106 0.011 0.164 0 0.68-0.552 1.232-1.232 1.232-0.060 0-0.12-0.004-0.178-0.013l0.007 0.001h-11.712v-0.168c-0.199-0.832-0.617-1.547-1.191-2.103l-0.001-0.001c-0.898-0.605-1.93-1.117-3.029-1.486l-0.091-0.026-0.2-0.104c-0.606-0.237-1.027-0.816-1.027-1.494 0-0.199 0.036-0.389 0.103-0.565l-0.004 0.011c0.068-0.146 0.145-0.273 0.235-0.388l-0.003 0.004c0.112-0.2 0.216-0.4 0.312-0.608 0.18-0.473 0.401-0.883 0.667-1.257l-0.011 0.017c0.229-0.29 0.367-0.662 0.367-1.065 0-0.276-0.065-0.537-0.18-0.769l0.005 0.010c-0.014-0.046-0.022-0.098-0.022-0.152s0.008-0.107 0.023-0.156l-0.001 0.004c0.153-0.534 0.241-1.147 0.241-1.78 0-0.463-0.047-0.915-0.136-1.351l0.007 0.043v-0.104c-0.155-0.513-0.458-0.943-0.858-1.252l-0.006-0.004-0.384-0.304c-0.52-0.28-1.064-0.528-1.6-0.8l-0.12-0.048c-0.3-0.089-0.644-0.141-1.001-0.141-0.249 0-0.492 0.025-0.727 0.073l0.023-0.004c-0.418 0.095-0.786 0.233-1.129 0.412l0.025-0.012c-1.040 0.455-1.769 1.442-1.848 2.607l-0 0.009c-0.034 0.237-0.053 0.51-0.053 0.788 0 0.557 0.078 1.095 0.223 1.605l-0.010-0.041c0.104 0.392-0.144 0.664-0.168 1-0.010 0.076-0.016 0.163-0.016 0.252 0 0.521 0.201 0.995 0.529 1.349l-0.001-0.001s0.048 0 0.056 0.056c0.376 1.040 1.288 1.944 0.928 3.2-0.156 0.315-0.413 0.561-0.727 0.7l-0.009 0.004c-0.608 0.32-1.264 0.552-1.904 0.8-0.817 0.286-1.506 0.766-2.035 1.386l-0.005 0.006c-0.089 0.124-0.177 0.265-0.254 0.412l-0.010 0.020c-0.191 0.356-0.339 0.769-0.42 1.206l-0.004 0.026c-0.128-0.035-0.24-0.087-0.34-0.155l0.004 0.003c-0.264-0.206-0.443-0.511-0.48-0.858l-0-0.006c0-2.504-0.048-15.752-0.048-15.752v-0.72c0.080-0.592 0.582-1.043 1.19-1.043 0.057 0 0.114 0.004 0.169 0.012l-0.006-0.001h26.4c0.013-0 0.029-0 0.045-0 0.322 0 0.631 0.053 0.919 0.15l-0.020-0.006c0.348 0.116 0.601 0.425 0.632 0.797l0 0.003 0.040 9.544c0.040 2.136 0.040 4.68 0.040 6.832z"></path>
<path d="M26.312 18.568h-7c-0.888 0-1.512 0.12-1.552 0.496s0.568 0.504 1.432 0.504q3.6 0 7.2 0c0.896 0 1.448-0.104 1.432-0.496s-0.624-0.504-1.512-0.504z"></path>
<path d="M26.312 15.48h-7c-0.888 0-1.512 0.12-1.552 0.496s0.568 0.504 1.432 0.504q3.6 0 7.2 0c0.896 0 1.448-0.104 1.432-0.496s-0.624-0.504-1.512-0.504z"></path>
<path d="M26.312 12.384h-7c-0.888 0-1.512 0.12-1.552 0.496s0.568 0.504 1.432 0.504q3.6 0 7.2 0c0.896 0 1.448-0.104 1.432-0.496s-0.624-0.496-1.512-0.504z"></path>
</svg>
