<!-- Generated by IcoMoon.io -->
<svg version="1.1" xmlns="http://www.w3.org/2000/svg" width="32" height="32" viewBox="0 0 32 32">
<title>user-filled</title>
<path d="M2.8 30.704h26.4c0-0.16-0.064-1.008-0.096-1.12-0.552-1.864-1.8-2.776-3.432-3.544-1.504-0.712-2.6-1.008-4.080-1.76-1.072-0.544-2.16-1.28-2.24-2.632-0.056-0.968 0-1.944 0-2.912-0.003-0.022-0.004-0.048-0.004-0.075 0-0.145 0.043-0.28 0.118-0.392l-0.002 0.003c0.851-0.877 1.418-2.034 1.55-3.32l0.002-0.024c0.073-0.233 0.238-0.418 0.451-0.518l0.005-0.002c0.476-0.283 0.789-0.795 0.789-1.38 0-0.326-0.098-0.63-0.265-0.882l0.004 0.006c-0.187-0.155-0.305-0.388-0.305-0.648 0-0.137 0.033-0.267 0.091-0.381l-0.002 0.005c0.398-1.224 0.627-2.633 0.627-4.095 0-0.192-0.004-0.383-0.012-0.572l0.001 0.027c-0.066-1.922-1.389-3.517-3.17-3.993l-0.030-0.007c-0.202-0.090-0.375-0.197-0.533-0.324l0.005 0.004c-0.42-0.315-0.91-0.566-1.439-0.727l-0.034-0.009c-0.387-0.054-0.834-0.085-1.288-0.085s-0.901 0.031-1.339 0.091l0.051-0.006c-2.742 0.331-4.847 2.644-4.848 5.448v0c0.091 1.655 0.268 3.184 0.53 4.683l-0.034-0.235c0.048 0.36 0.104 0.592-0.224 0.872-0.568 0.504-0.312 2.080 0.392 2.24 0.536 0.12 0.552 0.448 0.616 0.8 0.151 1.205 0.684 2.264 1.473 3.073l-0.001-0.001c0.106 0.116 0.172 0.27 0.176 0.439v0.001c0 0.888 0 1.784 0 2.664 0.031 0.131 0.048 0.282 0.048 0.437 0 0.631-0.292 1.194-0.748 1.56l-0.004 0.003c-0.723 0.462-1.557 0.894-2.431 1.25l-0.105 0.038c-1.464 0.752-3.064 1.352-4.56 2.152-1.232 0.664-1.856 2.368-2.104 3.848z"></path>
</svg>
