<!-- Generated by IcoMoon.io -->
<svg version="1.1" xmlns="http://www.w3.org/2000/svg" width="32" height="32" viewBox="0 0 32 32">
<title>wallet-filled</title>
<path d="M1.336 11.064q0 8 0 16.064c-0.007 0.052-0.011 0.111-0.011 0.172 0 0.76 0.616 1.376 1.376 1.376 0.063 0 0.125-0.004 0.186-0.012l-0.007 0.001h23.656c0.040 0.004 0.087 0.007 0.135 0.007 0.738 0 1.336-0.598 1.336-1.336 0-0.047-0.002-0.094-0.007-0.141l0 0.006c0-0.392 0-2.84 0-3.2h-6.696c-0.044 0.002-0.096 0.002-0.148 0.002-2.571 0-4.656-2.085-4.656-4.656 0-2.446 1.886-4.451 4.283-4.641l0.016-0.001c0.848-0.080 1.704 0 2.56 0h4.64c0-0.392 0-1.776 0-2.176 0.003-0.035 0.005-0.076 0.005-0.117 0-0.725-0.587-1.312-1.312-1.312-0.038 0-0.076 0.002-0.114 0.005l0.005-0h-25.248z"></path>
<path d="M19.864 9.728l-0.28-0.232c-1.992-1.6-4.416-4.272-6.4-5.872-0.544-0.424-0.864-0.424-1.256 0.192-0.576 0.84-1.44 2.008-2.272 3.144-0.037 0.075-0.085 0.139-0.143 0.192l-0.001 0c-0.624 0.848-1.224 1.648-1.656 2.304-0.056 0.080-0.096 0.16-0.16 0.272z"></path>
<path d="M5.704 9.744c0.018 0.002 0.038 0.003 0.058 0.003 0.203 0 0.38-0.109 0.476-0.273l0.001-0.003c0.416-0.616 0.952-1.352 1.52-2.136h-4.92c-0.051-0.007-0.111-0.011-0.171-0.011-0.742 0-1.344 0.602-1.344 1.344 0 0.060 0.004 0.12 0.012 0.178l-0.001-0.007q0 0.448 0 0.896c1.168 0 3.624 0 4.368 0.008z"></path>
<path d="M22.4 9.744c0.672 0 2.848 0 3.52 0 0.064-0.608-0.12-2.4-0.84-2.4h-5.792c0.848 0.8 1.688 1.528 2.472 2.168 0.163 0.144 0.378 0.232 0.614 0.232 0.009 0 0.018-0 0.027-0l-0.001 0z"></path>
<path d="M25.264 16c-1.312 0-2.624 0-3.928 0-1.84 0-3.332 1.492-3.332 3.332s1.492 3.332 3.332 3.332v0c2.64 0 5.28 0 7.92 0 0.025 0.002 0.054 0.003 0.083 0.003 0.729 0 1.32-0.591 1.32-1.32 0-0.032-0.001-0.064-0.003-0.095l0 0.004q0-1.904 0-3.808c0.003-0.035 0.005-0.076 0.005-0.118 0-0.738-0.598-1.336-1.336-1.336-0.044 0-0.088 0.002-0.131 0.006l0.005-0h-3.936zM21.264 21.328c-1.080-0.032-1.943-0.915-1.943-1.999 0-1.105 0.895-2 2-2s2 0.895 2 2c0 0.017-0 0.033-0.001 0.050l0-0.002c-0.031 1.085-0.918 1.953-2.007 1.953-0.017 0-0.034-0-0.051-0.001l0.003 0z"></path>
<path d="M21.336 18.672c-0.002-0-0.005-0-0.008-0-0.367 0-0.664 0.297-0.664 0.664s0.297 0.664 0.664 0.664c0.361 0 0.655-0.288 0.664-0.647l0-0.001c0-0.010 0.001-0.021 0.001-0.032 0-0.358-0.29-0.648-0.648-0.648-0.003 0-0.006 0-0.009 0h0z"></path>
<path d="M27.48 9.744v0c0.216 0 0.104 0 0 0z"></path>
</svg>
