<!-- Generated by IcoMoon.io -->
<svg version="1.1" xmlns="http://www.w3.org/2000/svg" width="32" height="32" viewBox="0 0 32 32">
<title>wallet</title>
<path d="M27.472 9.728v0c0.216 0 0.104 0 0 0z"></path>
<path d="M32 17.248c0.007-0.065 0.011-0.14 0.011-0.216s-0.004-0.151-0.012-0.225l0.001 0.009c-0.238-1.233-1.309-2.152-2.595-2.152-0.008 0-0.015 0-0.023 0h0.001c0-0.456 0-1.904 0-2.36-0.080-1.504-0.936-2.576-1.832-2.576-0.2 0-0.104 0 0 0 0-0.112 0-1.248-0.048-1.328-0.109-1.252-1.077-2.248-2.307-2.399l-0.013-0.001c-0.4-0.056-6.784 0-7.2 0h-0.104c-1.36-1.2-2.68-2.424-3.808-3.392-0.378-0.365-0.893-0.589-1.46-0.589-0.778 0-1.458 0.423-1.822 1.051l-0.005 0.010c-0.544 0.8-1.288 1.856-2.064 2.912h-5.656c-1.728 0.008-3.064 0.464-3.064 2.224 0 0 0 0 0 0 0 6.496 0 19.512 0 19.528 0 1.528 1.32 2.208 2.896 2.208h23.688c0.022 0.001 0.048 0.001 0.074 0.001 1.423 0 2.585-1.123 2.646-2.532l0-0.006c0-0.472 0-2.96 0-3.472h0.072c0.005 0 0.010 0 0.016 0 1.432 0 2.594-1.154 2.608-2.583v-0.001q0-2.056 0-4.112zM25.032 7.368c0.728 0 0.912 1.752 0.84 2.4-0.672 0-2.84 0-3.52 0-0.010 0-0.022 0.001-0.034 0.001-0.236 0-0.452-0.088-0.615-0.233l0.001 0.001c-0.8-0.64-1.6-1.384-2.472-2.168zM11.912 3.808c0.4-0.584 0.72-0.632 1.256-0.2 1.992 1.6 4.416 4.272 6.4 5.872l0.28 0.232h-12.16c0.064-0.104 0.104-0.192 0.16-0.272 0.432-0.64 1.032-1.44 1.656-2.304 0.059-0.053 0.107-0.117 0.142-0.188l0.002-0.004c0.824-1.128 1.688-2.296 2.264-3.136zM2.832 7.32h4.92c-0.568 0.8-1.104 1.52-1.52 2.136-0.097 0.166-0.275 0.275-0.478 0.275-0.021 0-0.041-0.001-0.061-0.003l0.002 0c-0.752 0-3.2 0-4.368 0q0-0.448 0-0.896c-0.008-0.054-0.012-0.116-0.012-0.179 0-0.742 0.602-1.344 1.344-1.344 0.061 0 0.12 0.004 0.179 0.012l-0.007-0.001zM28 24c0 0.392 0 2.84 0 3.2 0.002 0.030 0.004 0.065 0.004 0.101 0 0.738-0.598 1.336-1.336 1.336-0.041 0-0.081-0.002-0.121-0.005l0.005 0h-23.68c-0.054 0.007-0.116 0.012-0.179 0.012-0.76 0-1.376-0.616-1.376-1.376 0-0.061 0.004-0.12 0.011-0.179l-0.001 0.007q0-8 0-16.064h25.232c0.040-0.004 0.087-0.007 0.135-0.007 0.725 0 1.312 0.587 1.312 1.312 0 0.048-0.003 0.094-0.007 0.141l0-0.006c0 0.392 0 1.776 0 2.176v0h-4.624c-0.856 0-1.712-0.056-2.56 0-2.482 0.129-4.446 2.173-4.446 4.676 0 2.586 2.096 4.682 4.682 4.682 0.083 0 0.166-0.002 0.247-0.006l-0.011 0h6.712zM30.656 21.256c0.002 0.027 0.003 0.059 0.003 0.091 0 0.729-0.591 1.32-1.32 1.32-0.029 0-0.058-0.001-0.087-0.003l0.004 0c-2.64 0-5.28 0-7.92 0-1.84 0-3.332-1.492-3.332-3.332s1.492-3.332 3.332-3.332v0c1.312 0 2.624 0 3.928 0h3.928c0.040-0.004 0.086-0.007 0.133-0.007 0.738 0 1.336 0.598 1.336 1.336 0 0.042-0.002 0.083-0.006 0.124l0-0.005q0 1.888-0.008 3.792z"></path>
<path d="M21.384 17.328c-0.019-0.001-0.041-0.001-0.064-0.001-1.105 0-2 0.895-2 2s0.895 2 2 2c1.090 0 1.977-0.872 2-1.957l0-0.002c0-0.010 0-0.022 0-0.033 0-1.084-0.859-1.967-1.933-2.007l-0.004-0zM21.296 20c-0.36-0.009-0.648-0.303-0.648-0.664 0-0.367 0.297-0.664 0.664-0.664s0.664 0.297 0.664 0.664c0 0.006-0 0.011-0 0.017l0-0.001c0 0 0 0 0 0.001 0 0.358-0.29 0.648-0.648 0.648-0.011 0-0.022-0-0.034-0.001l0.002 0z"></path>
</svg>
